<?xml version="1.0" encoding="utf-8"?><!DOCTYPE svg PUBLIC "-//W3C//DTD SVG 1.1 Tiny//EN" "http://www.w3.org/Graphics/SVG/1.1/DTD/svg11-tiny.dtd"><svg width="1118" height="1031" viewBox="0 0 1118 1031" xmlns="http://www.w3.org/2000/svg" xmlns:xlink="http://www.w3.org/1999/xlink"><view id="bureau-lampe" viewBox="0 0 763.924 478.778"/><svg baseProfile="tiny" width="763.924" height="478.778" viewBox="0 0 763.924 478.778"><path fill="#BEA182" d="M0 267.703h763.924v25.857H0z"/><path fill="#89664A" d="M16.076 293.56H747.85v12.58H16.076z"/><path fill="#BEA182" d="M32.851 478.778H13.804L37.393 306.14h30.054zM732.652 478.778h19.043L728.108 306.14h-30.052z"/><path fill="#89664A" d="M33.188 478.778h-2.785L61.157 306.14h6.29zM732.317 478.778h2.78L704.348 306.14h-6.292z"/><g><path fill="#519296" d="M53.817 256.592h126.857v11.176H53.817zM63.95 256.592H53.817l60.809-222.2 7.338 10.951z"/><path fill="#519296" d="M197.351 82.896l-59.662 35.321-35.121-106.423L124.585 0z"/><path fill="#28747B" d="M166.513 101.153l-28.824 17.064-35.121-106.423 11.418-6.119zM53.817 262.177h126.857v5.591H53.817z"/></g></svg><view id="cadre" viewBox="854.99 739.635 76.917 67.143"/><svg width="76.917" height="67.143" viewBox="0 0 76.917 67.143" x="854.99" y="739.635"><path fill="#757575" stroke="#000" stroke-width=".5" stroke-miterlimit="10" d="M25.479 14.935L39.521.913M40.767.913l14.499 14.605"/><path fill="#C8B094" d="M0 14.393h76.917v52.75H0z"/><path fill="#806249" d="M2.833 16.976h71.25V64.56H2.833z"/><circle fill="#E22C65" cx="40.147" cy=".913" r=".914"/><path fill="#ADBBD5" d="M3.583 17.685h69.75v46.166H3.583z"/></svg><view id="fenetre" viewBox="0 478.778 417.258 552.062"/><svg baseProfile="tiny" width="417.258" height="552.062" viewBox="0 0 417.258 552.062" y="478.778"><path fill="#9C9289" d="M17.822 0h380.564v530.045H17.822z"/><path fill="#4E4945" d="M44.032 25.161h328.145v135.853H44.032zM44.032 179.275h328.145v150.529H44.032zM44.032 350.162h328.145v154.723H44.032z"/><path fill="#9C9289" d="M0 530.045h417.258v22.017H0z"/><path fill="#4E4945" d="M0 544.722h417.258v7.34H0z"/><g fill="#F5FBFD"><path d="M48.922 29.196h318.365v127.78H48.922zM48.922 183.325h318.365v141.589H48.922zM48.922 353.67h318.365v146.672H48.922z"/></g><path fill="#4E4945" d="M17.822 522.707h380.564v7.339H17.822z"/></svg><view id="horloge" viewBox="763.924 385.65200000000004 338.282 293.983"/><svg width="338.282" height="293.983" viewBox="0 0 338.282 293.983" x="763.924" y="385.65200000000004"><path fill="#ABABAB" d="M250.425 291.819l-36.099-2.024V259.27h36.099zM179.461 291.596l-34.705 2.387v-30.486h36.723zM122.563 292.111l-34.061-3.34-3.163-29.501h37.224z"/><path fill="#FFF" d="M122.563 290.444l-32.231-3.17-2.993-28.004h35.224zM178.041 290.444l-33.287 2.289v-29.236h35.223zM250.427 290.444l-35.224-1.938V259.27h35.224z"/><path fill="#96BE1B" d="M101.956 251.344h6.868v15.146h-6.868z"/><path fill="#F67B43" d="M158.933 255.924h6.869v15.146h-6.869z"/><path fill="#5AC0CB" d="M229.379 251.698h6.868v15.145h-6.868z"/><g><path fill="#6389A7" d="M232.708 65.784c0 34.719-28.148 62.861-62.862 62.861-34.716 0-62.862-28.143-62.862-62.861 0-34.716 28.146-62.862 62.862-62.862 34.714 0 62.862 28.145 62.862 62.862z"/><path fill="#31678D" d="M224.321 65.784c0 30.088-24.393 54.475-54.476 54.475S115.37 95.872 115.37 65.784c0-30.084 24.393-54.475 54.476-54.475s54.475 24.391 54.475 54.475z"/><path fill="#BECCD7" d="M222.749 65.612c0 29.092-23.688 52.682-52.903 52.682-29.214 0-52.902-23.59-52.902-52.682 0-29.101 23.688-52.686 52.902-52.686 29.216 0 52.903 23.585 52.903 52.686z"/><g fill="#F67131"><path d="M170.948 64.233l-13.397-13.062-12.298-11.995 10.973 13.215 12.254 14.712h.001c.345.366.827.596 1.365.596 1.045 0 1.891-.858 1.891-1.916a1.922 1.922 0 0 0-.789-1.55z"/><path d="M189.889 68.044l-8.804-1.846-10.821-2.282-.001.002a1.845 1.845 0 0 0-.417-.05c-1.043 0-1.892.858-1.892 1.916 0 .943.677 1.724 1.563 1.882l-.002.013.173.005c.053.004.104.016.158.016.031 0 .06-.008.091-.009l10.958.305 8.994.048z"/></g><path fill="#15436E" d="M172.95 65.784c0 1.736-1.389 3.146-3.104 3.146-1.712 0-3.105-1.409-3.105-3.146 0-1.736 1.394-3.146 3.105-3.146 1.716 0 3.104 1.41 3.104 3.146z"/><path fill="#E3E3E3" d="M171.528 20.638c0 .565-.458 1.024-1.029 1.024a1.025 1.025 0 0 1-1.024-1.024v-6.684a1.03 1.03 0 0 1 1.024-1.028c.571 0 1.029.463 1.029 1.028v6.684zM170.879 117.261a1.029 1.029 0 0 1-2.057 0v-6.681c0-.568.459-1.026 1.024-1.026.573 0 1.033.458 1.033 1.026v6.681zM117.967 66.808a1.03 1.03 0 0 1 .009-2.057l6.683.009a1.027 1.027 0 1 1-.007 2.055l-6.685-.007zM215.034 67.84a1.03 1.03 0 0 1 .008-2.056l6.684.008c.564 0 1.023.463 1.023 1.032a1.03 1.03 0 0 1-1.033 1.024l-6.682-.008zM148.779 25.884c.28.491.117 1.118-.376 1.405a1.029 1.029 0 0 1-1.405-.377l-3.341-5.787a1.033 1.033 0 0 1 .376-1.405 1.025 1.025 0 0 1 1.405.377l3.341 5.787zM130.851 42.94c.491.283.662.91.377 1.4a1.022 1.022 0 0 1-1.4.376l-5.79-3.337a1.031 1.031 0 0 1-.379-1.405 1.03 1.03 0 0 1 1.41-.375l5.782 3.341z"/><path fill="none" d="M169.846 65.612l-46.322-25.465M169.846 65.612l-25.758-46.031"/><path fill="#E3E3E3" d="M191.064 25.884a1.028 1.028 0 0 0 .376 1.405 1.03 1.03 0 0 0 1.405-.377l3.342-5.787a1.03 1.03 0 1 0-1.786-1.028l-3.337 5.787zM208.988 42.94c-.49.283-.664.91-.376 1.4.286.491.917.664 1.404.376l5.786-3.337a1.027 1.027 0 1 0-1.028-1.78l-5.786 3.341zM148.779 105.458a1.027 1.027 0 1 0-1.781-1.023l-3.341 5.782a1.037 1.037 0 0 0 .376 1.409 1.031 1.031 0 0 0 1.405-.378l3.341-5.79zM130.851 88.407a1.028 1.028 0 1 0-1.023-1.783l-5.79 3.34c-.493.285-.66.916-.379 1.408.286.49.918.658 1.41.377l5.782-3.342zM191.068 105.458a1.028 1.028 0 0 1 1.781-1.023l3.341 5.782a1.04 1.04 0 0 1-.376 1.409 1.037 1.037 0 0 1-1.41-.378l-3.336-5.79zM208.992 88.407a1.028 1.028 0 1 1 1.026-1.783l5.788 3.34c.491.285.659.916.378 1.408-.288.49-.913.658-1.406.377l-5.786-3.342z"/></g><g><path fill="#BEA182" d="M0 210.6h338.282v16.561H0z"/><path fill="#88664A" d="M0 222.319h338.282v4.842H0z"/></g><g><g fill-rule="evenodd" clip-rule="evenodd"><path fill="#A4554A" d="M32.745 209.665c-2.691-.061-5.842-3.584-6.276-7.58-.915-8.402-2.148-16.766-3.294-25.141-.774-5.666-1.365-11.358-2.277-17.009-.421-2.606-.338-2.619 2.635-2.815.635-.65 1.469-.592 2.262-.594 5.072-.008 10.145-.051 15.217.011 8.288-.031 16.576-.022 24.864-.013.923 0 1.88-.159 2.74.356 2.615.76 2.528.747 2.124 3.71-.969 7.094-1.829 14.201-2.769 21.297-.934 7.037-1.856 14.076-2.891 21.099-.535 3.644-3.005 6.249-5.996 6.671-1.46.852-3.099.893-4.7.908-6.092.059-12.187.008-18.279.035-1.238.007-2.311-.367-3.36-.935z"/><path fill="#5AAE5D" d="M41.073 157.088l-17.541.031c-2.917-2.414-5.423-5.211-7.699-8.222-.25-.332-.394-.745-.586-1.12.563-.531 1.168-.293 1.745-.063 5.563 2.225 11.387 1.938 17.162 1.595 2.645-.156 5.181-1.271 7.753-1.991.768-.023 1.344.428 1.917.958.483-3.853-.472-7.281-1.891-10.638-.405-.961-.979-1.25-2.024-1.133-5.812.656-10.947-.902-15.305-4.865-.458-.416-.906-.885-1.627-.703-.437-.621-.271-1.324-.266-2.002.053-7.943.85-15.805 2.815-23.979 3.063 7.489 5.804 14.81 11.235 20.64.665-.575.291-1.294.549-1.849 1.187-.103 1.864.879 2.769 1.354 3.945 2.072 6.942 1.459 9.616-2.083 2.705-3.583 4.076-7.781 5.548-11.938.228-.64.177-1.544 1.205-1.604 1.048 2.318 1.678 4.77 2.302 7.224.946.668.333 1.3-.061 1.915-2.688 4.201-5.439 8.366-7.642 12.858-1.181 2.41-2.007 4.968-3.024 7.446-.945 3.094-1.863 6.193-2.323 9.402-.163 1.131.277 2.078.982 2.927.057.112.136.276.076.342-1.788 1.941-3.144 4.335-5.685 5.498z"/><path fill="#9CC542" d="M56.449 109.477c-1.004 2.569-2.021 5.133-3.007 7.709-1.274 3.332-2.964 6.406-5.845 8.607-2.266 1.73-4.741 1.145-7.069.099-1.159-.521-2.149-1.417-3.217-2.144-.092-5.309.397-10.574 1.187-15.817.871-5.78 1.552-11.595 2.627-17.336 1.099-5.854 1.979-11.759 3.537-17.737.845 3.769.969 7.443 1.834 11.025.954 3.957 2.522 7.632 4.075 11.344 1.981 4.74 4.256 9.36 5.878 14.25z"/><path fill="#BECF36" d="M47.763 138.741c1.314-4.785 3.496-9.178 6.115-13.363 1.602-2.559 3.249-5.086 4.892-7.617.252-.387.051-.71-.021-1.061 1.585-.537 1.715-2.188 2.425-3.34 3.273-5.309 4.839-11.328 6.884-17.149 1.393-3.96 2.813-7.916 4.773-11.709 1.394 8.177 2.46 16.341 1.854 24.634-.909 3.902-2.401 7.588-4.114 11.201-2.878 6.066-6.257 11.788-11.052 16.572-1.695 1.691-3.672 3.023-5.781 4.102-1.794.918-3.846.713-5.688.285-1.576-.367-.769-1.621-.287-2.555z"/><path fill="#5DAF63" d="M74.408 117.403c.836-.037 1.192-.846 1.861-1.153 1.042.287 2.402-.264 3.019 1.146-3.042 5.164-4.345 11.022-6.54 16.607 8.321-5.332 14.596-13.119 22.807-18.873-.609 3.121-1.914 5.85-3.06 8.597-3.077 7.372-6.808 14.415-11.267 21.058-.087.129-.308.168-.464.25-4.428 2.123-9.009 3.467-14.012 3.292-3.861-.134-7.745.169-11.482-1.173-.759-.273-1.598-.337-2.175-.989-.39-1.011.444-1.364 1.049-1.663 3.244-1.609 6.198-3.711 9.395-5.412 3.688-1.963 5.59-5.512 7.247-9.24 1.639-3.684 2.138-7.631 3.143-11.459.096-.364.157-.738.479-.988z"/><path fill="#9CC542" d="M42.205 147.75c-1.572.256-3.031.91-4.58 1.294-5.964 1.475-11.824 1.392-17.789.032-1.567-.357-2.981-1.168-4.589-1.299-4.639-6.539-7.904-13.762-10.76-21.22 4.611 3.032 9.141 5.997 14.07 8.288 1.229.57 2.486 1.085 3.733 1.62.911.393 1.217-.015 1.151-.892.483-.529.609.082.732.291.409.71 1.02 1.043 1.793 1.197 3.174.635 5.939 2.126 8.48 4.078 2.172 1.668 4.598 2.973 6.72 4.709.585.479 1.484.84 1.039 1.902z"/><path fill="#17904C" d="M53.046 145.885c6.988 2.346 14.035 2.701 21.228.916 2.172-.537 4.239-1.226 6.245-2.174.016-.006.161.265.246.406-3.186 4.832-7.079 8.939-12.146 11.846-.422.098-.841.279-1.259.278-8.763-.011-17.524-.042-26.286-.069l5.527-5.625c1.601-2.493 3.698-4.41 6.445-5.578z"/><path fill="#82B749" d="M53.046 145.885c-2.147 1.859-4.295 3.719-6.445 5.578-1.084-.406-1.47-1.223-1.446-2.338.034-1.672.309-3.267.908-4.855.494-1.311.671-2.748.931-4.139.107-.573.195-1.102.77-1.391-.522 2.257-.514 2.135 1.795 2.307 5.307.392 8.422-3.142 11.498-6.491 3.737-4.069 6.336-8.926 8.812-13.854 1.884-3.752 2.911-7.838 4.817-11.566.181 2.766.139 5.522-.276 8.268-.631 2.725-.888 5.501-1.681 8.229-.85 2.92-1.943 5.682-3.443 8.253-1.56 2.675-3.646 4.802-6.628 6.209-3.367 1.586-6.423 3.831-9.612 5.79z"/><path fill="#168F4B" d="M42.205 147.75c-1.04-1.778-2.87-2.601-4.487-3.662-3.018-1.979-5.688-4.51-9.167-5.768-.813-.293-1.567-.695-2.472-.723-1.329-.041-2.281-.668-2.637-2.023-.684-1.492-.303-3.092-.465-4.637.164-.479-.016-1.476.988-.516 1.791 1.71 3.771 3.142 6.049 4.188 3.087 1.418 6.326 1.849 9.617 1.408 1.545-.209 2.17-.147 2.832 1.51 1.611 4.033 2.295 6.996 1.872 11.375-1.092.323-1.131-1.312-2.13-1.152z"/><path fill="#88BE88" d="M79.288 117.395c-.819-.875-2.369.175-3.019-1.146 2.358-1.735 4.716-3.47 7.076-5.204l.274.325c-1.443 2.008-2.886 4.017-4.331 6.025z"/></g><path fill="#C89992" d="M27.157 160.35c-1.04 1.832-.282 7.926.002 9.995.325 2.368 1.294 9.448 1.7 10.339.552 1.21 1.853 7.965 2.083 9.5.25 1.666 1.851 7 1.851 7s1.94 3 2.648-.459c.433-2.113.071-11.006-.541-13.916s-1.116-6.027-1.292-8.209c-.173-2.15-1.167-6.539-1.167-7.833 0-1.313-.047-3.884-.166-5.5-.118-1.616-2.535-1.833-3.25-1.833s-1.868.916-1.868.916z"/><path fill-rule="evenodd" clip-rule="evenodd" fill="#522B25" d="M27.862 206.098s1.329 3.336 7.004 4.377c1.833.336 18.721.5 21.992 0 5.708-.875 7.175-4.377 7.175-4.377H27.862z"/></g></svg><view id="lampe" viewBox="931.907 739.635 34.227 63.854"/><svg width="34.227" height="63.854" viewBox="0 0 34.227 63.854" x="931.907" y="739.635"><path fill="#4E9296" d="M0 61.188h30.25v2.666H0zM2.417 61.188H0L14.5 8.201l1.75 2.612z"/><path fill="#4E9296" d="M34.227 19.768L20 28.191 11.625 2.813 16.875 0z"/><path fill="#26747C" d="M26.873 24.121L20 28.191 11.625 2.813l2.723-1.459zM0 62.52h30.25v1.334H0z"/></svg><view id="mini-plante" viewBox="763.924 739.635 91.066 137.934"/><svg width="91.066" height="137.934" viewBox="0 0 91.066 137.934" x="763.924" y="739.635"><g fill-rule="evenodd" clip-rule="evenodd"><path fill="#A4554A" d="M28.258 136.807c-2.691-.061-5.842-3.584-6.277-7.58-.914-8.402-2.148-16.766-3.293-25.141-.775-5.666-1.365-11.358-2.277-17.009-.422-2.606-.338-2.619 2.635-2.815.635-.65 1.469-.592 2.262-.594 5.072-.008 10.145-.051 15.217.011 8.287-.031 16.576-.022 24.863-.013.924 0 1.881-.159 2.74.356 2.615.76 2.529.747 2.125 3.71-.969 7.094-1.83 14.201-2.77 21.297-.934 7.037-1.855 14.076-2.891 21.099-.535 3.644-3.004 6.249-5.996 6.671-1.459.852-3.098.893-4.699.908-6.092.059-12.188.008-18.279.035-1.239.007-2.311-.367-3.36-.935z"/><path fill="#5AAE5D" d="M36.586 84.23l-17.541.031c-2.918-2.414-5.424-5.211-7.699-8.222-.25-.332-.395-.745-.586-1.12.563-.531 1.168-.293 1.744-.063 5.563 2.225 11.387 1.938 17.162 1.595 2.645-.156 5.182-1.271 7.754-1.991.768-.023 1.344.428 1.916.958.484-3.853-.471-7.281-1.891-10.638-.404-.961-.979-1.25-2.023-1.133-5.813.656-10.947-.902-15.305-4.865-.459-.416-.906-.885-1.627-.703-.438-.621-.271-1.324-.266-2.002.053-7.943.85-15.805 2.814-23.979 3.064 7.489 5.805 14.81 11.236 20.64.664-.575.291-1.294.549-1.849 1.186-.103 1.863.879 2.768 1.354 3.945 2.072 6.943 1.459 9.617-2.083 2.705-3.583 4.076-7.781 5.547-11.938.229-.64.178-1.544 1.205-1.604 1.049 2.318 1.678 4.77 2.303 7.224.945.668.332 1.3-.061 1.915-2.689 4.201-5.439 8.366-7.643 12.858-1.18 2.41-2.006 4.968-3.023 7.446-.945 3.094-1.863 6.193-2.324 9.402-.162 1.131.277 2.078.982 2.927.057.112.137.276.076.342-1.788 1.941-3.143 4.335-5.684 5.498z"/><path fill="#9CC542" d="M51.961 36.619c-1.004 2.569-2.02 5.133-3.006 7.709-1.275 3.332-2.965 6.406-5.846 8.607-2.266 1.73-4.74 1.145-7.068.099-1.16-.521-2.15-1.417-3.217-2.144-.092-5.309.396-10.574 1.186-15.817.871-5.78 1.553-11.595 2.627-17.336 1.1-5.854 1.98-11.759 3.537-17.737.846 3.769.969 7.443 1.834 11.025.955 3.957 2.523 7.632 4.076 11.344 1.98 4.74 4.256 9.36 5.877 14.25z"/><path fill="#BECF36" d="M43.275 65.883c1.314-4.785 3.496-9.178 6.115-13.363 1.602-2.559 3.248-5.086 4.891-7.617.252-.387.051-.71-.02-1.061 1.584-.537 1.715-2.188 2.424-3.34 3.273-5.309 4.84-11.328 6.885-17.149 1.393-3.96 2.813-7.916 4.773-11.709 1.393 8.177 2.459 16.341 1.854 24.634-.91 3.902-2.402 7.588-4.115 11.201-2.877 6.066-6.256 11.788-11.051 16.572-1.695 1.691-3.672 3.023-5.781 4.102-1.795.918-3.846.713-5.689.285-1.575-.367-.768-1.621-.286-2.555z"/><path fill="#5DAF63" d="M69.92 44.545c.836-.037 1.193-.846 1.861-1.153 1.043.287 2.402-.264 3.02 1.146-3.043 5.164-4.346 11.022-6.541 16.607 8.322-5.332 14.596-13.119 22.807-18.873-.609 3.121-1.914 5.85-3.059 8.597-3.078 7.371-6.809 14.414-11.268 21.057-.086.129-.307.168-.463.25-4.428 2.123-9.01 3.467-14.012 3.292-3.861-.134-7.746.169-11.482-1.173-.76-.273-1.598-.337-2.176-.989-.389-1.011.445-1.364 1.049-1.663 3.244-1.609 6.199-3.711 9.395-5.412 3.689-1.963 5.59-5.512 7.248-9.24 1.639-3.684 2.137-7.631 3.143-11.459.095-.363.156-.737.478-.987z"/><path fill="#9CC542" d="M37.717 74.893c-1.572.256-3.031.91-4.58 1.294-5.963 1.475-11.824 1.392-17.789.032-1.566-.357-2.98-1.168-4.588-1.299C6.121 68.381 2.855 61.158 0 53.7c4.611 3.032 9.141 5.997 14.07 8.288 1.229.57 2.486 1.085 3.732 1.62.912.393 1.217-.015 1.152-.892.482-.529.609.082.732.291.408.71 1.02 1.043 1.793 1.197 3.174.635 5.939 2.126 8.48 4.078 2.172 1.668 4.598 2.973 6.719 4.709.586.478 1.484.839 1.039 1.902z"/><path fill="#17904C" d="M48.559 73.027c6.988 2.346 14.035 2.701 21.227.916 2.172-.537 4.24-1.226 6.246-2.174.016-.006.16.265.246.406-3.186 4.832-7.08 8.939-12.146 11.846-.422.098-.842.279-1.26.278-8.762-.011-17.523-.042-26.285-.069l5.527-5.625c1.601-2.493 3.697-4.41 6.445-5.578z"/><path fill="#82B749" d="M48.559 73.027c-2.148 1.859-4.295 3.719-6.445 5.578-1.084-.406-1.471-1.223-1.447-2.338.035-1.672.309-3.267.908-4.855.494-1.311.672-2.748.932-4.139.107-.573.195-1.102.77-1.391-.523 2.257-.514 2.135 1.795 2.307 5.307.392 8.422-3.142 11.498-6.491 3.736-4.069 6.336-8.926 8.811-13.854 1.885-3.752 2.912-7.838 4.818-11.566.18 2.766.139 5.522-.277 8.268-.631 2.725-.887 5.501-1.68 8.229-.85 2.92-1.943 5.682-3.443 8.253-1.561 2.675-3.646 4.802-6.629 6.209-3.367 1.586-6.422 3.831-9.611 5.79z"/><path fill="#168F4B" d="M37.717 74.893c-1.039-1.778-2.869-2.601-4.486-3.662-3.018-1.979-5.688-4.51-9.168-5.768-.813-.293-1.566-.695-2.471-.723-1.33-.041-2.281-.668-2.637-2.023-.684-1.492-.303-3.092-.465-4.637.164-.479-.016-1.476.988-.516 1.791 1.71 3.771 3.142 6.049 4.188 3.086 1.418 6.326 1.849 9.617 1.408 1.545-.209 2.17-.147 2.832 1.51 1.611 4.033 2.295 6.996 1.871 11.375-1.091.322-1.13-1.313-2.13-1.152z"/><path fill="#88BE88" d="M74.801 44.537c-.82-.875-2.369.175-3.02-1.146l7.076-5.204.275.325c-1.444 2.009-2.886 4.017-4.331 6.025z"/></g><path fill="#C89992" d="M22.67 87.492c-1.041 1.832-.283 7.926.002 9.995.324 2.368 1.293 9.448 1.699 10.339.553 1.21 1.854 7.965 2.084 9.5.25 1.666 1.85 7 1.85 7s1.941 3 2.648-.459c.434-2.113.072-11.006-.541-13.916-.611-2.91-1.115-6.027-1.291-8.209-.174-2.15-1.168-6.539-1.168-7.833 0-1.313-.047-3.884-.166-5.5-.117-1.616-2.535-1.833-3.25-1.833s-1.867.916-1.867.916z"/><path fill-rule="evenodd" clip-rule="evenodd" fill="#522B25" d="M23.375 133.24s1.328 3.336 7.004 4.377c1.832.336 18.721.5 21.992 0 5.707-.875 7.174-4.377 7.174-4.377h-36.17z"/></svg><view id="pc" viewBox="763.924 146.484 343.048 239.168"/><svg width="343.048" height="239.168" viewBox="0 0 343.048 239.168" x="763.924" y="146.484"><path fill="#666" d="M7.605 0H335.44c4.263 0 7.607 3.053 7.607 6.793v193.756c0 3.744-3.345 6.794-7.607 6.794H7.605c-4.184 0-7.605-3.05-7.605-6.794V6.793C0 3.053 3.422 0 7.605 0z"/><path fill="#999" d="M15.55 6.133h312.013c4.055 0 7.236 2.875 7.236 6.391v182.294c0 3.525-3.182 6.396-7.236 6.396H15.55c-3.979 0-7.238-2.87-7.238-6.396V12.524c0-3.516 3.258-6.391 7.238-6.391z"/><path fill="#BABABA" d="M207.213 234.8h-71.832l3.85-27.457h64.827z"/><path fill="#666" d="M108.234 233.946h126.305v5.223H108.234z"/><path fill="#FDFDFD" d="M20.531 10.499H322.58c3.925 0 7.007 2.748 7.007 6.107v174.13c0 3.367-3.082 6.106-7.007 6.106H20.531c-3.854 0-7.009-2.739-7.009-6.106V16.606c0-3.359 3.155-6.107 7.009-6.107z"/><path fill="#565656" d="M204.542 211.711h-65.877l.566-4.368h64.827z"/><path fill="#4D4D4D" d="M70.524 10.499H20.273c-3.854 0-7.009 2.748-7.009 6.107v174.13c0 3.367 3.154 6.106 7.009 6.106h50.251V10.499z"/><linearGradient id="ga" gradientUnits="userSpaceOnUse" x1="44.471" y1="110.61" x2="44.471" y2="90.824"><stop offset="0" stop-color="#f1bb0f"/><stop offset=".533" stop-color="#eeb90f"/><stop offset=".725" stop-color="#e5b10f"/><stop offset=".862" stop-color="#d4a30f"/><stop offset=".972" stop-color="#be9210"/><stop offset="1" stop-color="#b78c10"/></linearGradient><path fill="url(#ga)" d="M70.979 110.61H13.736V90.824h57.243l4.227 9.893z"/><linearGradient id="gb" gradientUnits="userSpaceOnUse" x1="44.471" y1="50.542" x2="44.471" y2="30.755"><stop offset="0" stop-color="#31afbe"/><stop offset=".526" stop-color="#30aebc"/><stop offset=".716" stop-color="#2faab6"/><stop offset=".851" stop-color="#2ca4ac"/><stop offset=".959" stop-color="#289b9e"/><stop offset="1" stop-color="#259697"/></linearGradient><path fill="url(#gb)" d="M70.979 50.542H13.736V30.755h57.243l4.227 9.894z"/><linearGradient id="gc" gradientUnits="userSpaceOnUse" x1="44.471" y1="70.565" x2="44.471" y2="50.779"><stop offset="0" stop-color="#ee3443"/><stop offset=".53" stop-color="#eb3442"/><stop offset=".721" stop-color="#e2313f"/><stop offset=".857" stop-color="#d22d3b"/><stop offset=".966" stop-color="#bc2735"/><stop offset="1" stop-color="#b42532"/></linearGradient><path fill="url(#gc)" d="M70.979 70.565H13.736V50.779h57.243l4.227 9.893z"/><linearGradient id="gd" gradientUnits="userSpaceOnUse" x1="44.471" y1="90.588" x2="44.471" y2="70.8"><stop offset="0" stop-color="#96be1b"/><stop offset=".56" stop-color="#94bb1b"/><stop offset=".762" stop-color="#8cb11b"/><stop offset=".906" stop-color="#7fa11b"/><stop offset="1" stop-color="#71901b"/></linearGradient><path fill="url(#gd)" d="M70.979 90.588H13.736V70.8h57.243l4.227 9.894z"/><linearGradient id="ge" gradientUnits="userSpaceOnUse" x1="44.471" y1="130.633" x2="44.471" y2="110.847"><stop offset="0" stop-color="#9c6399"/><stop offset=".564" stop-color="#9a6196"/><stop offset=".767" stop-color="#915c8e"/><stop offset=".911" stop-color="#835380"/><stop offset="1" stop-color="#754a73"/></linearGradient><path fill="url(#ge)" d="M70.979 130.633H13.736v-19.787h57.243l4.227 9.893z"/><linearGradient id="gf" gradientUnits="userSpaceOnUse" x1="44.471" y1="150.655" x2="44.471" y2="130.869"><stop offset="0" stop-color="#f67b43"/><stop offset=".496" stop-color="#f47a41"/><stop offset=".675" stop-color="#ee763c"/><stop offset=".802" stop-color="#e36f33"/><stop offset=".904" stop-color="#d46626"/><stop offset=".991" stop-color="#c15a18"/><stop offset="1" stop-color="#bf5916"/></linearGradient><path fill="url(#gf)" d="M70.979 150.655H13.736v-19.786h57.243l4.227 9.893z"/><path fill="#FFF" d="M24.701 135.377c-3.547 0-6.424 2.057-6.424 4.593 0 1.399.877 2.651 2.258 3.494-.023.301-.086.72-.242 1.098-.282.687-.9 1.229-.978 1.252-.075.022-.159.245 0 .313.161.068 1.129-.056 1.772-.313 1.236-.496 2.055-1.243 2.142-1.373v-.001c.474.08.967.122 1.472.122 3.549 0 6.426-2.056 6.426-4.592s-2.877-4.593-6.426-4.593zm-2.759 3.653a.94.94 0 1 1-.002 1.88.94.94 0 0 1 .002-1.88zm2.748 1.879a.94.94 0 0 1 0-1.878.938.938 0 1 1 0 1.878zm2.748 0a.938.938 0 1 1 0-1.876.938.938 0 0 1 0 1.876z"/><g fill="#FFF"><path d="M21.202 41.052c.255-.244.903-.727 1.866-.878.775-.122 6.898 0 6.898 0v-.987a1.962 1.962 0 0 0-1.961-1.962h-3.914v-.595c0-.726-.589-1.314-1.314-1.314h-3.186c-.726 0-1.314.589-1.314 1.314v7.82s2.215-2.718 2.925-3.398z"/><path d="M32.496 41.585a.463.463 0 0 0-.463-.463h-8.347s-.423-.03-.953.143c-.424.137-.66.313-.812.448-.135.121-.278.276-.278.276l-2.711 3.187a.507.507 0 0 0-.036.045l-.007.006h.001a.462.462 0 0 0 .374.734h8.038c.042.007.526.08 1.103-.084.481-.137.745-.313.916-.449.154-.121.326-.324.326-.324l2.742-3.224h.001l.012-.013-.001-.001a.464.464 0 0 0 .095-.281z"/></g><g fill="#FFF"><path d="M31.953 86.991c-.078-.023-.705-.573-.991-1.27a3.748 3.748 0 0 1-.245-1.113c1.4-.855 2.289-2.125 2.289-3.545 0-1.575-1.094-2.968-2.769-3.811.302.594.467 1.235.467 1.904 0 .666-.164 1.305-.463 1.896 0 .004.002.008 0 .011-.163.376-.369.619-.576.876-1.349 1.668-3.87 2.792-6.76 2.792-.151 0-.302-.003-.451-.009 1.11.626 2.512 1 4.035 1 .515 0 1.014-.042 1.493-.124.088.132.919.89 2.174 1.393.651.262 1.634.387 1.797.317.162-.07.077-.294 0-.317z"/><path d="M29.433 78.72c0-2.573-2.918-4.658-6.517-4.658-3.601 0-6.518 2.085-6.518 4.658 0 1.419.889 2.69 2.289 3.544a3.71 3.71 0 0 1-.245 1.114c-.285.697-.913 1.247-.99 1.271-.078.023-.163.248 0 .317.162.069 1.146-.057 1.796-.317 1.255-.504 2.086-1.261 2.174-1.393.479.08.979.123 1.494.123 3.599-.001 6.517-2.087 6.517-4.659z"/></g><g fill="#FFF"><path d="M24.015 61.128v-5.112a5.112 5.112 0 1 0 3.614 8.726l-3.614-3.614z"/><path d="M25.433 61.17l3.572 3.572a5.096 5.096 0 0 0 1.496-3.572h-5.068zM24.954 55.104v5.111h5.112a5.112 5.112 0 0 0-5.112-5.111z"/></g><path fill-rule="evenodd" clip-rule="evenodd" fill="#FAFAFA" d="M28.452 98.327c-.404-.003-.81 0-1.25 0a3.609 3.609 0 0 0 .349-1.787c-.049-1.05-.56-1.73-1.513-1.96-.909-.219-1.45.081-1.739.969-.039.12-.081.243-.097.367-.091.745-.424 1.355-.945 1.894-.369.38-.656.836-1.017 1.229-.151.164-.308.259-.552.25-.579-.023-1.161-.013-1.74-.006-.545.006-.927.374-.962.915-.008.095-.004.191-.004.286-.002 1.47-.002 2.939 0 4.409.001.687.377 1.062 1.058 1.063.327.001.654.021.978-.004.824-.064 1.605.091 2.369.392 1.231.485 2.515.627 3.83.567 1.364-.062 2.201-.95 2.189-2.116-.001-.121.069-.208.13-.3.252-.386.339-.818.323-1.269a.789.789 0 0 1 .069-.387c.178-.368.234-.76.171-1.157a.694.694 0 0 1 .082-.468c.706-1.347-.21-2.875-1.729-2.887zm-8.034 6.675a.49.49 0 0 1-.48-.486.493.493 0 0 1 .474-.468.488.488 0 0 1 .468.473.49.49 0 0 1-.462.481zm8.727-3.928c-.056.052-.13.086-.211.139.343.558.321 1.022-.079 1.539-.058.074-.059.129-.028.211.175.491.07.92-.313 1.272-.074.067-.073.131-.066.209.017.207.026.414-.018.616-.122.557-.538.843-1.22.893-1.349.099-2.635-.156-3.891-.63-.437-.165-.877-.334-1.356-.318-.115.004-.127-.054-.126-.146.001-1.493.001-2.987-.002-4.481 0-.114.034-.157.149-.147.257.022.456-.104.645-.258.34-.279.62-.613.886-.96.313-.41.63-.817.978-1.2.358-.394.447-.9.568-1.391.065-.261.1-.529.225-.773.069-.135.153-.194.315-.183.558.042.833.272.951.82.115.531.04 1.038-.179 1.531-.163.369-.344.731-.434 1.129-.075.333-.076.333.249.333.755 0 1.51-.002 2.265 0 .448.001.813.249.96.645.122.328-.011.916-.268 1.15zM30.86 119.925c.001-.231-.114-.34-.339-.366-.254-.03-.506-.092-.76-.105-.407-.021-.725-.134-.792-.597-.007-.048-.039-.094-.066-.137-.067-.106-.054-.193.027-.294.231-.285.453-.579.676-.871.063-.081.126-.163.123-.274.007-.102-.045-.178-.105-.253-.372-.46-.809-.858-1.239-1.261-.138-.128-.286-.135-.439-.017-.203.157-.429.29-.609.468-.321.32-.646.404-1.051.154-.12-.074-.197-.13-.215-.275-.049-.39-.113-.777-.167-1.167-.032-.241-.146-.36-.405-.355-.538.011-1.078.009-1.616.001-.218-.003-.34.092-.377.299-.049.268-.131.539-.126.808.011.472-.196.726-.641.846-.143.039-.231.038-.343-.053-.271-.221-.552-.432-.828-.646-.28-.216-.348-.223-.626 0-.44.355-.828.764-1.191 1.198-.143.171-.152.329 0 .501.162.187.3.397.47.576.267.283.413.569.138.927a.294.294 0 0 0-.044.12c-.028.141-.119.184-.255.201-.389.048-.776.115-1.166.166-.232.03-.351.143-.349.386.005.548.003 1.095.001 1.643-.001.229.109.343.334.37.28.033.558.097.838.111.363.02.636.123.694.531a.48.48 0 0 0 .084.186c.078.117.063.207-.028.315-.232.284-.449.581-.678.869-.152.19-.146.364.011.552.378.444.803.84 1.232 1.23.144.131.286.127.438.01.201-.158.429-.289.607-.469.314-.313.627-.398 1.027-.156.141.084.217.156.236.315.046.382.109.761.161 1.142.033.244.16.352.413.347a38.357 38.357 0 0 1 1.591 0c.245.005.362-.108.4-.333.043-.262.129-.524.12-.783-.018-.48.212-.718.647-.839.132-.036.216-.044.321.044.277.227.571.436.843.67.215.186.402.176.611.001a9.366 9.366 0 0 0 1.224-1.239c.129-.156.124-.307-.002-.461-.149-.187-.284-.388-.451-.558-.302-.306-.447-.62-.157-1.011a.133.133 0 0 0 .021-.047c.026-.166.134-.207.288-.226.39-.047.777-.117 1.166-.171.229-.031.323-.159.322-.383-.001-.545-.001-1.092.001-1.64zm-5.967 2.861c-1.079.097-2.108-.742-2.225-1.756a2.088 2.088 0 0 1 1.871-2.341c1.147-.098 2.193.849 2.203 1.938.093 1.07-.756 2.061-1.849 2.159z"/><g fill-rule="evenodd" clip-rule="evenodd" fill="#FAFAFA"><path d="M62.279 180.84c.09.027.181.049.267.084.49.197.782.564.802 1.088.028.732.009 1.466.009 2.198 0 .006-.006.011-.015.024-.219-.189-.431-.385-.655-.563a.399.399 0 0 1-.166-.365c.013-.38.005-.761.004-1.141 0-.333-.161-.494-.491-.495h-5.676c-.333 0-.494.16-.494.491v8.181c0 .331.161.49.495.49h5.665c.34 0 .501-.159.501-.496v-1.269c0-.054.004-.099.052-.139.247-.21.491-.424.736-.636.01-.009.021-.015.045-.032v2.06c0 .713-.368 1.17-1.065 1.326-.005.001-.008.01-.013.016h-6.193a1.096 1.096 0 0 1-.579-.229 1.285 1.285 0 0 1-.51-.979v-.084-8.238c0-.493.206-.875.623-1.142.143-.091.302-.13.466-.151l6.192.001z"/><path d="M59.146 185.004c.402 0 .804-.002 1.205.002.076.001.092-.021.091-.094a37.466 37.466 0 0 1 0-.887c0-.085.007-.17.021-.253.019-.106.074-.19.181-.229a.265.265 0 0 1 .282.058c.994.865 1.99 1.727 2.986 2.587.071.062.047.083-.007.13-.983.85-1.966 1.701-2.944 2.555-.097.084-.191.116-.307.075-.123-.044-.175-.146-.195-.267-.031-.182-.015-.365-.017-.549-.003-.18-.006-.359.001-.538.003-.081-.022-.097-.1-.097-.774.003-1.549.002-2.324.002-.334 0-.493-.159-.493-.492v-1.521c.001-.319.163-.482.48-.483l1.14.001z"/></g></svg><view id="plante" viewBox="417.258 478.778 301.06 382.935"/><svg width="301.06" height="382.935" viewBox="0 0 301.06 382.935" x="417.258" y="478.778"><g fill-rule="evenodd" clip-rule="evenodd"><path fill="#77B765" d="M77.268 86.161c4.302.533 8.619.327 12.977 1.112 4.377.793 7.343 4.177 12.018 4.677-9.888-9.834-18.426-20.266-19.663-35.777 14.866 7.313 19.743 20.327 23.52 34.45-.06-9.824 2.457-18.4 8.211-26.772 3.694 6.789 4.847 13.577 3.82 20.563-.779 5.293-1.788 10.611-5.105 15.238-2.625 3.669 1.428 6.015 2.673 9.085 2.562-8.909 3.325-18.464 10.587-25.592 3.42 4.659 2.74 9.811 3.008 14.769.095 1.676-.619 3.697 1.418 4.69 1.331.649 3.394 2.595 4 1.443 1.422-2.687 5.615-4.275 3.863-8.389 3.505.014 4.004 2.772 4.803 5.26-.198 3.708 1.701 7.069 1.796 10.734.657 8.033-1.934 15.377-4.786 22.668-.757 2.213-1.865 4.25-3.129 6.207-3.797 4.035-4.871 8.404-1.469 13.178 1.314-4.05 1.144-8.568 2.385-12.807a23.78 23.78 0 0 0 3.277-4.904c2.088-3.654 4.108-7.352 7.331-10.185 3.196-2.814 4.598-2.499 5.929 1.585 1.728 5.287.963 10.764.94 16.174-.004 1.054.143 2.098.159 3.144-3.119 3.429-1.43 7.39-1.211 11.188-1.074.811-2.587-.836-3.764 1.365-2.423 4.539-5.784 8.556-8.542 12.93-.31 1.76.396 3.355.868 4.967.258.895.446 2.314 1.74 1.987 1.027-.263.885-1.706 1.268-2.624 2.113-6.278 4.627-12.354 8.799-17.6 2.054-1.289 3.266-2.98 3.42-5.556.096-1.493-.563-3.776 2.175-3.989 6.9 7.986 5.757 17.409 3.745 26.406-1.412 6.324-3.518 12.426-3.213 19.022.078 1.567-.094 3.208-1.246 4.45-.91.988-1.955 1.637-2.844-.088-.159-3.229.231-6.422.885-8.888-.009 1.321-1.323 2.661-2.463 4.096-2.753 3.604-6.938 6.126-5.778 12.11.679 3.496-2.045 1.773-3.565.563-.336 3.919 1.133 7.123 3.729 9.925.955 1.025 1.969 2.06 2.238 3.506.268 1.407.435 3.051-1.056 3.746-1.354.637-2.098-.83-2.927-1.678-3.514-3.585-5.405-8.057-6.922-12.729-.158-.312-.305-.629-.373-.969-1.452-7.318-1.547-7.379-8.087-5.083-1.546-1.987-1.211-5.448-4.657-5.964-8.395-4.197-15.231-10.054-19.622-18.479-1.177-2.256-3.476-4.568-1.921-7.188 1.658-2.793 4.701-1.271 7.205-1.177 2.501 1.497 5.213 2.076 8.117 1.84 4.679 3.337 9.605 6.361 13.512 10.748-1.938-3.055.297-7.912-3.477-9.783-2.946-1.463-6.581-2.008-10.07-.988-1.676-2.212-3.313-4.468-6.049-5.523-4.107-1.486-6.857-5.332-11.473-6.15-2.552-.453-8.086-12.457-7.355-14.979.49-1.716 1.324-3.294 3.531-3.243 2.137 4.523 4.443-.416 6.652.111 2.17 2.693 5.585 3.205 8.398 4.76 1.784.984 3.894 1.463 4.895 3.518 1.229.965 3.081.67 4.172 2.208-1.229-3.388-1.229-3.388-4.069-2.077-1.064-2.533-2.896-4.025-5.576-4.855a23.739 23.739 0 0 1-8.107-4.359c-1.892-.854-3.847-1.531-5.797-2.253-3.137-3.18-7.153-5.433-9.692-9.3.473 1.517 1.092 3.302-.68 4.006-1.624.648-2.947-.391-3.304-2.26-.446-6.902-.829-13.807-.962-20.722-.039-2.075-1.805-3.347-2.119-5.249a1.642 1.642 0 0 1 .474-1.353c2.612-.855 2.088-5.019 5.405-5.126 1.271 2.432 2.908 4.136 6.022 3.893 2.918-.229 5.264 1.458 7.657 2.849 1.839.543 3.283 1.889 5.087 2.55-.94-4.374-.94-4.374-5.323-3.783-4.335-2.344-9.487-2.724-13.604-5.607a49.906 49.906 0 0 1-4.068-1.223c-.671 2.252 1.01 5.06-1.667 6.711-1.977-.818-1.934-2.75-2.294-4.374-.791-3.603-1.891-6.965-4.599-9.712-1.422-1.446-2.973-3.345-.081-5.075zM189.198 108.237c4.572-2.711 6.162-7.132 6.386-12.849 3.278 2.417 4.201 7.506 8.979 5.257.206.621.714 1.317.577 1.847-1.126 4.346 1.198 7.67 2.856 11.356 3.003 6.685 5.607 13.568 6.784 20.875.224 1.381.73 2.324 2.299 2.309.155-.293.331-.574.451-.878 2.965-7.192 1.268-12.896-3.102-19.618-7.962-12.234-10.656-26.14-6.23-40.749.963-3.169 2.199-8.116 4.228-8.228 2.966-.167 4.057 4.43 5.217 7.383 3.669 9.337 6.59 18.866 6.694 29.049.018 1.457-.34 3.287 1.941 4.193 1.242-2.307 2.639-4.591 3.721-7.016.937-2.11.637-3.91-.61-6.269-7.674-14.546-7.505-28.649 3.901-42.231 6.016 9.936 4.434 21 4.795 31.561 2.161.136 2.028-1.334 2.617-2.041 2.783-3.333 4.138-6.363 2.581-11.429-4.111-13.381.778-24.701 10.631-34.102.73-.695 1.817-1.658 2.587-1.538 1.469.231 1.262 1.862 1.392 3.035.89 8.024-.954 15.693-3.068 23.324-.266.965-1.129 1.856.409 4.125 9.327-18.821 24.735-28.94 45.827-33.539-12.268 15.63-27.605 25.433-42.961 35.324 6.84-.396 12.82-3.745 19.573-3.418 3.37.166 6.669.389 9.822 1.568 1.023.383 2.768-.121 2.842 1.689.055 1.275-1.242 1.579-2.094 2.109-11.402 7.149-23.527 11.683-37.285 9.884-1.427-.185-2.432-.04-3.176 1.109-1.68 2.593-3.303 5.222-5.684 9.001 4.412-1.77 7.506-3.038 10.621-4.255 6.634-2.595 13.345-2.488 20.193-.825 2.818.686 2.75 1.833.98 3.442-9.44 8.546-20.641 13.463-33.256 13.657-4.383.066-6.105 1.153-6.893 4.739-.442 2.006-2.035 3.714-1.438 6.725 11.69-8.723 24.435-11.064 38.63-7.18-5.576 8.408-12.979 14.505-22.105 18.359-6.441 2.72-13.118 4.992-20.336 4.322-1.813-.168-2.389.99-2.938 2.393-1.22 3.137-1.581 6.41-1.855 10.383 5.323-2.684 9.345-6.851 14.813-8.646 5.676-1.863 11.339-2.197 17.152-1.742 2.467.193 4.499 1.18 2.698 3.979-4.752 7.381-10.037 14.299-18.535 17.815-1.435-1.768-.301-3.27.489-4.816.863-1.676 1.978-3.273 1.822-5.663-5.561 2.836-8.963 7.27-11.412 12.578-.443.952-.645 2.014-1.108 2.953-.825 1.666-1.354 4.229-3.695 3.746-2.526-.522-1.873-3.021-1.529-4.861.713-3.783-.211-7.217-1.95-11.272-3.721 5.899-4.4 11.457-1.942 17.35 1.019 2.453 2.152 4.874 1.058 7.573-.723 1.771-2.137 2.989-4.065 2.713-1.968-.282-1.319-2.098-1.401-3.421-.317-5.333-1.576-10.346-5.1-14.557-3.261-2.397-5.4-5.696-7.359-9.144-1.393-3.748-3.421-7.1-6.277-9.926-.107-3.086-.934-5.963-2.549-8.604a7.798 7.798 0 0 1-.386-1.491c-1.074-6.765-1.074-6.765-7.545-5.657-2.14-.087-3.751-.866-3.79-3.284-.042-2.466 1.504-3.661 3.699-4.308 2.075-.611 5.069-.778 2.409-4.168z"/><path fill="#3E9B46" d="M189.198 108.237c.98.554 2.914-1.626 3.133 1.04.146 1.792-.043 3.566-2.188 4.11-.983.25-2.054.155-3.084.223-1.788.119-2.893.965-3.004 2.855-.142 2.313 1.529 2.31 3.107 2.425.554 2.296-1.35 3.415-2.424 4.886-4.203 5.746-8.766 11.232-11.679 17.852-.962 2.179-1.22 3.912.542 5.65.146 1-.327 1.841-1.151 2.143-4.903 1.781-4.194 5.176-2.578 9.316 4.104-4.088 6.711-9.135 10.931-12.733 1.83-1.562 3.265-3.77 6.118-3.622 3.97 2.246 2.596 6.159 2.981 9.521-7.227 6.524-12.641 14.385-16.864 23.113-1.155 2.393-2.251 4.771-1.447 7.532-1.255 2.567-2.467 5.147-2.44 8.101-.435 1.975-1.806 3.335-3.025 4.841-3.566 4.417-7.252 8.784-8.524 14.224.138-.118.532-.506 1.015-.691 2.019-.77 4.278-3.334 6.135-1.316 2.148 2.336-.098 4.857-1.572 7.009-.594.866-1.349 1.608-2.148 2.298-.704.049.164 1.105-.111.459-.057-.135.068-.15.326-.226 3.756-1.112 4.065 1.083 3.107 3.636-.641 1.713-1.995 3.204-3.211 4.651 7.679-8.966 8.869-20.481 12.178-31.167 2.801-3.965 4.889-8.546 9.383-11.074 2.415-.809 4.13-.406 4.461 2.52.154 1.352 1.167 2.018 2.285 1.58 1.684 3.334 1.667 6.064-2.54 7.387-1.576.495-2.72 1.611-3.601 2.941-4.747 7.143-9.529 14.273-12.31 22.492-2.465 6.943-5.521 13.549-10.526 18.547 1.074-.549 2.57-2.352 4.413-.639 1.555 1.445.919 3.305.253 4.918-1.486 3.586-3.055 7.416-6.23 9.619-4.713 3.279-5.877 7.531-5.318 12.764.086.865-.025 1.752-.197 2.625-.267 1.113-.816 2.004-1.891 2.506-1.092.396-2.166.355-3.228-.1-4.933-4.254-10.358-8.156-11.141-15.416 1.633-2.527 3.729-2.174 5.852-.82 2.433 1.549 4.744 3.271 6.511 5.949-.994-2.658-3.064-3.986-4.895-5.557-3.769-3.225-6.88-6.914-7.846-11.982-.404-2.109-.627-4.184 1.418-5.689 1.361-.518 2.303.203 3.231.984-1.513-2.299-3.776-4.23-4.417-7.139.812-2.465-1.668-6.324 1.898-7.355 3.23-.936 4.993 2.504 6.892 4.691.67.775 1.229 1.661 1.771 2.174-2.87-4.324-8.048-7.834-6.887-14.428.854-2.016-.529-4.487 1.268-6.313 2.638 3.429 2.783 8.258 6.357 11.188.898.734 1.471 1.87 2.776 2.582-1.984-6.505-8.765-11.365-6.505-19.158 1.848.238 2.423 2.496 5.271 4.137-4.808-7.617 1.126-10.514 4.524-14.471 2.14.543 4.229 1.131 3.257 4.132-.052.74.108 1.579.968 1.364.476-.121 1.12-1.109 1.052-1.627-1.607-13.207 6.316-25.313 4.365-38.615-.555-3.794-4.245-5.819-4.322-9.607-2.242 1.123-3.678.43-4.365-1.943-1.341-1.361-1.126-2.982-1.1-4.733.077-5.993.967-12.108-1.86-18.286-3.648 3.085-6.725 6.168-8.417 10.377-.438 1.084-.946 1.813-2.157 1.877-1.238-.164-2.682-.109-2.175-2.088-1.375-3.777 1.969-6.391 2.621-9.76.863-4.493 1.642-8.888 1.607-13.448 2.578-.684 3.781 1.392 5.147 2.792 3.781 3.869 7.253 8.011 10.265 13.06.356-5.285.536-10.112-1.93-14.615-.661-.921 2.931.823.898-1.899-2.505-3.349-3.648-7.785-5.926-11.506-4.963-8.114-12.254-13.618-20.254-18.364-.12-.129-.292-.238-.348-.391-.851-2.232-2.505-5.188-.916-6.744 1.968-1.92 4.453.679 6.522 1.708 8.762 4.348 15.816 10.597 20.788 19.102.488.84 1.236 1.53 2.361 2.097-1.056-4.219 3.516-9.592-2.989-12.54-.154-.898 2.736.172.979-2.411-2.909-4.264-5.147-9.007-8.413-13.115-2.749-3.457-6.179-6.088-9.529-8.875-1.98-1.652-2.183.428-3.128 1.017-2.492-2.735-1.822-6.215-2.436-9.438 7.277-.18 10.969 2.655 25.396 19.341 1.392-6.018 1.319-6.267-2.569-8.819 1.178-4.294-1.693-7.177-3.76-10.228-4.202-6.204-9.509-11.416-15.592-15.753-.263.535.154 1.805-.903 2.464-2.019-2.855-3.596-7.017-1.719-9.149 1.746-1.985 5.105 1.288 7.68 2.59 6.104 3.089 10.53 7.869 14.375 13.358.868 1.237 1.362 2.891 3.064 3.527 1.938-2.234.292-4.322-.435-6.142-5.1-12.757-4.353-25.363.752-37.849.515-1.259.923-3.53 2.784-3.379 1.658.133 2.166 2.249 2.693 3.577 5.169 12.896 5.702 25.874.207 38.854-.915 1.644-1.791 3.489.09 4.826.916.644 1.603-.744 2.066-1.618 6.003-8.658 13.203-15.734 24.62-18.931-1.517 4.337-.417 8.404-3.347 11.474-1.315-.047.334-4.03-2.6-1.936-8.435 6.021-15.06 13.414-17.943 23.638-.029.114.486.444.684.756-.205 2.283-3.785 2.892-2.63 6.172 5.01-4.715 8.026-11.536 15.107-13.659 2.147-1.062 4.262-2.2 6.453-3.163 2.664-1.172 3.776-.507 3.185 2.634-.443 2.356-.331 4.823-2.23 6.668-1.298.131-.172-2.794-1.831-1.704-8.851 5.835-14.849 14.026-18.922 23.707-.192.453.163.999.469 1.433-2.384 1.179-3.467 2.889-3.142 5.733.328 2.853.069 5.774.594 8.875 5.869-8.819 12.271-16.879 21.654-21.81 2.862-1.505 5.5-3.912 9.302-3.604.727 3.354-.326 6.421-1.782 9.422-1.194-.9-2.338-.473-3.368.253-10.176 7.19-18.124 16.164-22.617 27.979-.692 1.824 1.495.667 1.318 1.678-4.091 1.474-5.697 4.138-4.954 8.618.512 3.074.1 6.302.623 9.867 6.703-8.115 12.262-17.263 21.508-22.814z"/><path fill="#39621D" d="M114.214 171.671c-.167.048-.386.046-.498.151-2.003 1.868-5.432-2.041-6.479 1.011-1.031 2.993 2.046 5.448 3.584 7.749 1.92 2.865 4.301 5.391 5.46 8.752 1.058 3.062 4.825.354 6.536 3.186 1.22 2.012 4.099 3.015 6.237 4.467.446 2.814-1.146 4.789-2.774 6.75-2.854 2.172-6.153.284-9.237.945-.645 1.699.88 3.455-.159 5.094a4.066 4.066 0 0 1-1.638 1.594c-3.608 1.268-7.192 1.175-10.741-.236a11.801 11.801 0 0 1-2.165-.816c-4.56-2.485-10.416-2.382-13.948-6.943-.979-.808-1.846-1.737-2.835-2.537-1.581-1.407-3.123-2.854-4.455-4.489-3.52-4.322-2.978-5.806 2.415-6.886 9.474-2.717 17.92-.002 26.394 5.52-.21-5.039-2.841-8.656-4.022-12.686-.636-2.181-3.055-1.092-4.691-1.009-15.099.771-27.653-4.561-38.103-15.4-2.774-2.886-1.829-4.039 1.319-5.072 11.854-3.886 23.061-2.518 33.784 4.402-.112-4.474-3.12-7.519-4.31-11.255-.648-2.05-2.479-1.463-4.025-1.188-17.547 3.141-32.654-1.951-46.205-13.635 13.513-7.6 26.947-7.063 41.736-.348-1.706-2.512-2.715-3.645-3.33-4.963-2.26-4.83-4.73-6.595-11.042-5.367-12.662 2.464-24.898-.523-36.172-8.443 10.518-6.488 21.345-6.657 33.4-3.21-1.852-3.009-3.927-4.296-5.25-6.103-2.007-2.731-3.764-2.533-6.711-1.566-13.938 4.567-27.198 1.856-40.749-4.281 10.836-7.363 22.128-6.75 33.754-5.455-4.014-5.233-10.45-4.604-15.575-6.799-11.383-4.88-22.222-10.609-32.299-17.791-.713-.51-1.469-.986-1.418-2.118 20.86-.535 38.176 7.038 51.951 23.163-4.25-9.882-9.707-18.813-8.848-29.737 14.771 5.066 24.241 22.409 20.396 36.132-.378 1.355-.515 2.02.778 3.027 2.415 1.882 4.524 4.161 7.257 6.744.722-2.02.43-3.461-.103-4.827-3.013-7.753-2.909-15.833-2.523-23.932.065-1.295-.559-3.065 1.122-3.736 1.938-.773 2.788 1.089 3.79 2.174 1.268 1.373 2.307 2.963 3.445 4.458-.21.814-.799 2.207-.571 2.354 5.989 3.942 5.654 10.902 8.035 16.544l.009.018c.042.432.081.858.12 1.288 1.542 3.743 1.685 7.588.025 11.236-1.671 3.661-1.187 6.657 1.417 9.644 1.212 1.395 2.492 3.027 1.728 5.199 1.427 1.527 3.095 3.785 2.565-.816-.115-1.008-.322-2.004-.137-3.262 2.907 4.828 8.957 6.443 11.338 11.717.309 1.352-.154 2.37-1.341 3.066-2.793 2.107-3.867 4.423-1.022 7.354.456.473.542 1.284.863 1.905 1.629 3.147 1.389 7.24 6.995 7.771 3.262.309 6.191 4.127 9.269 6.365 1.203 2.615.232 4.237-2.346 5.126z"/><path fill="#39631D" d="M170.277 220.085c.3-5.841 3.561-10.621 6.707-14.963 3.227-4.46 4.111-11.401 11.535-12.406 1.448-.198.481-3.427.503-5.269-1.637-2.485-1.327-4.983 1.144-6.343 2.706-1.485 4.154.983 5.263 2.958 2.557 4.566 5.036 9.203 5.178 14.636-.151-8.249-6.978-14.956-5.676-23.53.146-.48.361-.932.627-1.354 1.53-2.055 1.479-4.652 2.371-6.912.74-1.889 1.212-4.56 3.627-4.664 2.363-.1 3.523 2.289 4.134 4.242 1.573 5.063 4.399 9.797 4.159 12.68-.705-3.979-3.858-10.385-1.899-17.296.516-3.017 1.032-6.028 3.694-8.054 5.117 5.051 5.715 11.538 5.707 18.404 3.484-1.461 4.881-3.713 2.968-7.061-3.759-6.568-3.526-13.028.177-19.463.541-.937-.31-2.82 1.607-2.788 1.873.032 1.848 1.729 2.285 3.036 1.349 4.047 2.463 8.074.852 12.337-.302.797-.289 1.735 1.005 2.524 1.529-.849 1.744-2.502 2.178-4.131 1.913-7.182 6.785-12.098 12.692-16.141.795-.545 2.238-1.094 2.866-.734 1.504.859-.034 2.103-.087 3.205-.188 3.695-3.811 5.871-4.063 9.495a18176.53 18176.53 0 0 0-11.566 9.231c2.251.895 3.725.092 5.146-.932 4.288-.723 8.576-1.283 12.813.271l.025.039c1.173 2.426-.67 3.441-2.157 4.623-4.158 3.293-9.058 4.435-14.195 4.787-1.831.125-3.632.296-5.354.94a35.6 35.6 0 0 1 11.33-1.067c1.401.092 2.87.371 3.477 1.907.696 1.786-.344 3.033-1.572 4.101-4.469 3.889-9.504 6.404-15.545 6.898-2.454.201-5.414-.315-6.918 2.547 5.586-2.77 11.309-4.256 17.457-1.771 2.007.257 4.851.201 1.688 3.094-2.247 2.055-4.782 3.79-7.192 5.668-3.871 3.944-9.229 4.537-14.119 6.146-1.452.479-3.106.334-4.937 1.632 4.859-1.905 9.432-2.223 13.986-2.313 1.838-.037 4.196.195 4.94 2.258.68 1.869-1.108 3.167-2.303 4.387-5.405 5.529-12.014 8.965-19.43 10.945-1.83.488-3.841.643-5.576 3.081 3.162-.829 5.572-1.959 8.104-2.503 3.488-.752 7.191-2.116 10.285 1.168.116.497.129.994.021 1.489-1.662 8.003-9.478 9.212-14.76 13.161-2.182 1.633-4.957 2.58-7.625 3.494-1.113.383-2.678.813-1.917 2.461.692 1.482 2.187.969 3.231.404 2.883-1.563 5.994-1.857 9.16-2.002 1.521-.068 3.373-.811 4.258.996.783 1.604-.386 3.037-1.254 4.336-4.306 6.439-9.965 11.221-17.272 13.951-1.864 1.158-4.047 1.859-5.242 4.01 1.865-1.287 3.601-2.789 5.724-3.637 3.411-.912 6.384-3.387 10.2-2.91 1.323.529 2.269 1.387 2.5 2.861-.43.637-.868 1.268-1.298 1.904-2.389 7.15-8.03 11.533-14.114 14.908-4.537 2.516-7.91 5.277-9.062 10.387-6.908 1.561-5.01-3.551-5.301-7.002-2.055-1.877-3.876-3.965-5.539-6.197-3.579-4.422-5.625-9.436-5.865-15.146 5.256-6.844 9.582-14.131 11.566-22.688.637-2.734 2.69-3.178 4.684-1.064 1.135 1.205 1.938 2.664 4.073 1.264-2.233-1.791-2.208-4.787-3.55-7.164-1.034-1.586-1.666-3.343-2.113-5.169-.313-1.298-1.002-1.665-2.19-.979-2.033.738-3.933 2.508-6.256.787z"/><path fill="#76B665" d="M202.905 254.163c-3.721.182-6.672 3.02-10.445 3.016-.886-.484-1.092-1.301-1.087-2.219 8.1-3.58 14.685-8.785 18.888-17.455-4.962.615-9.504.197-13.525 2.816-2.08 1.355-3.652 1.432-4.68-1.605-.983-2.928.065-3.334 2.574-4.178 5.74-1.932 11.042-4.641 16.018-8.428 2.767-2.108 5.125-4.112 6.874-6.998 1.306 1.216.809 2.928 1.255 4.158.704-3.587.704-3.587-.889-5.125-6.526-3.321-12.027.859-17.871 2.478-.613.17-1.133.667-2.187 1.312.366-4.448 2.016-6.321 6.273-7.197 9.053-1.863 16.825-6.318 22.991-14.398-6.41-1.246-12.091-.682-17.586 1.568-1.232.505-2.162 1.908-3.717 1.18-.292-.14-.541-.945-.421-1.311.585-1.709 1.563-3.43 3.479-3.507 6.627-.267 12.186-3.961 18.42-5.437 3.125 2.396 5.83-.66 8.787-.801 4.184-.201 4.631 1.44 3.316 4.551-1.006 2.371-2.397 4.574-3.617 6.852-1.813 2.705-2.995 5.822-5.576 8.02-1.806 1.531-1.437 3.789-1.513 5.841-.147 3.792.42 7.663-1.341 11.259-1.083 2.409-1.788 5.068-4.297 6.545-.963 1.186-1.925 2.373-3.214 3.967l5.311-.717c-.692 3.346-3.7 3.34-6.024 3.654-2.736.369-2.405 2.098-2.561 3.824-2.663-.729-3.234 1.83-4.872 2.883 4.348.172 8.683-2.238 12.676.871-4.194 2.82-9.165 2.406-13.544 1.842-3.098-.4-4.529-.586-5.604 2.432-.315.894-1.441.734-2.291.307z"/><path fill="#3E9B46" d="M88.934 202.417c3.454 4.459 9.513 3.825 13.646 6.966-.743 2.507-.236 5.278-1.59 7.659-.739.813-1.744 1.112-2.776 1.227-3.479.389-3.394 2.111-1.89 4.6.923 1.523 2.638 3.01.944 5.068-10.466 3.635-20.648 2.966-30.539-2.043-1.014-.514-2.646-.304-2.69-2.016-.047-1.867 1.677-1.354 2.664-1.856 7.072-3.604 14.402-3.466 23.107-.317-3.382-5.054-6.089-6.863-10.793-5.33-6.239 2.035-12.495.867-18.523-1.389-1.064-.399-2.71-.577-2.796-2.029-.104-1.803 1.795-2.132 2.947-2.518 4.743-1.602 9.654-1.249 14.543-.693 3.228-.015 4.259-1.677 3.357-5.385-1.883-4.426-2.309-9.059-1.9-13.79.232-2.659.447-5.458 3.987-2.066.662.636 1.907.655 2.888.958-4.834 1.477-3.627 3.983-1.082 6.619 1.43 1.48 2.989 2.833 4.493 4.244.211 3.119.344 6.248.009 9.356-.284 2.661.781 4.479 2.749 5.792.233-4.388-3.235-8.495-.755-13.057z"/><path fill="#39631E" d="M97.268 227.936c.379-2.265-1.662-3.209-2.564-4.779-.838-1.456-2.063-2.975-1.297-4.765.906-2.116 2.98-1.044 4.554-1.292.838-.133 1.715-.039 2.565-.051 1.332-.395 2.604-1.018 4.03-1.049 2.999.133 5.706 1.324 8.48 2.303 1.685.695 2.94 2.234 5.007 2.599-.667-2.954-2.27-5.459-2.746-8.317-.146-.727-.009-1.449.018-2.172.442-.285.885-.566 1.323-.85 1.646-.223 2.835.737 3.312 2.004 2.669 7.09 9.045 10.688 14.227 15.414 1.276 1.163 2.725 2.166 3.287 3.919 2.466 3.138 4.937 6.276 7.982 10.157-3.862-.197-4.64-3.379-7.037-3.805-3.416-.615-5.572-3.473-8.602-4.809-2.548-1.121-4.929-2.645-7.902-2.309-.881 1.809.524 3.029.98 4.432.653 2.027 1.632 4.18-.311 5.854-1.864 1.609-3.592-.207-5.336-.803a12.615 12.615 0 0 1-2.058-.723c-4.622-2.361-10.333-2.564-13.935-6.973a1493.6 1493.6 0 0 0-3.977-3.985z"/><path fill="#44A04D" d="M78.545 204.36c4.923 2.596.076 4.645-.723 6.471-.765 1.736-2.269.7-2.635-1.086.649-3.265-2.101-4.938-5.89-3.998-6.698 1.66-13.465 2.115-20.117-.291-1.009-.365-2.706-.204-2.552-2.02.112-1.27 1.357-1.429 2.26-1.923 4.701-2.583 9.763-2.153 15.168-2.17-8.749-4.208-17.66-8.083-22.352-17.355 6.694-1.714 8.129-.847 24.627 14.903-1.477-6.596-4.158-12.678-1.722-19.826 6.737 5.633 9.611 12.631 9.174 20.492-.246 4.43 1.176 7.15 4.192 9.68 1.146-.772.226-1.949.57-2.877z"/><path fill="#439E4B" d="M101.247 231.922c4.675 1.998 9.342 3.998 14.017 5.996-.864 1.963-1.342 3.84.601 5.551 1.173 1.035 1.81 2.447 2.123 3.99.064.49.034.975-.064 1.457-1.379 2.229-1.091 4.131.808 6.029.916.916 2.96 1.637 1.629 3.664-9.84.459-18.97-1.258-26.888-8.441 7.252-4.314 14.273-2.041 22.071-.543-3.021-4.777-4.898-7.262-10.936-5.867-8.894 2.055-17.642-1.145-25.59-5.691-.653-.377-1.268-1.287-1.384-2.029-.206-1.283 1.104-.957 1.822-1.238 6.629-2.58 13.298-2.926 20.047-.443.859.314 2.041 1.242 2.639-.092.239-.54-.564-1.548-.895-2.343z"/><path fill="#429C48" d="M151.268 269.819c.834-.484.992-1.291 1.036-2.156 3.011.379 3.234 2.828 3.372 4.996.229 3.59.456 7.178.74 10.766-1.041.01-2.085.018-3.129.029-2.732-1.371-5.474-.85-8.206-.012-6.05-.086-12.144.98-18.124-.699-.962-1.408-3.669-3.107.808-3.369 3.652-.213 6.85.947 10.042 2.66-2.428-7.432-3.664-8.416-10.814-8.746-8.112-.377-14.411-3.17-20.254-9.184 6.135-2.512 11.927-1.631 17.723.391.864.301 1.998 1.354 2.458-.348.125-.461-.614-1.152-.958-1.738 4.786-1.52 8.356 1.111 11.992 3.516 1.426 3.443-2.729 7.834 2.229 10.691.628-2.156-.712-4.473-.158-6.721 2.9-4.883 5.35-1.16 7.91.406 1.331 1.412 2.397.938 3.333-.482z"/><path fill="#527635" d="M172.025 112.568c-.901-.561-3.545 1.647-2.218-2.363 3.185-9.611 9.372-16.813 16.396-23.541 2.23-2.135 4.826-3.905 7.329-5.74 2.136-1.566 3.185-.801 3.159 1.736-4.09 13.372-12.777 22.958-24.666 29.908z"/><path fill="#3A641E" d="M132.028 80.938c.58-.78 1.229-1.168 2.191-.542 11.48 7.47 20.546 16.778 24.988 30.233 1.109 3.373-1.262 1.39-1.77 2.073-7.454-.773-11.609-5.642-14.711-11.828-1.358-1.756-1.9-4.155-4.133-5.217-2.973-4.555-5.975-9.098-6.565-14.719z"/><path fill="#39631E" d="M137.631 266.92c-3.593-2.262-7.52-3.67-11.67-4.512-1.26-2.164-4.356-1.615-5.603-3.799-.438-1.875-2.453-2.242-3.476-3.629-1.707-2.316-2.463-4.313.488-6.145 3.683-.775 7.442-2.391 10.627 1.256.446.512 1.22.543 1.95.293 4.528-1.547 6.118 1.479 7.48 4.842 2.199 5.883 7.188 9.73 10.72 14.631.284.387.24.725-.129 1.023-2.578-.264-4.734-4.057-7.713-.918-1.858-.157-1.76-2.044-2.674-3.042z"/><path fill="#6EB261" d="M180.768 283.448c-.89-5.361 1.187-8.4 6.449-10.418 7.267-2.785 12-8.949 16.727-14.877.091 2.182.98 2.023 2.569 1.094 2.243-1.313 4.547-2.666 7.365-2.213 1.039.166 2.101.186 2.56 1.402.469 1.238-.316 1.912-1.057 2.682-3.342 3.457-7.759 4.887-12.206 5.232-3.27.254-4.374 1.559-5.324 4.27-1.542 4.387-4.382 8.242-5.494 12.83l-11.589-.002z"/><path fill="#429D49" d="M237.913 210.784c1.478-3.258 1.461-8.939 5.719-8.32 2.222.322.211 6.095-.467 9.373-.07.337-.139.676-.207 1.016.352 1.32 1.066 2.389 2.242 3.125 3.678.096 7.674-1.263 10.759 2.175-5.606 5.251-12.864.648-18.793 3.269 3.943 1.533 8.524-.461 11.807 3.207-.769 1.791-2.947.591-3.918 1.868-4.852.84-9.694 1.067-14.505-.213-2.6-5.728-2.535-11.338 1.056-16.634.675-.993 1.375-2.684 3.197-2.009 1.384.51 1.264 1.925 1.599 3.06.477 1.615.279 3.276.344 5.166.171-1.921-.483-3.769 1.167-5.083z"/><path fill="#39641E" d="M170.156 61.917c-.61-.481-2.509.576-1.899-1.242 3.464-10.346 10.261-18.183 18.914-24.557.877-.649 2.101-1.113 2.913-.496 1.341 1.027-.284 2.584.241 3.874-1.487 5.442-5.256 9.47-8.551 13.792-3.18 3.811-5.93 8.2-11.618 8.629z"/><path fill="#39631E" d="M137.356 60.788c.073-2.417-.078-4.939 3.531-2.396 8.447 5.951 14.359 13.861 18.622 23.18 1.263 2.754-.709 2.275-2.063 2.6-9.116-5.713-16.33-13.064-20.09-23.384z"/><path fill="#38631D" d="M137.493 38.355v-4.314c9.759 5.942 16.637 13.878 21.462 23.601.691 1.395 3.115 3.975-1.207 4.229-9.35-5.601-16.46-13.131-20.255-23.516z"/><path fill="#79B565" d="M232.77 184.071c-7.06-.231-13.951.311-20.486 5.266 2.471-6.684 2.479-6.613 7.773-7.024 6.44-.497 12.253-2.557 17.014-7.144.743-.717 1.925-1.132 1.4-2.442-.502-1.235-1.735-.966-2.732-1.036-4.954-.336-9.771.064-14.445 3.351-.18-4.503 2.028-5.403 5.405-5.511 5.989-.191 11.756-1.289 16.795-4.945 1.312-.954 2.712-1.613 2.755-3.479 2.109 5.665-2.071 9.352-4.632 13.253-2.372 3.617-5.853 6.504-8.847 9.711z"/><path fill="#39631E" d="M170.066 84.041c-1.173-.262-3.167.333-1.891-2.208 4.559-9.089 9.959-17.451 18.574-23.341 3.132-2.14 3.823-1.017 3.596 2.114-3.656 10.498-10.72 18.045-20.279 23.435z"/><path fill="#3F9C47" d="M216.542 245.827c.383-1.764-3.051-.754-2.059-2.619.662-1.242 1.698-2.357 3.632-2.316 2.561.055 5.026-.725 7.012-2.543 3.812-.189 7.69-.732 11.257 2.418-6.351 3.482-12.392 6.884-19.842 5.06z"/><path fill="#449D49" d="M202.905 254.163c2.479-.418 2.078-2.381 2.165-4.066.052-1.104.31-2.035 1.435-2.547 1.758-.797 1.436.891 1.908 1.584 1.006 1.48 2.441 2.176 4.048 1.512 3.884-1.604 7.944-.52 11.885-1.064-2.072 5.553-7.446 5.037-11.782 6.201-2.316.623-4.871.34-7.321.467l-2.338-2.087z"/><path fill="#3A9943" d="M226.162 228.782c.366-.052.727-.104 1.091-.154.938 2.045 2.721 1.903 4.426 1.553 3.798-.775 7.48-.211 11.167.666 1.701 1.623 1.036 2.533-.877 3.244-6.212 2.311-12.46 3.752-18.938 1.008.78-2.237 1.58-4.466 3.131-6.317z"/><path fill="#49A252" d="M245.2 215.977c-1.898 1.836-2.105-.461-2.853-1.226-.851-.87-1.187-1.779.61-1.899 3.488-1.949 5.199-5.947 8.911-7.685 2.203-1.026 4.219-2.578 7.2-1.395-2.088 4.261-5.379 7.118-9.469 9.056-1.697.805-3.677 1.041-4.399 3.149z"/><path fill="#76B665" d="M242.845 230.846c-4.425.092-8.894-.785-13.268.371-2.716.719-2.251-1.102-2.325-2.59.585-1.445 1.715-2.377 2.995-3.158 4.821 2.012 9.86.807 14.807 1.026-3.326 2.378-7.038 1.153-10.591 1.044-2.024-.064-4.052-.707-5.075 2.307 4.689-1.284 9.23-1.595 13.457 1z"/><path fill="#79B565" d="M246.223 161.067c-4.271-.092-8.542-.182-12.813-.271 4.313-1.964 8.598-2.426 12.813.271z"/><path fill="#99C99F" d="M169.051 46.951c.135 1.98-.881 3.246-2.607 3.961-.215.088-1.049-.531-1.032-.793.113-2.202-1.538-4.857 1.483-6.376 1.053.846-1.973 4.432 2.156 3.208z"/><path fill="#76B664" d="M156.417 283.424c-2.171-2.145-2.072-4.881-2.072-7.633-.009-2.861.455-5.875-2.04-8.129-.005-2.451.124-4.914-.052-7.354-.22-2.947.854-4.85 3.402-6.473 4.443-2.83 6.784-7.357 8.598-12.154.417-1.107 1.246-2.363-.318-3.18-1.069-.561-2.002.123-2.81.852-.396.352-.735.77-1.169 1.061-1.1.736-2.475 2.35-3.549.91-1.186-1.592.882-2.281 1.951-2.936 5.486-3.346 7.32-9.15 9.641-14.531.619-1.433.632-3.021 2.278-3.772l6.144-1.985c2.492 2.57 2.492 2.57 2.406 8.232 1.314-.01 1.8-1.404 2.891-1.703.992 2.32 1.784 4.754 3.039 6.924 1.357 2.367-.859 2.738-1.813 3.564-1.649 1.42-2.492.076-2.957-1.41-.343-1.117-.107-2.764-1.881-2.612-1.693.144-1.28 1.735-1.563 2.878-1.973 8.07-5.479 15.318-11.559 21.15-4.941 5.203-4.288 11.912-5.015 18.285-.39 3.414-.244 7.016-2.444 10.01-.37 0-.739.004-1.108.006z"/><path fill="#3F9C46" d="M157.524 283.418c.523-4.846 1.039-9.693 1.581-14.535.077-.689.619-1.561.361-2.021-3.665-6.545 2.518-8.387 5.517-11.738.988 5.33 2.505 10.428 6.229 14.586.052 4.607 2.021 9.35-.987 13.74-4.232-.012-8.465-.02-12.701-.032z"/><path fill="#76B664" d="M145.082 283.442c2.736-2.072 5.474-2.885 8.206.012l-8.206-.012z"/><path fill="#3C792C" d="M140.69 171.856c3.291-4.625 6.84-9.09 9.774-13.932 1.758-2.904 2.608-.385 3.871.023.653.145 1.032.508 1.002 1.211-.452 4.459-4.747 7.064-5.419 11.559-.335 2.24-2.054 4.275-3.141 6.406-4.008.53-4.601-2.884-6.087-5.267z"/><path fill="#409C46" d="M121.622 172.654c1.203-.483.92-3.634 3.679-1.652 1.34.962 3.698.569 5.603.675 2.191.119 4.18 1.229 4.176 3.229 0 3.65 1.685 7.006 1.28 10.915-4.133-5.39-11.3-7.126-14.741-13.151l.003-.016z"/><path fill="#3A641E" d="M141.928 209.55c-.078 2.151 1.537 4.362-.233 6.45-4.331-.121-9.435-4.747-10.724-9.711.129-1.18.33-2.322 1.555-2.911 1.87-1.015 2.278-4.073 5.961-2.548 4.819 1.999 2.521 5.772 3.441 8.72z"/><path fill="#38631D" d="M90.213 112.115c3.678 3.426 7.871 5.788 12.245 7.835 1.371.637 2.635 1.441 1.956 3.146-.619 1.561-2.066.866-3.206.673-1.198-.204-2.367-.606-3.57-.81-8.644-1.472-8.649-1.462-7.425-10.844z"/><path fill="#418C3A" d="M138.516 141.095c.842 5.224-1.015 10.05-1.787 15.472-5.998-6.984-5.939-9.654-.077-16.75 1.19-.404 2.216-.566 1.864 1.278z"/><path fill="#3E6921" d="M89.99 99.824c4.788 1.092 9.97 1.175 13.595 5.266 1.026.962 1.018 2.013.275 3.13-2.716-1.575-5.311-3.57-8.722-3.076-4.211.61-5.758-1.264-5.165-5.287l.017-.033z"/><path fill="#3E6821" d="M111.155 124.095c6.103-2.023 8.053-.122 8.98 8.741-3.412-1.877-6.832-3.748-10.248-5.621-.537-1.427-1.181-2.9 1.268-3.12z"/><path fill="#37621D" d="M106.919 141.049c3.191 1.578 6.243 3.813 9.624 4.555 3.823.84 4.563 2.752 4.125 6.002l-.005.021c-3.76-1.658-7.421-3.621-11.317-4.857-2.212-.701-2.479-1.963-2.65-3.697-.49-.737-.468-1.417.223-2.024z"/><path fill="#39631E" d="M173.301 147.448c-4.882-.286-2.982-3.088-1.938-5.422 3.871-8.66 9.809-15.916 15.799-23.136 7.802-2.312 8.434-1.69 8.373 8.257-.58 3.555-3.364 5.57-5.563 7.992-.843.838-1.659 1.695-2.363 2.656-4.22 4.03-7.76 9.073-14.308 9.653z"/><path fill="#3D8B38" d="M203.987 145.065c-1.057 1.672-2.015 3.382-2.203 5.405-5.814-1.94-10.248-9.837-7.807-13.91 1.039-.81 2.146-1.382 3.521-1.01 4.496 1.581 5.673 5.425 6.489 9.515z"/><path fill="#73B562" d="M137.429 255.227c-1.054-.932-2.106-1.855-3.149-2.795-.516-.471-1.453-1.398-1.461-1.393-5.079 5.156-8.684-5.957-13.729-1.289-.154.145-1.129-.592-1.719-.916.018-.359.035-.719.049-1.076 1.7-3.16-1.938-6.283-.069-9.445 1.968-.688 2.879 3.521 4.821 1.332 1.71-1.922-.404-3.834-1.1-5.699-.645-1.715-2.627-3.654-1.041-5.188 1.26-1.217 3.691-.318 5.389.343 4.821 1.885 9.538 4.034 12.988 8.151-1.689 5.852 1.164 12.15 7.588 16.779 4.111 2.961 4.594 3.793 4.923 8.984-3.234-2.154-4.876-5.498-7.896-7.436-2.101-1.344-3.613-1.852-5.594-.352z"/><path fill="#77B664" d="M189.096 134.643c.652 3.52 2.903 3.355 5.507 2.391-.163 1.328-1.968 2.125.035 4.108 2.724 2.7 3.386 7.221 7.146 9.328.604 5.284 4.377 9.265 5.47 14.825.906-1.465 1.426-2.31 1.95-3.154-.774 6.137-.399 12.025 2.414 17.768 1.022 2.081-.481 4.322-3.3 6.504.348-8.994-1.642-16.666-6.299-23.566-4.417 2.943-1.934 8.801-5.662 11.767-2.007-3.021-3.077-6.522-4.958-9.611-.649-4.123-5.096-7.541-2.303-12.304-1.788-2.969.918-7.375-3.086-9.631-.31-2.185.679-4.137 1.1-6.191.326-1.041 1.023-1.759 1.986-2.234z"/><path fill="#77B765" d="M125.797 203.327c.714 3.813 3.257 3.91 6.256 3.085 1.736 4.681 6.024 6.802 9.642 9.589-.67 5.52 3.111 8.955 6.037 12.771 1.293 1.693 3.532 3.053 1.431 6.082-2.994-4.33-5.225-9.137-10.51-11.061-1.232 2.459 1.19 5.189-1.189 7.104-6.861-5.74-15.493-9.735-18.686-19.109-.301-.88-1.41-1.487-2.14-2.225-1.677-6.771-1.663-6.857 5.633-5.874 1.311.177 2.351-.317 3.526-.362zM174.319 194.684c-2.108 8.202-3.351 16.65-7.321 24.318-1.696 3.277-3.983 6.035-6.423 8.725-.636.706-1.479 1.169-2.26.449-.929-.857-.018-1.531.545-2.148 2.145-2.334 5.246-4.107 4.82-8.435l-5.399 1.69c1.728-4.219 6.436-6.125 6.187-11.274-3.734.811-6.764 2.739-10.313 6.583 2.854-10.494 8.852-17.127 14.154-24.177 5.327-1.003 5.456-.911 6.01 4.269z"/><path fill="#39631E" d="M189.096 152.698c-.619 4.645 3.328 8.093 3.299 12.582-.971 2.748-2.654 4.965-4.988 6.699-1.787.492-2.376 2.078-3.158 3.488-3.944 2.99-6.948 7.77-12.958 6.845-3.377-.909-1.245-3.701-.843-4.616 4.047-9.221 9.092-17.867 16.611-24.789.403-.37 1.349-.154 2.037-.209z"/><path fill="#77B664" d="M183.957 174.634c.224-1.702-.455-4.235 2.853-3.118 2.875 1.319 5.405 3.561 8.859 3.344.894 7.295 2.982 14.101 6.879 20.475 1.715 2.799-.906 5.207-3.76 8.366.426-6.94-.645-12.503-3.463-17.523-1.021-1.821-1.761-5.056-4.236-4.614-2.835.509-1.486 3.825-2.062 5.885-.83.77-1.654 1.539-2.454 2.281-1.916-1.438 2.072-6.67-3.669-5.453.417-3.207-.314-6.538 1.053-9.643z"/><path fill="#76B664" d="M148.02 270.881c.025-.344.068-.684.129-1.023 1.039-.012 2.079-.027 3.119-.039-.349 1.172.852 3.047-1.049 3.426-1.297.259-2.041-1.022-2.199-2.364z"/><path fill="#479C4C" d="M115.315 210.413c.334.423.674.843 1.014 1.264-1.087 1.384-2.818 1.049-4.064 1.502 2.184 1.67 2.655 3.619.992 5.982-3.228-.733-6.449-1.467-9.676-2.201-1.731-2.612-1.715-5.006.881-7.076 3.548 1.652 7.209.925 10.853.529z"/><path fill="#A1B490" d="M178.817 257.797c1.144.115.916 1.168.864 1.887-.081 1.184-.146 2.594-1.898 2.527-1.19-.043-1.19-1.055-1.26-1.902-.137-1.537.886-2.117 2.294-2.512z"/><g fill="#F5E6CE"><path d="M182.943 54.465c-.392-.391-.777-.784-1.169-1.177-3.939 2.784-7.124 6.593-11.618 8.629-5.104 1.555-4.116 5.291-3.114 9.225 4.652-6.273 9.864-11.878 15.901-16.677zM237.913 210.784c-1.168-2.316-2.768-4.508-2.156-7.35-5.384 4.855-10.08 9.904-8.525 18.172.422 2.246-.67 4.775-1.069 7.176a1.48 1.48 0 0 0 1.405.088c.937-1.096 2.639-1.596 2.681-3.4.087-6.086-1.426-12.574 4.602-17.668 1.719 4.303.511 8.286-.296 12.572 3.581-2.246 3.581-2.246 3.358-9.59zM171.212 269.711c-2.389 4.43-.636 9.16-.987 13.738 6.058.887 3.214-4.877 5.242-7.006.188-3.263-3.308-4.189-4.255-6.732zM157.434 112.701c-6.089-2.468-10.205-7.388-14.707-11.826-1.538 3.729 1.116 7.025 1.1 10.595 6.814 4.794 10.913 12.02 16.838 19.679 0-5.088-.229-8.682.068-12.233.25-2.964-.649-4.964-3.299-6.215zM88.031 132.444c1.693-1.09 1.564-3.119.988-4.232-1.95-3.809-.472-7.738-.901-11.573-.413-3.685.91-7.809-3.257-10.273-.306 3.307.412 7.221-1.117 9.796-3.644 6.121-.396 9.971 3.144 14.035.611.704 1.019 1.364 1.143 2.247zM155.307 147.532c-.868.056-1.556.188-2.191 1.033-2.715 3.592.034 6.367 1.22 9.383.335.404.671.807 1.002 1.211 3.033.787 4.081-1.152 4.382-3.526.254-2.017-.013-4.104-.047-6.157l-4.366-1.944zM126.451 114.834c-5.275 7.321-5.229 10.661 1.049 16.877-1.779-6.193 4.03-11.335-1.049-16.877zM129.054 196.987a4792.497 4792.497 0 0 1-3.257 6.34c.327 4.689 1.917 5.475 6.256 3.088.164-1.014.318-2.024.473-3.036 1.324-3.476.104-5.576-3.472-6.392zM111.731 111.077c-.859-2.126-1.323-4.234-2.47-5.86-1.595-2.262-3.709-4.157-5.677-.125.095 1.042.186 2.086.275 3.128 2.94-.241 4.288 4.051 7.872 2.857zM116.561 166.543c-.177 1.985-1.443 3.474-2.347 5.128 2.234 2.077 4.339 5.097 7.403.997l.004-.013c.41-3.772-2.01-5.2-5.06-6.112zM101.797 140.083l-1.341 3.066c.451 1.035-1.356 2.791 1.26 3.199 2.84.441 4.171-.893 4.979-3.277.076-.674.146-1.349.224-2.021-1.616-.812-3.141-2.092-5.122-.967zM140.69 171.856c.36 1.826.674 3.663 1.083 5.479.421 1.844.833 4.186 3.196 3.952 2.2-.217 1.667-2.545 1.809-4.163-2.161-1.6-4.473-3.034-6.088-5.268zM123.013 146.963c-1.898 1.127-.885 3.488-2.345 4.643l-.005.021c2.037 1.479 3.424 3.851 6.596 4.717-.997-3.621-2.135-6.683-4.246-9.381zM158.831 187.492c-1.83 2.587-3.154 4.462-4.478 6.337.524 1.818 3.558 1.659 3.257 4.132 2.466-3.008.872-6.388 1.221-10.469zM138.516 141.095c2.922-.061 3.261-2.067 3.257-4.329a875.086 875.086 0 0 1-2.175-2.088c-1.508 1.411-2.268 3.25-2.946 5.139.768.211 1.649.254 1.864 1.278zM106.499 121.401c-.276-.002-.766 1.079-.792 1.678-.11 2.227 1.784 2.759 3.274 3.604.311.174.605.357.906.535.422-1.042.843-2.082 1.268-3.122-.92-1.992-2.647-2.689-4.656-2.695zM200.559 150.401c-.177 4.867 3.333 8.377 4.7 12.678.335 1.065 1.116 2.475 2.595 2.146 1.557-.342.438-2.234 1.35-3.084.816-2.775 1.623-5.553 2.439-8.33l-7.656-8.746c-3.128.502-3.025 3.085-3.428 5.336zM189.096 134.643c.438 4.02 1.555 4.506 5.507 2.391l2.896-1.483c2.492-3.536.259-5.968-1.963-8.403-2.145 2.497-4.291 4.997-6.44 7.495zM183.957 174.634c-4.236 2.543-7.613 6.496-12.666 7.678-3.919 1.624-3.364 4.896-2.981 8.104 3.557.272 3.557.272 6.01 4.269 2.634-3.659 5.049-7.498 8.585-10.408 2.787-2.948 1.709-6.319 1.052-9.643zM186.01 143.067c1.452-1.871 2.183-3.869 1.1-6.191-4.271 3.957-8.352 8.164-13.805 10.57-6.398 3.873-7.3 6.967-4.143 15.025 5.273-6.92 9.665-14.405 16.848-19.404zM86.931 200.325c-3.227 10.774-2.347 14.086 4.743 17.986-.911-5.276-1.83-10.587-2.74-15.895a387.012 387.012 0 0 1-2.003-2.091zM100.526 217.049c1.078 1.926 2.045.127 3.055-.09.297-2.359.588-4.717.881-7.076l-1.882-.501c-4.383 1.565-.779 5.271-2.054 7.667zM186.809 171.516c2.063 3.475 4.537 5.863 8.859 3.344.215-.127.442-.209.688-.247-.035-3.657-1.672-6.632-3.962-9.333-2.714 1.312-3.462 4.396-5.585 6.236zM190.135 206.362c-.757.912-1.582 1.466-1.728 2.161-.723 3.474.945 6.565 1.877 9.757.134.457 1.062 1.133 1.724.465 1.457-1.465 3.678-3.25 3.033-5.109-.898-2.582-3.093-4.714-4.906-7.274zM176.42 218.1c2.466 3.446.834 7.226.709 11.088 2.694-.591 4.004-2.207 4.588-4.559-.639-1.898-1.584-3.758-1.852-5.709-.501-3.722-2.113-1.392-3.445-.82zM217.521 219.11c-1.03 3.244.438 6.088 1.925 9.085l2.046-12.493-3.604 2.443c-.01.366-.136.688-.367.965zM185.04 263.508l7.42-6.33a453.25 453.25 0 0 1-1.087-2.219c-3.377 1.79-8 2.637-6.333 8.549zM112.831 215.685c.538.931.301 2.306.426 3.476 1.739 1.945 3.78 3.414 6.553 4.207-.104-4.348-3.24-7.607-3.48-11.689-3.142-.401-6.386-.991-3.499 4.006zM117.351 238.313c-.696-.131-1.392-.262-2.088-.395-3.446.498-3.695 2.264-1.835 4.77 1.285 1.725 2.659 3.381 3.992 5.07.832.109 2.256 1.145 1.872-.912-.532-2.865-1.28-5.689-1.941-8.533zM137.631 266.92c-2.414 5.746-1.169 9.9 3.889 12.654.098-3.311.819-6.619-1.209-9.611-1.103-.828-1.1-2.632-2.68-3.043z"/></g></g><path fill-rule="evenodd" clip-rule="evenodd" fill="#A4554A" d="M208.239 364.088c4.667-6.611 8.62-12.371 12.73-18.016 9.256-12.707 14.163-26.523 11.156-42.434-1.068-5.67-2.09-11.32-3.873-16.871-1.077-3.354-2.525-4.271-5.736-4.242-2.757.023-5.514.031-8.27.031h-85.559c-.752.152-1.551.037-2.327 0h-3.087c-9.1.045-18.205.094-27.299.016-2.793-.023-4.028.754-5.09 3.678-1.668 4.582-2.722 9.262-3.542 13.973-1.539 8.875-2.588 17.662.592 26.672 3.147 8.908 8.269 16.494 13.444 24.156 2.849 4.213 6.58 7.877 8.893 13.508H82.359c5.346 7.977 11.689 13.479 20.346 16.012 2.402 2.475 5.563 2.313 8.6 2.355 17.725.252 35.489.549 53.172-.248 14.028-.635 27.97.658 41.943.016 3.464-.158 7.16.348 10.193-2.1 7.978-3.354 15.023-7.826 19.867-16.506h-28.241z"/><path fill="#C89992" d="M109.104 287.79c-2.123 3.738-4.559 15.533-4.706 19.791-.157 4.545 3.877 15.408 4.706 17.225 1.126 2.469 7.49 16.346 9.24 18.984s6.387 10.043 6.387 10.043 3.762 1.832 3.75-5.498c-.007-4.404-2.5-10.188-3.75-16.125s-2.36-9.771-2.719-14.221c-.354-4.391-1.322-13.193-1.322-15.832 0-2.682 1.564-7.256 1.322-10.555s-6.363-5.131-7.822-5.131-5.086 1.319-5.086 1.319z"/><path fill="#522B25" d="M94.12 376.655s7.743 6.127 14.948 6.234c7.205.109 97.372.082 101.372.01 4-.074 13.952-6.244 13.952-6.244H94.12M110.272 364.559l97.967-.471 2.488-3.537H108.238z"/></svg><view id="post-it" viewBox="945.924 679.635 80.667 22.75"/><svg width="80.667" height="22.75" viewBox="0 0 80.667 22.75" x="945.924" y="679.635"><path fill="#CCC" d="M29.458 21.416l-8.067-.463-.183-6.787h8.25zM42.729 22.75l-7.938-.25v-7.25h8.25zM59.063 21.416H51.25l.208-7.25h8.25z"/><path fill="#E46B3D" d="M24.458 12.333h1.792v3.5h-1.792z"/><path fill="#4489BA" d="M38.02 13.291h1.792v3.5H38.02z"/><path fill="#F7F166" d="M54.688 12.416h1.791v3.5h-1.791z"/><path fill="#9C9289" d="M0 0h80.667v3.416H0z"/><path fill="#4E4945" d="M0 2.416h80.667v1H0z"/></svg><view id="radiateur" viewBox="763.924 0 353.658 146.484"/><svg width="353.658" height="146.484" viewBox="0 0 353.658 146.484" x="763.924"><path fill="#383838" d="M0 11.028h353.658v13.979H0zM0 120.76h353.658v13.977H0z"/><path fill="#E3E3E3" d="M9.133 2.443c-2.818 3.083-3.8 7.077-3.8 7.077v127.447s.981 3.994 3.8 7.074c3.538 2.816 5.373 2.424 5.373 2.424V.019s-1.835-.393-5.373 2.424z"/><path fill="#999" d="M19.878 2.443c2.818 3.083 3.801 7.077 3.801 7.077v127.447s-.982 3.994-3.801 7.074c-3.538 2.816-5.372 2.424-5.372 2.424V.019s1.834-.393 5.372 2.424z"/><path fill="#E3E3E3" d="M44.776 2.443c-2.817 3.083-3.8 7.077-3.8 7.077v127.447s.982 3.994 3.8 7.074c3.54 2.816 5.375 2.424 5.375 2.424V.019s-1.835-.393-5.375 2.424z"/><path fill="#999" d="M55.524 2.443c2.817 3.083 3.8 7.077 3.8 7.077v127.447s-.982 3.994-3.8 7.074c-3.539 2.816-5.373 2.424-5.373 2.424V.019s1.834-.393 5.373 2.424z"/><path fill="#E3E3E3" d="M81.472 2.443c-2.818 3.083-3.803 7.077-3.803 7.077v127.447s.984 3.994 3.803 7.074c3.538 2.816 5.372 2.424 5.372 2.424V.019s-1.834-.393-5.372 2.424z"/><path fill="#999" d="M92.217 2.443c2.818 3.083 3.8 7.077 3.8 7.077v127.447s-.981 3.994-3.8 7.074c-3.538 2.816-5.373 2.424-5.373 2.424V.019s1.835-.393 5.373 2.424z"/><path fill="#E3E3E3" d="M117.115 2.443c-2.816 3.083-3.801 7.077-3.801 7.077v127.447s.984 3.994 3.801 7.074c3.538 2.816 5.373 2.424 5.373 2.424V.019s-1.835-.393-5.373 2.424z"/><path fill="#999" d="M127.861 2.443c2.817 3.083 3.802 7.077 3.802 7.077v127.447s-.984 3.994-3.802 7.074c-3.537 2.816-5.373 2.424-5.373 2.424V.019s1.836-.393 5.373 2.424z"/><path fill="#E3E3E3" d="M152.065 2.443c-2.817 3.083-3.802 7.077-3.802 7.077v127.447s.984 3.994 3.802 7.074c3.538 2.816 5.372 2.424 5.372 2.424V.019c.001 0-1.833-.393-5.372 2.424z"/><path fill="#999" d="M162.811 2.443c2.817 3.083 3.8 7.077 3.8 7.077v127.447s-.982 3.994-3.8 7.074c-3.537 2.816-5.373 2.424-5.373 2.424V.019s1.835-.393 5.373 2.424z"/><path fill="#E3E3E3" d="M189.107 2.443c-2.818 3.083-3.8 7.077-3.8 7.077v127.447s.981 3.994 3.8 7.074c3.539 2.816 5.372 2.424 5.372 2.424V.019s-1.833-.393-5.372 2.424z"/><path fill="#999" d="M199.852 2.443c2.817 3.083 3.802 7.077 3.802 7.077v127.447s-.984 3.994-3.802 7.074c-3.538 2.816-5.372 2.424-5.372 2.424V.019c-.001 0 1.833-.393 5.372 2.424z"/><path fill="#E3E3E3" d="M227.108 2.443c-2.818 3.083-3.803 7.077-3.803 7.077v127.447s.984 3.994 3.803 7.074c3.536 2.816 5.372 2.424 5.372 2.424V.019s-1.835-.393-5.372 2.424z"/><path fill="#999" d="M237.852 2.443c2.817 3.083 3.803 7.077 3.803 7.077v127.447s-.985 3.994-3.803 7.074c-3.538 2.816-5.371 2.424-5.371 2.424V.019c-.001 0 1.832-.393 5.371 2.424z"/><path fill="#E3E3E3" d="M261.441 2.443c-2.816 3.083-3.802 7.077-3.802 7.077v127.447s.985 3.994 3.802 7.074c3.539 2.816 5.373 2.424 5.373 2.424V.019s-1.834-.393-5.373 2.424z"/><path fill="#999" d="M272.188 2.443c2.818 3.083 3.8 7.077 3.8 7.077v127.447s-.981 3.994-3.8 7.074c-3.539 2.816-5.373 2.424-5.373 2.424V.019c-.001 0 1.833-.393 5.373 2.424z"/><path fill="#E3E3E3" d="M297.085 2.443c-2.816 3.083-3.799 7.077-3.799 7.077v127.447s.982 3.994 3.799 7.074c3.539 2.816 5.374 2.424 5.374 2.424V.019s-1.835-.393-5.374 2.424z"/><path fill="#999" d="M307.833 2.443c2.817 3.083 3.8 7.077 3.8 7.077v127.447s-.982 3.994-3.8 7.074c-3.539 2.816-5.374 2.424-5.374 2.424V.019s1.835-.393 5.374 2.424z"/><path fill="#E3E3E3" d="M334.131 2.443c-2.815 3.083-3.801 7.077-3.801 7.077v127.447s.985 3.994 3.801 7.074c3.539 2.816 5.375 2.424 5.375 2.424V.019s-1.836-.393-5.375 2.424z"/><path fill="#999" d="M344.877 2.443c2.818 3.083 3.802 7.077 3.802 7.077v127.447s-.983 3.994-3.802 7.074c-3.537 2.816-5.371 2.424-5.371 2.424V.019s1.834-.393 5.371 2.424z"/></svg><view id="table" viewBox="763.924 679.635 182 60"/><svg viewBox="0 0 182 60" width="182" height="60" x="763.924" y="679.635"><path fill="#C8B094" d="M0 0h182v6H0z"/><path fill="#AA8261" d="M3.833 6.166h174.5v3H3.833z"/><path fill="#C8B094" d="M7.833 60.332H3.292L8.917 9.166h7.166zM174.709 60.332h4.541l-5.625-51.166h-7.166z"/><path fill="#AA8261" d="M174.629 60.332h.664l-7.334-51.166h-1.5z"/></svg></svg>