<?xml version="1.0" encoding="utf-8"?>
<!-- Generator: Adobe Illustrator 16.0.0, SVG Export Plug-In . SVG Version: 6.00 Build 0)  -->
<!DOCTYPE svg PUBLIC "-//W3C//DTD SVG 1.1 Tiny//EN" "http://www.w3.org/Graphics/SVG/1.1/DTD/svg11-tiny.dtd">
<svg version="1.1" baseProfile="tiny" id="Layer_1" xmlns="http://www.w3.org/2000/svg" xmlns:xlink="http://www.w3.org/1999/xlink"
	 x="0px" y="0px" viewBox="0 0 500 500" xml:space="preserve">
<g>
	<path fill="#F09A3F" d="M120.733,40.957l-43.964,74.489h-7.745L25.059,40.957v145.105h-9.112V26.605h11.162l45.787,77.678
		l45.787-77.678h11.162v159.457h-9.112V40.957z"/>
	<path fill="#F09A3F" d="M174.265,129.113h15.945c7.29,0,13.287-2.278,17.996-6.834c4.705-4.556,7.062-10.25,7.062-17.084
		c0-8.201-2.356-14.426-7.062-18.679c-4.709-4.25-10.707-6.378-17.996-6.378c-7.745,0-13.86,2.128-18.337,6.378
		c-4.481,4.253-6.72,10.479-6.72,18.679v46.698c0,8.354,2.239,14.807,6.72,19.363c4.478,4.556,10.592,6.834,18.337,6.834
		c8.503,0,15.412-3.339,20.729-10.023l7.29,4.784c-3.04,4.406-7.062,7.898-12.073,10.479c-5.012,2.584-10.329,3.873-15.946,3.873
		c-4.862,0-9.378-0.836-13.554-2.506c-4.179-1.669-7.784-4.022-10.82-7.062c-3.04-3.036-5.432-6.756-7.175-11.162
		c-1.748-4.403-2.62-9.261-2.62-14.579v-45.559c0-5.161,0.872-9.909,2.62-14.237c1.744-4.328,4.136-8.048,7.175-11.162
		c3.036-3.111,6.642-5.542,10.82-7.29c4.175-1.744,8.692-2.62,13.554-2.62c4.706,0,9.112,0.875,13.212,2.62
		c4.1,1.748,7.706,4.179,10.82,7.29c3.111,3.114,5.581,6.834,7.403,11.162c1.822,4.328,2.733,9.076,2.733,14.237
		c0,4.407-0.911,8.542-2.733,12.415c-1.823,3.873-4.292,7.254-7.403,10.137c-3.115,2.887-6.72,5.165-10.82,6.834
		c-4.101,1.673-8.507,2.506-13.212,2.506h-15.945V129.113z"/>
	<path fill="#F09A3F" d="M314.813,72.165v81.095c0,3.645,0.035,6.913,0.113,9.795c0.075,2.887,0.417,5.353,1.025,7.403
		c0.604,2.05,1.517,3.645,2.733,4.784c1.214,1.139,2.961,1.708,5.239,1.708v9.112c-4.862,0-8.507-1.1-10.935-3.303
		c-2.431-2.199-4.178-5.2-5.239-8.998c-3.188,4.1-7.14,7.368-11.845,9.795c-4.709,2.431-9.795,3.645-15.263,3.645
		c-4.861,0-9.379-0.876-13.554-2.62c-4.179-1.744-7.784-4.175-10.82-7.29c-3.039-3.111-5.431-6.834-7.175-11.162
		c-1.748-4.328-2.62-9.073-2.62-14.237V72.165h9.111v79.728c0,8.201,2.239,14.618,6.721,19.249
		c4.478,4.634,10.592,6.948,18.337,6.948c6.834,0,12.643-2.2,17.427-6.606c4.783-4.403,7.325-10.553,7.631-18.451V72.165H314.813z"
		/>
	<path fill="#F09A3F" d="M371.987,120.229c4.556,0.609,8.845,1.823,12.87,3.645c4.022,1.822,7.518,4.1,10.479,6.834
		c2.962,2.733,5.275,5.887,6.948,9.453c1.669,3.57,2.506,7.482,2.506,11.731c0,5.165-0.911,9.909-2.733,14.237
		s-4.293,8.051-7.403,11.162c-3.114,3.114-6.721,5.545-10.82,7.29c-4.101,1.744-8.507,2.62-13.213,2.62
		c-4.861,0-9.378-0.911-13.554-2.734c-4.179-1.822-7.784-4.289-10.82-7.403c-3.039-3.111-5.431-6.72-7.175-10.82
		c-1.748-4.1-2.62-8.503-2.62-13.212h9.112c0,7.29,2.238,13.291,6.72,17.996c4.478,4.709,10.593,7.062,18.337,7.062
		c7.29,0,13.287-2.313,17.996-6.948c4.706-4.631,7.062-11.048,7.062-19.249c0-6.527-2.355-11.653-7.062-15.376
		c-4.709-3.719-10.706-6.186-17.996-7.403c-4.1-0.605-7.937-1.708-11.503-3.303c-3.57-1.594-6.685-3.566-9.34-5.922
		c-2.659-2.353-4.783-5.047-6.378-8.087c-1.595-3.036-2.393-6.378-2.393-10.023c0-4.556,0.759-8.731,2.278-12.529
		c1.517-3.794,3.645-7.022,6.378-9.681c2.734-2.655,5.884-4.745,9.454-6.265c3.566-1.516,7.403-2.278,11.503-2.278
		c6.379,0,12.148,1.559,17.313,4.67c5.161,3.114,9.187,7.175,12.073,12.187l-7.289,4.784c-1.976-3.794-4.862-6.834-8.656-9.112
		c-3.798-2.278-8.279-3.417-13.44-3.417c-5.772,0-10.631,1.976-14.578,5.923c-3.951,3.951-5.923,9.19-5.923,15.718
		c0,2.431,0.605,4.67,1.822,6.72c1.214,2.05,2.848,3.873,4.897,5.467s4.403,2.926,7.062,3.986
		C366.556,119.016,369.254,119.773,371.987,120.229z"/>
	<path fill="#F09A3F" d="M441.236,129.113h15.945c7.29,0,13.287-2.278,17.996-6.834c4.705-4.556,7.062-10.25,7.062-17.084
		c0-8.201-2.356-14.426-7.062-18.679c-4.709-4.25-10.706-6.378-17.996-6.378c-7.745,0-13.859,2.128-18.337,6.378
		c-4.481,4.253-6.721,10.479-6.721,18.679v46.698c0,8.354,2.239,14.807,6.721,19.363c4.478,4.556,10.592,6.834,18.337,6.834
		c8.503,0,15.412-3.339,20.729-10.023l7.289,4.784c-3.039,4.406-7.062,7.898-12.073,10.479c-5.011,2.584-10.329,3.873-15.945,3.873
		c-4.862,0-9.379-0.836-13.554-2.506c-4.179-1.669-7.784-4.022-10.82-7.062c-3.04-3.036-5.432-6.756-7.176-11.162
		c-1.747-4.403-2.619-9.261-2.619-14.579v-45.559c0-5.161,0.872-9.909,2.619-14.237c1.744-4.328,4.136-8.048,7.176-11.162
		c3.036-3.111,6.642-5.542,10.82-7.29c4.175-1.744,8.691-2.62,13.554-2.62c4.705,0,9.112,0.875,13.212,2.62
		c4.101,1.748,7.706,4.179,10.82,7.29c3.111,3.114,5.581,6.834,7.403,11.162s2.733,9.076,2.733,14.237
		c0,4.407-0.911,8.542-2.733,12.415s-4.292,7.254-7.403,10.137c-3.114,2.887-6.72,5.165-10.82,6.834
		c-4.1,1.673-8.507,2.506-13.212,2.506h-15.945V129.113z"/>
</g>
<g>
	<path fill="#4F2D16" d="M16.147,263.575c-1.643-3.831-2.463-6.568-2.463-7.937c0-3.011,0.821-5.474,2.189-8.21h45.979
		c-6.568,4.378-10.126,7.389-11.221,16.147H16.147z M76.357,265.218v174.335H59.662V263.85c0-9.032,7.937-15.874,16.695-16.421
		h44.61c0.821,1.916,1.916,5.2,1.916,8.21c0,1.916-0.821,4.652-2.736,7.937H78.272C76.357,263.575,76.357,265.218,76.357,265.218z"
		/>
	<path fill="#4F2D16" d="M143.681,247.428h87.578v16.147h-87.578V247.428z M160.375,318.312c-2.736,2.737-5.474,4.105-8.484,4.105
		c-2.189,0-6.021-1.916-8.21-4.105v-44.884c2.189-2.189,4.926-4.105,7.937-4.105c3.832,0,6.295,1.096,8.758,3.832V318.312z
		 M160.375,423.405h70.884v16.147h-87.578v-97.704c0-7.937,7.39-13.137,13.958-13.137h70.883v16.147c-68.147,0-68.147,0-68.147,0
		V423.405z"/>
	<path fill="#4F2D16" d="M356.326,416.29c-10.947,16.147-29.01,25.726-47.347,25.726c-4.926,0-9.579-0.547-13.684-1.642
		c-22.169-6.295-42.147-26-42.147-46.526V292.859c0-20.8,19.979-40.231,42.147-46.526c4.379-1.095,9.305-1.642,13.957-1.642
		c18.337,0,36.4,9.305,47.073,25.179l-14.778,7.39c-6.842-9.853-19.979-16.421-32.842-16.421c-2.463,0-5.2,0.273-8.484,1.095
		c-15.053,3.01-30.105,18.61-30.105,30.926v100.988c0,12.316,15.326,26.547,29.832,30.379c3.01,0.547,6.568,0.821,8.758,0.821
		c12.589,0,25.452-6.021,32.568-16.421L356.326,416.29z"/>
	<path fill="#4F2D16" d="M470.995,331.175c5.2,0,15.601,4.927,15.601,15.326v93.052h-16.969c0-88.946,0-88.946,0-88.946
		c0-0.548-0.273-3.011-3.011-3.011h-69.515c-5.2,0-15.326-4.652-15.326-16.694v-84.021h16.694v82.652
		c0,1.094,0.821,1.642,2.189,1.642H470.995z M381.775,349.512c0.273,0.547,6.568,7.663,16.694,9.853v80.188h-16.694V349.512z
		 M486.596,321.049c-1.916,1.368-4.927,3.284-8.211,3.284c-2.189,0-4.379-0.548-8.758-3.284v-74.168h16.969V321.049z"/>
</g>
</svg>
