<?xml version="1.0" encoding="utf-8"?>
<!-- Generator: Adobe Illustrator 16.0.0, SVG Export Plug-In . SVG Version: 6.00 Build 0)  -->
<!DOCTYPE svg PUBLIC "-//W3C//DTD SVG 1.1 Tiny//EN" "http://www.w3.org/Graphics/SVG/1.1/DTD/svg11-tiny.dtd">
<svg version="1.1" baseProfile="tiny" id="Layer_1" xmlns="http://www.w3.org/2000/svg" xmlns:xlink="http://www.w3.org/1999/xlink"
	 x="0px" y="0px" width="763.924px" height="478.778px" viewBox="0 0 763.924 478.778" xml:space="preserve">
<g>
	<rect y="267.703" fill="#BEA182" width="763.924" height="25.857"/>
	<rect x="16.076" y="293.56" fill="#89664A" width="731.774" height="12.58"/>
	<polygon fill="#BEA182" points="32.851,478.778 13.804,478.778 37.393,306.14 67.447,306.14 	"/>
	<polygon fill="#BEA182" points="732.652,478.778 751.695,478.778 728.108,306.14 698.056,306.14 	"/>
	<polygon fill="#89664A" points="33.188,478.778 30.403,478.778 61.157,306.14 67.447,306.14 	"/>
	<polygon fill="#89664A" points="732.317,478.778 735.097,478.778 704.348,306.14 698.056,306.14 	"/>
</g>
<g>
	<rect x="53.817" y="256.592" fill="#519296" width="126.857" height="11.176"/>
	<polygon fill="#519296" points="63.95,256.592 53.817,256.592 114.626,34.392 121.964,45.343 	"/>
	<polygon fill="#519296" points="197.351,82.896 137.689,118.217 102.568,11.794 124.585,0 	"/>
	<polygon fill="#28747B" points="166.513,101.153 137.689,118.217 102.568,11.794 113.986,5.675 	"/>
	<rect x="53.817" y="262.177" fill="#28747B" width="126.857" height="5.591"/>
</g>
</svg>
