<?xml version="1.0" encoding="utf-8"?>
<!-- Generator: Adobe Illustrator 16.0.0, SVG Export Plug-In . SVG Version: 6.00 Build 0)  -->
<!DOCTYPE svg PUBLIC "-//W3C//DTD SVG 1.1 Tiny//EN" "http://www.w3.org/Graphics/SVG/1.1/DTD/svg11-tiny.dtd">
<svg version="1.1" baseProfile="tiny" id="Layer_1" xmlns="http://www.w3.org/2000/svg" xmlns:xlink="http://www.w3.org/1999/xlink"
	 x="0px" y="0px" width="281.319px" height="280.987px" viewBox="0 0 281.319 280.987" xml:space="preserve">
<g id="Participe">
	<g>
		<path fill-rule="evenodd" d="M68.59,160.137c-0.036-10.726-7.354-15.976-14.573-21.349c-3.882-2.889-4.849-6.881-3.34-11.328
			c4.458-13.126,8.997-26.227,13.624-39.294c1.296-3.661,4.089-6.093,8.066-5.519c6.65,0.962,12.051,5.133,17.93,8.017
			c2.326,1.142,0.469,3.315-0.119,4.971c-2.846,8.026-4.42,16.292-5.218,24.771c-0.577,6.121,2.558,8.709,7.939,9.405
			c9.95,1.287,16.476-3.649,21.488-11.729c1.889-3.045,2.207-8.284,6.52-8.498c7.157-0.356,14.559-2.354,21.57,0.683
			c23.506,10.184,44.031,25.164,64.324,40.463c4.356,3.282,7.098,7.798,5.533,13.543c-1.596,5.865-5.635,9.035-11.857,9.151
			c-1.649,0.032-2.792,0.061-3.508,2.337c-2.942,9.36-6.537,11.795-16.467,11.05c-2.75-0.205-3.762,0.188-4.241,2.872
			c-1.253,7.018-6.463,9.468-12.733,10.063c-3.271,0.31-5.306,1.208-7.146,4.308c-3.533,5.947-10.34,7.541-16.711,4.702
			c-2.695-1.199-4.331-2.59-3.83-6.379c1.008-7.604,0.408-14.938-9.446-16.746c-1.848-0.341-1.744-1.977-1.744-3.382
			c0-2.666-0.321-6.481-2.193-7.134c-9.411-3.281-15.834-12.622-26.499-12.985c-1.953-0.067-3.354,0.105-4.851-1.655
			c-7.562-8.894-10.967-9.102-19.65-1.718C70.98,159.161,70.301,159.327,68.59,160.137z"/>
		<path fill-rule="evenodd" d="M127.216,105.732c-7.693-2.727-12.297,2.871-16.009,10.918c-3.22,6.979-9.001,10.732-17.026,10.236
			c-4.132-0.256-6.748-1.824-6.103-6.592c1.14-8.404,2.228-16.837,5.572-24.71c3.599-8.471,11.17-11.694,19.363-13.791
			c5.922-1.516,12.079-2.262,17.845-4.198c18.765-6.305,35.641,1.466,52.684,6.978c5.53,1.79,10.036,2.435,15.347-0.159
			c7.606-3.712,11.331-1.98,13.92,5.89c3.973,12.064,7.687,24.216,11.705,36.266c1.938,5.811,0.386,9.745-4.74,13.181
			c-12.125,8.124-12.388,8.741-23.493-0.48c-15.934-13.232-34.209-22.361-52.332-31.881
			C139.172,104.88,134.302,106.041,127.216,105.732z"/>
		<path fill-rule="evenodd" d="M90.306,167.79c10.334-5.162,13.861-3.569,16.693,6.892c11.031-3.167,14.53-0.478,13.779,11.064
			c-0.196,3.033,0.476,3.741,3.325,3.2c5.89-1.115,8.17,2.5,8.852,7.452c0.761,5.518-0.344,10.692-6.243,12.708
			c-4.939,1.69-9.836,0.222-11.814-4.825c-1.469-3.754-2.927-4.466-6.813-4.177c-5.929,0.441-6.953-6.258-10.477-8.596
			c-3.057-2.027-9.709,0.882-11.99-4.394c-1.9-4.396-4.141-6.202-8.958-7.201c-5.068-1.052-6.888-5.905-5.904-11.248
			c1.097-5.953,3.539-11.326,10.218-11.719C87.534,156.563,89.145,162.104,90.306,167.79z"/>
		<path fill-rule="evenodd" fill="#FAFAFA" d="M189.623,166.667c2.326,5.091,5.779,9.133,1.466,13.28
			c-6.183,5.946-12.582,2.727-19.326-0.503c0.701,5.615,2.893,11.299-3.313,14.83c-5.171,2.941-9.922,2.23-15.083-2.309
			c1.347,5.966,1.487,10.895-4.416,13.376c-5.211,2.192-8.622,0.083-8.708-5.474c-0.116-7.458-1.697-14.179-9.419-17.392
			c-2.236-0.931-2.526-2.639-2.811-4.434c-0.423-2.659-1.178-5.488-3.336-6.808c-7.555-4.618-15.037-9.706-23.235-12.779
			c-4.028-1.512-7.87-2.178-11.253-5.394c-4.237-4.03-9.666-4.474-15.171-2.063c-1.476,0.646-3.165,2.746-4.397-0.459
			c-2.413-6.27-7.606-10.092-12.758-13.811c-3.648-2.636-4.417-5.708-2.969-9.806c4.157-11.744,8.206-23.526,12.283-35.299
			c1.626-4.699,4.065-6.17,9.035-3.635c9.82,5.01,9.829,4.749,7.529,15.484c-1.182,5.51-2.233,11.093-2.707,16.696
			c-0.69,8.173,3.423,12.887,11.587,13.725c11.056,1.135,18.933-3.789,24.754-12.979c1.769-2.791,2.029-7.73,6.318-7.685
			c5.998,0.064,12.067-1.617,18.063,1.097c22.466,10.17,42.374,24.34,61.926,39.091c3.828,2.888,6.578,6.622,4.093,11.515
			c-2.406,4.732-6.893,5.238-11.636,3.969C194.363,168.426,192.649,167.714,189.623,166.667z"/>
		<path fill-rule="evenodd" fill="#FAFAFA" d="M92.089,119.461c1.303-8.2,2.392-14.945,4.795-21.362
			c2.68-7.157,8.791-10.265,15.558-12c9.782-2.508,19.679-4.578,29.548-6.737c3.713-0.812,7.359-0.657,11.118,0.507
			c11.198,3.468,22.976,4.96,33.69,10.123c4.779,2.304,9.26,0.313,13.405-1.99c4.727-2.627,7.347-1.342,8.911,3.658
			c3.789,12.106,7.717,24.168,11.645,36.229c1.183,3.633,0.26,6.065-3.002,8.349c-9.819,6.872-10.099,7.445-19.281-0.33
			c-16.353-13.854-35.233-23.431-54.257-32.612c-8.877-4.284-19.01-1.303-28.483-0.314c-3.662,0.381-4.033,5.385-5.897,8.274
			c-3.158,4.894-5.399,10.621-12.351,11.49C93.708,123.218,91.31,122.578,92.089,119.461z"/>
		<path fill-rule="evenodd" fill="#FAFAFA" d="M117.567,182.146c-0.334,7.212-4.964,14.276-8.994,14.093
			c-3.922-0.179-5.958-2.599-5.909-6.36c0.05-3.831,8.01-12.676,10.883-12.474C116.964,177.644,117.561,180.01,117.567,182.146z"/>
		<path fill-rule="evenodd" fill="#FAFAFA" d="M92.906,187.515c-2.514-0.374-4.185-1.811-4.852-4.341
			c-1.123-4.241,5.233-13.636,9.524-14.238c1.577-0.221,2.858,0.143,3.665,1.457c2.622,4.269-0.639,7.62-1.974,11.203
			C98.191,184.484,96.677,187.225,92.906,187.515z"/>
		<path fill-rule="evenodd" fill="#FAFAFA" d="M86.131,168.212c-0.944,3.613-0.126,8.549-6.16,8.402
			c-3.75-0.09-5.837-2.687-5.522-5.935c0.396-4.098,1.346-9.081,6.521-9.557C85.261,160.729,85.588,164.884,86.131,168.212z"/>
		<path fill-rule="evenodd" fill="#FAFAFA" d="M129.192,198.999c-0.131,3.649-1.49,6.936-5.887,6.729
			c-3.121-0.146-5.94-2.061-5.459-5.87c0.521-4.128,3.266-6.956,7.305-7.166C128.852,192.5,129.073,195.867,129.192,198.999z"/>
	</g>
</g>
<path d="M140.66-0.22c-77.715,0-140.715,63-140.715,140.714c0,77.714,63,140.714,140.715,140.714s140.713-63,140.713-140.714
	C281.373,62.78,218.375-0.22,140.66-0.22z M141.16,267.708c-70.259,0-127.215-56.955-127.215-127.213
	c0-70.259,56.956-127.215,127.215-127.215c70.258,0,127.213,56.956,127.213,127.215C268.373,210.753,211.418,267.708,141.16,267.708
	z"/>
</svg>
