<?xml version="1.0" encoding="utf-8"?>
<!-- Generator: Adobe Illustrator 16.0.0, SVG Export Plug-In . SVG Version: 6.00 Build 0)  -->
<!DOCTYPE svg PUBLIC "-//W3C//DTD SVG 1.1//EN" "http://www.w3.org/Graphics/SVG/1.1/DTD/svg11.dtd">
<svg version="1.1" id="Layer_1" xmlns="http://www.w3.org/2000/svg" xmlns:xlink="http://www.w3.org/1999/xlink" x="0px" y="0px"
	 width="91.066px" height="137.934px" viewBox="0 0 91.066 137.934" enable-background="new 0 0 91.066 137.934"
	 xml:space="preserve">
<g id="Plante2_1_">
	<g id="Plante2">
		<g>
			<path fill-rule="evenodd" clip-rule="evenodd" fill="#A4554A" d="M28.258,136.807c-2.691-0.061-5.842-3.584-6.277-7.58
				c-0.914-8.402-2.148-16.766-3.293-25.141c-0.775-5.666-1.365-11.358-2.277-17.009c-0.422-2.606-0.338-2.619,2.635-2.815
				c0.635-0.65,1.469-0.592,2.262-0.594c5.072-0.008,10.145-0.051,15.217,0.011c8.287-0.031,16.576-0.022,24.863-0.013
				c0.924,0,1.881-0.159,2.74,0.356c2.615,0.76,2.529,0.747,2.125,3.71c-0.969,7.094-1.83,14.201-2.77,21.297
				c-0.934,7.037-1.855,14.076-2.891,21.099c-0.535,3.644-3.004,6.249-5.996,6.671c-1.459,0.852-3.098,0.893-4.699,0.908
				c-6.092,0.059-12.188,0.008-18.279,0.035C30.379,137.749,29.307,137.375,28.258,136.807z"/>
			<path fill-rule="evenodd" clip-rule="evenodd" fill="#5AAE5D" d="M36.586,84.23c-5.848,0.01-11.695,0.021-17.541,0.031
				c-2.918-2.414-5.424-5.211-7.699-8.222c-0.25-0.332-0.395-0.745-0.586-1.12c0.563-0.531,1.168-0.293,1.744-0.063
				c5.563,2.225,11.387,1.938,17.162,1.595c2.645-0.156,5.182-1.271,7.754-1.991c0.768-0.023,1.344,0.428,1.916,0.958
				c0.484-3.853-0.471-7.281-1.891-10.638c-0.404-0.961-0.979-1.25-2.023-1.133c-5.813,0.656-10.947-0.902-15.305-4.865
				c-0.459-0.416-0.906-0.885-1.627-0.703c-0.438-0.621-0.271-1.324-0.266-2.002c0.053-7.943,0.85-15.805,2.814-23.979
				c3.064,7.489,5.805,14.81,11.236,20.64c0.664-0.575,0.291-1.294,0.549-1.849c1.186-0.103,1.863,0.879,2.768,1.354
				c3.945,2.072,6.943,1.459,9.617-2.083c2.705-3.583,4.076-7.781,5.547-11.938c0.229-0.64,0.178-1.544,1.205-1.604
				c1.049,2.318,1.678,4.77,2.303,7.224c0.945,0.668,0.332,1.3-0.061,1.915c-2.689,4.201-5.439,8.366-7.643,12.858
				c-1.18,2.41-2.006,4.968-3.023,7.446c-0.945,3.094-1.863,6.193-2.324,9.402c-0.162,1.131,0.277,2.078,0.982,2.927
				c0.057,0.112,0.137,0.276,0.076,0.342C40.482,80.673,39.127,83.067,36.586,84.23z"/>
			<path fill-rule="evenodd" clip-rule="evenodd" fill="#9CC542" d="M51.961,36.619c-1.004,2.569-2.02,5.133-3.006,7.709
				c-1.275,3.332-2.965,6.406-5.846,8.607c-2.266,1.73-4.74,1.145-7.068,0.099c-1.16-0.521-2.15-1.417-3.217-2.144
				c-0.092-5.309,0.396-10.574,1.186-15.817c0.871-5.78,1.553-11.595,2.627-17.336c1.1-5.854,1.98-11.759,3.537-17.737
				c0.846,3.769,0.969,7.443,1.834,11.025c0.955,3.957,2.523,7.632,4.076,11.344C48.064,27.109,50.34,31.729,51.961,36.619z"/>
			<path fill-rule="evenodd" clip-rule="evenodd" fill="#BECF36" d="M43.275,65.883c1.314-4.785,3.496-9.178,6.115-13.363
				c1.602-2.559,3.248-5.086,4.891-7.617c0.252-0.387,0.051-0.71-0.02-1.061c1.584-0.537,1.715-2.188,2.424-3.34
				c3.273-5.309,4.84-11.328,6.885-17.149c1.393-3.96,2.813-7.916,4.773-11.709c1.393,8.177,2.459,16.341,1.854,24.634
				c-0.91,3.902-2.402,7.588-4.115,11.201c-2.877,6.066-6.256,11.788-11.051,16.572c-1.695,1.691-3.672,3.023-5.781,4.102
				c-1.795,0.918-3.846,0.713-5.689,0.285C41.986,68.071,42.793,66.817,43.275,65.883z"/>
			<path fill-rule="evenodd" clip-rule="evenodd" fill="#5DAF63" d="M69.92,44.545c0.836-0.037,1.193-0.846,1.861-1.153
				c1.043,0.287,2.402-0.264,3.02,1.146c-3.043,5.164-4.346,11.022-6.541,16.607c8.322-5.332,14.596-13.119,22.807-18.873
				c-0.609,3.121-1.914,5.85-3.059,8.597C84.93,58.24,81.199,65.283,76.74,71.926c-0.086,0.129-0.307,0.168-0.463,0.25
				c-4.428,2.123-9.01,3.467-14.012,3.292c-3.861-0.134-7.746,0.169-11.482-1.173c-0.76-0.273-1.598-0.337-2.176-0.989
				c-0.389-1.011,0.445-1.364,1.049-1.663c3.244-1.609,6.199-3.711,9.395-5.412c3.689-1.963,5.59-5.512,7.248-9.24
				c1.639-3.684,2.137-7.631,3.143-11.459C69.537,45.169,69.598,44.795,69.92,44.545z"/>
			<path fill-rule="evenodd" clip-rule="evenodd" fill="#9CC542" d="M37.717,74.893c-1.572,0.256-3.031,0.91-4.58,1.294
				c-5.963,1.475-11.824,1.392-17.789,0.032c-1.566-0.357-2.98-1.168-4.588-1.299C6.121,68.381,2.855,61.158,0,53.7
				c4.611,3.032,9.141,5.997,14.07,8.288c1.229,0.57,2.486,1.085,3.732,1.62c0.912,0.393,1.217-0.015,1.152-0.892
				c0.482-0.529,0.609,0.082,0.732,0.291c0.408,0.71,1.02,1.043,1.793,1.197c3.174,0.635,5.939,2.126,8.48,4.078
				c2.172,1.668,4.598,2.973,6.719,4.709C37.264,73.469,38.162,73.83,37.717,74.893z"/>
			<path fill-rule="evenodd" clip-rule="evenodd" fill="#17904C" d="M48.559,73.027c6.988,2.346,14.035,2.701,21.227,0.916
				c2.172-0.537,4.24-1.226,6.246-2.174c0.016-0.006,0.16,0.265,0.246,0.406c-3.186,4.832-7.08,8.939-12.146,11.846
				c-0.422,0.098-0.842,0.279-1.26,0.278c-8.762-0.011-17.523-0.042-26.285-0.069c1.842-1.875,3.686-3.75,5.527-5.625
				C43.715,76.112,45.811,74.195,48.559,73.027z"/>
			<path fill-rule="evenodd" clip-rule="evenodd" fill="#82B749" d="M48.559,73.027c-2.148,1.859-4.295,3.719-6.445,5.578
				c-1.084-0.406-1.471-1.223-1.447-2.338c0.035-1.672,0.309-3.267,0.908-4.855c0.494-1.311,0.672-2.748,0.932-4.139
				c0.107-0.573,0.195-1.102,0.77-1.391c-0.523,2.257-0.514,2.135,1.795,2.307c5.307,0.392,8.422-3.142,11.498-6.491
				c3.736-4.069,6.336-8.926,8.811-13.854c1.885-3.752,2.912-7.838,4.818-11.566c0.18,2.766,0.139,5.522-0.277,8.268
				c-0.631,2.725-0.887,5.501-1.68,8.229c-0.85,2.92-1.943,5.682-3.443,8.253c-1.561,2.675-3.646,4.802-6.629,6.209
				C54.803,68.823,51.748,71.068,48.559,73.027z"/>
			<path fill-rule="evenodd" clip-rule="evenodd" fill="#168F4B" d="M37.717,74.893c-1.039-1.778-2.869-2.601-4.486-3.662
				c-3.018-1.979-5.688-4.51-9.168-5.768c-0.813-0.293-1.566-0.695-2.471-0.723c-1.33-0.041-2.281-0.668-2.637-2.023
				c-0.684-1.492-0.303-3.092-0.465-4.637c0.164-0.479-0.016-1.476,0.988-0.516c1.791,1.71,3.771,3.142,6.049,4.188
				c3.086,1.418,6.326,1.849,9.617,1.408c1.545-0.209,2.17-0.147,2.832,1.51c1.611,4.033,2.295,6.996,1.871,11.375
				C38.756,76.367,38.717,74.732,37.717,74.893z"/>
			<path fill-rule="evenodd" clip-rule="evenodd" fill="#88BE88" d="M74.801,44.537c-0.82-0.875-2.369,0.175-3.02-1.146
				c2.359-1.735,4.717-3.47,7.076-5.204c0.092,0.109,0.184,0.217,0.275,0.325C77.688,40.521,76.246,42.529,74.801,44.537z"/>
		</g>
		<path fill="#C89992" d="M22.67,87.492c-1.041,1.832-0.283,7.926,0.002,9.995c0.324,2.368,1.293,9.448,1.699,10.339
			c0.553,1.21,1.854,7.965,2.084,9.5c0.25,1.666,1.85,7,1.85,7s1.941,3,2.648-0.459c0.434-2.113,0.072-11.006-0.541-13.916
			c-0.611-2.91-1.115-6.027-1.291-8.209c-0.174-2.15-1.168-6.539-1.168-7.833c0-1.313-0.047-3.884-0.166-5.5
			c-0.117-1.616-2.535-1.833-3.25-1.833S22.67,87.492,22.67,87.492z"/>
	</g>
	<path fill-rule="evenodd" clip-rule="evenodd" fill="#522B25" d="M23.375,133.24c0,0,1.328,3.336,7.004,4.377
		c1.832,0.336,18.721,0.5,21.992,0c5.707-0.875,7.174-4.377,7.174-4.377H23.375z"/>
</g>
</svg>
