<?xml version="1.0" encoding="utf-8"?>
<!-- Generator: Adobe Illustrator 16.0.0, SVG Export Plug-In . SVG Version: 6.00 Build 0)  -->
<!DOCTYPE svg PUBLIC "-//W3C//DTD SVG 1.1//EN" "http://www.w3.org/Graphics/SVG/1.1/DTD/svg11.dtd">
<svg version="1.1" id="Layer_1" xmlns="http://www.w3.org/2000/svg" xmlns:xlink="http://www.w3.org/1999/xlink" x="0px" y="0px"
	 width="343.048px" height="239.168px" viewBox="0 0 343.048 239.168" enable-background="new 0 0 343.048 239.168"
	 xml:space="preserve">
<g>
	<g>
		<g>
			<path fill="#666666" d="M7.605,0H335.44c4.263,0,7.607,3.053,7.607,6.793v193.756c0,3.744-3.345,6.794-7.607,6.794H7.605
				c-4.184,0-7.605-3.05-7.605-6.794V6.793C0,3.053,3.422,0,7.605,0L7.605,0z"/>
		</g>
		<g>
			<path fill="#999999" d="M15.55,6.133h312.013c4.055,0,7.236,2.875,7.236,6.391v182.294c0,3.525-3.182,6.396-7.236,6.396H15.55
				c-3.979,0-7.238-2.87-7.238-6.396V12.524C8.312,9.008,11.57,6.133,15.55,6.133L15.55,6.133z"/>
		</g>
		<polygon fill="#BABABA" points="207.213,234.8 135.381,234.8 139.231,207.343 204.058,207.343 		"/>
		<rect x="108.234" y="233.946" fill="#666666" width="126.305" height="5.223"/>
		<g>
			<path fill="#FDFDFD" d="M20.531,10.499H322.58c3.925,0,7.007,2.748,7.007,6.107v174.13c0,3.367-3.082,6.106-7.007,6.106H20.531
				c-3.854,0-7.009-2.739-7.009-6.106V16.606C13.522,13.247,16.677,10.499,20.531,10.499L20.531,10.499z"/>
		</g>
		<polygon fill="#565656" points="204.542,211.711 138.665,211.711 139.231,207.343 204.058,207.343 		"/>
	</g>
	<path fill="#4D4D4D" d="M70.524,10.499H20.273c-3.854,0-7.009,2.748-7.009,6.107v174.13c0,3.367,3.154,6.106,7.009,6.106h50.251
		V10.499z"/>
	<linearGradient id="SVGID_1_" gradientUnits="userSpaceOnUse" x1="44.4712" y1="110.6099" x2="44.4712" y2="90.8237">
		<stop  offset="0" style="stop-color:#F1BB0F"/>
		<stop  offset="0.533" style="stop-color:#EEB90F"/>
		<stop  offset="0.7249" style="stop-color:#E5B10F"/>
		<stop  offset="0.8618" style="stop-color:#D4A30F"/>
		<stop  offset="0.9716" style="stop-color:#BE9210"/>
		<stop  offset="1" style="stop-color:#B78C10"/>
	</linearGradient>
	<polygon fill="url(#SVGID_1_)" points="70.979,110.61 13.736,110.61 13.736,90.824 70.979,90.824 75.206,100.717 	"/>
	<linearGradient id="SVGID_2_" gradientUnits="userSpaceOnUse" x1="44.4712" y1="50.5425" x2="44.4712" y2="30.7554">
		<stop  offset="0" style="stop-color:#31AFBE"/>
		<stop  offset="0.5262" style="stop-color:#30AEBC"/>
		<stop  offset="0.7157" style="stop-color:#2FAAB6"/>
		<stop  offset="0.8508" style="stop-color:#2CA4AC"/>
		<stop  offset="0.9593" style="stop-color:#289B9E"/>
		<stop  offset="1" style="stop-color:#259697"/>
	</linearGradient>
	<polygon fill="url(#SVGID_2_)" points="70.979,50.542 13.736,50.542 13.736,30.755 70.979,30.755 75.206,40.649 	"/>
	<linearGradient id="SVGID_3_" gradientUnits="userSpaceOnUse" x1="44.4712" y1="70.5649" x2="44.4712" y2="50.7788">
		<stop  offset="0" style="stop-color:#EE3443"/>
		<stop  offset="0.5298" style="stop-color:#EB3442"/>
		<stop  offset="0.7206" style="stop-color:#E2313F"/>
		<stop  offset="0.8566" style="stop-color:#D22D3B"/>
		<stop  offset="0.9658" style="stop-color:#BC2735"/>
		<stop  offset="1" style="stop-color:#B42532"/>
	</linearGradient>
	<polygon fill="url(#SVGID_3_)" points="70.979,70.565 13.736,70.565 13.736,50.779 70.979,50.779 75.206,60.672 	"/>
	<linearGradient id="SVGID_4_" gradientUnits="userSpaceOnUse" x1="44.4712" y1="90.5879" x2="44.4712" y2="70.8003">
		<stop  offset="0" style="stop-color:#96BE1B"/>
		<stop  offset="0.5605" style="stop-color:#94BB1B"/>
		<stop  offset="0.7624" style="stop-color:#8CB11B"/>
		<stop  offset="0.9058" style="stop-color:#7FA11B"/>
		<stop  offset="1" style="stop-color:#71901B"/>
	</linearGradient>
	<polygon fill="url(#SVGID_4_)" points="70.979,90.588 13.736,90.588 13.736,70.8 70.979,70.8 75.206,80.694 	"/>
	<linearGradient id="SVGID_5_" gradientUnits="userSpaceOnUse" x1="44.4712" y1="130.6333" x2="44.4712" y2="110.8467">
		<stop  offset="0" style="stop-color:#9C6399"/>
		<stop  offset="0.564" style="stop-color:#9A6196"/>
		<stop  offset="0.7671" style="stop-color:#915C8E"/>
		<stop  offset="0.9113" style="stop-color:#835380"/>
		<stop  offset="1" style="stop-color:#754A73"/>
	</linearGradient>
	<polygon fill="url(#SVGID_5_)" points="70.979,130.633 13.736,130.633 13.736,110.846 70.979,110.846 75.206,120.739 	"/>
	<linearGradient id="SVGID_6_" gradientUnits="userSpaceOnUse" x1="44.4712" y1="150.6548" x2="44.4712" y2="130.8687">
		<stop  offset="0" style="stop-color:#F67B43"/>
		<stop  offset="0.4959" style="stop-color:#F47A41"/>
		<stop  offset="0.6746" style="stop-color:#EE763C"/>
		<stop  offset="0.8019" style="stop-color:#E36F33"/>
		<stop  offset="0.9041" style="stop-color:#D46626"/>
		<stop  offset="0.9913" style="stop-color:#C15A18"/>
		<stop  offset="1" style="stop-color:#BF5916"/>
	</linearGradient>
	<polygon fill="url(#SVGID_6_)" points="70.979,150.655 13.736,150.655 13.736,130.869 70.979,130.869 75.206,140.762 	"/>
	<path id="Conversations_1_" fill="#FFFFFF" d="M24.701,135.377c-3.547,0-6.424,2.057-6.424,4.593c0,1.399,0.877,2.651,2.258,3.494
		c-0.023,0.301-0.086,0.72-0.242,1.098c-0.282,0.687-0.9,1.229-0.978,1.252c-0.075,0.022-0.159,0.245,0,0.313
		c0.161,0.068,1.129-0.056,1.772-0.313c1.236-0.496,2.055-1.243,2.142-1.373c0,0,0,0,0-0.001c0.474,0.08,0.967,0.122,1.472,0.122
		c3.549,0,6.426-2.056,6.426-4.592S28.25,135.377,24.701,135.377z M21.942,139.03c0.519,0,0.939,0.422,0.939,0.94
		s-0.421,0.938-0.939,0.938c-0.52,0-0.939-0.42-0.939-0.938S21.423,139.03,21.942,139.03z M24.69,140.909
		c-0.519,0-0.938-0.42-0.938-0.938s0.42-0.94,0.938-0.94s0.939,0.422,0.939,0.94S25.209,140.909,24.69,140.909z M27.438,140.909
		c-0.518,0-0.938-0.42-0.938-0.938s0.421-0.94,0.938-0.94c0.52,0,0.939,0.422,0.939,0.94S27.958,140.909,27.438,140.909z"/>
	<g id="Projets_1_">
		<path fill="#FFFFFF" d="M21.202,41.052c0.255-0.244,0.903-0.727,1.866-0.878c0.775-0.122,6.898,0,6.898,0v-0.987
			c0-1.083-0.878-1.962-1.961-1.962h-3.914V36.63c0-0.726-0.589-1.314-1.314-1.314h-3.186c-0.726,0-1.314,0.589-1.314,1.314v7.82
			C18.277,44.45,20.492,41.732,21.202,41.052z"/>
		<path fill="#FFFFFF" d="M32.496,41.585c0-0.255-0.207-0.463-0.463-0.463h-8.347c0,0-0.423-0.03-0.953,0.143
			c-0.424,0.137-0.66,0.313-0.812,0.448c-0.135,0.121-0.278,0.276-0.278,0.276l-2.711,3.187c-0.013,0.015-0.025,0.029-0.036,0.045
			l-0.007,0.006l0.001,0c-0.056,0.077-0.089,0.17-0.089,0.272c0,0.255,0.207,0.462,0.463,0.462h8.038
			c0.042,0.007,0.526,0.08,1.103-0.084c0.481-0.137,0.745-0.313,0.916-0.449c0.154-0.121,0.326-0.324,0.326-0.324l2.742-3.224
			c0.001,0,0.001,0,0.001,0l0.012-0.013l-0.001-0.001C32.46,41.788,32.496,41.691,32.496,41.585z"/>
	</g>
	<g id="Commentaires_1_">
		<path fill="#FFFFFF" d="M31.953,86.991c-0.078-0.023-0.705-0.573-0.991-1.27c-0.159-0.385-0.222-0.808-0.245-1.113
			c1.4-0.855,2.289-2.125,2.289-3.545c0-1.575-1.094-2.968-2.769-3.811c0.302,0.594,0.467,1.235,0.467,1.904
			c0,0.666-0.164,1.305-0.463,1.896c0,0.004,0.002,0.008,0,0.011c-0.163,0.376-0.369,0.619-0.576,0.876
			c-1.349,1.668-3.87,2.792-6.76,2.792c-0.151,0-0.302-0.003-0.451-0.009c1.11,0.626,2.512,1,4.035,1
			c0.515,0,1.014-0.042,1.493-0.124v0c0.088,0.132,0.919,0.89,2.174,1.393c0.651,0.262,1.634,0.387,1.797,0.317
			C32.115,87.238,32.03,87.014,31.953,86.991z"/>
		<path fill="#FFFFFF" d="M29.433,78.72c0-2.573-2.918-4.658-6.517-4.658c-3.601,0-6.518,2.085-6.518,4.658
			c0,1.419,0.889,2.69,2.289,3.544c-0.022,0.306-0.086,0.73-0.245,1.114c-0.285,0.697-0.913,1.247-0.99,1.271
			c-0.078,0.023-0.163,0.248,0,0.317c0.162,0.069,1.146-0.057,1.796-0.317c1.255-0.504,2.086-1.261,2.174-1.393
			c0.479,0.08,0.979,0.123,1.494,0.123C26.515,83.378,29.433,81.292,29.433,78.72z"/>
	</g>
	<g id="Sondages_1_">
		<path fill="#FFFFFF" d="M24.015,61.128v-5.112c-2.823,0-5.111,2.289-5.111,5.112c0,2.823,2.288,5.111,5.111,5.111
			c1.412,0,2.689-0.572,3.614-1.497L24.015,61.128L24.015,61.128z"/>
		<path fill="#FFFFFF" d="M25.433,61.17l3.572,3.572c0.986-0.987,1.486-2.278,1.496-3.572H25.433z"/>
		<path fill="#FFFFFF" d="M24.954,55.104v5.111h5.112C30.066,57.393,27.777,55.104,24.954,55.104z"/>
	</g>
	<path id="Likes_1_" fill-rule="evenodd" clip-rule="evenodd" fill="#FAFAFA" d="M28.452,98.327c-0.404-0.003-0.81,0-1.25,0
		c0.284-0.589,0.377-1.172,0.349-1.787c-0.049-1.05-0.56-1.73-1.513-1.96c-0.909-0.219-1.45,0.081-1.739,0.969
		c-0.039,0.12-0.081,0.243-0.097,0.367c-0.091,0.745-0.424,1.355-0.945,1.894c-0.369,0.38-0.656,0.836-1.017,1.229
		c-0.151,0.164-0.308,0.259-0.552,0.25c-0.579-0.023-1.161-0.013-1.74-0.006c-0.545,0.006-0.927,0.374-0.962,0.915
		c-0.008,0.095-0.004,0.191-0.004,0.286c-0.002,1.47-0.002,2.939,0,4.409c0.001,0.687,0.377,1.062,1.058,1.063
		c0.327,0.001,0.654,0.021,0.978-0.004c0.824-0.064,1.605,0.091,2.369,0.392c1.231,0.485,2.515,0.627,3.83,0.567
		c1.364-0.062,2.201-0.95,2.189-2.116c-0.001-0.121,0.069-0.208,0.13-0.3c0.252-0.386,0.339-0.818,0.323-1.269
		c-0.005-0.142,0.01-0.264,0.069-0.387c0.178-0.368,0.234-0.76,0.171-1.157c-0.028-0.18,0.001-0.314,0.082-0.468
		C30.887,99.867,29.971,98.339,28.452,98.327z M20.418,105.002c-0.254,0.005-0.486-0.229-0.48-0.486
		c0.005-0.247,0.229-0.469,0.474-0.468c0.247,0.001,0.467,0.224,0.468,0.473C20.88,104.773,20.666,104.996,20.418,105.002z
		 M29.145,101.074c-0.056,0.052-0.13,0.086-0.211,0.139c0.343,0.558,0.321,1.022-0.079,1.539c-0.058,0.074-0.059,0.129-0.028,0.211
		c0.175,0.491,0.07,0.92-0.313,1.272c-0.074,0.067-0.073,0.131-0.066,0.209c0.017,0.207,0.026,0.414-0.018,0.616
		c-0.122,0.557-0.538,0.843-1.22,0.893c-1.349,0.099-2.635-0.156-3.891-0.63c-0.437-0.165-0.877-0.334-1.356-0.318
		c-0.115,0.004-0.127-0.054-0.126-0.146c0.001-1.493,0.001-2.987-0.002-4.481c0-0.114,0.034-0.157,0.149-0.147
		c0.257,0.022,0.456-0.104,0.645-0.258c0.34-0.279,0.62-0.613,0.886-0.96c0.313-0.41,0.63-0.817,0.978-1.2
		c0.358-0.394,0.447-0.9,0.568-1.391c0.065-0.261,0.1-0.529,0.225-0.773c0.069-0.135,0.153-0.194,0.315-0.183
		c0.558,0.042,0.833,0.272,0.951,0.82c0.115,0.531,0.04,1.038-0.179,1.531c-0.163,0.369-0.344,0.731-0.434,1.129
		c-0.075,0.333-0.076,0.333,0.249,0.333c0.755,0,1.51-0.002,2.265,0c0.448,0.001,0.813,0.249,0.96,0.645
		C29.535,100.252,29.402,100.84,29.145,101.074z"/>
	<path id="Notifications_1_" fill-rule="evenodd" clip-rule="evenodd" fill="#FAFAFA" d="M30.86,119.925
		c0.001-0.231-0.114-0.34-0.339-0.366c-0.254-0.03-0.506-0.092-0.76-0.105c-0.407-0.021-0.725-0.134-0.792-0.597
		c-0.007-0.048-0.039-0.094-0.066-0.137c-0.067-0.106-0.054-0.193,0.027-0.294c0.231-0.285,0.453-0.579,0.676-0.871
		c0.063-0.081,0.126-0.163,0.123-0.274c0.007-0.102-0.045-0.178-0.105-0.253c-0.372-0.46-0.809-0.858-1.239-1.261
		c-0.138-0.128-0.286-0.135-0.439-0.017c-0.203,0.157-0.429,0.29-0.609,0.468c-0.321,0.32-0.646,0.404-1.051,0.154
		c-0.12-0.074-0.197-0.13-0.215-0.275c-0.049-0.39-0.113-0.777-0.167-1.167c-0.032-0.241-0.146-0.36-0.405-0.355
		c-0.538,0.011-1.078,0.009-1.616,0.001c-0.218-0.003-0.34,0.092-0.377,0.299c-0.049,0.268-0.131,0.539-0.126,0.808
		c0.011,0.472-0.196,0.726-0.641,0.846c-0.143,0.039-0.231,0.038-0.343-0.053c-0.271-0.221-0.552-0.432-0.828-0.646
		c-0.28-0.216-0.348-0.223-0.626,0c-0.44,0.355-0.828,0.764-1.191,1.198c-0.143,0.171-0.152,0.329,0,0.501
		c0.162,0.187,0.3,0.397,0.47,0.576c0.267,0.283,0.413,0.569,0.138,0.927c-0.024,0.033-0.037,0.079-0.044,0.12
		c-0.028,0.141-0.119,0.184-0.255,0.201c-0.389,0.048-0.776,0.115-1.166,0.166c-0.232,0.03-0.351,0.143-0.349,0.386
		c0.005,0.548,0.003,1.095,0.001,1.643c-0.001,0.229,0.109,0.343,0.334,0.37c0.28,0.033,0.558,0.097,0.838,0.111
		c0.363,0.02,0.636,0.123,0.694,0.531c0.009,0.065,0.047,0.13,0.084,0.186c0.078,0.117,0.063,0.207-0.028,0.315
		c-0.232,0.284-0.449,0.581-0.678,0.869c-0.152,0.19-0.146,0.364,0.011,0.552c0.378,0.444,0.803,0.84,1.232,1.23
		c0.144,0.131,0.286,0.127,0.438,0.01c0.201-0.158,0.429-0.289,0.607-0.469c0.314-0.313,0.627-0.398,1.027-0.156
		c0.141,0.084,0.217,0.156,0.236,0.315c0.046,0.382,0.109,0.761,0.161,1.142c0.033,0.244,0.16,0.352,0.413,0.347
		c0.529-0.011,1.061-0.011,1.591,0c0.245,0.005,0.362-0.108,0.4-0.333c0.043-0.262,0.129-0.524,0.12-0.783
		c-0.018-0.48,0.212-0.718,0.647-0.839c0.132-0.036,0.216-0.044,0.321,0.044c0.277,0.227,0.571,0.436,0.843,0.67
		c0.215,0.186,0.402,0.176,0.611,0.001c0.448-0.374,0.853-0.789,1.224-1.239c0.129-0.156,0.124-0.307-0.002-0.461
		c-0.149-0.187-0.284-0.388-0.451-0.558c-0.302-0.306-0.447-0.62-0.157-1.011c0.01-0.014,0.017-0.03,0.021-0.047
		c0.026-0.166,0.134-0.207,0.288-0.226c0.39-0.047,0.777-0.117,1.166-0.171c0.229-0.031,0.323-0.159,0.322-0.383
		C30.858,121.02,30.858,120.473,30.86,119.925z M24.893,122.786c-1.079,0.097-2.108-0.742-2.225-1.756
		c-0.15-1.303,0.832-2.252,1.871-2.341c1.147-0.098,2.193,0.849,2.203,1.938C26.835,121.697,25.986,122.688,24.893,122.786z"/>
	<g>
		<path fill-rule="evenodd" clip-rule="evenodd" fill="#FAFAFA" d="M62.279,180.84c0.09,0.027,0.181,0.049,0.267,0.084
			c0.49,0.197,0.782,0.564,0.802,1.088c0.028,0.732,0.009,1.466,0.009,2.198c0,0.006-0.006,0.011-0.015,0.024
			c-0.219-0.189-0.431-0.385-0.655-0.563c-0.126-0.1-0.171-0.205-0.166-0.365c0.013-0.38,0.005-0.761,0.004-1.141
			c0-0.333-0.161-0.494-0.491-0.495c-1.892,0-3.784,0-5.676,0c-0.333,0-0.494,0.16-0.494,0.491c-0.001,2.727-0.001,5.453,0,8.181
			c0,0.331,0.161,0.49,0.495,0.49c1.889,0,3.777,0,5.665,0c0.34,0,0.501-0.159,0.501-0.496c0.001-0.423,0.001-0.845,0-1.269
			c0-0.054,0.004-0.099,0.052-0.139c0.247-0.21,0.491-0.424,0.736-0.636c0.01-0.009,0.021-0.015,0.045-0.032
			c0,0.049,0,0.082,0,0.116c0,0.647,0,1.296,0,1.944c0,0.713-0.368,1.17-1.065,1.326c-0.005,0.001-0.008,0.01-0.013,0.016
			c-2.064,0-4.129,0-6.193,0c-0.216-0.02-0.407-0.097-0.579-0.229c-0.321-0.249-0.484-0.577-0.51-0.979
			c-0.001-0.027,0-0.056,0-0.084c0-2.746-0.001-5.492,0-8.238c0-0.493,0.206-0.875,0.623-1.142c0.143-0.091,0.302-0.13,0.466-0.151
			C58.15,180.84,60.215,180.84,62.279,180.84z"/>
		<path fill-rule="evenodd" clip-rule="evenodd" fill="#FAFAFA" d="M59.146,185.004c0.402,0,0.804-0.002,1.205,0.002
			c0.076,0.001,0.092-0.021,0.091-0.094c-0.004-0.296-0.003-0.592,0-0.887c0-0.085,0.007-0.17,0.021-0.253
			c0.019-0.106,0.074-0.19,0.181-0.229c0.104-0.036,0.195-0.018,0.282,0.058c0.994,0.865,1.99,1.727,2.986,2.587
			c0.071,0.062,0.047,0.083-0.007,0.13c-0.983,0.85-1.966,1.701-2.944,2.555c-0.097,0.084-0.191,0.116-0.307,0.075
			c-0.123-0.044-0.175-0.146-0.195-0.267c-0.031-0.182-0.015-0.365-0.017-0.549c-0.003-0.18-0.006-0.359,0.001-0.538
			c0.003-0.081-0.022-0.097-0.1-0.097c-0.774,0.003-1.549,0.002-2.324,0.002c-0.334,0-0.493-0.159-0.493-0.492
			c0-0.506,0-1.014,0-1.521c0.001-0.319,0.163-0.482,0.48-0.483C58.387,185.004,58.766,185.004,59.146,185.004z"/>
	</g>
</g>
</svg>
