<?xml version="1.0" encoding="utf-8"?>
<!-- Generator: Adobe Illustrator 16.0.0, SVG Export Plug-In . SVG Version: 6.00 Build 0)  -->
<!DOCTYPE svg PUBLIC "-//W3C//DTD SVG 1.1//EN" "http://www.w3.org/Graphics/SVG/1.1/DTD/svg11.dtd">
<svg version="1.1" id="Layer_2" xmlns="http://www.w3.org/2000/svg" xmlns:xlink="http://www.w3.org/1999/xlink" x="0px" y="0px"
	 viewBox="178.192 21.445 93.755 178.9" enable-background="new 178.192 21.445 93.755 178.9"
	 xml:space="preserve">
<path fill="#FAFAFA" d="M271.653,29.591c-1.206-4.67-5.373-7.772-10.012-7.956v-0.011l-0.201,0.001
	c-0.321-0.006-0.642-0.024-0.971-0.002l-34.67-0.085v0.002l-36.896-0.096v0.047c-0.85,0.011-1.708,0.086-2.565,0.303
	c-4.56,1.148-7.646,5.024-8.027,9.413l-0.069-0.001v1.391c0,0.004-0.001,0.012,0,0.021l-0.025,156.33
	c-0.063,1.068-0.014,2.159,0.267,3.249c1.207,4.673,5.378,7.772,10.019,7.959v0.01l0.195,0.002c0.323,0.008,0.646,0.022,0.973,0.004
	l35.643,0.087v-0.003l35.925,0.09l0.002-0.05c0.854-0.009,1.707-0.085,2.564-0.305c4.803-1.21,7.975-5.438,8.067-10.106h0.029
	v-0.638c-0.003-0.032,0.003-0.063-0.003-0.093l0.021-156.265C271.988,31.806,271.941,30.701,271.653,29.591z M264.384,167.55
	h-78.296V49.035h78.296V167.55z"/>
<g id="Phone">
	<g id="Tel">
		<linearGradient id="SVGID_1_" gradientUnits="userSpaceOnUse" x1="179.5242" y1="110.7625" x2="225.8699" y2="110.7625">
			<stop  offset="0" style="stop-color:#585858"/>
			<stop  offset="0.2615" style="stop-color:#555555"/>
			<stop  offset="0.4626" style="stop-color:#4B4B4B"/>
			<stop  offset="0.6434" style="stop-color:#3B3B3B"/>
			<stop  offset="0.8124" style="stop-color:#242424"/>
			<stop  offset="0.9717" style="stop-color:#0C0C0C"/>
			<stop  offset="1" style="stop-color:#000000"/>
		</linearGradient>
		<path fill="url(#SVGID_1_)" d="M186.088,167.55V49.035h39.711l0.071-26.285l-35.917-0.097v0.045
			c-0.826,0.012-1.662,0.086-2.498,0.3c-4.438,1.134-7.443,4.953-7.814,9.274l-0.069-0.001v1.37c0,0.005-0.001,0.012,0,0.021
			l-0.022,154.062c-0.063,1.054-0.015,2.127,0.259,3.202c1.175,4.603,5.234,7.66,9.752,7.843v0.009l0.19,0.001
			c0.313,0.01,0.627,0.025,0.944,0.007l34.697,0.085l0.085-31.321H186.088z"/>
		<path d="M270.497,30.681c-1.209-4.603-5.382-7.66-10.027-7.841v-0.01l-0.2,0.001c-0.324-0.007-0.643-0.025-0.974-0.003
			l-34.72-0.084l-0.073,26.291h39.881V167.55h-40.212l-0.087,31.313l35.978,0.09l0.005-0.048c0.853-0.01,1.71-0.084,2.566-0.299
			c4.811-1.189,7.985-5.358,8.08-9.962h0.031v-0.629c-0.004-0.03,0.002-0.06-0.004-0.088l0.021-153.996
			C270.83,32.864,270.784,31.774,270.497,30.681z"/>
		<g id="g3967">
			<path id="path3969" fill="#CCCCCC" d="M236.843,182.971c0,2.007-1.627,3.634-3.634,3.634h-15.601
				c-2.007,0-3.633-1.627-3.633-3.634l0,0c0-2.007,1.626-3.634,3.633-3.634h15.601C235.216,179.338,236.843,180.965,236.843,182.971
				L236.843,182.971L236.843,182.971z"/>

				<linearGradient id="path3986_1_" gradientUnits="userSpaceOnUse" x1="517.366" y1="-27.0046" x2="489.9529" y2="-27.0046" gradientTransform="matrix(0.8 0 0 -0.8 -177.5519 161.3676)">
				<stop  offset="0" style="stop-color:#585858"/>
				<stop  offset="0.2615" style="stop-color:#555555"/>
				<stop  offset="0.4626" style="stop-color:#4B4B4B"/>
				<stop  offset="0.6434" style="stop-color:#3B3B3B"/>
				<stop  offset="0.8124" style="stop-color:#242424"/>
				<stop  offset="0.9717" style="stop-color:#0C0C0C"/>
				<stop  offset="1" style="stop-color:#000000"/>
			</linearGradient>
			<path id="path3986" fill="url(#path3986_1_)" d="M236.343,182.971c0,1.813-1.56,3.282-3.484,3.282h-14.962
				c-1.927,0-3.484-1.472-3.484-3.282l0,0c0-1.813,1.56-3.282,3.484-3.282h14.962C234.783,179.689,236.343,181.159,236.343,182.971
				L236.343,182.971z"/>
		</g>
		<rect x="213.148" y="34.5" fill="#FFFFFF" width="24.175" height="2.5"/>
	</g>
	<g id="Batterie">
		<rect id="rect3989" x="186.088" y="49.035" width="78.296" height="6.303"/>
		<g id="g3993">
			<path id="path3995" fill="#FFFFFF" d="M244.976,53.486h5v-2.6h-5V53.486z M245.142,51.036h4.667v2.3h-4.667V51.036z"/>
			<rect id="rect3997" x="245.238" y="51.136" fill="#FFFFFF" width="3.426" height="2.1"/>
			<rect id="rect3999" x="250.076" y="51.287" fill="#FFFFFF" width="0.463" height="1.8"/>
		</g>
		<g id="g4001">
			<rect id="rect4003" x="187.468" y="52.792" fill="#FFFFFF" width="0.774" height="0.675"/>
			<polygon id="polygon4005" fill="#FFFFFF" points="189.242,53.467 189.242,52.792 189.242,52.117 188.468,52.117 188.468,52.792
				188.468,53.467 			"/>
			<polygon id="polygon4007" fill="#FFFFFF" points="189.468,53.467 190.242,53.467 190.242,52.792 190.242,52.117 190.242,51.442
				189.468,51.442 189.468,52.117 189.468,52.792 			"/>
			<polygon id="polygon4009" points="190.48,52.117 190.48,52.792 190.48,53.467 191.256,53.467 191.256,52.792
				191.256,52.117 191.256,51.442 191.256,50.766 190.48,50.766 190.48,51.442 			"/>
		</g>
	</g>
</g>
</svg>
