<?xml version="1.0" encoding="utf-8"?>
<!-- Generator: Adobe Illustrator 16.0.0, SVG Export Plug-In . SVG Version: 6.00 Build 0)  -->
<!DOCTYPE svg PUBLIC "-//W3C//DTD SVG 1.1//EN" "http://www.w3.org/Graphics/SVG/1.1/DTD/svg11.dtd">
<svg version="1.1" id="Layer_1" xmlns="http://www.w3.org/2000/svg" xmlns:xlink="http://www.w3.org/1999/xlink" x="0px" y="0px"
	 width="301.06px" height="382.935px" viewBox="0 0 301.06 382.935" enable-background="new 0 0 301.06 382.935"
	 xml:space="preserve">
<g id="Feuilles">
	<path fill-rule="evenodd" clip-rule="evenodd" fill="#77B765" d="M77.268,86.161c4.302,0.533,8.619,0.327,12.977,1.112
		c4.377,0.793,7.343,4.177,12.018,4.677C92.375,82.116,83.837,71.684,82.6,56.173c14.866,7.313,19.743,20.327,23.52,34.45
		c-0.06-9.824,2.457-18.4,8.211-26.772c3.694,6.789,4.847,13.577,3.82,20.563c-0.779,5.293-1.788,10.611-5.105,15.238
		c-2.625,3.669,1.428,6.015,2.673,9.085c2.562-8.909,3.325-18.464,10.587-25.592c3.42,4.659,2.74,9.811,3.008,14.769
		c0.095,1.676-0.619,3.697,1.418,4.69c1.331,0.649,3.394,2.595,4,1.443c1.422-2.687,5.615-4.275,3.863-8.389
		c3.505,0.014,4.004,2.772,4.803,5.26c-0.198,3.708,1.701,7.069,1.796,10.734c0.657,8.033-1.934,15.377-4.786,22.668
		c-0.757,2.213-1.865,4.25-3.129,6.207c-3.797,4.035-4.871,8.404-1.469,13.178c1.314-4.05,1.144-8.568,2.385-12.807
		c1.293-1.494,2.385-3.129,3.277-4.904c2.088-3.654,4.108-7.352,7.331-10.185c3.196-2.814,4.598-2.499,5.929,1.585
		c1.728,5.287,0.963,10.764,0.94,16.174c-0.004,1.054,0.143,2.098,0.159,3.144c-3.119,3.429-1.43,7.39-1.211,11.188
		c-1.074,0.811-2.587-0.836-3.764,1.365c-2.423,4.539-5.784,8.556-8.542,12.93c-0.31,1.76,0.396,3.355,0.868,4.967
		c0.258,0.895,0.446,2.314,1.74,1.987c1.027-0.263,0.885-1.706,1.268-2.624c2.113-6.278,4.627-12.354,8.799-17.6
		c2.054-1.289,3.266-2.98,3.42-5.556c0.096-1.493-0.563-3.776,2.175-3.989c6.9,7.986,5.757,17.409,3.745,26.406
		c-1.412,6.324-3.518,12.426-3.213,19.022c0.078,1.567-0.094,3.208-1.246,4.45c-0.91,0.988-1.955,1.637-2.844-0.088
		c-0.159-3.229,0.231-6.422,0.885-8.888c-0.009,1.321-1.323,2.661-2.463,4.096c-2.753,3.604-6.938,6.126-5.778,12.11
		c0.679,3.496-2.045,1.773-3.565,0.563c-0.336,3.919,1.133,7.123,3.729,9.925c0.955,1.025,1.969,2.06,2.238,3.506
		c0.268,1.407,0.435,3.051-1.056,3.746c-1.354,0.637-2.098-0.83-2.927-1.678c-3.514-3.585-5.405-8.057-6.922-12.729
		c-0.158-0.312-0.305-0.629-0.373-0.969c-1.452-7.318-1.547-7.379-8.087-5.083c-1.546-1.987-1.211-5.448-4.657-5.964
		c-8.395-4.197-15.231-10.054-19.622-18.479c-1.177-2.256-3.476-4.568-1.921-7.188c1.658-2.793,4.701-1.271,7.205-1.177
		c2.501,1.497,5.213,2.076,8.117,1.84c4.679,3.337,9.605,6.361,13.512,10.748c-1.938-3.055,0.297-7.912-3.477-9.783
		c-2.946-1.463-6.581-2.008-10.07-0.988c-1.676-2.212-3.313-4.468-6.049-5.523c-4.107-1.486-6.857-5.332-11.473-6.15
		c-2.552-0.453-8.086-12.457-7.355-14.979c0.49-1.716,1.324-3.294,3.531-3.243c2.137,4.523,4.443-0.416,6.652,0.111
		c2.17,2.693,5.585,3.205,8.398,4.76c1.784,0.984,3.894,1.463,4.895,3.518c1.229,0.965,3.081,0.67,4.172,2.208
		c-1.229-3.388-1.229-3.388-4.069-2.077c-1.064-2.533-2.896-4.025-5.576-4.855c-2.944-0.912-5.698-2.371-8.107-4.359
		c-1.892-0.854-3.847-1.531-5.797-2.253c-3.137-3.18-7.153-5.433-9.692-9.3c0.473,1.517,1.092,3.302-0.68,4.006
		c-1.624,0.648-2.947-0.391-3.304-2.26c-0.446-6.902-0.829-13.807-0.962-20.722c-0.039-2.075-1.805-3.347-2.119-5.249
		c-0.051-0.523,0.111-0.977,0.474-1.353c2.612-0.855,2.088-5.019,5.405-5.126c1.271,2.432,2.908,4.136,6.022,3.893
		c2.918-0.229,5.264,1.458,7.657,2.849c1.839,0.543,3.283,1.889,5.087,2.55c-0.94-4.374-0.94-4.374-5.323-3.783
		c-4.335-2.344-9.487-2.724-13.604-5.607c-1.331-0.344-2.65-0.727-4.068-1.223c-0.671,2.252,1.01,5.06-1.667,6.711
		c-1.977-0.818-1.934-2.75-2.294-4.374c-0.791-3.603-1.891-6.965-4.599-9.712C75.927,89.79,74.376,87.891,77.268,86.161z"/>
	<path fill-rule="evenodd" clip-rule="evenodd" fill="#77B765" d="M189.198,108.237c4.572-2.711,6.162-7.132,6.386-12.849
		c3.278,2.417,4.201,7.506,8.979,5.257c0.206,0.621,0.714,1.317,0.577,1.847c-1.126,4.346,1.198,7.67,2.856,11.356
		c3.003,6.685,5.607,13.568,6.784,20.875c0.224,1.381,0.73,2.324,2.299,2.309c0.155-0.293,0.331-0.574,0.451-0.878
		c2.965-7.192,1.268-12.896-3.102-19.618c-7.962-12.234-10.656-26.14-6.23-40.749c0.963-3.169,2.199-8.116,4.228-8.228
		c2.966-0.167,4.057,4.43,5.217,7.383c3.669,9.337,6.59,18.866,6.694,29.049c0.018,1.457-0.34,3.287,1.941,4.193
		c1.242-2.307,2.639-4.591,3.721-7.016c0.937-2.11,0.637-3.91-0.61-6.269c-7.674-14.546-7.505-28.649,3.901-42.231
		c6.016,9.936,4.434,21,4.795,31.561c2.161,0.136,2.028-1.334,2.617-2.041c2.783-3.333,4.138-6.363,2.581-11.429
		c-4.111-13.381,0.778-24.701,10.631-34.102c0.73-0.695,1.817-1.658,2.587-1.538c1.469,0.231,1.262,1.862,1.392,3.035
		c0.89,8.024-0.954,15.693-3.068,23.324c-0.266,0.965-1.129,1.856,0.409,4.125c9.327-18.821,24.735-28.94,45.827-33.539
		c-12.268,15.63-27.605,25.433-42.961,35.324c6.84-0.396,12.82-3.745,19.573-3.418c3.37,0.166,6.669,0.389,9.822,1.568
		c1.023,0.383,2.768-0.121,2.842,1.689c0.055,1.275-1.242,1.579-2.094,2.109c-11.402,7.149-23.527,11.683-37.285,9.884
		c-1.427-0.185-2.432-0.04-3.176,1.109c-1.68,2.593-3.303,5.222-5.684,9.001c4.412-1.77,7.506-3.038,10.621-4.255
		c6.634-2.595,13.345-2.488,20.193-0.825c2.818,0.686,2.75,1.833,0.98,3.442c-9.44,8.546-20.641,13.463-33.256,13.657
		c-4.383,0.066-6.105,1.153-6.893,4.739c-0.442,2.006-2.035,3.714-1.438,6.725c11.69-8.723,24.435-11.064,38.63-7.18
		c-5.576,8.408-12.979,14.505-22.105,18.359c-6.441,2.72-13.118,4.992-20.336,4.322c-1.813-0.168-2.389,0.99-2.938,2.393
		c-1.22,3.137-1.581,6.41-1.855,10.383c5.323-2.684,9.345-6.851,14.813-8.646c5.676-1.863,11.339-2.197,17.152-1.742
		c2.467,0.193,4.499,1.18,2.698,3.979c-4.752,7.381-10.037,14.299-18.535,17.815c-1.435-1.768-0.301-3.27,0.489-4.816
		c0.863-1.676,1.978-3.273,1.822-5.663c-5.561,2.836-8.963,7.27-11.412,12.578c-0.443,0.952-0.645,2.014-1.108,2.953
		c-0.825,1.666-1.354,4.229-3.695,3.746c-2.526-0.522-1.873-3.021-1.529-4.861c0.713-3.783-0.211-7.217-1.95-11.272
		c-3.721,5.899-4.4,11.457-1.942,17.35c1.019,2.453,2.152,4.874,1.058,7.573c-0.723,1.771-2.137,2.989-4.065,2.713
		c-1.968-0.282-1.319-2.098-1.401-3.421c-0.317-5.333-1.576-10.346-5.1-14.557c-3.261-2.397-5.4-5.696-7.359-9.144
		c-1.393-3.748-3.421-7.1-6.277-9.926c-0.107-3.086-0.934-5.963-2.549-8.604c-0.18-0.483-0.304-0.981-0.386-1.491
		c-1.074-6.765-1.074-6.765-7.545-5.657c-2.14-0.087-3.751-0.866-3.79-3.284c-0.042-2.466,1.504-3.661,3.699-4.308
		C188.864,111.794,191.858,111.627,189.198,108.237z"/>
	<path fill-rule="evenodd" clip-rule="evenodd" fill="#3E9B46" d="M189.198,108.237c0.98,0.554,2.914-1.626,3.133,1.04
		c0.146,1.792-0.043,3.566-2.188,4.11c-0.983,0.25-2.054,0.155-3.084,0.223c-1.788,0.119-2.893,0.965-3.004,2.855
		c-0.142,2.313,1.529,2.31,3.107,2.425c0.554,2.296-1.35,3.415-2.424,4.886c-4.203,5.746-8.766,11.232-11.679,17.852
		c-0.962,2.179-1.22,3.912,0.542,5.65c0.146,1-0.327,1.841-1.151,2.143c-4.903,1.781-4.194,5.176-2.578,9.316
		c4.104-4.088,6.711-9.135,10.931-12.733c1.83-1.562,3.265-3.77,6.118-3.622c3.97,2.246,2.596,6.159,2.981,9.521
		c-7.227,6.524-12.641,14.385-16.864,23.113c-1.155,2.393-2.251,4.771-1.447,7.532c-1.255,2.567-2.467,5.147-2.44,8.101
		c-0.435,1.975-1.806,3.335-3.025,4.841c-3.566,4.417-7.252,8.784-8.524,14.224c0.138-0.118,0.532-0.506,1.015-0.691
		c2.019-0.77,4.278-3.334,6.135-1.316c2.148,2.336-0.098,4.857-1.572,7.009c-0.594,0.866-1.349,1.608-2.148,2.298
		c-0.704,0.049,0.164,1.105-0.111,0.459c-0.057-0.135,0.068-0.15,0.326-0.226c3.756-1.112,4.065,1.083,3.107,3.636
		c-0.641,1.713-1.995,3.204-3.211,4.651c7.679-8.966,8.869-20.481,12.178-31.167c2.801-3.965,4.889-8.546,9.383-11.074
		c2.415-0.809,4.13-0.406,4.461,2.52c0.154,1.352,1.167,2.018,2.285,1.58c1.684,3.334,1.667,6.064-2.54,7.387
		c-1.576,0.495-2.72,1.611-3.601,2.941c-4.747,7.143-9.529,14.273-12.31,22.492c-2.465,6.943-5.521,13.549-10.526,18.547
		c1.074-0.549,2.57-2.352,4.413-0.639c1.555,1.445,0.919,3.305,0.253,4.918c-1.486,3.586-3.055,7.416-6.23,9.619
		c-4.713,3.279-5.877,7.531-5.318,12.764c0.086,0.865-0.025,1.752-0.197,2.625c-0.267,1.113-0.816,2.004-1.891,2.506
		c-1.092,0.396-2.166,0.355-3.228-0.1c-4.933-4.254-10.358-8.156-11.141-15.416c1.633-2.527,3.729-2.174,5.852-0.82
		c2.433,1.549,4.744,3.271,6.511,5.949c-0.994-2.658-3.064-3.986-4.895-5.557c-3.769-3.225-6.88-6.914-7.846-11.982
		c-0.404-2.109-0.627-4.184,1.418-5.689c1.361-0.518,2.303,0.203,3.231,0.984c-1.513-2.299-3.776-4.23-4.417-7.139
		c0.812-2.465-1.668-6.324,1.898-7.355c3.23-0.936,4.993,2.504,6.892,4.691c0.67,0.775,1.229,1.661,1.771,2.174
		c-2.87-4.324-8.048-7.834-6.887-14.428c0.854-2.016-0.529-4.487,1.268-6.313c2.638,3.429,2.783,8.258,6.357,11.188
		c0.898,0.734,1.471,1.87,2.776,2.582c-1.984-6.505-8.765-11.365-6.505-19.158c1.848,0.238,2.423,2.496,5.271,4.137
		c-4.808-7.617,1.126-10.514,4.524-14.471c2.14,0.543,4.229,1.131,3.257,4.132c-0.052,0.74,0.108,1.579,0.968,1.364
		c0.476-0.121,1.12-1.109,1.052-1.627c-1.607-13.207,6.316-25.313,4.365-38.615c-0.555-3.794-4.245-5.819-4.322-9.607
		c-2.242,1.123-3.678,0.43-4.365-1.943c-1.341-1.361-1.126-2.982-1.1-4.733c0.077-5.993,0.967-12.108-1.86-18.286
		c-3.648,3.085-6.725,6.168-8.417,10.377c-0.438,1.084-0.946,1.813-2.157,1.877c-1.238-0.164-2.682-0.109-2.175-2.088
		c-1.375-3.777,1.969-6.391,2.621-9.76c0.863-4.493,1.642-8.888,1.607-13.448c2.578-0.684,3.781,1.392,5.147,2.792
		c3.781,3.869,7.253,8.011,10.265,13.06c0.356-5.285,0.536-10.112-1.93-14.615c-0.661-0.921,2.931,0.823,0.898-1.899
		c-2.505-3.349-3.648-7.785-5.926-11.506c-4.963-8.114-12.254-13.618-20.254-18.364c-0.12-0.129-0.292-0.238-0.348-0.391
		c-0.851-2.232-2.505-5.188-0.916-6.744c1.968-1.92,4.453,0.679,6.522,1.708c8.762,4.348,15.816,10.597,20.788,19.102
		c0.488,0.84,1.236,1.53,2.361,2.097c-1.056-4.219,3.516-9.592-2.989-12.54c-0.154-0.898,2.736,0.172,0.979-2.411
		c-2.909-4.264-5.147-9.007-8.413-13.115c-2.749-3.457-6.179-6.088-9.529-8.875c-1.98-1.652-2.183,0.428-3.128,1.017
		c-2.492-2.735-1.822-6.215-2.436-9.438c7.277-0.18,10.969,2.655,25.396,19.341c1.392-6.018,1.319-6.267-2.569-8.819
		c1.178-4.294-1.693-7.177-3.76-10.228c-4.202-6.204-9.509-11.416-15.592-15.753c-0.263,0.535,0.154,1.805-0.903,2.464
		c-2.019-2.855-3.596-7.017-1.719-9.149c1.746-1.985,5.105,1.288,7.68,2.59c6.104,3.089,10.53,7.869,14.375,13.358
		c0.868,1.237,1.362,2.891,3.064,3.527c1.938-2.234,0.292-4.322-0.435-6.142c-5.1-12.757-4.353-25.363,0.752-37.849
		c0.515-1.259,0.923-3.53,2.784-3.379c1.658,0.133,2.166,2.249,2.693,3.577c5.169,12.896,5.702,25.874,0.207,38.854
		c-0.915,1.644-1.791,3.489,0.09,4.826c0.916,0.644,1.603-0.744,2.066-1.618c6.003-8.658,13.203-15.734,24.62-18.931
		c-1.517,4.337-0.417,8.404-3.347,11.474c-1.315-0.047,0.334-4.03-2.6-1.936c-8.435,6.021-15.06,13.414-17.943,23.638
		c-0.029,0.114,0.486,0.444,0.684,0.756c-0.205,2.283-3.785,2.892-2.63,6.172c5.01-4.715,8.026-11.536,15.107-13.659
		c2.147-1.062,4.262-2.2,6.453-3.163c2.664-1.172,3.776-0.507,3.185,2.634c-0.443,2.356-0.331,4.823-2.23,6.668
		c-1.298,0.131-0.172-2.794-1.831-1.704c-8.851,5.835-14.849,14.026-18.922,23.707c-0.192,0.453,0.163,0.999,0.469,1.433
		c-2.384,1.179-3.467,2.889-3.142,5.733c0.328,2.853,0.069,5.774,0.594,8.875c5.869-8.819,12.271-16.879,21.654-21.81
		c2.862-1.505,5.5-3.912,9.302-3.604c0.727,3.354-0.326,6.421-1.782,9.422c-1.194-0.9-2.338-0.473-3.368,0.253
		c-10.176,7.19-18.124,16.164-22.617,27.979c-0.692,1.824,1.495,0.667,1.318,1.678c-4.091,1.474-5.697,4.138-4.954,8.618
		c0.512,3.074,0.1,6.302,0.623,9.867C174.393,122.936,179.952,113.788,189.198,108.237z"/>
	<path fill-rule="evenodd" clip-rule="evenodd" fill="#39621D" d="M114.214,171.671c-0.167,0.048-0.386,0.046-0.498,0.151
		c-2.003,1.868-5.432-2.041-6.479,1.011c-1.031,2.993,2.046,5.448,3.584,7.749c1.92,2.865,4.301,5.391,5.46,8.752
		c1.058,3.062,4.825,0.354,6.536,3.186c1.22,2.012,4.099,3.015,6.237,4.467c0.446,2.814-1.146,4.789-2.774,6.75
		c-2.854,2.172-6.153,0.284-9.237,0.945c-0.645,1.699,0.88,3.455-0.159,5.094c-0.392,0.691-0.941,1.216-1.638,1.594
		c-3.608,1.268-7.192,1.175-10.741-0.236c-0.748-0.195-1.47-0.479-2.165-0.816c-4.56-2.485-10.416-2.382-13.948-6.943
		c-0.979-0.808-1.846-1.737-2.835-2.537c-1.581-1.407-3.123-2.854-4.455-4.489c-3.52-4.322-2.978-5.806,2.415-6.886
		c9.474-2.717,17.92-0.002,26.394,5.52c-0.21-5.039-2.841-8.656-4.022-12.686c-0.636-2.181-3.055-1.092-4.691-1.009
		c-15.099,0.771-27.653-4.561-38.103-15.4c-2.774-2.886-1.829-4.039,1.319-5.072c11.854-3.886,23.061-2.518,33.784,4.402
		c-0.112-4.474-3.12-7.519-4.31-11.255c-0.648-2.05-2.479-1.463-4.025-1.188c-17.547,3.141-32.654-1.951-46.205-13.635
		c13.513-7.6,26.947-7.063,41.736-0.348c-1.706-2.512-2.715-3.645-3.33-4.963c-2.26-4.83-4.73-6.595-11.042-5.367
		c-12.662,2.464-24.898-0.523-36.172-8.443c10.518-6.488,21.345-6.657,33.4-3.21c-1.852-3.009-3.927-4.296-5.25-6.103
		c-2.007-2.731-3.764-2.533-6.711-1.566c-13.938,4.567-27.198,1.856-40.749-4.281c10.836-7.363,22.128-6.75,33.754-5.455
		c-4.014-5.233-10.45-4.604-15.575-6.799C22.336,87.725,11.497,81.996,1.42,74.814c-0.713-0.51-1.469-0.986-1.418-2.118
		c20.86-0.535,38.176,7.038,51.951,23.163c-4.25-9.882-9.707-18.813-8.848-29.737c14.771,5.066,24.241,22.409,20.396,36.132
		c-0.378,1.355-0.515,2.02,0.778,3.027c2.415,1.882,4.524,4.161,7.257,6.744c0.722-2.02,0.43-3.461-0.103-4.827
		c-3.013-7.753-2.909-15.833-2.523-23.932c0.065-1.295-0.559-3.065,1.122-3.736c1.938-0.773,2.788,1.089,3.79,2.174
		c1.268,1.373,2.307,2.963,3.445,4.458c-0.21,0.814-0.799,2.207-0.571,2.354c5.989,3.942,5.654,10.902,8.035,16.544l0.009,0.018
		c0.042,0.432,0.081,0.858,0.12,1.288c1.542,3.743,1.685,7.588,0.025,11.236c-1.671,3.661-1.187,6.657,1.417,9.644
		c1.212,1.395,2.492,3.027,1.728,5.199c1.427,1.527,3.095,3.785,2.565-0.816c-0.115-1.008-0.322-2.004-0.137-3.262
		c2.907,4.828,8.957,6.443,11.338,11.717c0.309,1.352-0.154,2.37-1.341,3.066c-2.793,2.107-3.867,4.423-1.022,7.354
		c0.456,0.473,0.542,1.284,0.863,1.905c1.629,3.147,1.389,7.24,6.995,7.771c3.262,0.309,6.191,4.127,9.269,6.365
		C117.763,169.16,116.792,170.782,114.214,171.671z"/>
	<path fill-rule="evenodd" clip-rule="evenodd" fill="#39631D" d="M170.277,220.085c0.3-5.841,3.561-10.621,6.707-14.963
		c3.227-4.46,4.111-11.401,11.535-12.406c1.448-0.198,0.481-3.427,0.503-5.269c-1.637-2.485-1.327-4.983,1.144-6.343
		c2.706-1.485,4.154,0.983,5.263,2.958c2.557,4.566,5.036,9.203,5.178,14.636c-0.151-8.249-6.978-14.956-5.676-23.53
		c0.146-0.48,0.361-0.932,0.627-1.354c1.53-2.055,1.479-4.652,2.371-6.912c0.74-1.889,1.212-4.56,3.627-4.664
		c2.363-0.1,3.523,2.289,4.134,4.242c1.573,5.063,4.399,9.797,4.159,12.68c-0.705-3.979-3.858-10.385-1.899-17.296
		c0.516-3.017,1.032-6.028,3.694-8.054c5.117,5.051,5.715,11.538,5.707,18.404c3.484-1.461,4.881-3.713,2.968-7.061
		c-3.759-6.568-3.526-13.028,0.177-19.463c0.541-0.937-0.31-2.82,1.607-2.788c1.873,0.032,1.848,1.729,2.285,3.036
		c1.349,4.047,2.463,8.074,0.852,12.337c-0.302,0.797-0.289,1.735,1.005,2.524c1.529-0.849,1.744-2.502,2.178-4.131
		c1.913-7.182,6.785-12.098,12.692-16.141c0.795-0.545,2.238-1.094,2.866-0.734c1.504,0.859-0.034,2.103-0.087,3.205
		c-0.188,3.695-3.811,5.871-4.063,9.495c-3.798,3.029-7.589,6.054-11.566,9.231c2.251,0.895,3.725,0.092,5.146-0.932
		c4.288-0.723,8.576-1.283,12.813,0.271l0.025,0.039c1.173,2.426-0.67,3.441-2.157,4.623c-4.158,3.293-9.058,4.435-14.195,4.787
		c-1.831,0.125-3.632,0.296-5.354,0.94c3.722-0.958,7.503-1.325,11.33-1.067c1.401,0.092,2.87,0.371,3.477,1.907
		c0.696,1.786-0.344,3.033-1.572,4.101c-4.469,3.889-9.504,6.404-15.545,6.898c-2.454,0.201-5.414-0.315-6.918,2.547
		c5.586-2.77,11.309-4.256,17.457-1.771c2.007,0.257,4.851,0.201,1.688,3.094c-2.247,2.055-4.782,3.79-7.192,5.668
		c-3.871,3.944-9.229,4.537-14.119,6.146c-1.452,0.479-3.106,0.334-4.937,1.632c4.859-1.905,9.432-2.223,13.986-2.313
		c1.838-0.037,4.196,0.195,4.94,2.258c0.68,1.869-1.108,3.167-2.303,4.387c-5.405,5.529-12.014,8.965-19.43,10.945
		c-1.83,0.488-3.841,0.643-5.576,3.081c3.162-0.829,5.572-1.959,8.104-2.503c3.488-0.752,7.191-2.116,10.285,1.168
		c0.116,0.497,0.129,0.994,0.021,1.489c-1.662,8.003-9.478,9.212-14.76,13.161c-2.182,1.633-4.957,2.58-7.625,3.494
		c-1.113,0.383-2.678,0.813-1.917,2.461c0.692,1.482,2.187,0.969,3.231,0.404c2.883-1.563,5.994-1.857,9.16-2.002
		c1.521-0.068,3.373-0.811,4.258,0.996c0.783,1.604-0.386,3.037-1.254,4.336c-4.306,6.439-9.965,11.221-17.272,13.951
		c-1.864,1.158-4.047,1.859-5.242,4.01c1.865-1.287,3.601-2.789,5.724-3.637c3.411-0.912,6.384-3.387,10.2-2.91
		c1.323,0.529,2.269,1.387,2.5,2.861c-0.43,0.637-0.868,1.268-1.298,1.904c-2.389,7.15-8.03,11.533-14.114,14.908
		c-4.537,2.516-7.91,5.277-9.062,10.387c-6.908,1.561-5.01-3.551-5.301-7.002c-2.055-1.877-3.876-3.965-5.539-6.197
		c-3.579-4.422-5.625-9.436-5.865-15.146c5.256-6.844,9.582-14.131,11.566-22.688c0.637-2.734,2.69-3.178,4.684-1.064
		c1.135,1.205,1.938,2.664,4.073,1.264c-2.233-1.791-2.208-4.787-3.55-7.164c-1.034-1.586-1.666-3.343-2.113-5.169
		c-0.313-1.298-1.002-1.665-2.19-0.979C174.5,220.036,172.6,221.806,170.277,220.085z"/>
	<path fill-rule="evenodd" clip-rule="evenodd" fill="#76B665" d="M202.905,254.163c-3.721,0.182-6.672,3.02-10.445,3.016
		c-0.886-0.484-1.092-1.301-1.087-2.219c8.1-3.58,14.685-8.785,18.888-17.455c-4.962,0.615-9.504,0.197-13.525,2.816
		c-2.08,1.355-3.652,1.432-4.68-1.605c-0.983-2.928,0.065-3.334,2.574-4.178c5.74-1.932,11.042-4.641,16.018-8.428
		c2.767-2.108,5.125-4.112,6.874-6.998c1.306,1.216,0.809,2.928,1.255,4.158c0.704-3.587,0.704-3.587-0.889-5.125
		c-6.526-3.321-12.027,0.859-17.871,2.478c-0.613,0.17-1.133,0.667-2.187,1.312c0.366-4.448,2.016-6.321,6.273-7.197
		c9.053-1.863,16.825-6.318,22.991-14.398c-6.41-1.246-12.091-0.682-17.586,1.568c-1.232,0.505-2.162,1.908-3.717,1.18
		c-0.292-0.14-0.541-0.945-0.421-1.311c0.585-1.709,1.563-3.43,3.479-3.507c6.627-0.267,12.186-3.961,18.42-5.437
		c3.125,2.396,5.83-0.66,8.787-0.801c4.184-0.201,4.631,1.44,3.316,4.551c-1.006,2.371-2.397,4.574-3.617,6.852
		c-1.813,2.705-2.995,5.822-5.576,8.02c-1.806,1.531-1.437,3.789-1.513,5.841c-0.147,3.792,0.42,7.663-1.341,11.259
		c-1.083,2.409-1.788,5.068-4.297,6.545c-0.963,1.186-1.925,2.373-3.214,3.967c2.113-0.285,3.712-0.502,5.311-0.717
		c-0.692,3.346-3.7,3.34-6.024,3.654c-2.736,0.369-2.405,2.098-2.561,3.824c-2.663-0.729-3.234,1.83-4.872,2.883
		c4.348,0.172,8.683-2.238,12.676,0.871c-4.194,2.82-9.165,2.406-13.544,1.842c-3.098-0.4-4.529-0.586-5.604,2.432
		C204.881,254.75,203.755,254.59,202.905,254.163z"/>
	<path fill-rule="evenodd" clip-rule="evenodd" fill="#3E9B46" d="M88.934,202.417c3.454,4.459,9.513,3.825,13.646,6.966
		c-0.743,2.507-0.236,5.278-1.59,7.659c-0.739,0.813-1.744,1.112-2.776,1.227c-3.479,0.389-3.394,2.111-1.89,4.6
		c0.923,1.523,2.638,3.01,0.944,5.068c-10.466,3.635-20.648,2.966-30.539-2.043c-1.014-0.514-2.646-0.304-2.69-2.016
		c-0.047-1.867,1.677-1.354,2.664-1.856c7.072-3.604,14.402-3.466,23.107-0.317c-3.382-5.054-6.089-6.863-10.793-5.33
		c-6.239,2.035-12.495,0.867-18.523-1.389c-1.064-0.399-2.71-0.577-2.796-2.029c-0.104-1.803,1.795-2.132,2.947-2.518
		c4.743-1.602,9.654-1.249,14.543-0.693c3.228-0.015,4.259-1.677,3.357-5.385c-1.883-4.426-2.309-9.059-1.9-13.79
		c0.232-2.659,0.447-5.458,3.987-2.066c0.662,0.636,1.907,0.655,2.888,0.958c-4.834,1.477-3.627,3.983-1.082,6.619
		c1.43,1.48,2.989,2.833,4.493,4.244c0.211,3.119,0.344,6.248,0.009,9.356c-0.284,2.661,0.781,4.479,2.749,5.792
		C89.922,211.086,86.454,206.979,88.934,202.417z"/>
	<path fill-rule="evenodd" clip-rule="evenodd" fill="#39631E" d="M97.268,227.936c0.379-2.265-1.662-3.209-2.564-4.779
		c-0.838-1.456-2.063-2.975-1.297-4.765c0.906-2.116,2.98-1.044,4.554-1.292c0.838-0.133,1.715-0.039,2.565-0.051
		c1.332-0.395,2.604-1.018,4.03-1.049c2.999,0.133,5.706,1.324,8.48,2.303c1.685,0.695,2.94,2.234,5.007,2.599
		c-0.667-2.954-2.27-5.459-2.746-8.317c-0.146-0.727-0.009-1.449,0.018-2.172c0.442-0.285,0.885-0.566,1.323-0.85
		c1.646-0.223,2.835,0.737,3.312,2.004c2.669,7.09,9.045,10.688,14.227,15.414c1.276,1.163,2.725,2.166,3.287,3.919
		c2.466,3.138,4.937,6.276,7.982,10.157c-3.862-0.197-4.64-3.379-7.037-3.805c-3.416-0.615-5.572-3.473-8.602-4.809
		c-2.548-1.121-4.929-2.645-7.902-2.309c-0.881,1.809,0.524,3.029,0.98,4.432c0.653,2.027,1.632,4.18-0.311,5.854
		c-1.864,1.609-3.592-0.207-5.336-0.803c-0.713-0.176-1.392-0.43-2.058-0.723c-4.622-2.361-10.333-2.564-13.935-6.973
		C99.924,230.592,98.596,229.262,97.268,227.936z"/>
	<path fill-rule="evenodd" clip-rule="evenodd" fill="#44A04D" d="M78.545,204.36c4.923,2.596,0.076,4.645-0.723,6.471
		c-0.765,1.736-2.269,0.7-2.635-1.086c0.649-3.265-2.101-4.938-5.89-3.998c-6.698,1.66-13.465,2.115-20.117-0.291
		c-1.009-0.365-2.706-0.204-2.552-2.02c0.112-1.27,1.357-1.429,2.26-1.923c4.701-2.583,9.763-2.153,15.168-2.17
		c-8.749-4.208-17.66-8.083-22.352-17.355c6.694-1.714,8.129-0.847,24.627,14.903c-1.477-6.596-4.158-12.678-1.722-19.826
		c6.737,5.633,9.611,12.631,9.174,20.492c-0.246,4.43,1.176,7.15,4.192,9.68C79.121,206.465,78.201,205.288,78.545,204.36z"/>
	<path fill-rule="evenodd" clip-rule="evenodd" fill="#439E4B" d="M101.247,231.922c4.675,1.998,9.342,3.998,14.017,5.996
		c-0.864,1.963-1.342,3.84,0.601,5.551c1.173,1.035,1.81,2.447,2.123,3.99c0.064,0.49,0.034,0.975-0.064,1.457
		c-1.379,2.229-1.091,4.131,0.808,6.029c0.916,0.916,2.96,1.637,1.629,3.664c-9.84,0.459-18.97-1.258-26.888-8.441
		c7.252-4.314,14.273-2.041,22.071-0.543c-3.021-4.777-4.898-7.262-10.936-5.867c-8.894,2.055-17.642-1.145-25.59-5.691
		c-0.653-0.377-1.268-1.287-1.384-2.029c-0.206-1.283,1.104-0.957,1.822-1.238c6.629-2.58,13.298-2.926,20.047-0.443
		c0.859,0.314,2.041,1.242,2.639-0.092C102.381,233.725,101.578,232.717,101.247,231.922z"/>
	<path fill-rule="evenodd" clip-rule="evenodd" fill="#429C48" d="M151.268,269.819c0.834-0.484,0.992-1.291,1.036-2.156
		c3.011,0.379,3.234,2.828,3.372,4.996c0.229,3.59,0.456,7.178,0.74,10.766c-1.041,0.01-2.085,0.018-3.129,0.029
		c-2.732-1.371-5.474-0.85-8.206-0.012c-6.05-0.086-12.144,0.98-18.124-0.699c-0.962-1.408-3.669-3.107,0.808-3.369
		c3.652-0.213,6.85,0.947,10.042,2.66c-2.428-7.432-3.664-8.416-10.814-8.746c-8.112-0.377-14.411-3.17-20.254-9.184
		c6.135-2.512,11.927-1.631,17.723,0.391c0.864,0.301,1.998,1.354,2.458-0.348c0.125-0.461-0.614-1.152-0.958-1.738
		c4.786-1.52,8.356,1.111,11.992,3.516c1.426,3.443-2.729,7.834,2.229,10.691c0.628-2.156-0.712-4.473-0.158-6.721
		c2.9-4.883,5.35-1.16,7.91,0.406C149.266,271.713,150.332,271.239,151.268,269.819z"/>
	<path fill-rule="evenodd" clip-rule="evenodd" fill="#527635" d="M172.025,112.568c-0.901-0.561-3.545,1.647-2.218-2.363
		c3.185-9.611,9.372-16.813,16.396-23.541c2.23-2.135,4.826-3.905,7.329-5.74c2.136-1.566,3.185-0.801,3.159,1.736
		C192.601,96.032,183.914,105.618,172.025,112.568z"/>
	<path fill-rule="evenodd" clip-rule="evenodd" fill="#3A641E" d="M132.028,80.938c0.58-0.78,1.229-1.168,2.191-0.542
		c11.48,7.47,20.546,16.778,24.988,30.233c1.109,3.373-1.262,1.39-1.77,2.073c-7.454-0.773-11.609-5.642-14.711-11.828
		c-1.358-1.756-1.9-4.155-4.133-5.217C135.62,91.102,132.618,86.559,132.028,80.938z"/>
	<path fill-rule="evenodd" clip-rule="evenodd" fill="#39631E" d="M137.631,266.92c-3.593-2.262-7.52-3.67-11.67-4.512
		c-1.26-2.164-4.356-1.615-5.603-3.799c-0.438-1.875-2.453-2.242-3.476-3.629c-1.707-2.316-2.463-4.313,0.488-6.145
		c3.683-0.775,7.442-2.391,10.627,1.256c0.446,0.512,1.22,0.543,1.95,0.293c4.528-1.547,6.118,1.479,7.48,4.842
		c2.199,5.883,7.188,9.73,10.72,14.631c0.284,0.387,0.24,0.725-0.129,1.023c-2.578-0.264-4.734-4.057-7.713-0.918
		C138.447,269.805,138.545,267.918,137.631,266.92z"/>
	<path fill-rule="evenodd" clip-rule="evenodd" fill="#6EB261" d="M180.768,283.448c-0.89-5.361,1.187-8.4,6.449-10.418
		c7.267-2.785,12-8.949,16.727-14.877c0.091,2.182,0.98,2.023,2.569,1.094c2.243-1.313,4.547-2.666,7.365-2.213
		c1.039,0.166,2.101,0.186,2.56,1.402c0.469,1.238-0.316,1.912-1.057,2.682c-3.342,3.457-7.759,4.887-12.206,5.232
		c-3.27,0.254-4.374,1.559-5.324,4.27c-1.542,4.387-4.382,8.242-5.494,12.83C188.494,283.45,184.631,283.448,180.768,283.448z"/>
	<path fill-rule="evenodd" clip-rule="evenodd" fill="#429D49" d="M237.913,210.784c1.478-3.258,1.461-8.939,5.719-8.32
		c2.222,0.322,0.211,6.095-0.467,9.373c-0.07,0.337-0.139,0.676-0.207,1.016c0.352,1.32,1.066,2.389,2.242,3.125
		c3.678,0.096,7.674-1.263,10.759,2.175c-5.606,5.251-12.864,0.648-18.793,3.269c3.943,1.533,8.524-0.461,11.807,3.207
		c-0.769,1.791-2.947,0.591-3.918,1.868c-4.852,0.84-9.694,1.067-14.505-0.213c-2.6-5.728-2.535-11.338,1.056-16.634
		c0.675-0.993,1.375-2.684,3.197-2.009c1.384,0.51,1.264,1.925,1.599,3.06c0.477,1.615,0.279,3.276,0.344,5.166
		C236.917,213.946,236.263,212.098,237.913,210.784z"/>
	<path fill-rule="evenodd" clip-rule="evenodd" fill="#39641E" d="M170.156,61.917c-0.61-0.481-2.509,0.576-1.899-1.242
		c3.464-10.346,10.261-18.183,18.914-24.557c0.877-0.649,2.101-1.113,2.913-0.496c1.341,1.027-0.284,2.584,0.241,3.874
		c-1.487,5.442-5.256,9.47-8.551,13.792C178.594,57.099,175.844,61.488,170.156,61.917z"/>
	<path fill-rule="evenodd" clip-rule="evenodd" fill="#39631E" d="M137.356,60.788c0.073-2.417-0.078-4.939,3.531-2.396
		c8.447,5.951,14.359,13.861,18.622,23.18c1.263,2.754-0.709,2.275-2.063,2.6C148.33,78.459,141.116,71.108,137.356,60.788z"/>
	<path fill-rule="evenodd" clip-rule="evenodd" fill="#38631D" d="M137.493,38.355c0-1.354,0-2.709,0-4.314
		c9.759,5.942,16.637,13.878,21.462,23.601c0.691,1.395,3.115,3.975-1.207,4.229C148.398,56.27,141.288,48.74,137.493,38.355z"/>
	<path fill-rule="evenodd" clip-rule="evenodd" fill="#79B565" d="M232.77,184.071c-7.06-0.231-13.951,0.311-20.486,5.266
		c2.471-6.684,2.479-6.613,7.773-7.024c6.44-0.497,12.253-2.557,17.014-7.144c0.743-0.717,1.925-1.132,1.4-2.442
		c-0.502-1.235-1.735-0.966-2.732-1.036c-4.954-0.336-9.771,0.064-14.445,3.351c-0.18-4.503,2.028-5.403,5.405-5.511
		c5.989-0.191,11.756-1.289,16.795-4.945c1.312-0.954,2.712-1.613,2.755-3.479c2.109,5.665-2.071,9.352-4.632,13.253
		C239.245,177.977,235.764,180.864,232.77,184.071z"/>
	<path fill-rule="evenodd" clip-rule="evenodd" fill="#39631E" d="M170.066,84.041c-1.173-0.262-3.167,0.333-1.891-2.208
		c4.559-9.089,9.959-17.451,18.574-23.341c3.132-2.14,3.823-1.017,3.596,2.114C186.689,71.104,179.625,78.651,170.066,84.041z"/>
	<path fill-rule="evenodd" clip-rule="evenodd" fill="#3F9C47" d="M216.542,245.827c0.383-1.764-3.051-0.754-2.059-2.619
		c0.662-1.242,1.698-2.357,3.632-2.316c2.561,0.055,5.026-0.725,7.012-2.543c3.812-0.189,7.69-0.732,11.257,2.418
		C230.033,244.249,223.992,247.651,216.542,245.827z"/>
	<path fill-rule="evenodd" clip-rule="evenodd" fill="#449D49" d="M202.905,254.163c2.479-0.418,2.078-2.381,2.165-4.066
		c0.052-1.104,0.31-2.035,1.435-2.547c1.758-0.797,1.436,0.891,1.908,1.584c1.006,1.48,2.441,2.176,4.048,1.512
		c3.884-1.604,7.944-0.52,11.885-1.064c-2.072,5.553-7.446,5.037-11.782,6.201c-2.316,0.623-4.871,0.34-7.321,0.467
		C204.464,255.555,203.686,254.86,202.905,254.163z"/>
	<path fill-rule="evenodd" clip-rule="evenodd" fill="#3A9943" d="M226.162,228.782c0.366-0.052,0.727-0.104,1.091-0.154
		c0.938,2.045,2.721,1.903,4.426,1.553c3.798-0.775,7.48-0.211,11.167,0.666c1.701,1.623,1.036,2.533-0.877,3.244
		c-6.212,2.311-12.46,3.752-18.938,1.008C223.811,232.862,224.611,230.633,226.162,228.782z"/>
	<path fill-rule="evenodd" clip-rule="evenodd" fill="#49A252" d="M245.2,215.977c-1.898,1.836-2.105-0.461-2.853-1.226
		c-0.851-0.87-1.187-1.779,0.61-1.899c3.488-1.949,5.199-5.947,8.911-7.685c2.203-1.026,4.219-2.578,7.2-1.395
		c-2.088,4.261-5.379,7.118-9.469,9.056C247.902,213.633,245.922,213.869,245.2,215.977z"/>
	<path fill-rule="evenodd" clip-rule="evenodd" fill="#76B665" d="M242.845,230.846c-4.425,0.092-8.894-0.785-13.268,0.371
		c-2.716,0.719-2.251-1.102-2.325-2.59c0.585-1.445,1.715-2.377,2.995-3.158c4.821,2.012,9.86,0.807,14.807,1.026
		c-3.326,2.378-7.038,1.153-10.591,1.044c-2.024-0.064-4.052-0.707-5.075,2.307C234.077,228.562,238.618,228.251,242.845,230.846z"
		/>
	<path fill-rule="evenodd" clip-rule="evenodd" fill="#79B565" d="M246.223,161.067c-4.271-0.092-8.542-0.182-12.813-0.271
		C237.723,158.832,242.008,158.37,246.223,161.067z"/>
	<path fill-rule="evenodd" clip-rule="evenodd" fill="#99C99F" d="M169.051,46.951c0.135,1.98-0.881,3.246-2.607,3.961
		c-0.215,0.088-1.049-0.531-1.032-0.793c0.113-2.202-1.538-4.857,1.483-6.376C167.948,44.589,164.922,48.175,169.051,46.951z"/>
	<path fill-rule="evenodd" clip-rule="evenodd" fill="#76B664" d="M156.417,283.424c-2.171-2.145-2.072-4.881-2.072-7.633
		c-0.009-2.861,0.455-5.875-2.04-8.129c-0.005-2.451,0.124-4.914-0.052-7.354c-0.22-2.947,0.854-4.85,3.402-6.473
		c4.443-2.83,6.784-7.357,8.598-12.154c0.417-1.107,1.246-2.363-0.318-3.18c-1.069-0.561-2.002,0.123-2.81,0.852
		c-0.396,0.352-0.735,0.77-1.169,1.061c-1.1,0.736-2.475,2.35-3.549,0.91c-1.186-1.592,0.882-2.281,1.951-2.936
		c5.486-3.346,7.32-9.15,9.641-14.531c0.619-1.433,0.632-3.021,2.278-3.772c2.044-0.661,4.095-1.323,6.144-1.985
		c2.492,2.57,2.492,2.57,2.406,8.232c1.314-0.01,1.8-1.404,2.891-1.703c0.992,2.32,1.784,4.754,3.039,6.924
		c1.357,2.367-0.859,2.738-1.813,3.564c-1.649,1.42-2.492,0.076-2.957-1.41c-0.343-1.117-0.107-2.764-1.881-2.612
		c-1.693,0.144-1.28,1.735-1.563,2.878c-1.973,8.07-5.479,15.318-11.559,21.15c-4.941,5.203-4.288,11.912-5.015,18.285
		c-0.39,3.414-0.244,7.016-2.444,10.01C157.155,283.418,156.786,283.422,156.417,283.424z"/>
	<path fill-rule="evenodd" clip-rule="evenodd" fill="#3F9C46" d="M157.524,283.418c0.523-4.846,1.039-9.693,1.581-14.535
		c0.077-0.689,0.619-1.561,0.361-2.021c-3.665-6.545,2.518-8.387,5.517-11.738c0.988,5.33,2.505,10.428,6.229,14.586
		c0.052,4.607,2.021,9.35-0.987,13.74C165.993,283.438,161.76,283.43,157.524,283.418z"/>
	<path fill-rule="evenodd" clip-rule="evenodd" fill="#76B664" d="M145.082,283.442c2.736-2.072,5.474-2.885,8.206,0.012
		C150.555,283.45,147.814,283.446,145.082,283.442z"/>
	<path fill-rule="evenodd" clip-rule="evenodd" fill="#3C792C" d="M140.69,171.856c3.291-4.625,6.84-9.09,9.774-13.932
		c1.758-2.904,2.608-0.385,3.871,0.023c0.653,0.145,1.032,0.508,1.002,1.211c-0.452,4.459-4.747,7.064-5.419,11.559
		c-0.335,2.24-2.054,4.275-3.141,6.406C142.769,177.653,142.176,174.239,140.69,171.856z"/>
	<path fill-rule="evenodd" clip-rule="evenodd" fill="#409C46" d="M121.622,172.654c1.203-0.483,0.92-3.634,3.679-1.652
		c1.34,0.962,3.698,0.569,5.603,0.675c2.191,0.119,4.18,1.229,4.176,3.229c0,3.65,1.685,7.006,1.28,10.915
		c-4.133-5.39-11.3-7.126-14.741-13.151L121.622,172.654z"/>
	<path fill-rule="evenodd" clip-rule="evenodd" fill="#3A641E" d="M141.928,209.55c-0.078,2.151,1.537,4.362-0.233,6.45
		c-4.331-0.121-9.435-4.747-10.724-9.711c0.129-1.18,0.33-2.322,1.555-2.911c1.87-1.015,2.278-4.073,5.961-2.548
		C143.306,202.829,141.008,206.602,141.928,209.55z"/>
	<path fill-rule="evenodd" clip-rule="evenodd" fill="#38631D" d="M90.213,112.115c3.678,3.426,7.871,5.788,12.245,7.835
		c1.371,0.637,2.635,1.441,1.956,3.146c-0.619,1.561-2.066,0.866-3.206,0.673c-1.198-0.204-2.367-0.606-3.57-0.81
		C88.994,121.487,88.989,121.497,90.213,112.115z"/>
	<path fill-rule="evenodd" clip-rule="evenodd" fill="#418C3A" d="M138.516,141.095c0.842,5.224-1.015,10.05-1.787,15.472
		c-5.998-6.984-5.939-9.654-0.077-16.75C137.842,139.413,138.868,139.251,138.516,141.095z"/>
	<path fill-rule="evenodd" clip-rule="evenodd" fill="#3E6921" d="M89.99,99.824c4.788,1.092,9.97,1.175,13.595,5.266
		c1.026,0.962,1.018,2.013,0.275,3.13c-2.716-1.575-5.311-3.57-8.722-3.076c-4.211,0.61-5.758-1.264-5.165-5.287L89.99,99.824z"/>
	<path fill-rule="evenodd" clip-rule="evenodd" fill="#3E6821" d="M111.155,124.095c6.103-2.023,8.053-0.122,8.98,8.741
		c-3.412-1.877-6.832-3.748-10.248-5.621C109.35,125.788,108.706,124.315,111.155,124.095z"/>
	<path fill-rule="evenodd" clip-rule="evenodd" fill="#37621D" d="M106.919,141.049c3.191,1.578,6.243,3.813,9.624,4.555
		c3.823,0.84,4.563,2.752,4.125,6.002l-0.005,0.021c-3.76-1.658-7.421-3.621-11.317-4.857c-2.212-0.701-2.479-1.963-2.65-3.697
		C106.206,142.336,106.228,141.656,106.919,141.049z"/>
	<path fill-rule="evenodd" clip-rule="evenodd" fill="#39631E" d="M173.301,147.448c-4.882-0.286-2.982-3.088-1.938-5.422
		c3.871-8.66,9.809-15.916,15.799-23.136c7.802-2.312,8.434-1.69,8.373,8.257c-0.58,3.555-3.364,5.57-5.563,7.992
		c-0.843,0.838-1.659,1.695-2.363,2.656C183.389,141.825,179.849,146.868,173.301,147.448z"/>
	<path fill-rule="evenodd" clip-rule="evenodd" fill="#3D8B38" d="M203.987,145.065c-1.057,1.672-2.015,3.382-2.203,5.405
		c-5.814-1.94-10.248-9.837-7.807-13.91c1.039-0.81,2.146-1.382,3.521-1.01C201.994,137.131,203.171,140.975,203.987,145.065z"/>
	<path fill-rule="evenodd" clip-rule="evenodd" fill="#73B562" d="M137.429,255.227c-1.054-0.932-2.106-1.855-3.149-2.795
		c-0.516-0.471-1.453-1.398-1.461-1.393c-5.079,5.156-8.684-5.957-13.729-1.289c-0.154,0.145-1.129-0.592-1.719-0.916
		c0.018-0.359,0.035-0.719,0.049-1.076c1.7-3.16-1.938-6.283-0.069-9.445c1.968-0.688,2.879,3.521,4.821,1.332
		c1.71-1.922-0.404-3.834-1.1-5.699c-0.645-1.715-2.627-3.654-1.041-5.188c1.26-1.217,3.691-0.318,5.389,0.343
		c4.821,1.885,9.538,4.034,12.988,8.151c-1.689,5.852,1.164,12.15,7.588,16.779c4.111,2.961,4.594,3.793,4.923,8.984
		c-3.234-2.154-4.876-5.498-7.896-7.436C140.922,254.235,139.41,253.727,137.429,255.227z"/>
	<path fill-rule="evenodd" clip-rule="evenodd" fill="#77B664" d="M189.096,134.643c0.652,3.52,2.903,3.355,5.507,2.391
		c-0.163,1.328-1.968,2.125,0.035,4.108c2.724,2.7,3.386,7.221,7.146,9.328c0.604,5.284,4.377,9.265,5.47,14.825
		c0.906-1.465,1.426-2.31,1.95-3.154c-0.774,6.137-0.399,12.025,2.414,17.768c1.022,2.081-0.481,4.322-3.3,6.504
		c0.348-8.994-1.642-16.666-6.299-23.566c-4.417,2.943-1.934,8.801-5.662,11.767c-2.007-3.021-3.077-6.522-4.958-9.611
		c-0.649-4.123-5.096-7.541-2.303-12.304c-1.788-2.969,0.918-7.375-3.086-9.631c-0.31-2.185,0.679-4.137,1.1-6.191
		C187.436,135.836,188.133,135.118,189.096,134.643z"/>
	<path fill-rule="evenodd" clip-rule="evenodd" fill="#77B765" d="M125.797,203.327c0.714,3.813,3.257,3.91,6.256,3.085
		c1.736,4.681,6.024,6.802,9.642,9.589c-0.67,5.52,3.111,8.955,6.037,12.771c1.293,1.693,3.532,3.053,1.431,6.082
		c-2.994-4.33-5.225-9.137-10.51-11.061c-1.232,2.459,1.19,5.189-1.189,7.104c-6.861-5.74-15.493-9.735-18.686-19.109
		c-0.301-0.88-1.41-1.487-2.14-2.225c-1.677-6.771-1.663-6.857,5.633-5.874C123.582,203.866,124.622,203.372,125.797,203.327z"/>
	<path fill-rule="evenodd" clip-rule="evenodd" fill="#77B765" d="M174.319,194.684c-2.108,8.202-3.351,16.65-7.321,24.318
		c-1.696,3.277-3.983,6.035-6.423,8.725c-0.636,0.706-1.479,1.169-2.26,0.449c-0.929-0.857-0.018-1.531,0.545-2.148
		c2.145-2.334,5.246-4.107,4.82-8.435c-1.846,0.577-3.406,1.067-5.399,1.69c1.728-4.219,6.436-6.125,6.187-11.274
		c-3.734,0.811-6.764,2.739-10.313,6.583c2.854-10.494,8.852-17.127,14.154-24.177C173.636,189.412,173.765,189.504,174.319,194.684
		z"/>
	<path fill-rule="evenodd" clip-rule="evenodd" fill="#39631E" d="M189.096,152.698c-0.619,4.645,3.328,8.093,3.299,12.582
		c-0.971,2.748-2.654,4.965-4.988,6.699c-1.787,0.492-2.376,2.078-3.158,3.488c-3.944,2.99-6.948,7.77-12.958,6.845
		c-3.377-0.909-1.245-3.701-0.843-4.616c4.047-9.221,9.092-17.867,16.611-24.789C187.462,152.537,188.408,152.753,189.096,152.698z"
		/>
	<path fill-rule="evenodd" clip-rule="evenodd" fill="#77B664" d="M183.957,174.634c0.224-1.702-0.455-4.235,2.853-3.118
		c2.875,1.319,5.405,3.561,8.859,3.344c0.894,7.295,2.982,14.101,6.879,20.475c1.715,2.799-0.906,5.207-3.76,8.366
		c0.426-6.94-0.645-12.503-3.463-17.523c-1.021-1.821-1.761-5.056-4.236-4.614c-2.835,0.509-1.486,3.825-2.062,5.885
		c-0.83,0.77-1.654,1.539-2.454,2.281c-1.916-1.438,2.072-6.67-3.669-5.453C183.321,181.07,182.59,177.739,183.957,174.634z"/>
	<path fill-rule="evenodd" clip-rule="evenodd" fill="#76B664" d="M148.02,270.881c0.025-0.344,0.068-0.684,0.129-1.023
		c1.039-0.012,2.079-0.027,3.119-0.039c-0.349,1.172,0.852,3.047-1.049,3.426C148.922,273.504,148.178,272.223,148.02,270.881z"/>
	<path fill-rule="evenodd" clip-rule="evenodd" fill="#479C4C" d="M115.315,210.413c0.334,0.423,0.674,0.843,1.014,1.264
		c-1.087,1.384-2.818,1.049-4.064,1.502c2.184,1.67,2.655,3.619,0.992,5.982c-3.228-0.733-6.449-1.467-9.676-2.201
		c-1.731-2.612-1.715-5.006,0.881-7.076C108.01,211.536,111.671,210.809,115.315,210.413z"/>
	<path fill-rule="evenodd" clip-rule="evenodd" fill="#A1B490" d="M178.817,257.797c1.144,0.115,0.916,1.168,0.864,1.887
		c-0.081,1.184-0.146,2.594-1.898,2.527c-1.19-0.043-1.19-1.055-1.26-1.902C176.386,258.772,177.409,258.192,178.817,257.797z"/>
	<g>
		<path fill-rule="evenodd" clip-rule="evenodd" fill="#F5E6CE" d="M182.943,54.465c-0.392-0.391-0.777-0.784-1.169-1.177
			c-3.939,2.784-7.124,6.593-11.618,8.629c-5.104,1.555-4.116,5.291-3.114,9.225C171.694,64.869,176.906,59.264,182.943,54.465z"/>
		<path fill-rule="evenodd" clip-rule="evenodd" fill="#F5E6CE" d="M237.913,210.784c-1.168-2.316-2.768-4.508-2.156-7.35
			c-5.384,4.855-10.08,9.904-8.525,18.172c0.422,2.246-0.67,4.775-1.069,7.176c0.451,0.266,0.924,0.296,1.405,0.088
			c0.937-1.096,2.639-1.596,2.681-3.4c0.087-6.086-1.426-12.574,4.602-17.668c1.719,4.303,0.511,8.286-0.296,12.572
			C238.136,218.128,238.136,218.128,237.913,210.784z"/>
		<path fill-rule="evenodd" clip-rule="evenodd" fill="#F5E6CE" d="M171.212,269.711c-2.389,4.43-0.636,9.16-0.987,13.738
			c6.058,0.887,3.214-4.877,5.242-7.006C175.655,273.18,172.159,272.254,171.212,269.711z"/>
		<path fill-rule="evenodd" clip-rule="evenodd" fill="#F5E6CE" d="M157.434,112.701c-6.089-2.468-10.205-7.388-14.707-11.826
			c-1.538,3.729,1.116,7.025,1.1,10.595c6.814,4.794,10.913,12.02,16.838,19.679c0-5.088-0.229-8.682,0.068-12.233
			C160.983,115.952,160.084,113.952,157.434,112.701z"/>
		<path fill-rule="evenodd" clip-rule="evenodd" fill="#F5E6CE" d="M88.031,132.444c1.693-1.09,1.564-3.119,0.988-4.232
			c-1.95-3.809-0.472-7.738-0.901-11.573c-0.413-3.685,0.91-7.809-3.257-10.273c-0.306,3.307,0.412,7.221-1.117,9.796
			c-3.644,6.121-0.396,9.971,3.144,14.035C87.499,130.901,87.907,131.561,88.031,132.444z"/>
		<path fill-rule="evenodd" clip-rule="evenodd" fill="#F5E6CE" d="M155.307,147.532c-0.868,0.056-1.556,0.188-2.191,1.033
			c-2.715,3.592,0.034,6.367,1.22,9.383c0.335,0.404,0.671,0.807,1.002,1.211c3.033,0.787,4.081-1.152,4.382-3.526
			c0.254-2.017-0.013-4.104-0.047-6.157C158.215,148.827,156.758,148.178,155.307,147.532z"/>
		<path fill-rule="evenodd" clip-rule="evenodd" fill="#F5E6CE" d="M126.451,114.834c-5.275,7.321-5.229,10.661,1.049,16.877
			C125.721,125.518,131.53,120.376,126.451,114.834z"/>
		<path fill-rule="evenodd" clip-rule="evenodd" fill="#F5E6CE" d="M129.054,196.987c-1.083,2.111-2.169,4.227-3.257,6.34
			c0.327,4.689,1.917,5.475,6.256,3.088c0.164-1.014,0.318-2.024,0.473-3.036C133.85,199.903,132.63,197.803,129.054,196.987z"/>
		<path fill-rule="evenodd" clip-rule="evenodd" fill="#F5E6CE" d="M111.731,111.077c-0.859-2.126-1.323-4.234-2.47-5.86
			c-1.595-2.262-3.709-4.157-5.677-0.125c0.095,1.042,0.186,2.086,0.275,3.128C106.799,107.979,108.147,112.271,111.731,111.077z"/>
		<path fill-rule="evenodd" clip-rule="evenodd" fill="#F5E6CE" d="M116.561,166.543c-0.177,1.985-1.443,3.474-2.347,5.128
			c2.234,2.077,4.339,5.097,7.403,0.997c0,0,0.004-0.015,0.004-0.013C122.031,168.883,119.611,167.455,116.561,166.543z"/>
		<path fill-rule="evenodd" clip-rule="evenodd" fill="#F5E6CE" d="M101.797,140.083c-0.447,1.023-0.894,2.044-1.341,3.066
			c0.451,1.035-1.356,2.791,1.26,3.199c2.84,0.441,4.171-0.893,4.979-3.277c0.076-0.674,0.146-1.349,0.224-2.021
			C105.303,140.238,103.778,138.958,101.797,140.083z"/>
		<path fill-rule="evenodd" clip-rule="evenodd" fill="#F5E6CE" d="M140.69,171.856c0.36,1.826,0.674,3.663,1.083,5.479
			c0.421,1.844,0.833,4.186,3.196,3.952c2.2-0.217,1.667-2.545,1.809-4.163C144.617,175.524,142.305,174.09,140.69,171.856z"/>
		<path fill-rule="evenodd" clip-rule="evenodd" fill="#F5E6CE" d="M123.013,146.963c-1.898,1.127-0.885,3.488-2.345,4.643
			l-0.005,0.021c2.037,1.479,3.424,3.851,6.596,4.717C126.262,152.723,125.124,149.661,123.013,146.963z"/>
		<path fill-rule="evenodd" clip-rule="evenodd" fill="#F5E6CE" d="M158.831,187.492c-1.83,2.587-3.154,4.462-4.478,6.337
			c0.524,1.818,3.558,1.659,3.257,4.132C160.076,194.953,158.482,191.573,158.831,187.492z"/>
		<path fill-rule="evenodd" clip-rule="evenodd" fill="#F5E6CE" d="M138.516,141.095c2.922-0.061,3.261-2.067,3.257-4.329
			c-0.727-0.695-1.453-1.393-2.175-2.088c-1.508,1.411-2.268,3.25-2.946,5.139C137.42,140.028,138.301,140.071,138.516,141.095z"/>
		<path fill-rule="evenodd" clip-rule="evenodd" fill="#F5E6CE" d="M106.499,121.401c-0.276-0.002-0.766,1.079-0.792,1.678
			c-0.11,2.227,1.784,2.759,3.274,3.604c0.311,0.174,0.605,0.357,0.906,0.535c0.422-1.042,0.843-2.082,1.268-3.122
			C110.235,122.104,108.508,121.407,106.499,121.401z"/>
		<path fill-rule="evenodd" clip-rule="evenodd" fill="#F5E6CE" d="M200.559,150.401c-0.177,4.867,3.333,8.377,4.7,12.678
			c0.335,1.065,1.116,2.475,2.595,2.146c1.557-0.342,0.438-2.234,1.35-3.084c0.816-2.775,1.623-5.553,2.439-8.33
			c-2.552-2.916-5.104-5.83-7.656-8.746C200.859,145.567,200.962,148.15,200.559,150.401z"/>
		<path fill-rule="evenodd" clip-rule="evenodd" fill="#F5E6CE" d="M189.096,134.643c0.438,4.02,1.555,4.506,5.507,2.391
			c0.964-0.493,1.934-0.99,2.896-1.483c2.492-3.536,0.259-5.968-1.963-8.403C193.391,129.645,191.245,132.145,189.096,134.643z"/>
		<path fill-rule="evenodd" clip-rule="evenodd" fill="#F5E6CE" d="M183.957,174.634c-4.236,2.543-7.613,6.496-12.666,7.678
			c-3.919,1.624-3.364,4.896-2.981,8.104c3.557,0.272,3.557,0.272,6.01,4.269c2.634-3.659,5.049-7.498,8.585-10.408
			C185.692,181.329,184.614,177.958,183.957,174.634z"/>
		<path fill-rule="evenodd" clip-rule="evenodd" fill="#F5E6CE" d="M186.01,143.067c1.452-1.871,2.183-3.869,1.1-6.191
			c-4.271,3.957-8.352,8.164-13.805,10.57c-6.398,3.873-7.3,6.967-4.143,15.025C174.435,155.551,178.827,148.066,186.01,143.067z"/>
		<path fill-rule="evenodd" clip-rule="evenodd" fill="#F5E6CE" d="M86.931,200.325c-3.227,10.774-2.347,14.086,4.743,17.986
			c-0.911-5.276-1.83-10.587-2.74-15.895C88.263,201.719,87.592,201.022,86.931,200.325z"/>
		<path fill-rule="evenodd" clip-rule="evenodd" fill="#F5E6CE" d="M100.526,217.049c1.078,1.926,2.045,0.127,3.055-0.09
			c0.297-2.359,0.588-4.717,0.881-7.076c-0.628-0.168-1.254-0.333-1.882-0.501C98.197,210.947,101.801,214.653,100.526,217.049z"/>
		<path fill-rule="evenodd" clip-rule="evenodd" fill="#F5E6CE" d="M186.809,171.516c2.063,3.475,4.537,5.863,8.859,3.344
			c0.215-0.127,0.442-0.209,0.688-0.247c-0.035-3.657-1.672-6.632-3.962-9.333C189.68,166.592,188.932,169.676,186.809,171.516z"/>
		<path fill-rule="evenodd" clip-rule="evenodd" fill="#F5E6CE" d="M190.135,206.362c-0.757,0.912-1.582,1.466-1.728,2.161
			c-0.723,3.474,0.945,6.565,1.877,9.757c0.134,0.457,1.062,1.133,1.724,0.465c1.457-1.465,3.678-3.25,3.033-5.109
			C194.143,211.054,191.948,208.922,190.135,206.362z"/>
		<path fill-rule="evenodd" clip-rule="evenodd" fill="#F5E6CE" d="M176.42,218.1c2.466,3.446,0.834,7.226,0.709,11.088
			c2.694-0.591,4.004-2.207,4.588-4.559c-0.639-1.898-1.584-3.758-1.852-5.709C179.364,215.198,177.752,217.528,176.42,218.1z"/>
		<path fill-rule="evenodd" clip-rule="evenodd" fill="#F5E6CE" d="M217.521,219.11c-1.03,3.244,0.438,6.088,1.925,9.085
			c0.641-3.911,1.281-7.823,2.046-12.493c-1.663,1.127-2.634,1.786-3.604,2.443C217.878,218.511,217.752,218.833,217.521,219.11z"/>
		<path fill-rule="evenodd" clip-rule="evenodd" fill="#F5E6CE" d="M185.04,263.508c2.595-2.215,5.009-4.273,7.42-6.33
			c-0.365-0.74-0.727-1.479-1.087-2.219C187.996,256.749,183.373,257.596,185.04,263.508z"/>
		<path fill-rule="evenodd" clip-rule="evenodd" fill="#F5E6CE" d="M112.831,215.685c0.538,0.931,0.301,2.306,0.426,3.476
			c1.739,1.945,3.78,3.414,6.553,4.207c-0.104-4.348-3.24-7.607-3.48-11.689C113.188,211.278,109.944,210.688,112.831,215.685z"/>
		<path fill-rule="evenodd" clip-rule="evenodd" fill="#F5E6CE" d="M117.351,238.313c-0.696-0.131-1.392-0.262-2.088-0.395
			c-3.446,0.498-3.695,2.264-1.835,4.77c1.285,1.725,2.659,3.381,3.992,5.07c0.832,0.109,2.256,1.145,1.872-0.912
			C118.76,243.981,118.012,241.157,117.351,238.313z"/>
		<path fill-rule="evenodd" clip-rule="evenodd" fill="#F5E6CE" d="M137.631,266.92c-2.414,5.746-1.169,9.9,3.889,12.654
			c0.098-3.311,0.819-6.619-1.209-9.611C139.208,269.135,139.211,267.331,137.631,266.92z"/>
	</g>
</g>
<g id="Pot">
	<path fill-rule="evenodd" clip-rule="evenodd" fill="#A4554A" d="M208.239,364.088c4.667-6.611,8.62-12.371,12.73-18.016
		c9.256-12.707,14.163-26.523,11.156-42.434c-1.068-5.67-2.09-11.32-3.873-16.871c-1.077-3.354-2.525-4.271-5.736-4.242
		c-2.757,0.023-5.514,0.031-8.27,0.031h-85.559c-0.752,0.152-1.551,0.037-2.327,0h-3.087c-9.1,0.045-18.205,0.094-27.299,0.016
		c-2.793-0.023-4.028,0.754-5.09,3.678c-1.668,4.582-2.722,9.262-3.542,13.973c-1.539,8.875-2.588,17.662,0.592,26.672
		c3.147,8.908,8.269,16.494,13.444,24.156c2.849,4.213,6.58,7.877,8.893,13.508c-9.705,0-18.582,0-27.912,0
		c5.346,7.977,11.689,13.479,20.346,16.012c2.402,2.475,5.563,2.313,8.6,2.355c17.725,0.252,35.489,0.549,53.172-0.248
		c14.028-0.635,27.97,0.658,41.943,0.016c3.464-0.158,7.16,0.348,10.193-2.1c7.978-3.354,15.023-7.826,19.867-16.506
		C226.915,364.088,218.054,364.088,208.239,364.088z"/>
	<path fill="#C89992" d="M109.104,287.79c-2.123,3.738-4.559,15.533-4.706,19.791c-0.157,4.545,3.877,15.408,4.706,17.225
		c1.126,2.469,7.49,16.346,9.24,18.984s6.387,10.043,6.387,10.043s3.762,1.832,3.75-5.498c-0.007-4.404-2.5-10.188-3.75-16.125
		s-2.36-9.771-2.719-14.221c-0.354-4.391-1.322-13.193-1.322-15.832c0-2.682,1.564-7.256,1.322-10.555s-6.363-5.131-7.822-5.131
		S109.104,287.79,109.104,287.79z"/>
	<path fill="#522B25" d="M94.12,376.655c0,0,7.743,6.127,14.948,6.234c7.205,0.109,97.372,0.082,101.372,0.01
		c4-0.074,13.952-6.244,13.952-6.244H94.12"/>
	<polygon fill="#522B25" points="110.272,364.559 208.239,364.088 210.727,360.551 108.238,360.551 	"/>
</g>
</svg>
