<?xml version="1.0" encoding="utf-8"?>
<!-- Generator: Adobe Illustrator 16.0.0, SVG Export Plug-In . SVG Version: 6.00 Build 0)  -->
<!DOCTYPE svg PUBLIC "-//W3C//DTD SVG 1.1//EN" "http://www.w3.org/Graphics/SVG/1.1/DTD/svg11.dtd">
<svg version="1.1" id="Innovant" xmlns="http://www.w3.org/2000/svg" xmlns:xlink="http://www.w3.org/1999/xlink" x="0px" y="0px"
	 width="281.318px" height="280.986px" viewBox="0 0 281.318 280.986" enable-background="new 0 0 281.318 280.986"
	 xml:space="preserve">
<ellipse id="InnovantBg" fill="#BAB9CE" cx="140.632" cy="140.604" rx="140.687" ry="140.604"/>
<g id="InnovantDessin">
	<g>
		<path d="M135.507,51.568c43.911,1.063,79.698,36.058,80.401,78.621c0.126,7.623-2.222,11.158-7.474,11.254
			c-5.409,0.102-8.15-3.507-8.547-11.245c-1.508-29.435-19.414-52.425-46.833-60.236c-5.809-1.655-11.727-2.058-17.71-2.212
			c-7.823-0.202-11.854-3.422-11.491-8.981C124.182,53.722,127.963,51.386,135.507,51.568z"/>
		<path d="M137.341,81.462c28.331,0.677,49.152,21.251,49.521,48.937c0.099,7.365-2.87,11.368-8.393,11.313
			c-5.437-0.058-8.899-4.236-9.14-11.037c-0.694-19.531-12.504-31.207-32.068-31.473c-5.319-0.072-10.119-0.876-12.062-6.574
			C122.829,85.671,127.766,81.234,137.341,81.462z"/>
		<path d="M165.03,140.779c-4.616-17.999-15.243-31.075-33.596-35.19c-19.997-4.484-39.457-3.427-54.024,14.262
			c-6.772,8.226-9.787,18.166-6.819,27.959c2.15,7.094,1.202,12.227-2.275,17.856c-0.832,1.345-1.354,2.877-2.084,4.289
			c-1.688,3.27-1.43,6.005,2.597,6.813c2.561,0.512,2.504,2.021,2.543,3.858c0.043,2.131,0.902,4.061,1.463,6.018
			c1.004,3.514,3.074,6.761,3.221,10.523c0.347,8.832,1.555,9.983,10.526,9.71c2.382-0.072,4.754-0.461,7.132-0.675
			c5.018-0.452,8.923,0.96,11.172,5.96c2.688,5.977,5.69,11.814,8.789,18.192c1.668-2.443,3.062-4.619,4.585-6.698
			c7.362-10.036,15.226-19.553,27.433-24.005c2.461-0.896,2.104-2.454,1.849-4.257c-1.098-7.736,1.281-14.55,5.607-20.817
			c3.508-5.082,7.008-10.164,9.63-15.784C165.467,153.03,166.635,147.042,165.03,140.779z M157.413,156.963
			c-2.885,7.913-8.735,12.655-17.146,13.972c-4.955,0.776-9.028-0.496-11.69-5.157c-0.852-1.486-1.572-3.732-3.575-3.69
			c-6.324,0.133-8.515-3.942-10.175-9.014c-1.897-5.793-7.159-6.362-12.082-7.103c-3.73-0.56-7.584-0.396-11.275-1.109
			c-10.799-2.086-14.812-13.672-7.645-22.06c8.112-9.496,18.91-12.711,30.933-12.646c17.808-0.184,31.843,6.312,40.396,22.59
			C159.232,140.512,160.442,148.648,157.413,156.963z"/>
	</g>
</g>
<path id="InnovantCercle" d="M140.66-0.221c-77.716,0-140.716,63-140.716,140.715s63,140.715,140.716,140.715
	c77.715,0,140.713-63,140.713-140.715S218.375-0.221,140.66-0.221z M140.687,273.507c-73.566,0-133.202-59.602-133.202-133.125
	C7.485,66.86,67.121,7.259,140.687,7.259c73.564,0,133.202,59.602,133.202,133.124C273.889,213.906,214.251,273.507,140.687,273.507
	z"/>
</svg>
