<?xml version="1.0" encoding="utf-8"?>
<!-- Generator: Adobe Illustrator 16.0.0, SVG Export Plug-In . SVG Version: 6.00 Build 0)  -->
<!DOCTYPE svg PUBLIC "-//W3C//DTD SVG 1.1//EN" "http://www.w3.org/Graphics/SVG/1.1/DTD/svg11.dtd">
<svg version="1.1" id="Techno" xmlns="http://www.w3.org/2000/svg" xmlns:xlink="http://www.w3.org/1999/xlink" x="0px" y="0px"
	 width="281.318px" height="280.986px" viewBox="0 0 281.318 280.986" enable-background="new 0 0 281.318 280.986"
	 xml:space="preserve">
<ellipse id="TechnoBg" fill="#BAB9CE" cx="140.632" cy="140.604" rx="140.687" ry="140.604"/>
<g id="TechnoDessin">
	<circle cx="139.605" cy="139.273" r="16.205"/>
	<path d="M225.605,133.568c-3.187,0-5.849,2.225-6.53,5.205h-29.277c-0.13-13.284-5.419-25.325-13.96-34.232l16.938-16.932
		c1.595,1.15,3.547,1.835,5.663,1.835c5.36,0,9.705-4.345,9.705-9.705c0-5.359-4.345-9.704-9.705-9.704
		c-5.359,0-9.705,4.345-9.705,9.704c0,2.16,0.715,4.148,1.908,5.761l-16.939,16.935c-8.612-7.975-20.023-12.958-32.597-13.328
		V59.178c2.979-0.682,5.205-3.344,5.205-6.531c0-3.703-3.002-6.705-6.705-6.705s-6.705,3.002-6.705,6.705
		c0,3.187,2.225,5.849,5.205,6.531v29.927c-12.656,0.372-24.133,5.421-32.764,13.488L92.968,90.217
		c2.394-2.847,3.841-6.516,3.841-10.527c0-9.041-7.329-16.371-16.371-16.371c-9.041,0-16.371,7.33-16.371,16.371
		c0,9.042,7.33,16.371,16.371,16.371c3.95,0,7.573-1.399,10.401-3.729l12.373,12.376c-8.125,8.552-13.268,19.958-13.762,32.565
		H59.802c-0.682-2.98-3.344-5.205-6.531-5.205c-3.703,0-6.705,3.002-6.705,6.705s3.002,6.705,6.705,6.705
		c3.187,0,5.849-2.226,6.531-5.205h29.624c0.253,12.937,5.395,24.669,13.661,33.433l-14.012,14.016c-2.375-1.93-5.4-3.09-8.698-3.09
		c-7.627,0-13.81,6.183-13.81,13.809c0,7.627,6.183,13.81,13.81,13.81c7.626,0,13.809-6.183,13.809-13.81
		c0-3.246-1.128-6.226-3.003-8.583l14.027-14.031c8.646,8.14,20.175,13.24,32.896,13.614v26.256
		c-4.646,0.723-8.205,4.729-8.205,9.577c0,5.36,4.346,9.705,9.705,9.705c5.36,0,9.705-4.345,9.705-9.705
		c0-4.848-3.559-8.854-8.205-9.577V189.44c12.634-0.371,24.093-5.403,32.719-13.444l12.053,12.049
		c-2.377,2.842-3.811,6.499-3.811,10.493c0,9.042,7.33,16.372,16.372,16.372s16.372-7.33,16.372-16.372s-7.33-16.372-16.372-16.372
		c-3.968,0-7.604,1.412-10.438,3.76l-12.046-12.042c8.043-8.445,13.183-19.679,13.792-32.11h29.328
		c0.682,2.979,3.344,5.205,6.53,5.205c3.703,0,6.705-3.002,6.705-6.705S229.308,133.568,225.605,133.568z M67.98,79.69
		c0-6.88,5.578-12.458,12.458-12.458c6.881,0,12.458,5.578,12.458,12.458c0,6.881-5.577,12.458-12.458,12.458
		C73.558,92.148,67.98,86.571,67.98,79.69z M80.376,208.948c-5.804,0-10.508-4.704-10.508-10.508
		c0-5.803,4.704-10.508,10.508-10.508c5.803,0,10.508,4.705,10.508,10.508C90.884,204.243,86.179,208.948,80.376,208.948z
		 M210.896,198.537c0,6.88-5.577,12.458-12.458,12.458c-6.88,0-12.458-5.578-12.458-12.458c0-6.881,5.578-12.458,12.458-12.458
		C205.319,186.079,210.896,191.656,210.896,198.537z M139.605,177.478c-21.1,0-38.205-17.104-38.205-38.205
		c0-21.1,17.105-38.205,38.205-38.205c21.101,0,38.205,17.105,38.205,38.205C177.81,160.373,160.705,177.478,139.605,177.478z"/>
	<circle cx="80.438" cy="79.69" r="5.284"/>
	<circle cx="198.438" cy="198.537" r="5.284"/>
	<circle cx="80.375" cy="198.44" r="4.457"/>
</g>
<path id="TechnoCercle" d="M140.66-0.221c-77.716,0-140.716,63-140.716,140.715s63,140.715,140.716,140.715
	c77.715,0,140.713-63,140.713-140.715S218.375-0.221,140.66-0.221z M140.687,273.507c-73.566,0-133.202-59.602-133.202-133.125
	C7.485,66.86,67.121,7.259,140.687,7.259c73.564,0,133.202,59.602,133.202,133.124C273.889,213.906,214.251,273.507,140.687,273.507
	z"/>
</svg>
