<?xml version="1.0" encoding="utf-8"?>
<!-- Generator: Adobe Illustrator 16.0.0, SVG Export Plug-In . SVG Version: 6.00 Build 0)  -->
<!DOCTYPE svg PUBLIC "-//W3C//DTD SVG 1.1//EN" "http://www.w3.org/Graphics/SVG/1.1/DTD/svg11.dtd">
<svg version="1.1" id="Layer_1" xmlns="http://www.w3.org/2000/svg" xmlns:xlink="http://www.w3.org/1999/xlink" x="0px" y="0px"
	 width="353.658px" height="146.484px" viewBox="0 0 353.658 146.484" enable-background="new 0 0 353.658 146.484"
	 xml:space="preserve">
<g>
	<rect y="11.028" fill="#383838" width="353.658" height="13.979"/>
	<rect y="120.76" fill="#383838" width="353.658" height="13.977"/>
	<path fill="#E3E3E3" d="M9.133,2.443c-2.818,3.083-3.8,7.077-3.8,7.077v54.295V82.67v54.297c0,0,0.981,3.994,3.8,7.074
		c3.538,2.816,5.373,2.424,5.373,2.424V82.67V63.815V0.019C14.506,0.019,12.671-0.374,9.133,2.443z"/>
	<path fill="#999999" d="M19.878,2.443c2.818,3.083,3.801,7.077,3.801,7.077v54.295V82.67v54.297c0,0-0.982,3.994-3.801,7.074
		c-3.538,2.816-5.372,2.424-5.372,2.424V82.67V63.815V0.019C14.506,0.019,16.34-0.374,19.878,2.443z"/>
	<path fill="#E3E3E3" d="M44.776,2.443c-2.817,3.083-3.8,7.077-3.8,7.077v54.295V82.67v54.297c0,0,0.982,3.994,3.8,7.074
		c3.54,2.816,5.375,2.424,5.375,2.424V82.67V63.815V0.019C50.151,0.019,48.316-0.374,44.776,2.443z"/>
	<path fill="#999999" d="M55.524,2.443c2.817,3.083,3.8,7.077,3.8,7.077v54.295V82.67v54.297c0,0-0.982,3.994-3.8,7.074
		c-3.539,2.816-5.373,2.424-5.373,2.424V82.67V63.815V0.019C50.151,0.019,51.985-0.374,55.524,2.443z"/>
	<path fill="#E3E3E3" d="M81.472,2.443c-2.818,3.083-3.803,7.077-3.803,7.077v54.295V82.67v54.297c0,0,0.984,3.994,3.803,7.074
		c3.538,2.816,5.372,2.424,5.372,2.424V82.67V63.815V0.019C86.844,0.019,85.01-0.374,81.472,2.443z"/>
	<path fill="#999999" d="M92.217,2.443c2.818,3.083,3.8,7.077,3.8,7.077v54.295V82.67v54.297c0,0-0.981,3.994-3.8,7.074
		c-3.538,2.816-5.373,2.424-5.373,2.424V82.67V63.815V0.019C86.844,0.019,88.679-0.374,92.217,2.443z"/>
	<path fill="#E3E3E3" d="M117.115,2.443c-2.816,3.083-3.801,7.077-3.801,7.077v54.295V82.67v54.297c0,0,0.984,3.994,3.801,7.074
		c3.538,2.816,5.373,2.424,5.373,2.424V82.67V63.815V0.019C122.488,0.019,120.653-0.374,117.115,2.443z"/>
	<path fill="#999999" d="M127.861,2.443c2.817,3.083,3.802,7.077,3.802,7.077v54.295V82.67v54.297c0,0-0.984,3.994-3.802,7.074
		c-3.537,2.816-5.373,2.424-5.373,2.424V82.67V63.815V0.019C122.488,0.019,124.324-0.374,127.861,2.443z"/>
	<path fill="#E3E3E3" d="M152.065,2.443c-2.817,3.083-3.802,7.077-3.802,7.077v54.295V82.67v54.297c0,0,0.984,3.994,3.802,7.074
		c3.538,2.816,5.372,2.424,5.372,2.424V82.67V63.815V0.019C157.438,0.019,155.604-0.374,152.065,2.443z"/>
	<path fill="#999999" d="M162.811,2.443c2.817,3.083,3.8,7.077,3.8,7.077v54.295V82.67v54.297c0,0-0.982,3.994-3.8,7.074
		c-3.537,2.816-5.373,2.424-5.373,2.424V82.67V63.815V0.019C157.438,0.019,159.273-0.374,162.811,2.443z"/>
	<path fill="#E3E3E3" d="M189.107,2.443c-2.818,3.083-3.8,7.077-3.8,7.077v54.295V82.67v54.297c0,0,0.981,3.994,3.8,7.074
		c3.539,2.816,5.372,2.424,5.372,2.424V82.67V63.815V0.019C194.479,0.019,192.646-0.374,189.107,2.443z"/>
	<path fill="#999999" d="M199.852,2.443c2.817,3.083,3.802,7.077,3.802,7.077v54.295V82.67v54.297c0,0-0.984,3.994-3.802,7.074
		c-3.538,2.816-5.372,2.424-5.372,2.424V82.67V63.815V0.019C194.479,0.019,196.313-0.374,199.852,2.443z"/>
	<path fill="#E3E3E3" d="M227.108,2.443c-2.818,3.083-3.803,7.077-3.803,7.077v54.295V82.67v54.297c0,0,0.984,3.994,3.803,7.074
		c3.536,2.816,5.372,2.424,5.372,2.424V82.67V63.815V0.019C232.48,0.019,230.645-0.374,227.108,2.443z"/>
	<path fill="#999999" d="M237.852,2.443c2.817,3.083,3.803,7.077,3.803,7.077v54.295V82.67v54.297c0,0-0.985,3.994-3.803,7.074
		c-3.538,2.816-5.371,2.424-5.371,2.424V82.67V63.815V0.019C232.48,0.019,234.313-0.374,237.852,2.443z"/>
	<path fill="#E3E3E3" d="M261.441,2.443c-2.816,3.083-3.802,7.077-3.802,7.077v54.295V82.67v54.297c0,0,0.985,3.994,3.802,7.074
		c3.539,2.816,5.373,2.424,5.373,2.424V82.67V63.815V0.019C266.814,0.019,264.98-0.374,261.441,2.443z"/>
	<path fill="#999999" d="M272.188,2.443c2.818,3.083,3.8,7.077,3.8,7.077v54.295V82.67v54.297c0,0-0.981,3.994-3.8,7.074
		c-3.539,2.816-5.373,2.424-5.373,2.424V82.67V63.815V0.019C266.814,0.019,268.648-0.374,272.188,2.443z"/>
	<path fill="#E3E3E3" d="M297.085,2.443c-2.816,3.083-3.799,7.077-3.799,7.077v54.295V82.67v54.297c0,0,0.982,3.994,3.799,7.074
		c3.539,2.816,5.374,2.424,5.374,2.424V82.67V63.815V0.019C302.459,0.019,300.624-0.374,297.085,2.443z"/>
	<path fill="#999999" d="M307.833,2.443c2.817,3.083,3.8,7.077,3.8,7.077v54.295V82.67v54.297c0,0-0.982,3.994-3.8,7.074
		c-3.539,2.816-5.374,2.424-5.374,2.424V82.67V63.815V0.019C302.459,0.019,304.294-0.374,307.833,2.443z"/>
	<path fill="#E3E3E3" d="M334.131,2.443c-2.815,3.083-3.801,7.077-3.801,7.077v54.295V82.67v54.297c0,0,0.985,3.994,3.801,7.074
		c3.539,2.816,5.375,2.424,5.375,2.424V82.67V63.815V0.019C339.506,0.019,337.67-0.374,334.131,2.443z"/>
	<path fill="#999999" d="M344.877,2.443c2.818,3.083,3.802,7.077,3.802,7.077v54.295V82.67v54.297c0,0-0.983,3.994-3.802,7.074
		c-3.537,2.816-5.371,2.424-5.371,2.424V82.67V63.815V0.019C339.506,0.019,341.34-0.374,344.877,2.443z"/>
</g>
</svg>
