<?xml version="1.0" encoding="utf-8"?>
<!-- Generator: Adobe Illustrator 16.0.0, SVG Export Plug-In . SVG Version: 6.00 Build 0)  -->
<!DOCTYPE svg PUBLIC "-//W3C//DTD SVG 1.1 Tiny//EN" "http://www.w3.org/Graphics/SVG/1.1/DTD/svg11-tiny.dtd">
<svg version="1.1" baseProfile="tiny" id="Layer_2" xmlns="http://www.w3.org/2000/svg" xmlns:xlink="http://www.w3.org/1999/xlink"
	 x="0px" y="0px" width="351.639px" height="351.639px" viewBox="0 0 351.639 351.639" xml:space="preserve">
<path fill="#878787" d="M162.54,272.6l-9.616,4.703l0.402,0.19l9.618-4.703l8.615,4.03l-9.643,4.715l0.404,0.19l9.645-4.716
	l8.615,4.03l-9.67,4.729l0.405,0.19l9.671-4.73l8.613,4.03L179.901,290l0.405,0.191l9.697-4.743l8.615,4.03l-9.724,4.755
	l0.405,0.191l9.725-4.756l9.404,4.4l0.401-0.195l-9.405-4.4l8.544-4.179l9.427,4.41l0.403-0.195l-9.428-4.411l8.543-4.179
	l9.45,4.421l0.402-0.196l-9.451-4.421l8.544-4.179l9.473,4.432l0.403-0.196l-9.474-4.432l8.543-4.178l9.496,4.442l0.404-0.196
	l-9.497-4.443l8.543-4.178l9.519,4.453l0.404-0.196l-9.52-4.454l8.542-4.178l9.542,4.464l0.403-0.196l-9.542-4.465l8.544-4.178
	l9.564,4.474l0.403-0.195l-9.566-4.476l8.543-4.178l9.587,4.485l0.403-0.196l-9.587-4.486l8.543-4.178l9.609,4.496l0.404-0.196
	l-9.611-4.497l8.543-4.177l9.632,4.506l0.404-0.197l-9.634-4.507l8.543-4.178l9.655,4.517l0.402-0.196l-9.656-4.517l8.544-4.179
	l9.678,4.528l0.401-0.195l-9.679-4.528l8.544-4.179l9.7,4.539l0.403-0.196l-9.702-4.539l8.544-4.178l9.725,4.549l0.401-0.196
	l-9.725-4.55l8.544-4.178l9.747,4.56l0.402-0.196l-9.747-4.561l8.542-4.178l9.77,4.571l0.404-0.196l-9.771-4.571l6.312-3.087
	l-0.404-0.19l-6.313,3.087l-8.613-4.03l6.313-3.086l-0.406-0.189l-6.312,3.087l-8.614-4.031l6.313-3.086l-0.406-0.19l-6.313,3.087
	l-8.614-4.03l6.313-3.087l-0.405-0.189l-6.313,3.087l-8.614-4.03l6.313-3.087l-0.405-0.189l-6.312,3.087l-8.615-4.03l6.312-3.087
	l-0.406-0.189l-6.312,3.086l-8.614-4.031l6.313-3.087l-0.405-0.189l-6.312,3.087l-8.614-4.03l6.313-3.088l-0.405-0.188l-6.312,3.086
	l-8.615-4.03l6.312-3.087l-0.404-0.19l-6.313,3.088l-8.614-4.031l6.313-3.087l-0.407-0.189l-6.312,3.087l-8.615-4.031l6.313-3.087
	l-0.406-0.189l-6.312,3.087l-8.614-4.03l6.312-3.087l-0.404-0.189l-6.313,3.087l-8.614-4.03l6.313-3.087l-0.405-0.19l-6.313,3.087
	l-8.614-4.03l6.313-3.087l-0.405-0.19l-6.313,3.088l-8.615-4.031l6.312-3.087l-0.405-0.189l-6.313,3.087l-8.615-4.03l6.313-3.088
	l-0.405-0.189l-6.313,3.087l-8.613-4.03l6.312-3.087l-0.405-0.19l-6.312,3.087l-8.615-4.031l6.313-3.087l-0.405-0.19l-6.313,3.087
	l-8.614-4.03l6.313-3.088l-0.405-0.189l-6.313,3.087l-8.614-4.03l6.313-3.087l-0.406-0.189l-6.312,3.087l-8.615-4.03l6.313-3.087
	l-0.404-0.19l-6.313,3.087l-8.614-4.03l6.312-3.087l-0.405-0.19l-6.313,3.088l-8.614-4.03l-0.402,0.196l8.614,4.03l-8.543,4.178
	l-8.614-4.03l-0.403,0.196l8.615,4.031l-8.543,4.178l-8.615-4.03l-0.401,0.196l8.614,4.03l-8.543,4.178l-8.614-4.03l-0.403,0.196
	l8.615,4.03l-8.543,4.178l-8.615-4.031l-0.402,0.197l8.614,4.03l-8.543,4.178l-8.614-4.03l-0.401,0.197l8.614,4.03l-8.543,4.179
	l-8.614-4.03l-0.402,0.197l8.614,4.03l-8.543,4.178l-8.614-4.03l-0.401,0.195l8.614,4.031l-8.543,4.178l-8.615-4.03l-0.402,0.197
	l8.615,4.031l-8.543,4.178l-8.615-4.03l-0.402,0.196l8.615,4.03l-8.543,4.179l-8.615-4.031l-0.402,0.196l8.615,4.031l-8.543,4.178
	l-8.615-4.03l-0.402,0.196l8.614,4.031l-8.543,4.178l-8.614-4.03l-0.403,0.196l8.615,4.03l-8.543,4.178l-8.615-4.03l-0.402,0.196
	l8.615,4.03l-8.543,4.179l-8.615-4.031l-0.401,0.197l8.614,4.03l-8.543,4.178l-8.614-4.03l-0.402,0.197l8.615,4.03l-8.544,4.178
	l-8.614-4.03l-0.401,0.196l8.614,4.03l-9.161,4.48l0.404,0.19l9.162-4.48l8.615,4.03l-9.188,4.493l0.404,0.19l9.188-4.494
	l8.614,4.03l-9.214,4.506l0.404,0.19l9.215-4.506l8.615,4.03l-9.241,4.52l0.404,0.19l9.242-4.52l8.614,4.03l-9.268,4.533l0.405,0.19
	l9.269-4.533l8.614,4.03l-9.295,4.546l0.404,0.19l9.295-4.546l8.615,4.03l-9.322,4.559l0.404,0.189l9.322-4.559l8.614,4.03
	l-9.348,4.572l0.404,0.189l9.35-4.572l8.614,4.03l-9.375,4.585l0.404,0.19l9.376-4.585l8.613,4.03l-9.402,4.598l0.405,0.191
	l9.403-4.598l8.614,4.03l-9.429,4.61l0.404,0.191l9.43-4.612l8.614,4.031l-9.456,4.624l0.404,0.19l9.457-4.625l8.614,4.03
	l-9.482,4.637l0.405,0.191l9.483-4.638l8.614,4.03l-9.509,4.65l0.404,0.191l9.511-4.651l8.615,4.03l-9.537,4.664l0.404,0.19
	l9.538-4.665l8.613,4.031l-9.563,4.676l0.404,0.191l9.564-4.677l8.615,4.03l-9.59,4.69l0.404,0.19l9.591-4.69L162.54,272.6z
	 M162.941,272.403l-8.615-4.03l8.543-4.179l8.616,4.031L162.941,272.403z M198.427,220.526l-8.615-4.03l8.543-4.177l8.615,4.03
	L198.427,220.526z M207.375,216.538l8.614,4.031l-8.542,4.178l-8.615-4.03L207.375,216.538z M189.407,216.306l-8.614-4.03
	l8.543-4.178l8.614,4.03L189.407,216.306z M180.388,212.086l-8.615-4.03l8.543-4.178l8.615,4.03L180.388,212.086z M171.368,207.867
	l-8.614-4.03l8.543-4.178l8.614,4.03L171.368,207.867z M162.348,203.646l-8.613-4.03l8.543-4.178l8.613,4.03L162.348,203.646z
	 M153.33,199.427l-8.614-4.03l8.542-4.178l8.615,4.03L153.33,199.427z M152.927,199.624l-8.543,4.178l-8.614-4.03l8.543-4.179
	L152.927,199.624z M153.333,199.813l8.613,4.03l-8.543,4.178l-8.614-4.03L153.333,199.813z M162.352,204.033l8.614,4.03
	l-8.543,4.178l-8.614-4.03L162.352,204.033z M171.372,208.253l8.614,4.03l-8.543,4.178l-8.614-4.03L171.372,208.253z
	 M180.391,212.473l8.614,4.03l-8.543,4.178l-8.614-4.03L180.391,212.473z M189.41,216.692l8.614,4.03l-8.543,4.179l-8.614-4.03
	L189.41,216.692z M198.43,220.912l8.614,4.031l-8.543,4.178l-8.614-4.03L198.43,220.912z M207.45,225.133l8.614,4.03l-8.544,4.178
	l-8.613-4.03L207.45,225.133z M207.852,224.936l8.543-4.178l8.614,4.03l-8.543,4.178L207.852,224.936z M216.797,220.561l8.543-4.178
	l8.613,4.03l-8.542,4.178L216.797,220.561z M216.393,220.372l-8.616-4.031l8.543-4.178l8.615,4.03L216.393,220.372z
	 M207.373,216.152l-8.614-4.031l8.543-4.177l8.614,4.03L207.373,216.152z M198.353,211.932l-8.614-4.031l8.543-4.177l8.614,4.03
	L198.353,211.932z M189.333,207.712l-8.614-4.03l8.543-4.178l8.614,4.03L189.333,207.712z M180.313,203.492l-8.614-4.03l8.543-4.178
	l8.614,4.03L180.313,203.492z M171.294,199.272l-8.614-4.03l8.543-4.178l8.614,4.03L171.294,199.272z M162.275,195.053l-8.615-4.031
	l8.543-4.178l8.615,4.03L162.275,195.053z M153.255,190.833l-8.615-4.03l8.543-4.178l8.614,4.03L153.255,190.833z M152.853,191.029
	l-8.543,4.178l-8.614-4.031l8.543-4.178L152.853,191.029z M143.907,195.404l-8.543,4.178l-8.615-4.03l8.543-4.178L143.907,195.404z
	 M134.962,199.778l-8.544,4.179l-8.614-4.03l8.544-4.179L134.962,199.778z M135.368,199.968l8.615,4.03l-8.544,4.179l-8.614-4.03
	L135.368,199.968z M144.388,204.188l8.613,4.03l-8.543,4.178l-8.614-4.03L144.388,204.188z M153.407,208.408l8.614,4.03
	l-8.543,4.178l-8.614-4.03L153.407,208.408z M162.426,212.627l8.615,4.03l-8.544,4.179l-8.614-4.03L162.426,212.627z
	 M171.446,216.847l8.614,4.03l-8.543,4.178l-8.614-4.03L171.446,216.847z M180.466,221.067l8.614,4.03l-8.544,4.179l-8.614-4.031
	L180.466,221.067z M189.485,225.287l8.615,4.03l-8.544,4.178l-8.615-4.03L189.485,225.287z M198.505,229.506l8.614,4.03
	l-8.544,4.179l-8.614-4.03L198.505,229.506z M207.524,233.726l8.615,4.03l-8.544,4.179l-8.615-4.03L207.524,233.726z
	 M207.925,233.53l8.543-4.178l8.614,4.031l-8.543,4.178L207.925,233.53z M216.871,229.155l8.543-4.178l8.614,4.03l-8.542,4.178
	L216.871,229.155z M225.816,224.78l8.542-4.177l8.615,4.03l-8.543,4.178L225.816,224.78z M234.761,220.406l8.544-4.178l8.614,4.031
	l-8.544,4.178L234.761,220.406z M234.356,220.216l-8.614-4.03l8.543-4.179l8.615,4.03L234.356,220.216z M225.337,215.997
	l-8.615-4.031l8.544-4.178l8.615,4.03L225.337,215.997z M216.318,211.777l-8.615-4.03l8.543-4.179l8.615,4.03L216.318,211.777z
	 M207.298,207.557l-8.614-4.03l8.544-4.179l8.614,4.031L207.298,207.557z M198.278,203.337l-8.614-4.03l8.544-4.179l8.614,4.031
	L198.278,203.337z M189.259,199.118l-8.614-4.031l8.544-4.178l8.614,4.03L189.259,199.118z M180.239,194.897l-8.614-4.03
	l8.543-4.178l8.614,4.03L180.239,194.897z M171.22,190.678l-8.615-4.03l8.543-4.178l8.615,4.031L171.22,190.678z M162.2,186.458
	l-8.614-4.03l8.543-4.178l8.614,4.03L162.2,186.458z M153.18,182.238l-8.614-4.03l8.543-4.178l8.614,4.03L153.18,182.238z
	 M152.778,182.435l-8.543,4.178l-8.614-4.03l8.543-4.179L152.778,182.435z M143.833,186.809l-8.542,4.178l-8.615-4.03l8.543-4.178
	L143.833,186.809z M134.888,191.184l-8.543,4.179l-8.614-4.03l8.544-4.179L134.888,191.184z M125.943,195.559l-8.544,4.178
	l-8.613-4.03l8.543-4.179L125.943,195.559z M116.997,199.934l-8.543,4.177l-8.614-4.03l8.543-4.178L116.997,199.934z
	 M117.402,200.123l8.615,4.03l-8.543,4.178l-8.615-4.031L117.402,200.123z M126.422,204.343l8.614,4.03l-8.543,4.179l-8.614-4.031
	L126.422,204.343z M135.442,208.563l8.614,4.03l-8.543,4.178l-8.614-4.03L135.442,208.563z M144.461,212.782l8.614,4.031
	l-8.543,4.178l-8.615-4.03L144.461,212.782z M153.481,217.002l8.614,4.03l-8.543,4.178l-8.614-4.03L153.481,217.002z M162.5,221.222
	l8.613,4.03l-8.542,4.178l-8.614-4.03L162.5,221.222z M171.52,225.442l8.614,4.03l-8.542,4.178l-8.615-4.03L171.52,225.442z
	 M180.539,229.662l8.615,4.031l-8.543,4.177l-8.614-4.03L180.539,229.662z M189.559,233.882l8.614,4.03l-8.543,4.178l-8.614-4.03
	L189.559,233.882z M198.578,238.101l8.614,4.03l-8.543,4.178l-8.615-4.031L198.578,238.101z M198.652,246.695l8.615,4.031
	l-8.543,4.178l-8.615-4.031L198.652,246.695z M199.055,246.499l8.543-4.178l8.615,4.03l-8.542,4.178L199.055,246.499z M208,242.125
	l8.544-4.179l8.615,4.03l-8.545,4.179L208,242.125z M216.945,237.75l8.543-4.178l8.615,4.031l-8.543,4.178L216.945,237.75z
	 M225.891,233.375l8.543-4.178l8.615,4.031l-8.543,4.178L225.891,233.375z M234.836,229l8.542-4.178l8.615,4.03l-8.542,4.178
	L234.836,229z M243.782,224.626l8.543-4.178l8.615,4.03l-8.543,4.179L243.782,224.626z M252.727,220.251l8.543-4.178l8.615,4.031
	l-8.543,4.178L252.727,220.251z M252.322,220.061l-8.614-4.03l8.543-4.178l8.615,4.031L252.322,220.061z M243.302,215.842
	l-8.614-4.03l8.543-4.178l8.614,4.03L243.302,215.842z M234.283,211.622l-8.615-4.03l8.543-4.179l8.615,4.031L234.283,211.622z
	 M225.263,207.402l-8.614-4.03l8.544-4.179l8.614,4.031L225.263,207.402z M216.243,203.182l-8.614-4.03l8.543-4.178l8.614,4.03
	L216.243,203.182z M207.224,198.962l-8.614-4.03l8.544-4.178l8.614,4.03L207.224,198.962z M198.205,194.743l-8.614-4.03l8.543-4.179
	l8.614,4.03L198.205,194.743z M189.185,190.522l-8.614-4.029l8.543-4.179l8.614,4.03L189.185,190.522z M180.166,186.303l-8.614-4.03
	l8.543-4.178l8.614,4.03L180.166,186.303z M171.146,182.083l-8.614-4.031l8.543-4.178l8.614,4.03L171.146,182.083z M162.126,177.863
	l-8.614-4.03l8.543-4.178l8.614,4.03L162.126,177.863z M153.107,173.644l-8.614-4.03l8.543-4.178l8.614,4.03L153.107,173.644z
	 M152.705,173.84l-8.543,4.178l-8.614-4.03l8.543-4.178L152.705,173.84z M143.759,178.215l-8.543,4.178l-8.614-4.03l8.543-4.178
	L143.759,178.215z M134.814,182.59l-8.543,4.178l-8.614-4.03l8.543-4.178L134.814,182.59z M125.869,186.964l-8.544,4.179
	l-8.615-4.03l8.544-4.178L125.869,186.964z M116.924,191.339l-8.544,4.178l-8.614-4.031l8.544-4.178L116.924,191.339z
	 M107.978,195.714l-8.543,4.178l-8.614-4.03l8.542-4.178L107.978,195.714z M99.033,200.089l-8.543,4.178l-8.614-4.03l8.543-4.178
	L99.033,200.089z M99.438,200.278l8.614,4.03l-8.543,4.179l-8.615-4.031L99.438,200.278z M108.457,204.498l8.614,4.03l-8.543,4.178
	l-8.614-4.031L108.457,204.498z M117.477,208.717l8.614,4.031l-8.543,4.178l-8.614-4.03L117.477,208.717z M126.496,212.938
	l8.614,4.03l-8.543,4.178l-8.614-4.03L126.496,212.938z M135.516,217.157l8.614,4.03l-8.543,4.179l-8.614-4.03L135.516,217.157z
	 M144.535,221.377l8.614,4.03l-8.543,4.178l-8.614-4.03L144.535,221.377z M153.555,225.597l8.614,4.03l-8.543,4.178l-8.614-4.03
	L153.555,225.597z M162.575,229.816l8.614,4.031l-8.543,4.178l-8.614-4.03L162.575,229.816z M171.594,234.036l8.615,4.03
	l-8.544,4.179l-8.615-4.031L171.594,234.036z M180.614,238.256l8.614,4.03l-8.543,4.178l-8.614-4.03L180.614,238.256z
	 M189.632,242.476l8.615,4.031l-8.543,4.178l-8.614-4.03L189.632,242.476z M189.706,251.07l8.616,4.031l-8.543,4.178l-8.615-4.031
	L189.706,251.07z M198.726,255.29l8.615,4.03l-8.543,4.179l-8.614-4.031L198.726,255.29z M199.128,255.094l8.543-4.179l8.614,4.03
	l-8.543,4.178L199.128,255.094z M208.074,250.719l8.543-4.178l8.614,4.031l-8.542,4.178L208.074,250.719z M217.019,246.344
	l8.544-4.178l8.615,4.03l-8.544,4.179L217.019,246.344z M225.964,241.969l8.543-4.178l8.614,4.03L234.579,246L225.964,241.969z
	 M234.91,237.595l8.543-4.178l8.615,4.031l-8.543,4.178L234.91,237.595z M243.855,233.22l8.543-4.178l8.614,4.03l-8.542,4.178
	L243.855,233.22z M252.801,228.845l8.543-4.178l8.615,4.03l-8.543,4.178L252.801,228.845z M261.746,224.471l8.544-4.178l8.614,4.03
	l-8.543,4.178L261.746,224.471z M270.691,220.096l8.544-4.178l8.614,4.03l-8.544,4.178L270.691,220.096z M270.287,219.907
	l-8.615-4.031l8.544-4.178l8.615,4.03L270.287,219.907z M261.267,215.687l-8.614-4.031l8.543-4.178l8.614,4.03L261.267,215.687z
	 M252.247,211.467l-8.614-4.03l8.543-4.178l8.613,4.03L252.247,211.467z M243.228,207.248l-8.615-4.031l8.543-4.178l8.615,4.031
	L243.228,207.248z M234.208,203.027l-8.614-4.03l8.544-4.178l8.615,4.03L234.208,203.027z M225.188,198.808l-8.613-4.03l8.542-4.178
	l8.615,4.03L225.188,198.808z M216.169,194.588l-8.614-4.03l8.543-4.179l8.614,4.03L216.169,194.588z M207.15,190.368l-8.614-4.03
	l8.543-4.179l8.614,4.03L207.15,190.368z M198.13,186.148l-8.614-4.03l8.544-4.178l8.614,4.03L198.13,186.148z M189.11,181.929
	l-8.614-4.031l8.543-4.178l8.615,4.03L189.11,181.929z M180.091,177.708l-8.615-4.03l8.543-4.178l8.615,4.03L180.091,177.708z
	 M171.071,173.489l-8.613-4.03l8.543-4.178l8.613,4.031L171.071,173.489z M162.052,169.269l-8.615-4.03l8.543-4.178l8.615,4.031
	L162.052,169.269z M153.032,165.049l-8.614-4.03l8.543-4.178l8.614,4.03L153.032,165.049z M152.631,165.246l-8.543,4.178
	l-8.615-4.03l8.543-4.179L152.631,165.246z M143.685,169.62l-8.543,4.179l-8.614-4.03l8.543-4.179L143.685,169.62z M134.739,173.995
	l-8.543,4.179l-8.615-4.03l8.543-4.178L134.739,173.995z M125.794,178.37l-8.543,4.178l-8.614-4.03l8.544-4.178L125.794,178.37z
	 M116.849,182.745l-8.543,4.178l-8.614-4.03l8.543-4.179L116.849,182.745z M107.904,187.119l-8.544,4.178l-8.615-4.03l8.544-4.179
	L107.904,187.119z M98.958,191.494l-8.543,4.178l-8.614-4.03l8.543-4.178L98.958,191.494z M90.013,195.869l-8.544,4.178l-8.614-4.03
	l8.543-4.178L90.013,195.869z M81.067,200.243l-8.543,4.179l-8.614-4.03l8.543-4.178L81.067,200.243z M81.473,200.434l8.614,4.03
	l-8.543,4.178l-8.614-4.03L81.473,200.434z M90.492,204.653l8.614,4.03l-8.543,4.178l-8.614-4.03L90.492,204.653z M99.511,208.873
	l8.615,4.031l-8.543,4.178l-8.615-4.03L99.511,208.873z M108.531,213.092l8.615,4.031l-8.543,4.178l-8.615-4.03L108.531,213.092z
	 M117.551,217.313l8.614,4.03l-8.543,4.178l-8.613-4.03L117.551,217.313z M126.57,221.532l8.615,4.03l-8.543,4.179l-8.614-4.03
	L126.57,221.532z M135.59,225.751l8.614,4.031l-8.543,4.178l-8.614-4.03L135.59,225.751z M144.608,229.971l8.615,4.031l-8.543,4.178
	l-8.614-4.03L144.608,229.971z M153.629,234.191l8.614,4.03l-8.543,4.178l-8.614-4.031L153.629,234.191z M162.648,238.411
	l8.614,4.03l-8.543,4.178l-8.614-4.03L162.648,238.411z M171.668,242.631l8.614,4.03l-8.543,4.178l-8.614-4.03L171.668,242.631z
	 M180.687,246.851l8.614,4.031l-8.543,4.178l-8.614-4.03L180.687,246.851z M180.761,255.445l8.615,4.03l-8.543,4.178l-8.615-4.031
	L180.761,255.445z M189.781,259.665l8.614,4.03l-8.544,4.178l-8.614-4.03L189.781,259.665z M198.8,263.884l8.615,4.031l-8.543,4.178
	l-8.615-4.03L198.8,263.884z M199.203,263.688l8.543-4.178l8.614,4.031l-8.543,4.178L199.203,263.688z M208.148,259.313l8.543-4.178
	l8.614,4.03l-8.542,4.178L208.148,259.313z M217.094,254.938l8.543-4.178l8.614,4.03l-8.543,4.178L217.094,254.938z
	 M226.039,250.564l8.544-4.179l8.615,4.031l-8.544,4.178L226.039,250.564z M234.983,246.189l8.543-4.178l8.615,4.03l-8.543,4.178
	L234.983,246.189z M243.93,241.814l8.543-4.178l8.613,4.03l-8.542,4.178L243.93,241.814z M252.875,237.44l8.543-4.178l8.615,4.031
	l-8.543,4.178L252.875,237.44z M261.82,233.065l8.543-4.179l8.614,4.031l-8.543,4.178L261.82,233.065z M270.766,228.69l8.543-4.178
	l8.615,4.03l-8.544,4.178L270.766,228.69z M279.711,224.316l8.543-4.178l8.614,4.03l-8.543,4.179L279.711,224.316z M288.657,219.941
	l8.543-4.179l8.614,4.03l-8.543,4.178L288.657,219.941z M288.252,219.752l-8.615-4.031l8.544-4.178l8.614,4.03L288.252,219.752z
	 M279.233,215.532l-8.615-4.03l8.543-4.178l8.615,4.03L279.233,215.532z M270.212,211.312l-8.615-4.03l8.543-4.178l8.615,4.03
	L270.212,211.312z M261.193,207.092l-8.614-4.03l8.543-4.178l8.614,4.03L261.193,207.092z M252.174,202.872l-8.615-4.03l8.543-4.178
	l8.616,4.03L252.174,202.872z M243.154,198.653l-8.614-4.031l8.543-4.178l8.614,4.03L243.154,198.653z M234.134,194.433l-8.614-4.03
	l8.543-4.179l8.614,4.03L234.134,194.433z M225.115,190.213l-8.614-4.03l8.544-4.179l8.614,4.031L225.115,190.213z M216.095,185.993
	l-8.614-4.03l8.543-4.178l8.614,4.03L216.095,185.993z M207.075,181.773l-8.613-4.03l8.543-4.178l8.614,4.03L207.075,181.773z
	 M198.057,177.554l-8.614-4.03l8.543-4.178l8.614,4.03L198.057,177.554z M189.036,173.333l-8.614-4.03l8.544-4.178l8.614,4.03
	L189.036,173.333z M180.017,169.114l-8.614-4.03l8.543-4.178l8.614,4.03L180.017,169.114z M170.998,164.895l-8.614-4.031
	l8.543-4.178l8.614,4.03L170.998,164.895z M161.979,160.674l-8.615-4.03l8.543-4.178l8.615,4.03L161.979,160.674z M152.958,156.455
	l-8.614-4.03l8.543-4.178l8.615,4.031L152.958,156.455z M152.556,156.651l-8.543,4.178l-8.615-4.031l8.543-4.178L152.556,156.651z
	 M143.611,161.026l-8.543,4.179l-8.614-4.031l8.543-4.178L143.611,161.026z M134.666,165.401l-8.543,4.178l-8.615-4.03l8.544-4.179
	L134.666,165.401z M125.72,169.775l-8.543,4.178l-8.615-4.03l8.543-4.179L125.72,169.775z M116.775,174.15l-8.543,4.178
	l-8.614-4.031l8.543-4.178L116.775,174.15z M107.829,178.525l-8.543,4.178l-8.614-4.03l8.543-4.179L107.829,178.525z
	 M98.884,182.899l-8.543,4.178l-8.615-4.03l8.544-4.178L98.884,182.899z M89.938,187.274l-8.543,4.178l-8.615-4.031l8.543-4.178
	L89.938,187.274z M80.993,191.649l-8.543,4.178l-8.614-4.031l8.543-4.178L80.993,191.649z M72.048,196.024l-8.543,4.178l-8.615-4.03
	l8.543-4.178L72.048,196.024z M63.103,200.398l-8.543,4.178l-8.614-4.03l8.543-4.179L63.103,200.398z M63.508,200.588l8.614,4.03
	l-8.544,4.179l-8.615-4.031L63.508,200.588z M72.528,204.808l8.615,4.03l-8.544,4.179l-8.614-4.031L72.528,204.808z M81.547,209.027
	l8.614,4.03l-8.543,4.178l-8.614-4.03L81.547,209.027z M90.566,213.247l8.615,4.03l-8.544,4.178l-8.615-4.03L90.566,213.247z
	 M99.586,217.467l8.614,4.03l-8.544,4.179l-8.614-4.031L99.586,217.467z M108.605,221.687l8.614,4.03l-8.543,4.179l-8.614-4.03
	L108.605,221.687z M117.625,225.907l8.614,4.03l-8.543,4.178l-8.614-4.03L117.625,225.907z M126.645,230.126l8.614,4.03
	l-8.543,4.179l-8.614-4.03L126.645,230.126z M135.664,234.346l8.614,4.03l-8.543,4.179l-8.614-4.03L135.664,234.346z
	 M144.684,238.566l8.614,4.03l-8.543,4.178l-8.614-4.03L144.684,238.566z M153.703,242.786l8.615,4.03l-8.544,4.178l-8.615-4.03
	L153.703,242.786z M162.723,247.005l8.614,4.031l-8.544,4.178l-8.614-4.03L162.723,247.005z M171.742,251.226l8.614,4.03
	l-8.543,4.178l-8.615-4.031L171.742,251.226z M171.816,259.82l8.615,4.031l-8.544,4.178l-8.615-4.03L171.816,259.82z
	 M180.835,264.04l8.614,4.031l-8.543,4.178l-8.615-4.03L180.835,264.04z M189.855,268.259l8.615,4.03l-8.544,4.179l-8.614-4.031
	L189.855,268.259z M198.875,272.48l8.613,4.029l-8.544,4.179l-8.613-4.03L198.875,272.48z M199.277,272.283l8.544-4.178l8.613,4.029
	l-8.543,4.179L199.277,272.283z M208.222,267.909l8.543-4.179l8.614,4.03l-8.543,4.178L208.222,267.909z M217.168,263.534
	l8.543-4.178l8.614,4.03l-8.543,4.178L217.168,263.534z M226.113,259.159l8.543-4.179l8.614,4.03l-8.542,4.178L226.113,259.159z
	 M235.059,254.784l8.544-4.178l8.614,4.029l-8.544,4.179L235.059,254.784z M244.004,250.409l8.543-4.178l8.614,4.03l-8.543,4.178
	L244.004,250.409z M252.95,246.034l8.543-4.177l8.614,4.03l-8.543,4.178L252.95,246.034z M261.896,241.66l8.542-4.178l8.614,4.03
	l-8.543,4.178L261.896,241.66z M270.841,237.285l8.543-4.178l8.614,4.03l-8.544,4.178L270.841,237.285z M279.786,232.91l8.543-4.178
	l8.614,4.03l-8.543,4.178L279.786,232.91z M288.731,228.536l8.543-4.178l8.614,4.03l-8.543,4.179L288.731,228.536z M297.677,224.161
	l8.543-4.178l8.614,4.03l-8.544,4.178L297.677,224.161z M306.622,219.787l8.544-4.178l8.614,4.03l-8.544,4.179L306.622,219.787z
	 M306.216,219.597l-8.614-4.03l8.543-4.178l8.613,4.03L306.216,219.597z M297.196,215.377l-8.614-4.03l8.544-4.178l8.614,4.03
	L297.196,215.377z M288.178,211.158l-8.615-4.03l8.544-4.179l8.614,4.031L288.178,211.158z M279.157,206.937l-8.614-4.03
	l8.543-4.179l8.614,4.031L279.157,206.937z M270.138,202.718l-8.614-4.03l8.543-4.178l8.615,4.03L270.138,202.718z M261.119,198.498
	l-8.615-4.03l8.543-4.179l8.615,4.031L261.119,198.498z M252.099,194.278l-8.613-4.03l8.543-4.178l8.615,4.03L252.099,194.278z
	 M243.08,190.058l-8.615-4.03l8.544-4.178l8.614,4.03L243.08,190.058z M234.06,185.839l-8.614-4.031l8.544-4.178l8.614,4.03
	L234.06,185.839z M225.041,181.619l-8.615-4.03l8.544-4.179l8.613,4.03L225.041,181.619z M216.021,177.399l-8.614-4.03l8.543-4.179
	l8.614,4.03L216.021,177.399z M207.002,173.179l-8.615-4.03l8.543-4.179l8.615,4.031L207.002,173.179z M197.982,168.959l-8.615-4.03
	l8.544-4.178l8.614,4.03L197.982,168.959z M188.962,164.739l-8.614-4.03l8.544-4.178l8.614,4.03L188.962,164.739z M179.944,160.52
	l-8.615-4.03l8.544-4.178l8.615,4.03L179.944,160.52z M170.924,156.3l-8.614-4.03l8.543-4.178l8.614,4.031L170.924,156.3z
	 M161.904,152.08l-8.614-4.03l8.543-4.178l8.614,4.03L161.904,152.08z M152.885,147.86l-8.614-4.03l8.543-4.178l8.614,4.03
	L152.885,147.86z M152.482,148.057l-8.543,4.178l-8.614-4.03l8.543-4.178L152.482,148.057z M143.537,152.432l-8.543,4.178
	l-8.614-4.03l8.543-4.178L143.537,152.432z M134.591,156.806l-8.543,4.179l-8.615-4.031l8.543-4.178L134.591,156.806z
	 M125.646,161.181l-8.543,4.178l-8.614-4.03l8.543-4.178L125.646,161.181z M116.701,165.556l-8.543,4.178l-8.614-4.03l8.543-4.178
	L116.701,165.556z M107.755,169.93l-8.543,4.178l-8.614-4.03l8.543-4.178L107.755,169.93z M98.81,174.305l-8.544,4.178l-8.615-4.03
	l8.544-4.178L98.81,174.305z M89.865,178.68l-8.544,4.178l-8.614-4.03l8.543-4.178L89.865,178.68z M80.919,183.055l-8.543,4.178
	l-8.614-4.03l8.542-4.178L80.919,183.055z M71.973,187.429l-8.542,4.178l-8.615-4.031l8.543-4.178L71.973,187.429z M63.028,191.804
	l-8.543,4.178l-8.614-4.03l8.543-4.178L63.028,191.804z M54.083,196.178l-8.544,4.179l-8.615-4.03l8.544-4.179L54.083,196.178z
	 M45.137,200.553l-8.543,4.179l-8.614-4.03l8.543-4.179L45.137,200.553z M45.542,200.743l8.615,4.03l-8.543,4.178l-8.615-4.03
	L45.542,200.743z M54.562,204.963l8.614,4.03l-8.543,4.178l-8.614-4.03L54.562,204.963z M63.582,209.183l8.614,4.03l-8.543,4.178
	l-8.614-4.03L63.582,209.183z M72.601,213.402l8.614,4.03l-8.543,4.179l-8.614-4.03L72.601,213.402z M81.621,217.622l8.614,4.03
	l-8.543,4.178l-8.614-4.031L81.621,217.622z M90.64,221.842l8.615,4.03l-8.544,4.179l-8.615-4.031L90.64,221.842z M99.66,226.063
	l8.613,4.029l-8.543,4.178l-8.613-4.03L99.66,226.063z M108.68,230.282l8.614,4.03l-8.544,4.178l-8.614-4.03L108.68,230.282z
	 M117.699,234.501l8.614,4.03l-8.544,4.179l-8.614-4.031L117.699,234.501z M126.718,238.721l8.614,4.03l-8.543,4.179l-8.614-4.03
	L126.718,238.721z M135.738,242.94l8.615,4.031l-8.544,4.178l-8.614-4.03L135.738,242.94z M144.758,247.16l8.614,4.03l-8.544,4.179
	l-8.614-4.03L144.758,247.16z M153.777,251.38l8.614,4.03l-8.543,4.179l-8.614-4.03L153.777,251.38z M162.796,255.6l8.614,4.03
	l-8.544,4.179l-8.614-4.031L162.796,255.6z M171.96,276.623l-8.614-4.031l8.544-4.178l8.614,4.03L171.96,276.623z M180.98,280.843
	l-8.615-4.031l8.544-4.178l8.615,4.031L180.98,280.843z M189.999,285.063l-8.613-4.03l8.543-4.178l8.613,4.029L189.999,285.063z
	 M199.019,289.282l-8.614-4.03l8.544-4.179l8.614,4.031L199.019,289.282z M207.964,284.908l-8.614-4.03l8.544-4.179l8.614,4.031
	L207.964,284.908z M216.91,280.532l-8.614-4.03l8.544-4.178l8.613,4.03L216.91,280.532z M225.855,276.158l-8.614-4.03l8.543-4.178
	l8.614,4.03L225.855,276.158z M234.801,271.783l-8.614-4.03l8.543-4.178l8.614,4.03L234.801,271.783z M243.747,267.408l-8.614-4.03
	l8.542-4.177l8.614,4.03L243.747,267.408z M252.691,263.034l-8.613-4.03l8.544-4.178l8.614,4.03L252.691,263.034z M261.637,258.659
	l-8.614-4.03l8.543-4.178l8.613,4.031L261.637,258.659z M270.583,254.284l-8.613-4.03l8.542-4.178l8.614,4.03L270.583,254.284z
	 M279.528,249.909l-8.613-4.03l8.543-4.178l8.613,4.03L279.528,249.909z M288.473,245.535l-8.614-4.03l8.544-4.178l8.614,4.03
	L288.473,245.535z M297.419,241.16l-8.613-4.03l8.543-4.179l8.613,4.03L297.419,241.16z M306.364,236.785l-8.614-4.03l8.545-4.178
	l8.612,4.029L306.364,236.785z M315.31,232.411l-8.613-4.03l8.543-4.178l8.614,4.03L315.31,232.411z M324.254,228.036l-8.613-4.03
	l8.544-4.178l8.613,4.029L324.254,228.036z M333.13,215.453l8.613,4.03l-8.543,4.177l-8.612-4.029L333.13,215.453z M324.11,211.234
	l8.614,4.03l-8.543,4.178l-8.614-4.03L324.11,211.234z M315.091,207.014l8.613,4.03l-8.542,4.178l-8.614-4.03L315.091,207.014z
	 M306.071,202.793l8.614,4.031l-8.543,4.178l-8.614-4.03L306.071,202.793z M297.052,198.575l8.614,4.03l-8.543,4.178l-8.615-4.031
	L297.052,198.575z M288.032,194.354l8.615,4.03l-8.543,4.179l-8.615-4.031L288.032,194.354z M279.013,190.135l8.614,4.03
	l-8.543,4.178l-8.613-4.03L279.013,190.135z M269.993,185.915l8.616,4.031l-8.544,4.178l-8.615-4.03L269.993,185.915z
	 M260.974,181.695l8.615,4.03l-8.543,4.178l-8.614-4.03L260.974,181.695z M251.955,177.476l8.613,4.03l-8.542,4.178l-8.614-4.031
	L251.955,177.476z M242.935,173.255l8.615,4.03l-8.543,4.178l-8.615-4.031L242.935,173.255z M233.916,169.036l8.614,4.031
	l-8.543,4.177l-8.614-4.03L233.916,169.036z M224.896,164.816l8.613,4.03l-8.542,4.178l-8.614-4.03L224.896,164.816z
	 M215.876,160.596l8.615,4.03l-8.543,4.178l-8.615-4.031L215.876,160.596z M206.856,156.376l8.614,4.03l-8.543,4.178l-8.614-4.03
	L206.856,156.376z M197.837,152.156l8.614,4.03l-8.543,4.179l-8.614-4.03L197.837,152.156z M188.818,147.937l8.614,4.031
	l-8.543,4.178l-8.615-4.03L188.818,147.937z M179.798,143.717l8.614,4.03l-8.543,4.178l-8.614-4.03L179.798,143.717z
	 M170.779,139.497l8.614,4.03l-8.543,4.178l-8.614-4.031L170.779,139.497z M161.759,135.277l8.614,4.03l-8.543,4.178l-8.614-4.03
	L161.759,135.277z M152.74,131.058l8.615,4.03l-8.543,4.178l-8.615-4.03L152.74,131.058z M143.794,135.432l8.614,4.03l-8.543,4.178
	l-8.614-4.03L143.794,135.432z M134.85,139.807l8.614,4.03l-8.544,4.179l-8.614-4.031L134.85,139.807z M125.903,144.182l8.614,4.03
	l-8.543,4.179l-8.614-4.031L125.903,144.182z M116.958,148.556l8.614,4.031l-8.543,4.178l-8.614-4.03L116.958,148.556z
	 M108.013,152.931l8.614,4.03l-8.543,4.178l-8.614-4.031L108.013,152.931z M99.067,157.306l8.614,4.03l-8.543,4.178l-8.614-4.031
	L99.067,157.306z M90.122,161.68l8.614,4.031l-8.543,4.178l-8.615-4.03L90.122,161.68z M81.176,166.055l8.614,4.03l-8.544,4.179
	l-8.614-4.03L81.176,166.055z M72.231,170.43l8.614,4.03l-8.543,4.178l-8.615-4.03L72.231,170.43z M63.286,174.804l8.614,4.031
	l-8.543,4.177l-8.614-4.03L63.286,174.804z M54.34,179.179l8.614,4.03l-8.543,4.179l-8.615-4.03L54.34,179.179z M45.394,183.554
	l8.614,4.03l-8.543,4.178l-8.614-4.03L45.394,183.554z M36.45,187.929l8.614,4.03l-8.543,4.178l-8.614-4.03L36.45,187.929z
	 M27.503,192.303l8.615,4.03l-8.543,4.179l-8.615-4.03L27.503,192.303z M18.628,204.887l-8.614-4.03l8.544-4.178l8.614,4.03
	L18.628,204.887z M27.647,209.106l-8.614-4.031l8.543-4.178l8.615,4.03L27.647,209.106z M36.667,213.326l-8.614-4.03l8.544-4.179
	l8.614,4.031L36.667,213.326z M45.687,217.546l-8.615-4.03l8.545-4.179l8.614,4.03L45.687,217.546z M54.707,221.766l-8.614-4.03
	l8.544-4.179l8.614,4.03L54.707,221.766z M63.726,225.986l-8.614-4.031l8.543-4.178l8.614,4.03L63.726,225.986z M72.745,230.205
	l-8.614-4.03l8.544-4.178l8.615,4.03L72.745,230.205z M81.765,234.425l-8.614-4.03l8.544-4.179l8.614,4.031L81.765,234.425z
	 M90.785,238.645l-8.614-4.03l8.544-4.178l8.613,4.03L90.785,238.645z M99.804,242.865l-8.614-4.03l8.544-4.178l8.614,4.03
	L99.804,242.865z M108.824,247.084l-8.614-4.03l8.543-4.178l8.614,4.03L108.824,247.084z M117.843,251.304l-8.614-4.03l8.544-4.178
	l8.614,4.03L117.843,251.304z M126.863,255.524l-8.614-4.03l8.544-4.179l8.614,4.03L126.863,255.524z M135.883,259.744l-8.615-4.03
	l8.544-4.179l8.614,4.03L135.883,259.744z M144.901,263.964l-8.613-4.03l8.543-4.178l8.614,4.03L144.901,263.964z M145.307,264.153
	l8.544-4.179l8.614,4.031l-8.544,4.178L145.307,264.153z"/>
<g id="barre">
	<g id="barreVerte">
		<polygon fill="#D6DE4F" points="194.417,59.528 173.958,69.058 153.509,59.528 173.964,50 		"/>
		<polyline fill="#C8D41F" points="153.423,59.529 153.423,156.677 173.872,166.206 173.872,69.06 153.423,59.529 		"/>
		<polygon fill="#B6BE4F" points="194.417,59.528 173.872,69.06 173.872,166.206 194.417,156.675 		"/>
	</g>
	<g id="barreBleu">
		<polygon fill="#A0CFDA" points="225.749,88.901 208.204,97.075 190.661,88.901 208.21,80.728 		"/>
		<polyline fill="#86C2D0" points="190.589,88.903 190.589,172.225 208.13,180.399 208.13,97.077 190.589,88.903 		"/>
		<polygon fill="#67B1C3" points="225.749,88.901 208.13,97.077 208.13,180.399 225.749,172.223 		"/>
	</g>
	<g id="barreRouge">
		<polygon fill="#E17674" points="251.708,111.866 236.242,119.069 220.782,111.866 236.251,104.661 		"/>
		<polyline fill="#DE6567" points="220.782,111.866 220.72,184.739 236.179,191.943 236.242,119.069 220.782,111.866 		"/>
		<polygon fill="#D95157" points="251.708,111.866 236.242,119.069 236.179,191.943 251.708,184.738 		"/>
	</g>
</g>
<g>
	<g>
		<polygon fill="#C8D41F" points="44.016,208.234 32.52,202.838 32.214,194.066 43.708,199.459 		"/>
		<polygon fill="#B6BE4F" points="44.016,208.234 70.545,195.305 70.234,186.616 43.708,199.459 		"/>
		<polygon fill="#D6DE4F" points="32.214,194.066 43.708,199.459 70.234,186.616 58.644,181.198 		"/>
	</g>
	<g>
		<polygon fill="#86C2D0" points="60.18,215.805 48.688,210.407 48.378,201.636 59.874,207.029 		"/>
		<polygon fill="#67B1C3" points="60.18,215.805 123.002,185.238 122.679,176.527 59.874,207.029 		"/>
		<polygon fill="#A0CFDA" points="48.378,201.636 59.874,207.029 122.679,176.527 111.2,171.137 		"/>
	</g>
	<g>
		<polygon fill="#DE6567" points="76.347,223.355 64.854,217.962 64.544,209.19 76.041,214.58 		"/>
		<polygon fill="#D95157" points="76.347,223.355 111.419,206.313 111.171,197.507 76.041,214.58 		"/>
		<polygon fill="#E17674" points="64.544,209.19 76.041,214.58 111.171,197.507 99.618,192.236 		"/>
	</g>
	<g>
		<polygon fill="#FEA322" points="92.47,230.954 80.972,225.559 80.663,216.787 92.159,222.177 		"/>
		<polygon fill="#FF9100" points="92.47,230.954 110.815,222.079 110.542,213.285 92.159,222.177 		"/>
		<polygon fill="#FEB33F" points="80.663,216.787 92.159,222.177 110.542,213.285 98.993,207.954 		"/>
	</g>
	<g>
		<polygon fill="#C297B8" points="108.651,238.502 97.155,233.107 96.842,224.336 108.34,229.727 		"/>
		<polygon fill="#B079A2" points="108.651,238.502 153.084,216.843 152.772,208.068 108.34,229.727 		"/>
		<polygon fill="#D6B8CF" points="96.842,224.336 108.34,229.727 152.772,208.068 141.275,202.677 		"/>
	</g>
</g>
<g>
	<g>
		<path fill="#B6BE4F" d="M257.668,222.545c-9.114-6.672-24.382-11.051-41.697-11.051c-17.314,0-32.585,4.378-41.7,11.051h-1.667
			v27.382c8.834,7.415,24.924,12.394,43.366,12.394c27.919,0,50.56-11.378,50.56-25.415v-14.361H257.668z"/>
		<path fill="#A33D41" d="M165.409,222.545v14.361c0,4.765,2.656,9.209,7.197,13.021v-27.382H165.409z"/>
	</g>
	<g>
		<g>
			<path fill="#86C2D0" d="M215.773,222.545l13.754-12.417l10.87-9.827c-7.244-2.013-15.563-3.167-24.426-3.167
				c-1.897,0-3.762,0.063-5.606,0.165l1.534,7.141L215.773,222.545z"/>
			<path fill="#D95157" d="M215.846,222.545l-26.854-2.587l-22.66-2.197c-0.587,1.55-0.924,3.148-0.924,4.785
				c0,4.765,2.656,9.209,7.197,13.021l17.403-5.217L215.846,222.545z"/>
		</g>
		<g>
			<path fill="#D6DE4F" d="M240.398,200.3l-10.87,9.827l-13.665,12.345l-0.017,0.073h-0.073l0,0l-25.765,7.804l-17.403,5.217
				c8.83,7.415,24.924,12.394,43.366,12.394c27.919,0,50.56-11.378,50.56-25.415C266.531,212.965,255.972,204.63,240.398,200.3z"/>
			<path fill="#FEA322" d="M215.863,222.472l-0.079,0.073l-3.884-18.106l-1.534-7.141c-22.119,1.228-39.918,9.622-44.033,20.462
				l22.66,2.197l26.781,2.587h0.073L215.863,222.472z"/>
		</g>
	</g>
</g>
</svg>
