<?xml version="1.0" encoding="utf-8"?>
<!-- Generator: Adobe Illustrator 16.0.0, SVG Export Plug-In . SVG Version: 6.00 Build 0)  -->
<!DOCTYPE svg PUBLIC "-//W3C//DTD SVG 1.1 Tiny//EN" "http://www.w3.org/Graphics/SVG/1.1/DTD/svg11-tiny.dtd">
<svg version="1.1" baseProfile="tiny" id="Layer_1" xmlns="http://www.w3.org/2000/svg" xmlns:xlink="http://www.w3.org/1999/xlink"
	 x="0px" y="0px" width="281.319px" height="280.987px" viewBox="0 0 281.319 280.987" xml:space="preserve">
<g id="Envi">
	<g>
		<polygon points="140.375,231.904 157.123,225.737 123.85,225.636 		"/>
		<path d="M161.313,210.541h-41.417c-2.879,0-5.178,2.3-5.178,5.18c0,2.862,2.299,5.162,5.178,5.162h41.417
			c2.862,0,5.18-2.299,5.18-5.162C166.493,212.841,164.175,210.541,161.313,210.541z"/>
		<path d="M161.313,194.016h-41.417c-2.879,0-5.178,2.299-5.178,5.179c0,2.862,2.299,5.179,5.178,5.179h41.417
			c2.862,0,5.18-2.316,5.18-5.179C166.493,196.314,164.175,194.016,161.313,194.016z"/>
	</g>
	<path d="M141.158,62.05c-31.159,0-56.409,25.248-56.409,56.391c0.053,14.106,5.368,27.667,14.909,38.025l-0.172-0.017
		c0.7,0.647,1.313,1.277,1.928,1.907c0.323,0.307,0.628,0.613,0.952,0.92c13.426,13.901,10.802,23.494,10.802,23.494
		c-0.086,0.391-0.152,0.8-0.152,1.209c0,2.879,2.317,5.179,5.178,5.179h45.539c2.861,0,5.179-2.3,5.179-5.179
		c0-0.409-0.067-0.818-0.153-1.209h0.018c0,0-2.352-8.809,9.25-21.79c12.352-10.682,19.491-26.202,19.525-42.54
		C197.55,87.298,172.302,62.05,141.158,62.05z"/>
	<path fill="#FAFAFA" d="M141.156,70.518c-26.075,0-47.202,21.128-47.202,47.188c0.042,11.804,4.491,23.152,12.476,31.82
		l-0.144-0.014c0.584,0.542,1.1,1.069,1.612,1.596c0.271,0.257,0.526,0.514,0.797,0.771c6.349,6.574,8.393,11.974,8.982,15.445l0,0
		l1.188,10.94c0,2.409,1.834,4.334,4.1,4.334h36.055c2.149,0,3.893-1.74,4.067-3.975h0.033l1.142-10.855
		c0.469-3.204,2.2-8.261,7.745-14.463c10.335-8.939,16.311-21.927,16.338-35.598C188.345,91.646,167.217,70.518,141.156,70.518z"/>
	<g>
		<path d="M143.446,158.865l-0.142,0.184c-0.058,0.085-0.043,0.213,0.043,0.27l0.325,0.242c0.085,0.071,0.214,0.043,0.27-0.043
			l0.186-0.256c32.265-9,28.943-36.125,28.532-38.765l0.015-0.029h-0.015c-0.015-0.113-0.058-0.441-0.058-0.455l0.015-0.014h-0.015
			v-0.014l-0.013,0.028c-0.016,0-0.384,0.057-0.54,0.085l-0.015-0.014l-0.015,0.014C168.998,120.567,142.51,125.563,143.446,158.865
			z"/>
		<path d="M138.846,158.865c0.952-33.301-25.551-38.297-28.573-38.766l-0.015-0.014l-0.013,0.014
			c-0.156-0.029-0.526-0.085-0.526-0.085l-0.015-0.028v0.014h-0.028l0.015,0.014c0,0.014-0.029,0.341-0.058,0.455h-0.013
			l0.013,0.029c-0.397,2.64-3.732,29.766,28.547,38.779l0.171,0.242c0.071,0.086,0.197,0.114,0.283,0.043l0.313-0.242
			c0.083-0.057,0.113-0.17,0.042-0.27L138.846,158.865z"/>
		<polygon points="141.133,123.018 141.14,123.025 141.14,123.018 		"/>
	</g>
	<path d="M140.124,182.669h1.988v-45.168c19.575-25.976,1.248-45.451-0.638-47.324v-0.029l-0.015,0.014
		c-0.086-0.084-0.298-0.326-0.298-0.34l-0.015-0.014l-0.016,0.014v0.014c-0.013,0-0.27,0.284-0.383,0.397h-0.015
		c-2.128,2.145-20.042,21.491-0.61,47.297V182.669z"/>
</g>
<path d="M140.606-0.441c-77.715,0-140.715,63-140.715,140.714s63,140.714,140.715,140.714s140.713-63,140.713-140.714
	S218.321-0.441,140.606-0.441z M141.106,267.488c-70.259,0-127.215-56.956-127.215-127.214S70.847,13.06,141.106,13.06
	c70.258,0,127.213,56.956,127.213,127.214S211.364,267.488,141.106,267.488z"/>
</svg>
