<?xml version="1.0" encoding="utf-8"?>
<!-- Generator: Adobe Illustrator 16.0.0, SVG Export Plug-In . SVG Version: 6.00 Build 0)  -->
<!DOCTYPE svg PUBLIC "-//W3C//DTD SVG 1.1 Tiny//EN" "http://www.w3.org/Graphics/SVG/1.1/DTD/svg11-tiny.dtd">
<svg version="1.1" baseProfile="tiny" id="Box" xmlns="http://www.w3.org/2000/svg" xmlns:xlink="http://www.w3.org/1999/xlink"
	 x="0px" y="0px" width="704.082px" height="704.084px" viewBox="0 0 704.082 704.084" xml:space="preserve">
<g id="Femme">
	<path fill="#ECD6EA" d="M480.871,66.116c0,0-8.763-7.409-8.423-8.886c0.34-1.478,0.971-3.285,3.203-3.917
		c2.23-0.632,13.054-6.148,13.604-6.318c0.549-0.169,2.189-1.178,3.327,0.253c1.139,1.433,3.874,7.244,4.296,8.886"/>
	<path fill="#ECD6EA" d="M676.254,299.854c0,0,1.863,8.275,1.896,8.813s-0.126,2.971,0.79,3.443s1.706,0.441,2.243,0.252
		c0.537-0.19,16.073-7.849,16.394-8.023c0.321-0.174,0.79-0.174,0.854-1.003c0.063-0.83-4.232-9.421-4.518-9.801"/>
	<path fill="#ECD6EA" d="M581.933,137.335c-2.717,0.379-7.771,1.832-9.351,2.971c-1.578,1.137-3.727,3.537-4.105,4.801
		s8.276,32.915,9.477,32.978c1.2,0.063,13.521,1.58,15.414,1.58c1.896,0,23.628-21.479,23.944-21.922
		c0.315-0.442,1.326-1.327,0.695-3.096c-0.632-1.77-2.591-14.214-14.469-15.667c-11.877-1.453-20.722-1.644-20.722-1.644"/>
	<path fill="#5B4431" d="M555.394,284.344c17.511,20.594,40.617,20.552,64.496,17.346c5.238-0.705,10.381-2.145,15.567-3.242
		c1.992,5.438,2.882,11.074,3.087,16.838c1.951,12.841,3.849,24.339,6.891,36.631c3.889,12.157,5.03,24.893,7.823,37.273
		c0.792,3.526-1.488,4.75-3.752,6.081c-8.114,4.771-16.899,7.93-25.873,10.622c-1.973,1.998-4.455,2.857-7.169,3.071
		c-20.577,1.636-40.475-1.033-59.454-9.465c-2.256-1.003-4.266-2.249-5.533-4.453c-8.322-2.66-9.021-8.312-7.927-16.232
		C547.887,347.376,551.507,315.842,555.394,284.344z"/>
	<path fill="#ECB179" d="M638.119,494.754c0.943-4.943,1.055-10.184,1.998-15.132c0-3.156,0.181-5.752,0.439-8.772
		c0.723-8.374-7.986-19.223-16.238-20.312c-2.867-0.38-3.156,1.531-3.643,3.407c-1.224,4.735-0.449,5.9-1.407,10.644
		c-0.604,3.008-1.769,8.212-2.798,12.535c-2.243,5.689-2.207,11.388-0.079,17.098c-5.962,19.509-22.121,27.148-39.309,33.305
		c-5.104,1.824-9.652,0.249-11.448-5.705c5.73-7.186,12.849-13.049,20.003-18.546c9.66-7.411,11.394-18.598,10.003-33.381
		c-0.975-12.252-2.964-24.611-3.751-36.875c-0.213-3.29-2.31-4.672-4.56-5.979c-8.754-5.09-17.346-10.559-26.468-14.89
		c-7.718-3.669-12.058-8.217-9.395-17.113c23.036,10.441,46.905,15.292,72.165,10.854c-0.876,5.47,1.376,9.378,5.238,13.267
		c11.668,11.751,22.923,23.913,34.336,35.916c2.771,3.626,1.181,7.517,0.411,11.194c-2.424,11.637-8.225,21.622-15.848,30.594
		c-1.754,2.064-4.021,3.724-6.988,2.831C638.436,498.986,637.06,497.45,638.119,494.754z"/>
	<path fill="#ECB57D" d="M491.137,40.722c0.139,7.568-4.593,13.83-11.949,15.327c-2.048,0.417-4.472,0.406-6.398-0.296
		c-3.697-1.35-12.992-17.275-11.769-20.976c1.811-5.473,7.063-8.292,11.563-11.324c3.506-2.356,7.602-3.874,10.037,1.813
		c0.276,0.642,0.798,1.272,1.365,1.684C490.966,31.95,490.972,31.938,491.137,40.722z"/>
	<path fill="#2B2725" d="M638.119,494.754c2.283,6.696,6.333,3.411,8.472,0.676c7.073-9.047,13.647-18.521,15.31-30.368
		c0.465-3.325,0.872-6.656,1.31-9.986c9.486,4.179,11.31,9.972,5.886,18.381c-1.267,1.963-2.231,4.123-3.337,6.188
		c-2.991,8.543-4.264,17.89-11.466,24.464c-0.708,0.647-1.304,1.418-1.995,2.08c-4.313,4.115-9.482,7.306-14.671,2.78
		C632.892,504.839,634.803,499.412,638.119,494.754z"/>
	<path fill="#EEBF91" d="M702.276,319.947c-2.734,6.38-2.832,15.309-9.424,21.526c-1.346,1.268-3.064,3.17-5.008,1.844
		c-2.428-1.655,0.064-3.266,0.682-4.931c1.553-4.197,5.03-7.89,3.571-12.917c-0.795-2.736-0.966-6.128-4.53-6.729
		c-3.068-0.516-4.658,2.135-6.342,4.138c-1.134,1.349-1.24,4.51-3.74,3.377c-2.396-1.088-1.141-3.801-0.795-5.86
		c1.574-9.376,7.606-14.234,16.407-16.586c2.425-0.647,4.788-1.018,5.329,1.588C699.36,309.894,702.354,313.747,702.276,319.947z"/>
	<path fill="#B278AD" d="M693.564,287.835c-2.361-5.787-3.861-11.941-7.374-17.238c0,0,0,0,0,0.002
		c-1.04-2.91-2.051-5.83-3.123-8.729c-10.938-29.552-26.287-57.132-38.486-86.092c-5.352-12.705-16.772-14.908-26.783-20.047
		c-2.595-1.334-4.483,0.671-6.188,2.555c-4.387,4.854-8.92,9.575-13.261,14.467c-2.56,2.883-4.491,3.585-6.154-0.731
		c-2.375-6.175-5.511-9.322-11.306-2.869c-2.835,3.157-4.758,2.652-5.379-1.913c-0.683-5.029-1.788-10-2.761-14.986
		c-0.84-4.294-0.203-9.85-7.737-8.036c-1.869,0.45-2.98-2.142-4.375-3.448c-22.681-21.271-38.671-47.427-54.145-73.97
		c-9-15.441-8.915-15.287-23.767-4.792c-4.183,2.956-4.958,4.95-2.131,9.768c20.494,34.938,44.045,67.639,70.871,97.944
		c5.761,6.509,8.026,12.413,3.141,20.398c-5.831,9.528-4.359,18.451,3.801,26.159c3.476,3.281,4.066,6.943,3.426,11.784
		c-2.486,18.715-4.349,37.514-6.439,56.28c2.195,6.003,6.59,10.083,11.989,13.032c21.226,11.593,43.262,8.891,65.404,3.408
		c1.18-0.292,2.014-1.285,2.669-2.334c-0.228-2.622-0.174-5.301-0.729-7.85c-2.924-13.44-6.258-26.797-8.955-40.28
		c-2.914-14.574,1.402-28.298,5.327-43.761c13.162,24.623,23.971,48.223,33.625,72.363c1.352,4.671,4.074,8.813,5.728,13.292
		c2.474,8.578,3.026,10.304,11.347,7.837c2.493-0.737,4.866-1.987,7.397-2.479C695.465,296.36,696.332,292.976,693.564,287.835z"/>
	<path fill="#662C00" d="M663.077,158.517c-9.55-9.652-11.402-20.5-6.286-33.193c7.814-19.383,14.252-39.228,13.527-60.526
		c-0.657-19.352-10.26-32.852-27.859-40.665c-12.265-5.444-23.226-3.392-32.423,6.364c-3.024,3.208-6.187,4.697-10.552,5.29
		c-9.327,1.27-19.604,2.136-25.864,9.85c-9.731,11.991-16.206,26.005-16.544,41.771c-0.242,11.413,3.376,22.141,9.754,31.817
		c-0.56-2.566-1.117-5.131-1.678-7.698c0.727-8.194-1.349-16.312-0.619-24.527c0.746-8.445,9.428-16.336,17.092-15.249
		c10.78,1.528,23.098,18.127,21.657,28.94c-0.711,5.332-2.353,10.353-4.143,15.369c-0.636,1.785-1.822,4.109,0.009,5.361
		c2.229,1.522,4.184-0.557,5.519-2.14c5.036-5.968,9.069-12.501,10.622-20.336c0.442-2.231,0.499-5.909,3.66-5.112
		c3.595,0.908,1.907,4.271,1.096,6.709c-0.534,1.607-1.756,2.904-2.419,4.456c-1.558,3.646-2.616,7.325,0.507,10.778
		c15.717-5.953,26.378-16.187,27.292-33.857c1.09-21.124-9.646-36.396-32.536-46.948c6.254-3.5,12.022-1.938,17.097,1.479
		c12.396,8.349,19.597,19.918,19.964,35.189c0.347,14.365-2.301,28.491-3.721,42.708c-1.672,16.757,1.188,31.852,13.892,43.957
		c2.627,4.047,6.312,6.633,11.642,8.705C669.188,162.831,665.837,160.983,663.077,158.517z"/>
	<path fill="#F3D2A4" d="M579.606,200.693c-0.225,1.776-1.316,2.591-2.945,2.58c-1.373-0.01-2.305-0.854-2.246-2.245
		c0.065-1.546,0.846-2.883,2.516-3.041C578.752,197.816,579.349,199.188,579.606,200.693z"/>
	<path fill="#EFD2AB" d="M585.752,181.986c-0.192,1.801-1.23,2.545-2.863,2.344c-1.284-0.162-2.12-1.054-2.178-2.332
		c-0.069-1.604,0.778-2.729,2.468-2.685C584.811,179.357,585.614,180.46,585.752,181.986z"/>
	<path fill="#2B2726" d="M565.636,521.82c3.72,5.212,8.639,5.474,13.914,3.036c13.674-6.317,28.135-11.738,33.889-27.766
		c0.5-1.395,1.377-2.527,2.957-2.87c5.976,11.241,4.57,16.497-6.583,22.1c-3.85,1.936-6.581,4.789-9.325,7.825
		c-6.768,7.494-14.466,13.572-24.7,15.454c-5.875,1.083-11.97,1.62-15.274-4.832C557.5,528.881,562.222,525.477,565.636,521.82z"/>
	<path fill="#ECB37B" d="M565.153,111.525c-2.927-9.156-3.224-18.585-1.96-27.95c1.566-11.578,16.063-17.514,25.574-10.826
		c0.396,0.278,0.79,0.563,1.167,0.869c17.779,14.456,19.375,21.102,11.139,42.693c-0.648,1.702-2.526,3.048-1.442,6.041
		c6.934-7.728,13.243-15.268,13.929-25.701c0.29-4.452,2.381-6.659,6.181-6.013c3.936,0.667,3.953,4.401,3.305,7.655
		c-1.184,5.946-7.605,10.429-4.91,17.48c-0.779,0.567-1.516,1.215-2.347,1.689c-9.306,5.316-14.691,12.447-12.424,23.968
		c0.798,4.061-10.339,19.383-13.928,20.742c-2.139,0.809-2.554-0.671-3.051-1.949c-2.009-5.167-4.854-10.381-4.594-15.877
		c0.348-7.364-2.116-12.943-7.15-17.923C570.373,122.206,570.319,115.228,565.153,111.525z"/>
</g>
<g id="Homme">
	<path fill="#1E3C65" d="M126.752,135.071c-5.48,6.454-8.716,14.272-8.312,22.356c0.4,8.026-3.351,13.792-6.771,20.005
		c-1.971,3.575-4.462,6.866-6.185,10.594c-1.271,2.914-3.001,2.946-4.66,0.476c-5.874-8.744-15.334-14.643-19.537-24.699
		c-0.189-0.45-0.413-1.09-0.801-1.157c-9.879-1.705-14.455-13.264-25.105-13.497c-2.201,0.542-4.339,1.189-5.608,3.313
		c0.146,4.146,3.609,4.627,6.431,5.813c7.127,2.991,9.686,8.801,7.732,16.349c-5.366,20.736-10.322,41.575-14.523,62.58
		c-0.586,2.939-1.078,5.67-3.706,7.477c-1.659,2.209,1.896,2.132,1.643,3.774c-1.06,6.876,1.717,7.044,2.195,14.006
		c0.084,1.217-1.621,1.807-1.698,3.107c5.325,2.474,2.649,8.88,6.045,12.311c0.088-0.018,0.159-0.049,0.247-0.065
		c-0.019,1.145-0.039,2.29-0.058,3.433c-0.118,0.118-0.244,0.229-0.36,0.349c-1.063,2.275-0.675,4.669-0.167,6.924
		c1.007,4.48,0.543,8.552-2.411,12.191c6.177-0.209,7.08,2.705,4.531,7.658c5.054,6.833,5.368,14.864,5.771,22.872
		c4.64,4.099-2.244-4.626,0.593,0.551c3.796,0.923,7.232,0.093,9.382-1.998c6.716-6.528,10.896-1.367,17.326-8.171
		c3.717-3.933,7.833-4.128,12.213-5.979c2.416-1.023,2.854-0.281,5.85-2.697c-0.063-3.874,8.027-2.156,7.964-6.029
		c-2.549-1.394-1.186,10.092-3.943,7.833c-2.425-1.983-0.844-3.983,0.723-5.52c2.094-2.057,3.597-4.488,5.135-6.924
		c0.628-3.439,3.632,0.273,6.257-1.323c6.324-3.844-1.052-9.907,3.286-16.173c4.548-6.57,7.731-29.649,8.635-42.158
		c0.103-1.425-0.043-3.37,0.41-5.204c1.781-10.436,1.271-21.053,2.473-31.533c2.534-22.163,0.332-44.48,2.273-66.66
		C136.26,135.76,131.813,134.445,126.752,135.071z"/>
	<path fill="#4D6489" d="M156.164,439.749c-5.36-9.741-10.376-19.646-14.93-29.787c-0.994-2.222-1.898-4.445-4.07-5.819
		c-10.713-19.714-12.362-41.969-17.692-63.189c-1.144-4.563-1.686-9.277-3.144-13.759c-0.002-0.014,0.007-0.033,0.003-0.045
		c-0.656-1.821-0.805-13.441-0.781-14.987c0.021-1.545,1.127-7.604,1.14-8.035c0.013-0.43,1.071-3.968-1.014-4.599
		c-2.084-0.632-16.489,3.008-20.279,4.599L64.82,320.861l-7.571,16.294l9.257,25.066l13.954-7.814
		c0.834,0.429,1.669,0.852,2.494,1.284c3.39,1.781,5.715,4.051,6.547,7.791c0.91,1.844,2.086,3.545,2.766,5.506
		c5.269,13.527,7.836,27.655,9.525,41.998c0.438,3.729-0.354,6.64-3.776,8.529c-0.614,0.596-0.671,1.238-0.178,1.934
		c11.983,20.732,23.961,41.469,35.96,62.189c1.323,2.288,2.503,4.71,4.77,6.29c16.169-1.621,29.081-10.717,32.643-22.984
		C167.44,457.193,161.156,448.827,156.164,439.749z"/>
	<path fill="#6B7190" d="M160.973,281.017c0,0,3.285,7.454,4.107,8.339c0.82,0.884,0.371,1.824,1.954,2.27
		c1.584,0.446,15.481-7.197,15.481-7.197s0.821,0.249,0.884-1.202c0.063-1.451-3.821-6.189-4.69-7.326
		c-0.868-1.138-2.258-3.476-2.765-4.233"/>
	<path fill="#898DA6" d="M33.737,302.303c-0.084,0.445-0.253,13.588,0,15.188c0.252,1.599-0.415,2.399,0.927,3.225
		s14.825-2.131,15.415-2.299c0.59-0.167,5.222-8.086,5.979-8.339s1.264-0.479,1.18-1.713s-0.644-8.936-1.011-9.743
		c-0.367-0.807-2.189-3.453-2.189-3.453"/>
	<path fill="#898DA6" d="M87.31,127.543c0,0-8.093,0.482-9.854,1.349c-5.224,2.568-3.664,8.339-3.538,9.854
		c0.136,1.635-1.097,1.938-0.422,3.453c0.674,1.516,21.9,37.729,21.9,37.729l14.909-1.432l5.127-43.206c0,0,0.77-1.898,0.77-3.031
		c0-0.971-0.759-2.956-4.886-2.704c-4.126,0.253-15.078-0.505-15.078-0.505"/>
	<path fill="#3D261E" d="M131.214,65.052c6.285-18.372,1.042-28.95-17.235-34.156c-14.997-4.269-29.705-3.925-43.44,4.335
		c-11.687,7.025-17.539,17.581-17.864,31.217c-0.164,6.844,0.965,13.51,2.919,20.026c3.279,10.94,9.269,19.611,20.481,23.745
		c2.673,1.525,3.493-0.436,4.015-2.343c0.861-3.144,0.385-6.228-1.078-9.146c-1.082-2.158-2.541-4.162-3.159-6.511
		c-0.847-3.225-2.542-7.786,1.103-9.113c4.312-1.568,3.85,3.621,4.955,6.237c0.466,1.106,0.736,2.304,1.309,3.371
		c1.098,2.056,2.687,3.567,5.159,3.208c2.211-0.323,3.572-2.215,3.424-4.134c-1.017-13.166,6.604-19.592,17.694-23.754
		c3.092-1.161,5.416-3.856,8.654-6.816c-1.906,5.177-4.12,9.179-5.777,13.402c-0.618,1.576-1.43,3.282-0.126,4.782
		c1.321,1.524,3.164,1.063,4.718,0.395C123.753,76.882,130.29,73.662,131.214,65.052z"/>
	<path fill="#EDB37C" d="M131.214,65.052c-4.376,6.824-9.565,12.617-18.851,14.529c2.651-7.798,7.583-14.22,8.763-23.724
		c-8.069,8.231-16.357,13.429-25.793,17.215c-5.393,2.162-3.313,8.908-4.771,13.527c-0.854,2.709,1.377,7.536-2.745,7.759
		c-4.232,0.229-4.173-4.636-4.505-7.862c-0.444-4.304-2.568-7.218-6.768-6.895c-4.815,0.374-3.874,4.721-3.87,7.977
		c0.004,4.308,2.306,7.707,4.467,11.261c2.324,3.826,4.558,8.1-1.072,11.379c4.718,3.325,3.082,8.324,2.827,12.602
		c-0.375,6.323,1.528,10.97,6.292,15.265c5.528,4.985,10.25,10.862,15.778,16.845c5.522-8.252,7.399-16.271,9.458-24.12
		c0.764-2.916,1.234-4.618,4.645-5.111c4.824-0.697,8.117-3.583,9.813-8.47C130.772,100.273,135.41,83.213,131.214,65.052z"/>
	<path fill="#5B4431" d="M90.559,362.841c0.224-3.42-1.009-5.729-4.308-7.333c-5.099-2.476-9.946-5.462-14.902-8.234
		c-4.252-0.351-5.233,3.655-6.999,4.807c3.559-3.232,5.958-7.943,2.632-13.669c-2.773-4.775-6.611-8.187-12.746-7.408
		c-1.957,4.074,2.999,4.719,3.78,7.469c-13.049-0.416-7.938-1.902-12.592-5.987c-1.76-1.544-4.486-2.864-8.487-4.634
		c-3.418-1.265-5.494-2.626-8.552-4.46c-2.854-1.717-6.221-1.525-7.601,1.5c-5.055,11.071-8.947,22.486-6.074,34.976
		c0.197,0.865,1.076,1.574,1.636,2.356c4.776,7.361,11.425,11.958,20.068,13.628c8.458-2.937,10.086,4.478,13.626,9.015
		c8.12,4.689,16.854,7.938,25.624,11.127c5.363,1.955,8.84,0.457,10.281-5.208c0.779-3.056,0.943-6.211,0.608-9.283
		C85.818,374.785,85.897,368.35,90.559,362.841z"/>
	<path fill="#4D6489" d="M140.018,139.252c-3.15,1.869-3.447,5.279-3.27,8.127c1.358,21.722-0.339,43.378-1.421,65.021
		c-0.418,8.39-2.208,16.674-0.057,25.045c7.487,14.08,14.994,28.145,22.429,42.249c1.33,2.522,2.869,3.08,5.135,1.248
		c0.18-0.146,0.452-0.174,0.669-0.278c17.715-8.499,18.604-8.965,9.571-26.204c-16.429-31.354-20.296-65.876-27.307-99.664
		C144.65,149.396,145.574,143.072,140.018,139.252z"/>
	<path fill="#684E38" d="M84.624,391.146c-1.913,4.558-4.802,4.734-9.102,2.844c-8.474-3.733-17.208-6.88-25.835-10.269
		c-7.087,1.146-10.695-3.322-13.82-8.566c-7.1-3.421-13.31-8.177-19.521-12.934c0.563,11.162-1.701,22.551,2.699,33.401
		c0.835,1.603,1.463,1.965,2.458,2.972c9.324,7.564,17.511,16.117,29.639,19.015c8.59,4.23,17.111,8.613,25.811,12.609
		c2.816,1.295,6.045,3.612,9.222,0.335C89.275,417.272,90.697,404.063,84.624,391.146z"/>
	<path fill="#2C1409" d="M208.354,455.068c-11.227-0.631-20.807,4.413-30.563,8.855c-2.372,1.08-4.771,2.105-7.157,3.155
		c-7.217,10.466-15.544,19.36-29.147,21.025c-1.033,0.125-1.949,1.193-2.918,1.821c0.126,0.204,0.241,0.422,0.392,0.606
		c4.118,5.013,6.782,14.247,11.885,14.545c5.388,0.313,12.402-5.388,16.58-10.279c11.964-14.005,30.96-17.152,43.659-29.702
		C217.061,459.88,213.555,457.245,208.354,455.068z"/>
	<path fill="#4D6489" d="M55.381,149.147c0.17,1.023,3.409,1.143,6.073,2.452c3.438,1.689,3.438,1.689,6.271,3.95
		c4.314,2.791,6.747,4.384,9.225,5.938c6.157,3.867,2.924,8.706,6.569,12.509c5.266,5.49,12.608,10.258,16.889,16.828
		c2.578,3.957,5.662,3.627,6.062-2.01c-0.421-0.479-0.908-0.867-1.463-1.173c-3.729-2.921-4.104-8.027-7.343-11.257
		c-5.044-11.799-12.159-22.421-18.775-33.335c-2.033-3.358-3.779-4.145-7.374-2.031C66.336,144.067,60.779,146.469,55.381,149.147z"
		/>
	<path fill="#ECB47D" d="M35.152,321.543c2.721-0.285,3.217,1.813,3.396,3.633c1.006,10.25,5.686,15.12,15.622,15.009
		c2.908-0.032,5.5,1.205,8.513,1.137c-0.57-5.646-7.458-5.351-8.79-9.957c2.877-3.248,5.866,3.062,8.742-0.105
		c-0.164-8.286,2.977-17.582-6.963-22.896c-1.637,0.434-3.25,1.013-4.912,1.279C43.406,310.822,37.892,314.345,35.152,321.543z"/>
	<path fill="#4D6489" d="M105.231,188.823l0.618-0.012c0,0,0.618,0.004,0.62,0.004c4.564-7.334,9.089-14.698,13.717-21.993
		c2.42-3.814-1.222-7.244-0.294-11.265c1.637-7.104,5.17-13.471,6.86-20.486c-1.547-0.527-3.067-1.179-4.651-1.56
		c-5.034-1.22-8.019-0.985-8.639,5.947c-0.996,11.151-1.336,22.557-5.388,33.271C104.72,177.669,102.744,182.851,105.231,188.823z"
		/>
	<path fill="#ECB57E" d="M191.393,303.372c-0.92,1.467-1.641,5.931-4.221,0.048c-1.862-4.249-4.16-0.895-5.582,0.175
		c-5.406,4.06-8.525,1.533-11.371-3.195c-2.773-4.607-5.351-9.001,1.146-12.733c3.589-2.06,5.565-8.189,11.398-4.477
		C189.981,287.784,193.829,296.265,191.393,303.372z"/>
	<path fill="#D77E44" d="M105.231,188.823c0.945-5.366,1.894-10.729,2.841-16.094c-0.628-3.003-1.889-5.851-0.69-9.119
		c1.542-4.211-2.535-5.636-4.383-8.062c-8.837,5.235-2.85,14.082-5.333,20.834c-0.054,4.858,3.527,8.361,4.818,12.748
		C102.991,190.849,104.37,189.692,105.231,188.823z"/>
	<path fill="#967051" d="M62.635,331.26c-2.584,0.237-4.474-1.491-6.679-2.335c-2.81-1.071-2.904,0.33-2.063,2.439
		c5.258,1.691,9.917,3.374,12.407,9.534c2.633,6.519-4.3,9.038-4.563,14.943c3.621-3.226,6.618-5.896,9.615-8.567
		c0.035-0.414,0.058-0.829,0.065-1.241C69.16,340.71,69.484,333.854,62.635,331.26z"/>
	<path fill="#2D1409" d="M16.151,407.016c-4.78,2.002-9.563,4-14.345,6.002c1.471,7.925,1.785,16.278,10.138,21.089
		c1.818,1.047,2.666,3.946,3.731,6.104c3.874,7.842,19.6,17.074,27.996,16.261c4.239-0.409,4.559-4.569,6.472-7.153
		c1.945-2.63,0.798-5.16-1.07-7.256c-3.425-3.845-7.599-6.746-12.233-8.978c-0.904-0.448-1.153-1.673-1.966-2.024
		c-9.391-4.07-14.126-11.735-16.651-21.188C17.914,408.722,17.208,407.703,16.151,407.016z"/>
	<path fill="#7D5E44" d="M84.624,391.146c2.328,13.063,1.165,26.265,1.55,39.407c4.943-1.685,7.368-6.589,11.662-9.105
		c0.04-0.407,0.106-0.813,0.201-1.211c3.03-4.887,2.063-10.242,1.418-15.389c-1.566-12.493-2.593-25.09-6.193-37.25
		c-0.154-2.011-1.11-3.563-2.703-4.753c-6.02,2.922-7.979,7.173-6.207,14.013C85.513,381.341,84.604,386.364,84.624,391.146z"/>
	<path fill="#4D586F" d="M16.151,407.016c1.737,12.786,7.321,22.516,20.688,26.069c2.504-7.255,10-9.893,14.306-15.478
		c-10.282-5.716-20.203-11.993-29.641-19.015C20.335,401.794,16.292,403.162,16.151,407.016z"/>
	<path fill="#684E38" d="M93.261,367.598c1.011,17.6,4.596,34.964,4.771,52.639c3.703,0.626,6.804-0.416,6.275-4.618
		C102.266,399.254,100.663,382.745,93.261,367.598z"/>
	<path fill="#839EA6" d="M35.866,375.155c-0.83,6.769,4.729,8.035,8.957,10.548c2.696,1.603,3.864,0.203,4.863-1.98
		c0.278-6.589-4.532-8.801-9.381-11.125C37.317,371.16,36.477,372.798,35.866,375.155z"/>
	<path fill="#4D6489" d="M56.466,156.402c-2.543-0.764-5.033-1.659-6.693-3.94c-6.733,4.532-10.629,10.566-12.19,18.791
		c-3.331,17.54-7.464,34.925-11.27,52.373c-0.479,0.962-0.653,1.757-0.625,2.454c-2.255,8.337-5.714,16.546-2.382,25.486
		c2.352,16.268,4.803,32.524,6.975,48.819c0.434,3.235,1.646,4.2,4.641,3.554c5.387-1.169,11.051-0.956,16.22-3.23
		c4.066-1.4,6.765-3.146,4.574-8.394c-1.317-3.151-1.149-6.922-1.646-10.414c1.082-1.38,1.321-2.773,0.071-4.195
		c-0.055-1.879-0.961-3.577-0.444-5.643c1.175-3.484-0.625-4.721-0.501-6.961c0.072-1.289-0.45-4.68-1.062-8.311
		c0.047-0.816-0.084-1.58-0.389-2.288c-0.332-1.935-0.66-3.832-0.907-5.407c0,0,0.336-2.357,0.259-7.7
		c0.089-0.431,0.166-0.896,0.23-1.399c1.854-14.279,4.932-28.396,9.201-42.154c2.709-8.729,3.055-17.884,6.22-26.608
		C68.986,165.058,63.255,158.442,56.466,156.402z"/>
</g>
<g id="BoxArriere">
	<polygon fill="#B86B3F" points="584.99,314.559 405.658,418.469 226.33,314.559 405.658,210.652 	"/>
	<polygon fill="#A4491F" points="405.658,210.652 226.33,314.559 405.658,418.469 	"/>
	<polygon fill="#983811" points="405.658,203.86 214.609,314.56 214.609,318.075 157.178,327.061 157.178,323.548 348.229,216.362 	
		"/>
	<polygon fill="#983811" points="653.75,327.063 596.709,318.075 596.709,314.56 405.658,203.86 462.7,216.363 653.75,323.548 	"/>
	<polygon fill="#C27C53" points="405.658,203.86 214.609,314.56 157.178,323.548 348.229,212.846 	"/>
	<polygon fill="#C27C53" points="653.75,323.548 596.709,314.56 405.658,203.86 462.7,212.847 	"/>
	<polygon fill="#FFFFFF" points="405.658,203.86 214.609,314.56 214.61,314.56 226.333,314.56 226.33,314.559 405.658,210.652 
		584.99,314.559 584.987,314.56 596.708,314.56 596.709,314.56 	"/>
</g>
<g id="Feuille">
	<polygon fill="#FAFAFA" points="489.562,176.053 409.6,169.485 432.256,34.735 512.221,41.299 	"/>
	<polygon fill="#D0D0D0" points="491.244,54.823 451.983,51.6 452.603,47.913 491.865,51.138 	"/>
	<polygon fill="#D0D0D0" points="502.184,62.212 434.658,56.667 435.28,52.983 502.805,58.527 	"/>
	<polygon fill="#D0D0D0" points="501.335,67.259 433.812,61.712 434.431,58.028 501.954,63.573 	"/>
	<polygon fill="#D0D0D0" points="500.487,72.304 432.962,66.757 433.582,63.072 501.109,68.617 	"/>
	<polygon fill="#D0D0D0" points="499.659,77.226 432.136,71.68 432.754,67.994 500.279,73.54 	"/>
	<polygon fill="#D0D0D0" points="498.858,82.003 431.331,76.457 431.951,72.771 499.478,78.318 	"/>
	<polygon fill="#D0D0D0" points="473.184,84.813 430.516,81.309 431.136,77.623 473.805,81.125 	"/>
	<polygon fill="#D0D0D0" points="453.572,130.656 422.646,128.115 423.265,124.431 454.193,126.972 	"/>
	<polygon fill="#D0D0D0" points="490.17,133.662 459.664,131.157 460.283,127.472 490.79,129.977 	"/>
	<polygon fill="#D0D0D0" points="452.717,135.749 421.788,133.21 422.408,129.525 453.336,132.065 	"/>
	<polygon fill="#D0D0D0" points="451.86,140.843 420.934,138.304 421.553,134.618 452.48,137.156 	"/>
	<polygon fill="#D0D0D0" points="451.028,145.791 420.102,143.25 420.721,139.564 451.648,142.105 	"/>
	<polygon fill="#D0D0D0" points="450.196,150.738 419.269,148.199 419.889,144.514 450.816,147.053 	"/>
	<polygon fill="#D0D0D0" points="440.948,154.849 418.46,153 419.081,149.315 441.568,151.161 	"/>
	<polygon fill="#D0D0D0" points="489.736,138.789 458.81,136.25 459.429,132.564 490.357,135.104 	"/>
	<polygon fill="#D0D0D0" points="488.879,143.885 457.951,141.344 458.572,137.658 489.498,140.198 	"/>
	<polygon fill="#D0D0D0" points="488.024,148.978 457.095,146.437 457.716,142.751 488.644,145.29 	"/>
	<polygon fill="#D0D0D0" points="487.192,153.926 456.265,151.385 456.885,147.698 487.811,150.24 	"/>
	<polygon fill="#D0D0D0" points="486.36,158.872 455.431,156.332 456.052,152.647 486.98,155.187 	"/>
	<polygon fill="#D0D0D0" points="485.554,163.674 454.623,161.135 455.244,157.449 486.173,159.988 	"/>
	<polygon fill="#D0D0D0" points="466.043,166.941 453.818,165.937 454.438,162.25 466.663,163.254 	"/>
	<polygon fill="#D0D0D0" points="455.564,118.821 424.636,116.281 424.823,115.166 455.75,117.706 	"/>
	<polygon fill="#71AACA" points="433.494,98.79 428.926,98.414 426.091,115.271 430.659,115.646 	"/>
	<polygon fill="#F8DD91" points="439.084,102.789 434.517,102.414 432.27,115.779 436.838,116.155 	"/>
	<polygon fill="#EF7E5A" points="446.535,95.213 441.967,94.838 438.361,116.279 442.932,116.654 	"/>
	<polygon fill="#80B9D4" points="450.319,107.915 445.749,107.54 444.199,116.759 448.77,117.132 	"/>
	<polygon fill="#FAB169" points="455.24,113.336 450.672,112.961 449.953,117.231 454.523,117.606 	"/>
	<polygon fill="#D0D0D0" points="479.235,120.765 461.655,119.321 461.843,118.207 479.423,119.651 	"/>
	<polygon fill="#D0D0D0" points="492.582,121.862 479.933,120.823 480.121,119.706 492.771,120.745 	"/>
	<path fill="#71AACA" d="M470.248,106.492c-0.902,5.37,2.16,10.034,6.845,10.419l1.637-9.722L470.248,106.492z"/>
	<g>
		<polygon fill="none" points="479.496,106.44 479.497,106.443 479.497,106.44 		"/>
		<path fill="#EF7E5A" d="M481.134,96.716c-2.824-0.229-5.587,1.152-7.538,3.462l5.9,6.262h0.001v0.002l-1.635,9.722
			c4.685,0.384,9.215-3.658,10.116-9.026C488.884,101.767,485.818,97.102,481.134,96.716z"/>
		<path fill="#F8DD91" d="M478.514,106.359l-5.901-6.263c-1.283,1.519-2.22,3.435-2.578,5.565L478.514,106.359z"/>
	</g>
</g>
<g id="BoxDevant">
	<polyline fill="#B86B3F" points="214.412,314.56 214.412,548.977 405.462,659.678 405.462,425.261 214.412,314.56 	"/>
	<polygon fill="#CC916B" points="596.513,314.56 405.462,425.261 405.462,659.678 596.513,548.977 	"/>
	<polygon fill="#983811" points="666.254,399.536 475.203,510.237 405.462,428.776 405.462,425.262 596.513,318.076 666.254,396.02 
			"/>
	<polygon fill="#983811" points="405.462,428.776 335.724,510.237 144.673,399.536 144.673,396.02 214.412,318.076 405.462,425.262 
			"/>
	<polygon fill="#C27C53" points="666.254,396.02 475.203,506.723 405.462,425.262 596.513,314.561 	"/>
	<polygon fill="#C27C53" points="405.462,425.262 335.724,506.723 144.673,396.02 214.412,314.561 	"/>
	<polygon fill="#FFFFFF" points="405.463,418.469 226.137,314.561 214.414,314.561 405.463,425.261 596.513,314.561 
		584.791,314.561 	"/>
</g>
</svg>
