<?xml version="1.0" encoding="utf-8"?>
<!-- Generator: Adobe Illustrator 16.0.0, SVG Export Plug-In . SVG Version: 6.00 Build 0)  -->
<!DOCTYPE svg PUBLIC "-//W3C//DTD SVG 1.1//EN" "http://www.w3.org/Graphics/SVG/1.1/DTD/svg11.dtd">
<svg version="1.1" id="Layer_2" xmlns="http://www.w3.org/2000/svg" xmlns:xlink="http://www.w3.org/1999/xlink" x="0px" y="0px"
	 viewBox="-50.351 -50.792 258.613 294.413"
	 enable-background="new -50.351 -50.792 258.613 294.413" xml:space="preserve">
<g id="Feuille">

		<rect id="rect3866" x="-4.668" y="-26.498" transform="matrix(0.8972 -0.4416 0.4416 0.8972 -34.4614 44.7772)" fill="#FFFFFF" width="167.246" height="245.825"/>

		<rect id="rect3868" x="-2.187" y="2.598" transform="matrix(0.8972 -0.4416 0.4416 0.8972 1.3638 17.7793)" fill="#D0D0D0" width="82.12" height="6.724"/>

		<rect id="rect3870" x="-30.55" y="15.034" transform="matrix(0.8972 -0.4416 0.4416 0.8972 -4.0056 19.5838)" fill="#D0D0D0" width="141.23" height="6.724"/>

		<rect id="rect3872" x="-26.498" y="23.287" transform="matrix(0.8972 -0.4417 0.4417 0.8972 -7.2329 22.232)" fill="#D0D0D0" width="141.255" height="6.725"/>

		<rect id="rect3874" x="-22.433" y="31.545" transform="matrix(0.8972 -0.4417 0.4417 0.8972 -10.4624 24.8759)" fill="#D0D0D0" width="141.254" height="6.726"/>

		<rect id="rect3876" x="-18.459" y="39.61" transform="matrix(0.8972 -0.4416 0.4416 0.8972 -13.6148 27.4501)" fill="#D0D0D0" width="141.233" height="6.722"/>

		<rect id="rect3878" x="-14.62" y="47.425" transform="matrix(0.8972 -0.4417 0.4417 0.8972 -16.673 29.9609)" fill="#D0D0D0" width="141.257" height="6.727"/>

		<rect id="rect3880" x="-8.029" y="66.851" transform="matrix(0.8972 -0.4416 0.4416 0.8972 -27.2457 23.3767)" fill="#D0D0D0" width="89.242" height="6.725"/>

		<rect id="rect3882" x="30.945" y="148.902" transform="matrix(0.8972 -0.4416 0.4416 0.8972 -60.7351 43.5997)" fill="#D0D0D0" width="64.685" height="6.722"/>

		<rect id="rect3884" x="100.467" y="114.882" transform="matrix(0.8972 -0.4417 0.4417 0.8972 -38.6149 70.626)" fill="#D0D0D0" width="63.817" height="6.727"/>

		<rect id="rect3886" x="35.05" y="157.238" transform="matrix(0.8972 -0.4416 0.4416 0.8972 -63.9949 46.2692)" fill="#D0D0D0" width="64.685" height="6.724"/>

		<rect id="rect3888" x="39.157" y="165.576" transform="matrix(0.8972 -0.4416 0.4416 0.8972 -67.2548 48.9405)" fill="#D0D0D0" width="64.684" height="6.72"/>

		<rect id="rect3890" x="43.139" y="173.676" transform="matrix(0.8972 -0.4416 0.4416 0.8972 -70.4215 51.5297)" fill="#D0D0D0" width="64.684" height="6.723"/>

		<rect id="rect3892" x="47.119" y="181.779" transform="matrix(0.8972 -0.4416 0.4416 0.8972 -73.5912 54.1223)" fill="#D0D0D0" width="64.687" height="6.724"/>

		<rect id="rect3894" x="51.908" y="193.523" transform="matrix(0.8972 -0.4417 0.4417 0.8972 -79.2043 53.5611)" fill="#D0D0D0" width="47.041" height="6.724"/>

		<rect id="rect3896" x="104.529" y="123.02" transform="matrix(0.8972 -0.4417 0.4417 0.8972 -41.7468 73.4543)" fill="#D0D0D0" width="64.697" height="6.727"/>

		<rect id="rect3898" x="108.631" y="131.362" transform="matrix(0.8972 -0.4417 0.4417 0.8972 -45.0088 76.1233)" fill="#D0D0D0" width="64.7" height="6.724"/>

		<rect id="rect3900" x="112.741" y="139.712" transform="matrix(0.8972 -0.4416 0.4416 0.8972 -48.2674 78.7737)" fill="#D0D0D0" width="64.685" height="6.721"/>

		<rect id="rect3902" x="116.728" y="147.807" transform="matrix(0.8972 -0.4416 0.4416 0.8972 -51.4338 81.3701)" fill="#D0D0D0" width="64.687" height="6.723"/>

		<rect id="rect3904" x="120.707" y="155.897" transform="matrix(0.8972 -0.4417 0.4417 0.8972 -54.6043 83.9803)" fill="#D0D0D0" width="64.7" height="6.727"/>

		<rect id="rect3906" x="124.578" y="163.761" transform="matrix(0.8972 -0.4417 0.4417 0.8972 -57.6795 86.4975)" fill="#D0D0D0" width="64.696" height="6.725"/>

		<rect id="rect3908" x="130.465" y="180.251" transform="matrix(0.8972 -0.4417 0.4417 0.8972 -66.367 82.1516)" fill="#D0D0D0" width="25.577" height="6.721"/>

		<rect id="rect3910" x="22.452" y="133.967" transform="matrix(0.8972 -0.4416 0.4416 0.8972 -53.9779 38.0738)" fill="#D0D0D0" width="64.687" height="2.033"/>

		<rect id="rect3912" x="20.441" y="115.895" transform="matrix(0.8972 -0.4416 0.4416 0.8972 -55.3746 24.6275)" fill="#73ABD7" width="9.559" height="30.761"/>

		<rect id="rect3914" x="33.405" y="116.25" transform="matrix(0.8971 -0.4418 0.4418 0.8971 -52.8129 30.0815)" fill="#FFDD91" width="9.558" height="24.381"/>

		<rect id="rect3916" x="41.588" y="96.644" transform="matrix(0.8972 -0.4416 0.4416 0.8972 -46.5489 32.4201)" fill="#F17E5A" width="9.558" height="39.113"/>

		<rect id="rect3918" x="57.484" y="112.387" transform="matrix(0.8972 -0.4416 0.4416 0.8972 -46.9436 39.9114)" fill="#82BAE1" width="9.555" height="16.815"/>

		<rect id="rect3920" x="70.275" y="115.656" transform="matrix(0.8974 -0.4413 0.4413 0.8974 -45.0552 45.3944)" fill="#FFB169" width="9.557" height="7.788"/>

		<rect id="rect3922" x="93.359" y="105.927" transform="matrix(0.8972 -0.4417 0.4417 0.8972 -35.7442 60.3549)" fill="#D0D0D0" width="36.775" height="2.031"/>

		<rect id="rect3924" x="128.19" y="91.331" transform="matrix(0.8972 -0.4417 0.4417 0.8972 -26.2468 71.9618)" fill="#D0D0D0" width="26.46" height="2.033"/>
	<path id="path3926" fill="#73ABD7" d="M96.85,88.274c4.328,8.79,14.958,12.409,23.751,8.081l-7.836-15.917L96.85,88.274z"/>
	<g id="g3928">
		<polygon id="polygon3930" fill="none" points="113.309,78.541 113.308,78.544 113.312,78.547 		"/>
		<path id="path3932" fill="#F17E5A" d="M105.477,62.625c-5.302,2.606-8.706,7.517-9.635,12.926l17.466,2.992h0.001l0.003,0.003
			l7.834,15.914c8.79-4.327,12.411-14.962,8.083-23.752C124.904,61.916,114.268,58.297,105.477,62.625z"/>
		<path id="path3934" fill="#FFDD91" d="M111.463,79.452l-17.464-2.994c-0.614,3.56-0.165,7.336,1.552,10.825L111.463,79.452z"/>
	</g>
</g>
</svg>
