<?xml version="1.0" encoding="utf-8"?>
<!-- Generator: Adobe Illustrator 16.0.0, SVG Export Plug-In . SVG Version: 6.00 Build 0)  -->
<!DOCTYPE svg PUBLIC "-//W3C//DTD SVG 1.1//EN" "http://www.w3.org/Graphics/SVG/1.1/DTD/svg11.dtd">
<svg version="1.1" id="Layer_1" xmlns="http://www.w3.org/2000/svg" xmlns:xlink="http://www.w3.org/1999/xlink" x="0px" y="0px"
	 width="338.282px" height="293.983px" viewBox="0 0 338.282 293.983" enable-background="new 0 0 338.282 293.983"
	 xml:space="preserve">
<g>
	<polygon fill="#ABABAB" points="250.425,291.819 214.326,289.795 214.326,259.27 250.425,259.27 	"/>
	<polygon fill="#ABABAB" points="179.461,291.596 144.756,293.983 144.756,263.497 181.479,263.497 	"/>
	<polygon fill="#ABABAB" points="122.563,292.111 88.502,288.771 85.339,259.27 122.563,259.27 	"/>
	<polygon fill="#FFFFFF" points="122.563,290.444 90.332,287.274 87.339,259.27 122.563,259.27 	"/>
	<polygon fill="#FFFFFF" points="178.041,290.444 144.754,292.733 144.754,263.497 179.977,263.497 	"/>
	<polygon fill="#FFFFFF" points="250.427,290.444 215.203,288.506 215.203,259.27 250.427,259.27 	"/>
	<rect x="101.956" y="251.344" fill="#96BE1B" width="6.868" height="15.146"/>
	<rect x="158.933" y="255.924" fill="#F67B43" width="6.869" height="15.146"/>
	<rect x="229.379" y="251.698" fill="#5AC0CB" width="6.868" height="15.145"/>
</g>
<g>
	<path fill="#6389A7" d="M232.708,65.784c0,34.719-28.148,62.861-62.862,62.861c-34.716,0-62.862-28.143-62.862-62.861
		c0-34.716,28.146-62.862,62.862-62.862C204.56,2.922,232.708,31.067,232.708,65.784z"/>
	<path fill="#31678D" d="M224.321,65.784c0,30.088-24.393,54.475-54.476,54.475S115.37,95.872,115.37,65.784
		c0-30.084,24.393-54.475,54.476-54.475S224.321,35.7,224.321,65.784z"/>
	<path fill="#BECCD7" d="M222.749,65.612c0,29.092-23.688,52.682-52.903,52.682c-29.214,0-52.902-23.59-52.902-52.682
		c0-29.101,23.688-52.686,52.902-52.686C199.062,12.926,222.749,36.511,222.749,65.612z"/>
	<g id="Eguilles">
		<path id="Big" fill="#F67131" d="M170.948,64.233l-13.397-13.062l-12.298-11.995l10.973,13.215l12.254,14.712l0.001,0
			c0.345,0.366,0.827,0.596,1.365,0.596c1.045,0,1.891-0.858,1.891-1.916C171.736,65.145,171.424,64.582,170.948,64.233z"/>
		<path id="Small" fill="#F67131" d="M189.889,68.044l-8.804-1.846l-10.821-2.282l-0.001,0.002c-0.134-0.031-0.273-0.05-0.417-0.05
			c-1.043,0-1.892,0.858-1.892,1.916c0,0.943,0.677,1.724,1.563,1.882l-0.002,0.013l0.173,0.005
			c0.053,0.004,0.104,0.016,0.158,0.016c0.031,0,0.06-0.008,0.091-0.009l10.958,0.305L189.889,68.044z"/>
	</g>
	<path fill="#15436E" d="M172.95,65.784c0,1.736-1.389,3.146-3.104,3.146c-1.712,0-3.105-1.409-3.105-3.146
		c0-1.736,1.394-3.146,3.105-3.146C171.562,62.638,172.95,64.048,172.95,65.784z"/>
	<path fill="#E3E3E3" d="M171.528,20.638c0,0.565-0.458,1.024-1.029,1.024l0,0c-0.563,0-1.024-0.458-1.024-1.024v-6.684
		c0-0.565,0.462-1.028,1.024-1.028l0,0c0.571,0,1.029,0.463,1.029,1.028V20.638z"/>
	<path fill="#E3E3E3" d="M170.879,117.261c0,0.569-0.46,1.032-1.033,1.032l0,0c-0.565,0-1.024-0.463-1.024-1.032v-6.681
		c0-0.568,0.459-1.026,1.024-1.026l0,0c0.573,0,1.033,0.458,1.033,1.026V117.261z"/>
	<path fill="#E3E3E3" d="M117.967,66.808c-0.564,0-1.023-0.458-1.023-1.029l0,0c0-0.568,0.461-1.028,1.032-1.028l6.683,0.009
		c0.565,0,1.023,0.462,1.023,1.032l0,0c0,0.565-0.462,1.023-1.03,1.023L117.967,66.808z"/>
	<path fill="#E3E3E3" d="M215.034,67.84c-0.566,0-1.024-0.459-1.024-1.028l0,0c0-0.569,0.462-1.028,1.032-1.028l6.684,0.008
		c0.564,0,1.023,0.463,1.023,1.032l0,0c0,0.565-0.464,1.024-1.033,1.024L215.034,67.84z"/>
	<path fill="#E3E3E3" d="M148.779,25.884c0.28,0.491,0.117,1.118-0.376,1.405l0,0c-0.492,0.283-1.123,0.115-1.405-0.377
		l-3.341-5.787c-0.281-0.492-0.115-1.118,0.376-1.405l0,0c0.497-0.287,1.118-0.116,1.405,0.377L148.779,25.884z"/>
	<path fill="#E3E3E3" d="M130.851,42.94c0.491,0.283,0.662,0.91,0.377,1.4l0,0c-0.287,0.491-0.913,0.664-1.4,0.376l-5.79-3.337
		c-0.493-0.284-0.66-0.913-0.379-1.405l0,0c0.286-0.492,0.918-0.663,1.41-0.375L130.851,42.94z"/>
	<line fill="none" x1="169.846" y1="65.612" x2="123.524" y2="40.147"/>
	<line fill="none" x1="169.846" y1="65.612" x2="144.088" y2="19.581"/>
	<path fill="#E3E3E3" d="M191.064,25.884c-0.282,0.491-0.119,1.118,0.376,1.405l0,0c0.492,0.283,1.119,0.115,1.405-0.377
		l3.342-5.787c0.276-0.492,0.115-1.118-0.377-1.405l0,0c-0.496-0.287-1.124-0.116-1.409,0.377L191.064,25.884z"/>
	<path fill="#E3E3E3" d="M208.988,42.94c-0.49,0.283-0.664,0.91-0.376,1.4l0,0c0.286,0.491,0.917,0.664,1.404,0.376l5.786-3.337
		c0.491-0.284,0.663-0.913,0.378-1.405l0,0c-0.288-0.492-0.915-0.663-1.406-0.375L208.988,42.94z"/>
	<path fill="#E3E3E3" d="M148.779,105.458c0.28-0.491,0.117-1.113-0.376-1.401l0,0c-0.492-0.286-1.123-0.114-1.405,0.378
		l-3.341,5.782c-0.281,0.491-0.115,1.122,0.376,1.409l0,0c0.497,0.281,1.118,0.114,1.405-0.378L148.779,105.458z"/>
	<path fill="#E3E3E3" d="M130.851,88.407c0.491-0.287,0.662-0.91,0.377-1.405l0,0c-0.287-0.492-0.913-0.659-1.4-0.378l-5.79,3.34
		c-0.493,0.285-0.66,0.916-0.379,1.408l0,0c0.286,0.49,0.918,0.658,1.41,0.377L130.851,88.407z"/>
	<path fill="#E3E3E3" d="M191.068,105.458c-0.281-0.491-0.119-1.113,0.376-1.401l0,0c0.493-0.286,1.117-0.114,1.405,0.378
		l3.341,5.782c0.279,0.491,0.115,1.122-0.376,1.409l0,0c-0.497,0.281-1.123,0.114-1.41-0.378L191.068,105.458z"/>
	<path fill="#E3E3E3" d="M208.992,88.407c-0.492-0.287-0.662-0.91-0.375-1.405l0,0c0.285-0.492,0.912-0.659,1.401-0.378l5.788,3.34
		c0.491,0.285,0.659,0.916,0.378,1.408l0,0c-0.288,0.49-0.913,0.658-1.406,0.377L208.992,88.407z"/>
</g>
<g>
	<rect y="210.6" fill="#BEA182" width="338.282" height="16.561"/>
	<rect y="222.319" fill="#88664A" width="338.282" height="4.842"/>
</g>
<g id="Plante2_1_">
	<g id="Plante2">
		<g>
			<path fill-rule="evenodd" clip-rule="evenodd" fill="#A4554A" d="M32.745,209.665c-2.691-0.061-5.842-3.584-6.276-7.58
				c-0.915-8.402-2.148-16.766-3.294-25.141c-0.774-5.666-1.365-11.358-2.277-17.009c-0.421-2.606-0.338-2.619,2.635-2.815
				c0.635-0.65,1.469-0.592,2.262-0.594c5.072-0.008,10.145-0.051,15.217,0.011c8.288-0.031,16.576-0.022,24.864-0.013
				c0.923,0,1.88-0.159,2.74,0.356c2.615,0.76,2.528,0.747,2.124,3.71c-0.969,7.094-1.829,14.201-2.769,21.297
				c-0.934,7.037-1.856,14.076-2.891,21.099c-0.535,3.644-3.005,6.249-5.996,6.671c-1.46,0.852-3.099,0.893-4.7,0.908
				c-6.092,0.059-12.187,0.008-18.279,0.035C34.867,210.607,33.794,210.233,32.745,209.665z"/>
			<path fill-rule="evenodd" clip-rule="evenodd" fill="#5AAE5D" d="M41.073,157.088c-5.848,0.01-11.694,0.021-17.541,0.031
				c-2.917-2.414-5.423-5.211-7.699-8.222c-0.25-0.332-0.394-0.745-0.586-1.12c0.563-0.531,1.168-0.293,1.745-0.063
				c5.563,2.225,11.387,1.938,17.162,1.595c2.645-0.156,5.181-1.271,7.753-1.991c0.768-0.023,1.344,0.428,1.917,0.958
				c0.483-3.853-0.472-7.281-1.891-10.638c-0.405-0.961-0.979-1.25-2.024-1.133c-5.812,0.656-10.947-0.902-15.305-4.865
				c-0.458-0.416-0.906-0.885-1.627-0.703c-0.437-0.621-0.271-1.324-0.266-2.002c0.053-7.943,0.85-15.805,2.815-23.979
				c3.063,7.489,5.804,14.81,11.235,20.64c0.665-0.575,0.291-1.294,0.549-1.849c1.187-0.103,1.864,0.879,2.769,1.354
				c3.945,2.072,6.942,1.459,9.616-2.083c2.705-3.583,4.076-7.781,5.548-11.938c0.228-0.64,0.177-1.544,1.205-1.604
				c1.048,2.318,1.678,4.77,2.302,7.224c0.946,0.668,0.333,1.3-0.061,1.915c-2.688,4.201-5.439,8.366-7.642,12.858
				c-1.181,2.41-2.007,4.968-3.024,7.446c-0.945,3.094-1.863,6.193-2.323,9.402c-0.163,1.131,0.277,2.078,0.982,2.927
				c0.057,0.112,0.136,0.276,0.076,0.342C44.97,153.531,43.614,155.925,41.073,157.088z"/>
			<path fill-rule="evenodd" clip-rule="evenodd" fill="#9CC542" d="M56.449,109.477c-1.004,2.569-2.021,5.133-3.007,7.709
				c-1.274,3.332-2.964,6.406-5.845,8.607c-2.266,1.73-4.741,1.145-7.069,0.099c-1.159-0.521-2.149-1.417-3.217-2.144
				c-0.092-5.309,0.397-10.574,1.187-15.817c0.871-5.78,1.552-11.595,2.627-17.336c1.099-5.854,1.979-11.759,3.537-17.737
				c0.845,3.769,0.969,7.443,1.834,11.025c0.954,3.957,2.522,7.632,4.075,11.344C52.552,99.967,54.827,104.587,56.449,109.477z"/>
			<path fill-rule="evenodd" clip-rule="evenodd" fill="#BECF36" d="M47.763,138.741c1.314-4.785,3.496-9.178,6.115-13.363
				c1.602-2.559,3.249-5.086,4.892-7.617c0.252-0.387,0.051-0.71-0.021-1.061c1.585-0.537,1.715-2.188,2.425-3.34
				c3.273-5.309,4.839-11.328,6.884-17.149c1.393-3.96,2.813-7.916,4.773-11.709c1.394,8.177,2.46,16.341,1.854,24.634
				c-0.909,3.902-2.401,7.588-4.114,11.201c-2.878,6.066-6.257,11.788-11.052,16.572c-1.695,1.691-3.672,3.023-5.781,4.102
				c-1.794,0.918-3.846,0.713-5.688,0.285C46.474,140.929,47.281,139.675,47.763,138.741z"/>
			<path fill-rule="evenodd" clip-rule="evenodd" fill="#5DAF63" d="M74.408,117.403c0.836-0.037,1.192-0.846,1.861-1.153
				c1.042,0.287,2.402-0.264,3.019,1.146c-3.042,5.164-4.345,11.022-6.54,16.607c8.321-5.332,14.596-13.119,22.807-18.873
				c-0.609,3.121-1.914,5.85-3.06,8.597c-3.077,7.372-6.808,14.415-11.267,21.058c-0.087,0.129-0.308,0.168-0.464,0.25
				c-4.428,2.123-9.009,3.467-14.012,3.292c-3.861-0.134-7.745,0.169-11.482-1.173c-0.759-0.273-1.598-0.337-2.175-0.989
				c-0.39-1.011,0.444-1.364,1.049-1.663c3.244-1.609,6.198-3.711,9.395-5.412c3.688-1.963,5.59-5.512,7.247-9.24
				c1.639-3.684,2.138-7.631,3.143-11.459C74.025,118.027,74.086,117.653,74.408,117.403z"/>
			<path fill-rule="evenodd" clip-rule="evenodd" fill="#9CC542" d="M42.205,147.75c-1.572,0.256-3.031,0.91-4.58,1.294
				c-5.964,1.475-11.824,1.392-17.789,0.032c-1.567-0.357-2.981-1.168-4.589-1.299c-4.639-6.539-7.904-13.762-10.76-21.22
				c4.611,3.032,9.141,5.997,14.07,8.288c1.229,0.57,2.486,1.085,3.733,1.62c0.911,0.393,1.217-0.015,1.151-0.892
				c0.483-0.529,0.609,0.082,0.732,0.291c0.409,0.71,1.02,1.043,1.793,1.197c3.174,0.635,5.939,2.126,8.48,4.078
				c2.172,1.668,4.598,2.973,6.72,4.709C41.751,146.327,42.65,146.688,42.205,147.75z"/>
			<path fill-rule="evenodd" clip-rule="evenodd" fill="#17904C" d="M53.046,145.885c6.988,2.346,14.035,2.701,21.228,0.916
				c2.172-0.537,4.239-1.226,6.245-2.174c0.016-0.006,0.161,0.265,0.246,0.406c-3.186,4.832-7.079,8.939-12.146,11.846
				c-0.422,0.098-0.841,0.279-1.259,0.278c-8.763-0.011-17.524-0.042-26.286-0.069c1.843-1.875,3.686-3.75,5.527-5.625
				C48.202,148.97,50.299,147.053,53.046,145.885z"/>
			<path fill-rule="evenodd" clip-rule="evenodd" fill="#82B749" d="M53.046,145.885c-2.147,1.859-4.295,3.719-6.445,5.578
				c-1.084-0.406-1.47-1.223-1.446-2.338c0.034-1.672,0.309-3.267,0.908-4.855c0.494-1.311,0.671-2.748,0.931-4.139
				c0.107-0.573,0.195-1.102,0.77-1.391c-0.522,2.257-0.514,2.135,1.795,2.307c5.307,0.392,8.422-3.142,11.498-6.491
				c3.737-4.069,6.336-8.926,8.812-13.854c1.884-3.752,2.911-7.838,4.817-11.566c0.181,2.766,0.139,5.522-0.276,8.268
				c-0.631,2.725-0.888,5.501-1.681,8.229c-0.85,2.92-1.943,5.682-3.443,8.253c-1.56,2.675-3.646,4.802-6.628,6.209
				C59.291,141.681,56.235,143.926,53.046,145.885z"/>
			<path fill-rule="evenodd" clip-rule="evenodd" fill="#168F4B" d="M42.205,147.75c-1.04-1.778-2.87-2.601-4.487-3.662
				c-3.018-1.979-5.688-4.51-9.167-5.768c-0.813-0.293-1.567-0.695-2.472-0.723c-1.329-0.041-2.281-0.668-2.637-2.023
				c-0.684-1.492-0.303-3.092-0.465-4.637c0.164-0.479-0.016-1.476,0.988-0.516c1.791,1.71,3.771,3.142,6.049,4.188
				c3.087,1.418,6.326,1.849,9.617,1.408c1.545-0.209,2.17-0.147,2.832,1.51c1.611,4.033,2.295,6.996,1.872,11.375
				C43.243,149.225,43.204,147.59,42.205,147.75z"/>
			<path fill-rule="evenodd" clip-rule="evenodd" fill="#88BE88" d="M79.288,117.395c-0.819-0.875-2.369,0.175-3.019-1.146
				c2.358-1.735,4.716-3.47,7.076-5.204c0.092,0.109,0.183,0.217,0.274,0.325C82.176,113.378,80.733,115.387,79.288,117.395z"/>
		</g>
		<path fill="#C89992" d="M27.157,160.35c-1.04,1.832-0.282,7.926,0.002,9.995c0.325,2.368,1.294,9.448,1.7,10.339
			c0.552,1.21,1.853,7.965,2.083,9.5c0.25,1.666,1.851,7,1.851,7s1.94,3,2.648-0.459c0.433-2.113,0.071-11.006-0.541-13.916
			s-1.116-6.027-1.292-8.209c-0.173-2.15-1.167-6.539-1.167-7.833c0-1.313-0.047-3.884-0.166-5.5
			c-0.118-1.616-2.535-1.833-3.25-1.833S27.157,160.35,27.157,160.35z"/>
	</g>
	<path fill-rule="evenodd" clip-rule="evenodd" fill="#522B25" d="M27.862,206.098c0,0,1.329,3.336,7.004,4.377
		c1.833,0.336,18.721,0.5,21.992,0c5.708-0.875,7.175-4.377,7.175-4.377H27.862z"/>
</g>
</svg>
