<?xml version="1.0" encoding="utf-8"?>
<!-- Generator: Adobe Illustrator 16.0.0, SVG Export Plug-In . SVG Version: 6.00 Build 0)  -->
<!DOCTYPE svg PUBLIC "-//W3C//DTD SVG 1.1 Tiny//EN" "http://www.w3.org/Graphics/SVG/1.1/DTD/svg11-tiny.dtd">
<svg version="1.1" baseProfile="tiny" id="Layer_1" xmlns="http://www.w3.org/2000/svg" xmlns:xlink="http://www.w3.org/1999/xlink"
	 x="0px" y="0px" width="281.319px" height="280.987px" viewBox="0 0 281.319 280.987" xml:space="preserve">
<g id="Innivant">
	<g>
		<path fill-rule="evenodd" d="M113.673,230.354c-3.099-6.378-6.101-12.216-8.789-18.193c-2.249-5-6.154-6.412-11.172-5.96
			c-2.378,0.214-4.75,0.603-7.132,0.675c-8.971,0.274-10.179-0.878-10.526-9.71c-0.147-3.762-2.217-7.009-3.221-10.523
			c-0.56-1.957-1.42-3.887-1.463-6.018c-0.039-1.837,0.018-3.346-2.543-3.858c-4.026-0.808-4.285-3.543-2.596-6.813
			c0.73-1.412,1.252-2.944,2.084-4.289c3.477-5.63,4.425-10.762,2.275-17.856c-2.968-9.793,0.047-19.734,6.819-27.959
			c14.568-17.689,34.028-18.746,54.025-14.262c18.352,4.115,28.979,17.192,33.596,35.191c1.605,6.263,0.437,12.251-2.253,18.013
			c-2.622,5.62-6.122,10.702-9.63,15.784c-4.326,6.268-6.705,13.082-5.608,20.818c0.256,1.803,0.613,3.36-1.848,4.257
			c-12.207,4.452-20.071,13.968-27.433,24.005C116.735,225.735,115.341,227.91,113.673,230.354z"/>
		<path fill-rule="evenodd" d="M135.507,51.568c43.911,1.063,79.698,36.057,80.401,78.621c0.126,7.623-2.221,11.158-7.473,11.254
			c-5.409,0.101-8.151-3.507-8.547-11.245c-1.508-29.435-19.414-52.425-46.833-60.237c-5.809-1.655-11.727-2.057-17.71-2.212
			c-7.823-0.202-11.854-3.422-11.491-8.981C124.182,53.722,127.963,51.386,135.507,51.568z"/>
		<path fill-rule="evenodd" d="M137.341,81.462c28.331,0.677,49.152,21.251,49.521,48.937c0.098,7.365-2.871,11.368-8.393,11.312
			c-5.437-0.057-8.899-4.236-9.14-11.037c-0.694-19.531-12.504-31.207-32.068-31.473c-5.319-0.072-10.119-0.876-12.062-6.574
			C122.829,85.671,127.766,81.234,137.341,81.462z"/>
		<path fill-rule="evenodd" fill="#FAFAFA" d="M114.757,110.157c17.808-0.184,31.843,6.311,40.396,22.589
			c4.079,7.766,5.289,15.902,2.26,24.217c-2.884,7.913-8.735,12.655-17.146,13.972c-4.955,0.776-9.028-0.496-11.691-5.157
			c-0.851-1.487-1.572-3.733-3.575-3.691c-6.324,0.133-8.514-3.942-10.175-9.013c-1.897-5.793-7.159-6.363-12.082-7.103
			c-3.73-0.56-7.584-0.396-11.275-1.109c-10.799-2.086-14.812-13.672-7.645-22.06C91.937,113.306,102.735,110.091,114.757,110.157z"
			/>
	</g>
</g>
<path d="M140.66-0.221c-77.715,0-140.715,63-140.715,140.714c0,77.715,63,140.715,140.715,140.715s140.713-63,140.713-140.715
	C281.373,62.779,218.375-0.221,140.66-0.221z M141.16,267.708c-70.259,0-127.215-56.955-127.215-127.213
	c0-70.259,56.956-127.215,127.215-127.215c70.258,0,127.213,56.956,127.213,127.215C268.373,210.753,211.418,267.708,141.16,267.708
	z"/>
</svg>
