<?xml version="1.0" encoding="utf-8"?>
<!DOCTYPE svg PUBLIC "-//W3C//DTD SVG 1.1 Tiny//EN" "http://www.w3.org/Graphics/SVG/1.1/DTD/svg11-tiny.dtd">
<svg version="1.1" baseProfile="tiny" id="Pc" xmlns="http://www.w3.org/2000/svg" xmlns:xlink="http://www.w3.org/1999/xlink"
	 x="0px" y="0px" width="583.903px" height="407.091px" viewBox="0 0 583.903 407.091" xml:space="preserve">

<g id="armature">
	<g>
		<path fill="#666666" d="M12.945,0h558.01c7.254,0,12.948,5.197,12.948,11.563v329.793c0,6.374-5.694,11.565-12.948,11.565H12.945
			C5.824,352.92,0,347.729,0,341.355V11.563C0,5.197,5.824,0,12.945,0L12.945,0z"/>
	</g>
	<g>
		<path fill="#999999" d="M26.467,10.438h531.079c6.901,0,12.317,4.894,12.317,10.879V331.6c0,6.001-5.416,10.887-12.317,10.887
			H26.467c-6.774,0-12.321-4.886-12.321-10.887V21.317C14.146,15.332,19.693,10.438,26.467,10.438L26.467,10.438z"/>
	</g>
	<polygon fill="#BABABA" points="352.698,399.655 230.433,399.655 236.986,352.92 347.327,352.92 	"/>
	<rect x="184.226" y="398.201" fill="#666666" width="214.984" height="8.891"/>
	<g>
		<path fill="#FDFDFD" d="M34.947,17.87h514.119c6.681,0,11.926,4.676,11.926,10.396v296.387c0,5.732-5.245,10.395-11.926,10.395
			H34.947c-6.562,0-11.931-4.663-11.931-10.395V28.266C23.016,22.546,28.385,17.87,34.947,17.87L34.947,17.87z"/>
	</g>
	<polygon fill="#565656" points="348.151,360.355 236.022,360.355 236.986,352.92 347.327,352.92 	"/>
</g>

<path id="sidebar" fill="#4D4D4D" d="M120.04,17.87H34.508c-6.561,0-11.93,4.676-11.93,10.396v296.387
	c0,5.732,5.369,10.395,11.93,10.395h85.532V17.87z"/>

<a xlink:href="/users/mon-compte/infos" xlink:title="Accueil">
<text transform="matrix(1 0 0 1 39.9731 320.4058)" fill="#FFFFFF" font-family="'Verdana-Bold'" font-size="9">ACCUEIL</text>
<g id="Escape">
	<path id="Border" fill-rule="evenodd" fill="#FAFAFA" d="M106.006,307.81c0.152,0.047,0.307,0.082,0.453,0.142
		c0.834,0.337,1.331,0.961,1.364,1.854c0.048,1.245,0.016,2.494,0.016,3.741c0,0.009-0.011,0.018-0.024,0.041
		c-0.372-0.322-0.733-0.655-1.115-0.957c-0.215-0.169-0.292-0.349-0.283-0.623c0.022-0.646,0.008-1.294,0.007-1.942
		c-0.001-0.566-0.273-0.841-0.835-0.841c-3.221,0-6.441,0-9.662,0c-0.566,0-0.842,0.273-0.842,0.836c0,4.641,0,9.282,0,13.925
		c0,0.561,0.276,0.833,0.843,0.833c3.216,0,6.429,0,9.645,0c0.578,0,0.851-0.27,0.852-0.844c0.001-0.72,0.001-1.438-0.001-2.158
		c0-0.092,0.008-0.169,0.088-0.238c0.422-0.356,0.837-0.72,1.252-1.081c0.017-0.014,0.036-0.026,0.079-0.057c0,0.085,0,0.143,0,0.2
		c0,1.103,0,2.206,0,3.31c-0.003,1.212-0.628,1.991-1.814,2.256c-0.009,0.001-0.015,0.017-0.021,0.026c-3.514,0-7.028,0-10.542,0
		c-0.367-0.034-0.694-0.164-0.986-0.391c-0.547-0.421-0.826-0.981-0.868-1.664c-0.003-0.048-0.002-0.096-0.002-0.144
		c0-4.675-0.001-9.35,0.002-14.025c0-0.838,0.35-1.487,1.06-1.941c0.243-0.155,0.513-0.222,0.794-0.258
		C98.979,307.81,102.493,307.81,106.006,307.81z"/>
	<path id="Fleche" fill-rule="evenodd" fill="#FAFAFA" d="M100.675,314.897c0.683,0,1.367-0.004,2.05,0.003
		c0.129,0.001,0.158-0.037,0.155-0.16c-0.006-0.503-0.004-1.007-0.001-1.51c0.001-0.144,0.013-0.289,0.036-0.429
		c0.032-0.181,0.125-0.326,0.308-0.39c0.176-0.062,0.332-0.031,0.48,0.1c1.691,1.47,3.385,2.938,5.082,4.402
		c0.121,0.103,0.082,0.141-0.013,0.222c-1.673,1.446-3.345,2.892-5.011,4.347c-0.164,0.143-0.325,0.197-0.521,0.126
		c-0.209-0.074-0.297-0.246-0.333-0.454c-0.054-0.31-0.024-0.622-0.028-0.933c-0.005-0.305-0.01-0.611,0.002-0.917
		c0.005-0.139-0.038-0.165-0.168-0.165c-1.32,0.005-2.639,0.003-3.958,0.003c-0.567,0-0.839-0.269-0.839-0.835
		c0-0.863,0-1.727,0-2.589c0.001-0.545,0.277-0.822,0.817-0.824C99.379,314.897,100.026,314.897,100.675,314.897z"/>
</g>
</a>

<a xlink:href="/users/mon-compte/editer" xlink:title="Editer mes informations">

	<g id="Edition">
		<linearGradient id="border_5_" gradientUnits="userSpaceOnUse" x1="75.6948" y1="222.3506" x2="75.6948" y2="188.6719">
			<stop  offset="0" style="stop-color:#9C6399"/>
			<stop  offset="0.564" style="stop-color:#9A6196"/>
			<stop  offset="0.7671" style="stop-color:#915C8E"/>
			<stop  offset="0.9113" style="stop-color:#835380"/>
			<stop  offset="1" style="stop-color:#754A73"/>
		</linearGradient>
		<polygon id="border_3_" fill="url(#border_5_)" points="120.812,222.351 23.38,222.351 23.38,188.672 120.812,188.672
			128.009,205.511 	"/>
		<path id="icone_3_" fill-rule="evenodd" fill="#FAFAFA" d="M52.527,204.126c0.001-0.394-0.195-0.58-0.576-0.625
			c-0.433-0.05-0.861-0.156-1.294-0.179c-0.693-0.035-1.233-0.228-1.347-1.015c-0.012-0.083-0.067-0.161-0.113-0.234
			c-0.115-0.181-0.093-0.329,0.046-0.5c0.395-0.486,0.77-0.986,1.151-1.481c0.107-0.139,0.214-0.279,0.208-0.468
			c0.011-0.171-0.077-0.302-0.18-0.429c-0.634-0.782-1.375-1.46-2.109-2.146c-0.234-0.219-0.486-0.231-0.748-0.029
			c-0.345,0.267-0.729,0.494-1.037,0.797c-0.547,0.544-1.1,0.687-1.789,0.262c-0.204-0.126-0.336-0.222-0.367-0.468
			c-0.083-0.663-0.192-1.322-0.282-1.985c-0.055-0.411-0.25-0.613-0.69-0.605c-0.917,0.019-1.835,0.014-2.752,0.001
			c-0.371-0.004-0.577,0.158-0.641,0.509c-0.083,0.457-0.223,0.918-0.214,1.375c0.017,0.802-0.333,1.234-1.091,1.439
			c-0.241,0.065-0.393,0.064-0.583-0.089c-0.462-0.377-0.939-0.736-1.411-1.1c-0.477-0.368-0.592-0.38-1.064,0
			c-0.751,0.604-1.411,1.3-2.028,2.038c-0.243,0.291-0.258,0.559,0,0.854c0.277,0.317,0.51,0.675,0.799,0.98
			c0.455,0.481,0.705,0.968,0.236,1.579c-0.042,0.055-0.063,0.132-0.076,0.203c-0.047,0.24-0.204,0.314-0.432,0.343
			c-0.663,0.083-1.323,0.195-1.985,0.281c-0.396,0.052-0.598,0.244-0.594,0.659c0.009,0.931,0.005,1.862,0,2.794
			c-0.001,0.39,0.188,0.586,0.569,0.631c0.477,0.058,0.949,0.164,1.425,0.189c0.619,0.032,1.084,0.209,1.182,0.904
			c0.016,0.111,0.08,0.221,0.144,0.315c0.133,0.198,0.105,0.352-0.047,0.538c-0.396,0.483-0.765,0.989-1.155,1.478
			c-0.258,0.325-0.249,0.622,0.02,0.938c0.641,0.757,1.364,1.43,2.098,2.096c0.244,0.222,0.487,0.216,0.744,0.015
			c0.344-0.268,0.73-0.492,1.037-0.797c0.534-0.534,1.066-0.677,1.749-0.267c0.238,0.144,0.368,0.266,0.4,0.539
			c0.079,0.648,0.187,1.293,0.275,1.94c0.056,0.417,0.271,0.601,0.704,0.592c0.901-0.019,1.805-0.019,2.708,0
			c0.417,0.009,0.617-0.185,0.682-0.568c0.074-0.444,0.22-0.892,0.204-1.333c-0.028-0.817,0.362-1.221,1.102-1.428
			c0.223-0.062,0.368-0.074,0.548,0.074c0.472,0.387,0.972,0.742,1.434,1.141c0.365,0.316,0.684,0.299,1.041,0.002
			c0.763-0.636,1.451-1.343,2.083-2.108c0.22-0.266,0.21-0.523-0.004-0.786c-0.256-0.316-0.484-0.661-0.768-0.949
			c-0.514-0.52-0.763-1.055-0.27-1.72c0.018-0.023,0.031-0.052,0.035-0.08c0.046-0.283,0.229-0.352,0.492-0.385
			c0.664-0.08,1.322-0.2,1.984-0.291c0.388-0.054,0.551-0.271,0.549-0.65C52.523,205.989,52.523,205.057,52.527,204.126z
			 M42.371,208.995c-1.837,0.164-3.589-1.265-3.788-2.99c-0.255-2.217,1.416-3.833,3.186-3.984c1.953-0.168,3.732,1.444,3.748,3.298
			C45.674,207.142,44.231,208.828,42.371,208.995z"/>
	</g>
	<text transform="matrix(1.3074 0 0 1 60.6826 209.1782)" fill="#FFFFFF" font-family="'Verdana-Bold'" font-size="9">EDITER</text>
</a>

<a xlink:href="/users/mon-compte/notifications" xlink:title="Mes notifications">
<g id="Notifications">

	<linearGradient id="border_9_" gradientUnits="userSpaceOnUse" x1="75.6948" y1="188.2705" x2="75.6948" y2="154.5903">
		<stop  offset="0" style="stop-color:#F1BB0F"/>
		<stop  offset="0.533" style="stop-color:#EEB90F"/>
		<stop  offset="0.7249" style="stop-color:#E5B10F"/>
		<stop  offset="0.8618" style="stop-color:#D4A30F"/>
		<stop  offset="0.9716" style="stop-color:#BE9210"/>
		<stop  offset="1" style="stop-color:#B78C10"/>
	</linearGradient>
	<polygon id="border_4_" fill="url(#border_9_)" points="120.812,188.271 23.38,188.271 23.38,154.59 120.812,154.59
		128.009,171.431 	"/>
	<path id="icone_4_" fill="#FFFFFF" d="M42.045,162.266c-6.04,0-10.935,3.5-10.935,7.817c0,2.381,1.491,4.514,3.841,5.947
		c-0.04,0.514-0.146,1.225-0.411,1.869c-0.48,1.17-1.534,2.093-1.663,2.131c-0.13,0.04-0.273,0.417,0,0.534
		c0.273,0.117,1.921-0.094,3.015-0.534c2.106-0.844,3.499-2.115,3.647-2.336l0,0c0.805,0.134,1.644,0.206,2.506,0.206
		c6.04,0,10.935-3.5,10.935-7.815C52.98,165.767,48.085,162.266,42.045,162.266z M37.347,168.484c0.884,0,1.599,0.715,1.599,1.599
		c0,0.882-0.715,1.599-1.599,1.599c-0.883,0-1.599-0.716-1.599-1.599C35.749,169.2,36.464,168.484,37.347,168.484z M42.025,171.682
		c-0.882,0-1.597-0.716-1.597-1.599c0-0.884,0.715-1.599,1.597-1.599c0.884,0,1.6,0.715,1.6,1.599
		C43.625,170.966,42.909,171.682,42.025,171.682z M46.704,171.682c-0.884,0-1.599-0.716-1.599-1.599
		c0-0.884,0.715-1.599,1.599-1.599c0.883,0,1.6,0.715,1.6,1.599C48.304,170.966,47.587,171.682,46.704,171.682z"/>
	<text transform="matrix(0.7159 0 0 1 60.6816 176.459)" fill="#FFFFFF" font-family="'Verdana-Bold'" font-size="9">NOTIFICATIONS</text>
</g>
</a>

<a xlink:href="/users/mon-compte/commentaires" xlink:title="Mes commentaires">
	<g id="Commentaires">

		<linearGradient id="border_10_" gradientUnits="userSpaceOnUse" x1="75.6948" y1="154.1899" x2="75.6948" y2="120.5107">
			<stop  offset="0" style="stop-color:#96BE1B"/>
			<stop  offset="0.5605" style="stop-color:#94BB1B"/>
			<stop  offset="0.7624" style="stop-color:#8CB11B"/>
			<stop  offset="0.9058" style="stop-color:#7FA11B"/>
			<stop  offset="1" style="stop-color:#71901B"/>
		</linearGradient>
		<polygon id="border_2_" fill="url(#border_10_)" points="120.812,154.19 23.38,154.19 23.38,120.511 120.812,120.511
			128.009,137.35 	"/>
		<g id="icone_2_">
			<path fill="#FFFFFF" d="M54.387,148.067c-0.132-0.04-1.199-0.976-1.687-2.162c-0.27-0.654-0.376-1.376-0.417-1.895
				c2.384-1.455,3.896-3.618,3.896-6.034c0-2.682-1.863-5.052-4.713-6.487c0.514,1.01,0.795,2.103,0.795,3.241
				c0,1.133-0.278,2.22-0.789,3.228c0,0.006,0.004,0.013,0.001,0.019c-0.278,0.639-0.629,1.053-0.982,1.491
				c-2.294,2.839-6.586,4.751-11.504,4.751c-0.258,0-0.514-0.005-0.768-0.016c1.888,1.066,4.273,1.703,6.867,1.703
				c0.875,0,1.726-0.073,2.542-0.21l0,0c0.15,0.227,1.564,1.515,3.699,2.372c1.109,0.445,2.781,0.659,3.059,0.541
				C54.663,148.489,54.519,148.107,54.387,148.067z"/>
			<path fill="#FFFFFF" d="M50.097,133.99c0-4.379-4.967-7.929-11.093-7.929c-6.127,0-11.093,3.549-11.093,7.929
				c0,2.416,1.513,4.579,3.896,6.034c-0.041,0.52-0.148,1.241-0.417,1.895c-0.486,1.186-1.554,2.122-1.687,2.162
				c-0.132,0.04-0.277,0.422,0,0.541c0.277,0.119,1.949-0.096,3.058-0.541c2.136-0.856,3.55-2.145,3.7-2.371
				c0.816,0.137,1.667,0.209,2.542,0.209C45.13,141.918,50.097,138.369,50.097,133.99z"/>
		</g>
		<text transform="matrix(0.7277 0 0 1 60.6812 141.4507)" fill="#FFFFFF" font-family="'Verdana-Bold'" font-size="9">COMMENTAIRES</text>
	</g>
</a>

<a xlink:href="/users/mon-compte/sondages" xlink:title="Mes sondages">
	<g id="Sondages">

		<linearGradient id="border_11_" gradientUnits="userSpaceOnUse" x1="75.6948" y1="120.1099" x2="75.6948" y2="86.4302">
			<stop  offset="0" style="stop-color:#EE3443"/>
			<stop  offset="0.5298" style="stop-color:#EB3442"/>
			<stop  offset="0.7206" style="stop-color:#E2313F"/>
			<stop  offset="0.8566" style="stop-color:#D22D3B"/>
			<stop  offset="0.9658" style="stop-color:#BC2735"/>
			<stop  offset="1" style="stop-color:#B42532"/>
		</linearGradient>
		<polygon id="border_1_" fill="url(#border_11_)" points="120.812,120.11 23.38,120.11 23.38,86.43 120.812,86.43 128.009,103.27
			"/>
		<g id="icone_1_">
			<path fill="#FFFFFF" d="M40.875,104.046v-8.7c-4.805,0-8.701,3.895-8.701,8.7c0,4.804,3.896,8.699,8.701,8.699
				c2.402,0,4.577-0.974,6.152-2.548L40.875,104.046L40.875,104.046z"/>
			<path fill="#FFFFFF" d="M43.289,104.118l6.079,6.08c1.681-1.681,2.529-3.877,2.548-6.08H43.289z"/>
			<path fill="#FFFFFF" d="M42.475,93.794v8.699h8.7C51.175,97.689,47.279,93.794,42.475,93.794z"/>
		</g>
		<text transform="matrix(1.068 0 0 1 60.6812 107.1582)" fill="#FFFFFF" font-family="'Verdana-Bold'" font-size="9">SONDAGES</text>
	</g>
</a>

<a xlink:href="/users/mon-compte/projets" xlink:title="Mes projets">
	<g id="Projets">

		<linearGradient id="border_12_" gradientUnits="userSpaceOnUse" x1="75.6948" y1="86.0293" x2="75.6948" y2="52.3491">
			<stop  offset="0" style="stop-color:#31AFBE"/>
			<stop  offset="0.5262" style="stop-color:#30AEBC"/>
			<stop  offset="0.7157" style="stop-color:#2FAAB6"/>
			<stop  offset="0.8508" style="stop-color:#2CA4AC"/>
			<stop  offset="0.9593" style="stop-color:#289B9E"/>
			<stop  offset="1" style="stop-color:#259697"/>
		</linearGradient>
		<polygon id="border" fill="url(#border_12_)" points="120.812,86.029 23.38,86.029 23.38,52.349 120.812,52.349 128.009,69.189
			"/>
		<g id="icone">
			<path fill="#FFFFFF" d="M36.087,69.875c0.435-0.416,1.539-1.237,3.177-1.495c1.319-0.208,11.742,0,11.742,0V66.7
				c0-1.844-1.495-3.339-3.339-3.339h-6.662v-1.013c0-1.235-1.001-2.237-2.237-2.237h-5.423c-1.235,0-2.236,1.002-2.236,2.237v13.312
				C31.11,75.659,34.878,71.033,36.087,69.875z"/>
			<path fill="#FFFFFF" d="M55.312,70.783c0-0.436-0.352-0.788-0.787-0.788H40.316c0,0-0.719-0.051-1.623,0.242
				c-0.722,0.233-1.125,0.533-1.382,0.763c-0.23,0.207-0.473,0.47-0.473,0.47l-4.614,5.425c-0.023,0.023-0.043,0.048-0.063,0.075
				l-0.01,0.01l0,0c-0.094,0.13-0.151,0.29-0.151,0.463c0,0.434,0.353,0.788,0.788,0.788h13.683c0.07,0.011,0.895,0.136,1.876-0.144
				c0.82-0.234,1.269-0.535,1.56-0.764c0.261-0.207,0.556-0.551,0.556-0.551l4.667-5.487c0,0,0-0.001,0-0.001l0.019-0.021
				l-0.001-0.002C55.25,71.127,55.312,70.962,55.312,70.783z"/>
		</g>
		<text transform="matrix(1.2156 0 0 1 60.6812 72.7808)" fill="#FFFFFF" font-family="'Verdana-Bold'" font-size="9">PROJETS</text>
	</g>
</a>






</svg>
