<?xml version="1.0" encoding="utf-8"?>
<!-- Generator: Adobe Illustrator 16.0.0, SVG Export Plug-In . SVG Version: 6.00 Build 0)  -->
<!DOCTYPE svg PUBLIC "-//W3C//DTD SVG 1.1//EN" "http://www.w3.org/Graphics/SVG/1.1/DTD/svg11.dtd">
<svg version="1.1" id="Layer_1" xmlns="http://www.w3.org/2000/svg" xmlns:xlink="http://www.w3.org/1999/xlink" x="0px" y="0px"
 viewBox="0 0 64.627 33.956" enable-background="new 0 0 64.627 33.956" xml:space="preserve">
<g id="Crayon">

		<rect id="rect4173" x="1.434" y="13.236" transform="matrix(-0.8991 -0.4377 0.4377 -0.8991 54.3589 44.9439)" fill="#F78F13" width="61.849" height="5.942"/>

		<rect id="rect4175" x="0.779" y="16.06" transform="matrix(-0.8991 -0.4377 0.4377 -0.8991 52.5302 47.1978)" fill="#F1BE80" width="61.851" height="2.971"/>

		<rect id="rect4177" x="58.692" y="26.427" transform="matrix(-0.8993 -0.4374 0.4374 -0.8993 99.9786 81.8222)" fill="#FAFAFA" width="1.44" height="5.942"/>

		<rect id="rect4179" x="59.984" y="27.545" transform="matrix(-0.8993 -0.4374 0.4374 -0.8993 103.9126 84.9632)" fill="#F59F8C" width="3.512" height="5.943"/>

		<rect id="rect4181" x="60.642" y="27.691" transform="matrix(-0.8992 -0.4375 0.4375 -0.8992 105.7414 82.7153)" fill="#F78568" width="3.511" height="2.973"/>
	<polygon id="polygon4183" fill="#EACA6B" points="0,0.476 2.941,0.26 5.883,0.045 4.6,2.7 3.313,5.359 1.655,2.916 	"/>
	<polygon id="polygon4185" fill="#1C1C1C" points="0.004,0.467 0.506,0.432 1.007,0.395 0.785,0.847 0.567,1.297 0.285,0.883 	"/>
</g>
</svg>
