<?xml version="1.0" encoding="utf-8"?>
<!-- Generator: Adobe Illustrator 16.0.0, SVG Export Plug-In . SVG Version: 6.00 Build 0)  -->
<!DOCTYPE svg PUBLIC "-//W3C//DTD SVG 1.1//EN" "http://www.w3.org/Graphics/SVG/1.1/DTD/svg11.dtd">
<svg version="1.1"
	 id="svg8040" inkscape:version="0.91 r13725" sodipodi:docname="Pk ce site.svg" xmlns:dc="http://purl.org/dc/elements/1.1/" xmlns:cc="http://creativecommons.org/ns#" xmlns:rdf="http://www.w3.org/1999/02/22-rdf-syntax-ns#" xmlns:svg="http://www.w3.org/2000/svg" xmlns:sodipodi="http://sodipodi.sourceforge.net/DTD/sodipodi-0.dtd" xmlns:inkscape="http://www.inkscape.org/namespaces/inkscape"
	 xmlns="http://www.w3.org/2000/svg" xmlns:xlink="http://www.w3.org/1999/xlink" x="0px" y="0px" width="419.199px"
	 height="475.149px" viewBox="0 110.824 419.199 475.149" enable-background="new 0 110.824 419.199 475.149" xml:space="preserve">
<sodipodi:namedview  id="base" pagecolor="#ffffff" bordercolor="#666666" showgrid="false" borderopacity="1.0" inkscape:zoom="0.49497475" inkscape:cx="544.86016" inkscape:cy="561.73118" inkscape:window-maximized="1" inkscape:pageopacity="0.0" inkscape:pageshadow="2" inkscape:document-units="px" inkscape:current-layer="layer1" inkscape:window-width="1920" inkscape:window-height="1017" inkscape:window-x="-8" inkscape:window-y="-8">
	</sodipodi:namedview>
<path id="path10519" inkscape:connector-curvature="0" fill="#9DB31A" d="M273.887,358.044c-0.017,0-0.031,0.002-0.048,0.004
	l-0.012-0.001v0.002c-0.782,0.065-1.4,1.436-1.402,3.102c0.002,1.663,0.618,3.028,1.398,3.099v0.004l0.02-0.001
	c0.015,0.002,0.028,0.004,0.044,0.005c0.063-0.001,0.127-0.012,0.189-0.029l7.811-0.856l0,0c0.567-0.023,1.021-1.011,1.022-2.219
	c-0.001-1.177-0.434-2.147-0.984-2.213v-0.004l-7.852-0.86C274.012,358.054,273.949,358.045,273.887,358.044L273.887,358.044z"/>
<circle id="path7783" fill="#98CA4D" cx="209.6" cy="326.275" r="185.121"/>
<circle id="circle7785" fill="#429B3C" cx="209.6" cy="326.274" r="117.616"/>
<path id="rect7787" inkscape:connector-curvature="0" fill="#FFFFFF" d="M89.99,198.199c-1.573,0-2.85,1.275-2.85,2.85l0,0
	c0,1.574,1.275,2.852,2.85,2.852l0,0c1.574,0,2.851-1.276,2.851-2.852l0,0C92.84,199.474,91.564,198.199,89.99,198.199
	L89.99,198.199z M87.907,204.635c-0.069,0-0.132,0.019-0.189,0.047c-0.127,0.039-0.248,0.099-0.35,0.198l-3.497,3.497
	c-0.329,0.329-0.329,0.86,0,1.189l0.178,0.178c0.329,0.329,0.858,0.329,1.188,0l2.233-2.231v5.942v4.392
	c0,0.362,0.291,0.654,0.653,0.654h0.723c0.362,0,0.654-0.292,0.654-0.654v-3.954h0.003v-0.874c0-0.17,0.138-0.307,0.308-0.307h0.362
	c0.171,0,0.308,0.137,0.308,0.307v4.844c0.009,0.354,0.294,0.64,0.65,0.64h0.723c0.362,0,0.654-0.292,0.654-0.654v-10.188
	l2.084,2.086c0.329,0.329,0.86,0.329,1.189,0l0.178-0.178c0.329-0.329,0.329-0.86,0-1.189l-3.498-3.497
	c-0.167-0.166-0.385-0.246-0.602-0.244c-0.003,0-0.004-0.001-0.007-0.001h-0.212h-0.511h-2.285h-0.723h-0.161L87.907,204.635
	L87.907,204.635z M89.931,222.055c-1.641,0-2.97,1.328-2.97,2.969c0,1.338,0.896,2.51,2.188,2.862v15.771
	c-5.893,0.41-10.463,5.305-10.469,11.211c0,6.213,5.035,11.25,11.25,11.25l0,0c5.706-0.008,10.503-4.285,11.159-9.953h136.097
	c-0.013-0.081-0.022-0.162-0.031-0.242c0.512,3.595,3.588,6.267,7.219,6.271c3.541,0,6.57-2.541,7.188-6.027h28.938
	c0.069,0,0.131-0.022,0.195-0.039h15.145c18.979,0,34.703,13.362,38.364,31.228c-3.169,0.594-5.572,3.195-5.914,6.401h-19.753
	c-0.353-1.291-1.524-2.188-2.863-2.188c-1.641,0-2.97,1.33-2.97,2.969l0,0c0,1.641,1.329,2.969,2.97,2.969l0,0
	c1.338-0.001,2.509-0.896,2.86-2.188h19.753c0.364,3.305,2.916,5.946,6.206,6.424c-3.05,18.631-19.133,32.764-38.653,32.764H254.1
	c-0.001,0.003-0.003,0.006-0.004,0.01h-99.722c-0.617-3.486-3.646-6.026-7.188-6.027c-3.686,0.004-6.789,2.753-7.239,6.41
	c0.015-0.128,0.032-0.256,0.054-0.383h-3.133h-5.512c-23.108,0-41.712,18.604-41.712,41.712s18.604,41.713,41.712,41.713h43.563
	c-0.551-0.823-1.064-1.673-1.555-2.539h-41.742c-21.711,0-39.188-17.479-39.188-39.19c0-21.712,17.478-39.188,39.188-39.188h0.596
	c-0.003,0.013-0.005,0.025-0.008,0.039H140c0.616,3.485,3.646,6.026,7.188,6.027c3.703-0.002,6.817-2.776,7.247-6.456
	c-0.017,0.144-0.036,0.286-0.061,0.429H294.36c0.024,0,0.046-0.013,0.07-0.015h1.677c20.979,0,38.221-15.338,41.228-35.451
	c3.236-0.818,5.506-3.729,5.51-7.068c-0.004-3.448-2.42-6.423-5.794-7.135c-3.691-19.28-20.555-33.771-40.942-33.771H280.5H251.56
	c0.009,0.063,0.017,0.125,0.022,0.188c-0.497-3.278-3.142-5.811-6.438-6.164v-19.754c1.291-0.354,2.188-1.525,2.188-2.864
	c0-1.64-1.329-2.969-2.969-2.969l0,0c-1.64,0-2.969,1.329-2.969,2.969l0,0c0,1.338,0.896,2.51,2.188,2.862v19.752
	c-3.224,0.353-5.828,2.788-6.395,5.979H101.106c-0.604-5.396-4.978-9.593-10.396-9.973V227.89c1.292-0.354,2.188-1.525,2.188-2.864
	C92.899,223.385,91.57,222.055,89.931,222.055L89.931,222.055z M89.15,244.744v2.666c-3.818,0.399-6.719,3.618-6.719,7.458
	c0,4.143,3.356,7.5,7.5,7.5l0,0c3.641-0.001,6.756-2.617,7.386-6.203h2.677c-0.652,5.063-4.959,8.854-10.063,8.859
	c-5.609,0-10.156-4.548-10.156-10.156l0,0C79.776,249.562,83.86,245.152,89.15,244.744z M90.712,244.751
	c4.809,0.377,8.688,4.083,9.284,8.868h-2.68c-0.563-3.313-3.262-5.849-6.604-6.203V244.751z M244.374,248.892c3.313,0,6,2.687,6,6
	s-2.687,6-6,6c-3.313,0-6-2.687-6-6S241.061,248.892,244.374,248.892z M89.931,248.93c3.278,0,5.938,2.657,5.938,5.938l0,0
	c0,3.279-2.658,5.938-5.938,5.938l0,0c-3.279,0-5.938-2.658-5.938-5.938l0,0C83.993,251.589,86.652,248.93,89.931,248.93
	L89.931,248.93z M89.931,250.688c-2.31,0-4.181,1.871-4.181,4.18l0,0c0,2.31,1.871,4.18,4.181,4.18l0,0c2.308,0,4.18-1.87,4.18-4.18
	l0,0C94.111,252.559,92.239,250.688,89.931,250.688L89.931,250.688z M244.374,251.094c-2.099,0-3.8,1.7-3.8,3.8l0,0
	c0,2.099,1.701,3.801,3.8,3.801l0,0c2.1,0,3.8-1.702,3.8-3.801l0,0C248.174,252.794,246.473,251.094,244.374,251.094
	L244.374,251.094z M237.139,253.998c-0.012,0.074-0.021,0.149-0.027,0.226C237.119,254.147,237.128,254.072,237.139,253.998z
	 M251.643,254.275c0.02,0.206,0.029,0.411,0.03,0.617C251.673,254.686,251.662,254.481,251.643,254.275z M237.074,254.892
	c0.001,0.212,0.012,0.424,0.031,0.635C237.086,255.316,237.075,255.104,237.074,254.892z M251.637,255.563
	c-0.009,0.074-0.018,0.146-0.026,0.222C251.62,255.711,251.629,255.637,251.637,255.563z M335.544,288.524c3.313,0,6,2.687,6,6l0,0
	c0,3.313-2.688,6-6,6l0,0c-3.313,0-6-2.688-6-6l0,0C329.544,291.211,332.23,288.524,335.544,288.524L335.544,288.524z
	 M335.544,290.724c-2.1,0-3.801,1.7-3.801,3.8l0,0c0,2.099,1.701,3.8,3.801,3.8l0,0c2.099,0,3.8-1.701,3.8-3.8l0,0
	C339.344,292.427,337.642,290.724,335.544,290.724L335.544,290.724z M147.187,329.786c3.313,0,6,2.688,6,6c0,3.314-2.688,6-6,6
	c-3.313,0-6-2.686-6-6C141.187,332.472,143.873,329.786,147.187,329.786z M147.187,331.985c-2.1,0-3.8,1.701-3.8,3.8
	s1.7,3.8,3.8,3.8c2.099,0,3.8-1.701,3.8-3.8S149.285,331.985,147.187,331.985z"/>
<g id="g9041" transform="translate(-718.99087,-9.0369588)">
	<path id="rect5207" inkscape:connector-curvature="0" fill="#FFFFFF" d="M984.182,283.328c-0.303,0-0.546,0.243-0.546,0.546v1.968
		c0.251-0.107,0.521-0.162,0.795-0.163c0.271,0.001,0.541,0.057,0.791,0.163v-1.968c0-0.303-0.244-0.546-0.547-0.546H984.182
		L984.182,283.328z M985.223,285.84v0.755c0.22,0.156,0.387,0.377,0.48,0.629v-1.098C985.557,286.01,985.395,285.914,985.223,285.84
		z M985.703,286.128c0.353,0.282,0.599,0.676,0.698,1.113h-0.693c-0.001-0.006-0.003-0.011-0.005-0.017v1.146
		c0.353,0.283,0.599,0.675,0.698,1.113h-0.692c-0.002-0.005-0.004-0.01-0.006-0.016v3.813c0.353,0.283,0.599,0.676,0.699,1.114
		h-0.693c-0.002-0.006-0.004-0.011-0.006-0.018v1.196c0.353,0.283,0.6,0.676,0.699,1.113h-0.693
		c-0.002-0.005-0.004-0.01-0.006-0.016v2.321h4.085h2.595h1.971c0.586,0,1.059-0.472,1.059-1.058v-13.313
		c0-0.586-0.473-1.058-1.059-1.058h-1.971h-2.595h-4.085V286.128L985.703,286.128z M985.703,296.672v-1.099
		c-0.146-0.117-0.309-0.214-0.48-0.286v0.755C985.442,296.2,985.609,296.419,985.703,296.672z M985.223,296.043
		c-0.229-0.165-0.507-0.255-0.791-0.256c-0.285,0.001-0.563,0.091-0.795,0.258v2.667c0,0.304,0.243,0.548,0.546,0.548h0.493
		c0.303,0,0.547-0.244,0.547-0.548V296.043L985.223,296.043z M983.637,296.046v-0.758c-0.192,0.082-0.371,0.194-0.529,0.331v1.069
		h0.048C983.246,296.43,983.414,296.206,983.637,296.046L983.637,296.046z M983.107,296.688h-0.646
		c0.096-0.416,0.32-0.79,0.646-1.069v-1.225h-0.646c0.096-0.416,0.32-0.79,0.646-1.069v-3.841h-0.646
		c0.096-0.416,0.32-0.79,0.646-1.069v-1.174h-0.646c0.096-0.415,0.32-0.79,0.646-1.068v-2.593c0-0.004,0.003-0.008,0.003-0.012
		h-3.896h-2.595h-1.972c-0.585,0-1.058,0.471-1.058,1.057v3.806c0.615-0.199,1.257-0.304,1.901-0.306c3.454,0,6.254,2.8,6.254,6.252
		c-0.003,1.76-0.745,3.436-2.047,4.618h3.406v-2.307H983.107z M983.107,286.172v1.068h0.048c0.092-0.258,0.26-0.481,0.481-0.643
		v-0.758C983.444,285.923,983.266,286.035,983.107,286.172L983.107,286.172z M983.637,286.598v1.484
		c0.251-0.106,0.521-0.163,0.795-0.163c0.272,0.002,0.541,0.058,0.791,0.163v-1.487c-0.229-0.165-0.507-0.254-0.791-0.255
		C984.146,286.34,983.868,286.431,983.637,286.598z M985.223,288.084v0.756c0.22,0.156,0.387,0.377,0.48,0.629v-1.098
		C985.557,288.253,985.395,288.157,985.223,288.084z M985.223,288.839c-0.229-0.165-0.507-0.256-0.791-0.256
		c-0.285,0-0.563,0.091-0.795,0.258v4.152c0.251-0.106,0.521-0.162,0.795-0.163c0.272,0.001,0.541,0.058,0.791,0.163V288.839z
		 M985.223,292.994v0.755c0.22,0.157,0.387,0.377,0.48,0.631v-1.099C985.557,293.164,985.395,293.067,985.223,292.994z
		 M985.223,293.749c-0.229-0.165-0.507-0.254-0.791-0.255c-0.285,0-0.563,0.09-0.795,0.257v1.537
		c0.251-0.106,0.521-0.163,0.795-0.163c0.272,0.001,0.541,0.058,0.791,0.163V293.749z M983.637,293.752v-0.758
		c-0.192,0.083-0.371,0.194-0.529,0.331v1.069h0.048C983.246,294.136,983.414,293.912,983.637,293.752L983.637,293.752z
		 M983.637,288.841v-0.759c-0.192,0.083-0.371,0.194-0.529,0.331v1.069h0.048C983.246,289.226,983.414,289.002,983.637,288.841
		L983.637,288.841z M975.495,288.669c-3.153,0-5.709,2.557-5.709,5.71c0,3.151,2.556,5.709,5.709,5.709
		c3.151,0,5.709-2.558,5.709-5.709C981.204,291.224,978.647,288.669,975.495,288.669z M975.495,290.198
		c2.309,0,4.18,1.871,4.18,4.18l0,0c0,2.31-1.871,4.181-4.18,4.181l0,0c-2.31,0-4.181-1.871-4.181-4.181
		C971.315,292.069,973.186,290.198,975.495,290.198z M975.276,290.413c-0.041,0-0.072,0.033-0.072,0.073v0.517
		c0,0.04,0.031,0.073,0.072,0.073c0.04,0,0.073-0.032,0.073-0.073v-0.517C975.349,290.446,975.316,290.413,975.276,290.413z
		 M975.616,290.413c-0.041,0-0.072,0.033-0.072,0.073v0.517c0,0.04,0.031,0.073,0.072,0.073c0.04,0,0.073-0.032,0.073-0.073v-0.517
		C975.689,290.446,975.656,290.413,975.616,290.413z M975.455,292.339c-0.087,0-0.156,0.068-0.156,0.155v1.83l-1.808,0.271
		c-0.086,0.014-0.145,0.092-0.131,0.178l0.012,0.071c0.013,0.085,0.092,0.145,0.178,0.132l1.749-0.264v0.172
		c0,0.087,0.068,0.155,0.156,0.155c0.087,0,0.155-0.068,0.155-0.155v-0.22l0.138-0.021c0.085-0.013,0.144-0.093,0.131-0.178
		l-0.011-0.071c-0.014-0.086-0.094-0.146-0.179-0.131l-0.079,0.012v-1.783C975.611,292.408,975.542,292.339,975.455,292.339z
		 M971.517,294.239c-0.04,0-0.073,0.033-0.073,0.073c0,0.041,0.033,0.073,0.073,0.073h0.518c0.039,0,0.072-0.032,0.072-0.073
		c0-0.04-0.033-0.073-0.072-0.073H971.517z M978.858,294.239c-0.041,0-0.073,0.033-0.073,0.073c0,0.041,0.032,0.073,0.073,0.073
		h0.517c0.041,0,0.072-0.032,0.072-0.073c0-0.04-0.031-0.073-0.072-0.073H978.858z M975.454,294.327c0.087,0,0.157,0.07,0.157,0.158
		c0,0.087-0.069,0.158-0.157,0.158l0,0c-0.088-0.001-0.158-0.071-0.158-0.158C975.297,294.397,975.367,294.327,975.454,294.327z
		 M975.446,294.37c-0.061,0.004-0.106,0.056-0.106,0.115c0,0.063,0.052,0.115,0.115,0.115c0.063,0,0.114-0.052,0.114-0.115l0,0
		c0-0.063-0.052-0.116-0.114-0.115C975.451,294.369,975.448,294.369,975.446,294.37L975.446,294.37z M971.517,294.579
		c-0.04,0-0.073,0.033-0.073,0.073c0,0.041,0.033,0.073,0.073,0.073h0.518c0.039,0,0.072-0.032,0.072-0.073
		c0-0.04-0.033-0.073-0.072-0.073H971.517z M978.858,294.579c-0.041,0-0.073,0.033-0.073,0.073c0,0.041,0.032,0.073,0.073,0.073
		h0.517c0.041,0,0.072-0.032,0.072-0.073c0-0.04-0.031-0.073-0.072-0.073H978.858z M975.276,297.821
		c-0.041,0-0.072,0.033-0.072,0.073v0.517c0,0.04,0.031,0.073,0.072,0.073c0.04,0,0.073-0.033,0.073-0.073v-0.517
		C975.349,297.854,975.316,297.821,975.276,297.821z M975.616,297.821c-0.041,0-0.072,0.033-0.072,0.073v0.517
		c0,0.04,0.031,0.073,0.072,0.073c0.04,0,0.073-0.033,0.073-0.073v-0.517C975.689,297.854,975.656,297.821,975.616,297.821z
		 M971.901,299.297l-1.036,1.795c-0.157,0.271-0.064,0.618,0.208,0.776c0.272,0.157,0.619,0.064,0.777-0.209l1.027-1.779
		C972.535,299.717,972.208,299.522,971.901,299.297L971.901,299.297z M978.959,299.396c-0.313,0.216-0.646,0.4-0.994,0.554
		l0.986,1.711c0.158,0.273,0.506,0.366,0.777,0.209c0.273-0.157,0.366-0.505,0.209-0.776L978.959,299.396L978.959,299.396z"/>
	<path id="rect5256" inkscape:connector-curvature="0" fill="#FFFFFF" d="M995.425,284.998v2.022h0.483h0.129h0.015h0.234v-0.234
		v-1.104v-0.448c0-0.129-0.104-0.234-0.234-0.234h-0.015h-0.129L995.425,284.998L995.425,284.998z"/>
	<path id="path5263" inkscape:connector-curvature="0" fill="#FFFFFF" d="M995.425,287.156v2.021h0.483h0.129h0.015h0.234v-0.234
		v-1.104v-0.447c0-0.13-0.104-0.234-0.234-0.234h-0.015h-0.129L995.425,287.156L995.425,287.156z"/>
	<path id="path5265" inkscape:connector-curvature="0" fill="#FFFFFF" d="M995.425,289.365v2.021h0.483h0.129h0.015h0.234v-0.234
		v-1.104V289.6c0-0.13-0.104-0.234-0.234-0.234h-0.015h-0.129L995.425,289.365L995.425,289.365z"/>
	<path id="path5267" inkscape:connector-curvature="0" fill="#FFFFFF" d="M995.425,291.54v2.021h0.483h0.129h0.015h0.234v-0.234
		v-1.104v-0.447c0-0.13-0.104-0.234-0.234-0.234h-0.015h-0.129L995.425,291.54L995.425,291.54z"/>
	<path id="rect5294" fill="#FFFFFF" d="M988.433,286.561h6.529c0.03,0,0.057,0.023,0.057,0.056l0,0c0,0.031-0.025,0.057-0.057,0.057
		h-6.529c-0.03,0-0.056-0.024-0.056-0.057l0,0C988.378,286.586,988.403,286.561,988.433,286.561z"/>
	<path id="rect5296" fill="#FFFFFF" d="M988.433,288.672h6.529c0.03,0,0.057,0.023,0.057,0.056l0,0c0,0.03-0.025,0.056-0.057,0.056
		h-6.529c-0.03,0-0.056-0.024-0.056-0.056l0,0C988.378,288.697,988.403,288.672,988.433,288.672z"/>
	<path id="rect5298" fill="#FFFFFF" d="M988.433,290.937h6.529c0.03,0,0.057,0.025,0.057,0.056l0,0c0,0.031-0.025,0.057-0.057,0.057
		h-6.529c-0.03,0-0.056-0.024-0.056-0.057l0,0C988.378,290.964,988.403,290.937,988.433,290.937z"/>
	<path id="rect5300" fill="#FFFFFF" d="M988.433,293.16h6.529c0.03,0,0.057,0.025,0.057,0.058l0,0c0,0.029-0.025,0.056-0.057,0.056
		h-6.529c-0.03,0-0.056-0.025-0.056-0.056l0,0C988.378,293.185,988.403,293.16,988.433,293.16z"/>
	<text transform="matrix(1 0 0 1 993.9847 286.2955)" fill="#FFFFFF" font-family="'Arial-BoldMT'" font-size="1.5818">1</text>
	<text transform="matrix(1 0 0 1 993.9847 288.4205)" fill="#FFFFFF" font-family="'Arial-BoldMT'" font-size="1.5818">2</text>
	<text transform="matrix(1 0 0 1 993.9847 290.6852)" fill="#FFFFFF" font-family="'Arial-BoldMT'" font-size="1.5818">3</text>
	<text transform="matrix(1 0 0 1 993.9847 292.8805)" fill="#FFFFFF" font-family="'Arial-BoldMT'" font-size="1.5818">4</text>
</g>
<path id="path9060" inkscape:connector-curvature="0" fill="#FFFFFF" d="M244.395,204.262c-5.604,0-10.146,2.501-10.147,5.586
	c-0.001,3.086,4.541,5.587,10.146,5.588c0.001,0,0.002,0,0.003,0c1.147-0.002,2.287-0.111,3.368-0.323l6.069,3.222l-3.553-3.942
	c2.669-1.047,4.256-2.738,4.261-4.543C254.541,206.763,249.998,204.262,244.395,204.262z"/>
<path id="rect9067" d="M240.202,207.849h8.385c0.14,0,0.252,0.111,0.252,0.252v0.119c0,0.139-0.112,0.251-0.252,0.251h-8.385
	c-0.14,0-0.252-0.112-0.252-0.251v-0.119C239.95,207.962,240.063,207.849,240.202,207.849z"/>
<path id="rect9069" d="M240.202,209.44h8.385c0.14,0,0.252,0.113,0.252,0.252v0.119c0,0.139-0.112,0.251-0.252,0.251h-8.385
	c-0.14,0-0.252-0.112-0.252-0.251v-0.119C239.95,209.553,240.063,209.44,240.202,209.44z"/>
<path id="rect9071" d="M240.202,211.102h8.385c0.14,0,0.252,0.111,0.252,0.251v0.12c0,0.139-0.112,0.251-0.252,0.251h-8.385
	c-0.14,0-0.252-0.112-0.252-0.251v-0.12C239.95,211.215,240.063,211.102,240.202,211.102z"/>
<path id="path9073" inkscape:connector-curvature="0" fill="#F6C830" d="M296.896,348.655v26.021c7.186,0,13.011-5.823,13.012-13.01
	C309.907,354.48,304.082,348.655,296.896,348.655C296.897,348.655,296.897,348.655,296.896,348.655z"/>
<path id="path9078" inkscape:connector-curvature="0" fill="#EE9628" d="M296.896,348.655v26.021c-7.186,0-13.01-5.823-13.011-13.01
	C283.885,354.48,289.71,348.655,296.896,348.655L296.896,348.655z"/>
<path id="path9806" inkscape:connector-curvature="0" fill="#FFFFFF" d="M284.31,184.181h16.265c2.82,0,5.092-2.271,5.092-5.092
	c0-2.388-1.631-4.377-3.842-4.933c-0.6-1.783-2.27-2.985-4.149-2.987c-1.023,0.001-2.015,0.36-2.801,1.017
	c-0.45-1.997-2.223-3.417-4.271-3.42c-0.646,0.001-1.281,0.146-1.864,0.422c-0.407-2.462-2.095-4.521-4.43-5.403V184.181
	L284.31,184.181z"/>
<path id="rect9164" inkscape:connector-curvature="0" fill="#EAEAEA" d="M284.31,184.181v-20.396
	c-0.79-0.303-1.628-0.459-2.476-0.463c-3.865,0-7,3.135-7,7c0.003,0.318,0.027,0.637,0.073,0.952
	c-0.816-0.791-1.907-1.233-3.044-1.234c-2.256,0-4.144,1.713-4.362,3.959h-1.576c-2.819,0-5.093,2.271-5.093,5.092
	c0,2.821,2.272,5.092,5.093,5.092L284.31,184.181L284.31,184.181z"/>
<path id="path9736" inkscape:connector-curvature="0" fill="#FFFFFF" d="M72.924,150.791h52.275c0.09-0.518,0.146-1.047,0.146-1.591
	c0-5.069-4.082-9.148-9.151-9.148h-8.104c0.296-0.969,0.445-1.975,0.445-2.984c0.001-5.658-4.586-10.245-10.244-10.245
	c0,0,0,0-0.001,0c-3.337,0.003-6.464,1.631-8.38,4.363c0.144-0.884,0.217-1.777,0.224-2.673
	c-0.005-9.582-7.633-17.422-17.211-17.688L72.924,150.791L72.924,150.791z"/>
<path id="path9191-4" inkscape:connector-curvature="0" fill="#EAEAEA" d="M72.924,150.791v-39.967
	c-0.164-0.008-0.327-0.014-0.491-0.018h-0.001c-9.777,0.001-17.703,7.928-17.703,17.705c0.002,0.964,0.083,1.927,0.242,2.878
	c-1.886-2.791-5.031-4.467-8.398-4.47c-5.604,0-10.146,4.542-10.146,10.146l0,0c0.004,1.012,0.158,2.018,0.46,2.983h-5.632
	c-5.068,0-9.15,4.08-9.15,9.149c0,0.544,0.057,1.073,0.146,1.591L72.924,150.791L72.924,150.791z"/>
<path id="path9783" inkscape:connector-curvature="0" fill="#FFFFFF" d="M86.104,356.699h23.182c0.053-0.209,0.089-0.425,0.089-0.65
	c0-1.468-1.182-2.648-2.649-2.648h-2.699c0-1.521-1.231-2.75-2.75-2.75l0,0c-0.442,0-0.879,0.106-1.271,0.313
	c-0.174-1.736-1.634-3.062-3.38-3.063c-1.094,0.001-2.12,0.529-2.758,1.418c0.004-0.056,0.007-0.112,0.008-0.168
	c0-2.32-1.88-4.2-4.2-4.2c-0.854,0.002-1.687,0.264-2.387,0.751c-0.311-0.473-0.713-0.879-1.184-1.193V356.699L86.104,356.699z"/>
<path id="rect9208" inkscape:connector-curvature="0" fill="#EAEAEA" d="M86.104,356.699v-12.192
	c-0.689-0.461-1.5-0.707-2.329-0.708c-1.79,0.003-3.382,1.139-3.966,2.83c-0.304-0.214-0.664-0.329-1.034-0.33
	c-0.994,0-1.801,0.807-1.801,1.801c0.001,0.034,0.002,0.069,0.004,0.104c-0.034-0.003-0.069-0.004-0.104-0.005
	c-1.543,0.001-2.892,1.042-3.284,2.534c-0.508-0.471-1.174-0.733-1.864-0.734c-1.521,0-2.75,1.231-2.75,2.75
	c0.001,0.219,0.027,0.438,0.081,0.649h-2.433c-1.468,0-2.648,1.183-2.648,2.649c0,0.227,0.036,0.441,0.089,0.65L86.104,356.699
	L86.104,356.699z"/>
<path id="path9736-0" inkscape:connector-curvature="0" fill="#FFFFFF" d="M208.141,363.192h25.081
	c0.043-0.249,0.069-0.503,0.069-0.764c0-2.434-1.958-4.391-4.391-4.391h-3.888c0.142-0.465,0.213-0.947,0.214-1.433
	c0-2.715-2.201-4.915-4.916-4.915l0,0c-1.603,0.001-3.103,0.782-4.021,2.094c0.068-0.425,0.104-0.854,0.107-1.283
	c-0.003-4.597-3.663-8.357-8.258-8.485v19.177H208.141z"/>
<path id="path9191-4-4" inkscape:connector-curvature="0" fill="#EAEAEA" d="M208.141,363.192v-19.177
	c-0.079-0.004-0.158-0.008-0.236-0.009h-0.001c-4.691,0-8.494,3.804-8.494,8.494c0.001,0.463,0.04,0.925,0.116,1.381
	c-0.904-1.339-2.413-2.143-4.029-2.144c-2.688,0-4.867,2.179-4.868,4.867l0,0c0.002,0.485,0.076,0.969,0.222,1.433h-2.702
	c-2.433,0-4.392,1.957-4.392,4.391c0,0.261,0.027,0.515,0.07,0.764H208.141L208.141,363.192z"/>
<path id="rect9269-8" inkscape:connector-curvature="0" fill="#907B63" d="M396.998,475.384L48.73,475.909
	c-0.217,0.024-0.438,0.039-0.66,0.039H22.7c-0.008,0.127-0.019,0.252-0.019,0.381c0,3.215,2.587,5.802,5.8,5.802h362.8
	c3.214,0,5.801-2.587,5.801-5.802C397.081,476.007,397.05,475.691,396.998,475.384L396.998,475.384z"/>
<path id="path9230-6" inkscape:connector-curvature="0" fill="#00281F" d="M75.573,418.248l-52.892,57.7l374.482-0.565
	l-49.497-55.721L75.573,418.248z"/>
<g id="g10443" transform="matrix(0.99706657,-0.07653924,0.07653924,0.99706657,-782.47069,-103.32611)">

		<ellipse id="path9345-9" transform="matrix(-1 1.534621e-005 -1.534621e-005 -1 1840.7134 1221.8169)" fill="#F6C830" cx="920.352" cy="610.916" rx="99" ry="28.199"/>
	<path id="path9390-9" inkscape:connector-curvature="0" fill="#EE9628" d="M927.773,582.822c-2.467-0.062-4.944-0.096-7.421-0.106
		c-0.337,0.003-0.674,0.008-1.014,0.011c-8.324,16.422-11.776,33.607-9.867,49.153l21.408,0c-0.876-1.906-1.664-3.873-2.355-5.894
		C924.157,612.816,923.895,597.767,927.773,582.822L927.773,582.822z"/>
	<path id="path9398-1" inkscape:connector-curvature="0" fill="#EE9628" d="M885.164,584.567c-0.23,0.023-0.458,0.042-0.686,0.064
		c-3.076,0.342-6.091,0.725-9.033,1.152c-0.032,0.005-0.063,0.011-0.092,0.015c-16.878,6.235-27.72,17.829-29.241,31.27
		c-0.224,2.237-0.185,4.496,0.116,6.76l16.43,1.826c-0.972-3.825-1.254-7.708-0.836-11.534
		C863.219,601.743,871.815,590.859,885.164,584.567L885.164,584.567z"/>
	<path id="path9394-1" inkscape:connector-curvature="0" fill="#EE9628" d="M907.875,582.977c-1.455,0.04-2.903,0.091-4.348,0.15
		c-1.858,0.103-3.706,0.221-5.539,0.353c-17.246,10.153-27.163,24.836-27.216,40.281c0.035,2.72,0.377,5.432,1.022,8.117l20.676,0
		c-1.676-4.539-2.536-9.237-2.552-13.959C889.968,604.92,896.389,592.424,907.875,582.977z"/>
	<path id="path9388-1" inkscape:connector-curvature="0" fill="#EE9628" d="M951.815,584.206c-0.732-0.079-1.467-0.157-2.207-0.229
		c-2.94-0.256-5.922-0.473-8.932-0.651c-0.368,17.083,1.45,33.663,5.33,48.551l20.507,0c-2.313-4.306-4.424-8.958-6.311-13.903
		C956.352,607.67,953.512,596.238,951.815,584.206z"/>
</g>
<path id="path9707" inkscape:connector-curvature="0" fill="#866940" d="M96.81,340.606c-0.105,0.003-0.237,0.506-0.402,1.648
	c-1.315,9.152-3.089,16.36-2.573,17.104s2.288,3.089,2.002,4.062c-0.069,0.238-0.15,0.471-0.231,0.685
	c-1.125-0.273-2.688-0.362-4.821,0.037c-5.824,1.093-11.771,2.306-11.771,2.832c0,0.524-0.283,1.173,0.931,1.294
	c1.213,0.121,2.427,0.81,3.033,1.254c0.329,0.241,2.708,0.243,4.832,0.195c-3.646,2.267-11.377,7.204-5.317,4.698
	c4.2-1.736,6.247-2.693,7.274-3.22l-0.793,72.422l5.146,1.487l-2.786-75.354c0.171,0.107,0.618,0.143,1.795-0.473
	c1.861-0.971,1.78-0.283,2.791-1.214c0.265-0.242,0.525-0.464,0.775-0.677c0.593,0.772,1.146,2.395,1.258,3.067
	c0.172,1.029,7.837,8.008,10.982,10.124c3.146,2.117-9.781-12.241-10.582-12.756c-0.465-0.299-0.675-0.844-0.773-1.252
	c0.289-0.309,0.509-0.622,0.604-0.975c0,0-0.321-0.513-1.196-0.979C97.013,363.513,97.532,340.585,96.81,340.606L96.81,340.606z"/>
<path id="path9281-5" inkscape:connector-curvature="0" fill="#A0845F" d="M386.416,479.625l-19.799,23.76l-20.363-1.131
	l-28.852,26.869l-20.647-2.546l-7.354,11.879L261.4,557.689l-21.213-23.192l-7.071,16.121l-37.052,35.355l-24.042-40.163
	l-18.385,14.142l-31.396-32.81l-21.213,10.465l-29.699-30.264l-16.404,6.223l-17.254-34.225L386.416,479.625z"/>
<path id="path9283-7" inkscape:connector-curvature="0" fill="#876B42" d="M39.798,483.555l15.273,29.866l11.861-28.806
	L39.798,483.555z M346.995,485.668l-0.865,16.393l20.91,1.232L346.995,485.668z M89.989,500.081l-13.576,12.445L101.02,537.7
	C101.02,537.7,89.14,502.061,89.989,500.081z M306.991,501.773l-10.229,24.646l20.585,2.771L306.991,501.773z M147.936,513.58
	l-21.475,17.98l26.979,28.247L147.936,513.58L147.936,513.58z M296.559,526.901l-29.762,3.127l-5.604,27.62L296.559,526.901z
	 M202.003,532.369l-5.938,53.456l37.052-35.071L202.003,532.369z"/>
<path id="path9307-8" inkscape:connector-curvature="0" fill="#8D6E43" d="M352.142,479.908l-30.83,22.91l-21.496-10.748
	l-22.91,32.811l-26.021-13.859l-20.931,25.173l-24.606-22.91l-38.468,22.063l-22.345-37.9l-44.406,14.708l-27.152-32.811
	L352.142,479.908z"/>
<path id="path9285-3" inkscape:connector-curvature="0" fill="#866940" d="M349.794,481.023l-35.104,18.231l12.563,7.759
	L349.794,481.023z M285.614,484.188l-9.183,40.479l25.146-36.106L285.614,484.188z M264.233,485.465l-12.604,25.824l24.723,13.225
	L264.233,485.465z M115.452,486.446l-15.556,25.457c0,0,42.144-13.858,44.123-14.708L115.452,486.446z M235.66,488.678
	l-5.656,46.669l21.497-24.325L235.66,488.678z M173.991,491.346l-7.288,43.677l38.738-22.258L173.991,491.346z"/>
<path id="rect9232-2" inkscape:connector-curvature="0" fill="#514638" d="M63.107,455.552c-2.495,0-4.504,2.01-4.504,4.506v0.605
	c0,0.704,0.164,1.366,0.449,1.959h301.741c0.284-0.592,0.449-1.255,0.449-1.959v-0.605c0-2.496-2.01-4.506-4.505-4.506H63.107z"/>
<path id="path10490" inkscape:connector-curvature="0" fill="#429B3C" d="M203.723,428.122l5.063-1.305
	c0.055-0.079,0.084-0.174,0.084-0.271c0-0.051-0.008-0.101-0.022-0.146c0.092,0.021,0.188,0.032,0.283,0.032
	c0.506,0,0.914-0.284,0.914-0.636c0-0.011-0.001-0.021-0.003-0.029c0.675-0.074,1.178-0.521,1.18-1.049
	c-0.001-0.278-0.144-0.546-0.396-0.744c0.149-0.127,0.23-0.284,0.231-0.446c0-0.056-0.011-0.109-0.028-0.164
	c0.004,0,0.008,0,0.013,0c0.276-0.001,0.538-0.117,0.707-0.314c0.07,0.014,0.146,0.021,0.224,0.021c0.098,0,0.192-0.012,0.278-0.034
	c0.316-0.013,0.568-0.329,0.568-0.718c0-0.107-0.021-0.215-0.06-0.313c0.213-0.044,0.354-0.16,0.354-0.29
	c0.001-0.064-0.034-0.127-0.099-0.181c0.294-0.077,0.489-0.286,0.49-0.521c-0.001-0.263-0.242-0.487-0.583-0.542
	c0.055-0.092,0.093-0.197,0.111-0.312c0.021,0.003,0.042,0.004,0.063,0.005c0.243,0,0.44-0.176,0.439-0.393l0,0
	c0-0.045-0.009-0.09-0.026-0.133c0.23-0.086,0.387-0.321,0.387-0.586c0.001-0.344-0.255-0.62-0.57-0.62c-0.001,0-0.001,0-0.001,0
	c-0.154,0-0.302,0.066-0.409,0.188c0-0.008,0-0.016,0-0.022c0-0.196-0.122-0.38-0.325-0.489c0-0.001,0-0.001,0-0.002
	c0-0.062-0.021-0.121-0.062-0.178c0.103-0.077,0.158-0.178,0.158-0.279c-0.001-0.23-0.275-0.418-0.62-0.424
	c-0.088-0.194-0.338-0.326-0.62-0.326c-0.17,0-0.333,0.048-0.455,0.134c0.042-0.098,0.063-0.205,0.064-0.313
	c0-0.406-0.293-0.735-0.653-0.734l0,0c-0.011,0-0.022,0-0.033,0.001v-0.001c0-0.451-0.46-0.816-1.028-0.816
	c-0.076,0.001-0.154,0.009-0.229,0.022c-0.101-0.391-0.595-0.675-1.174-0.675c-0.453,0-0.867,0.177-1.067,0.456
	c-0.06-0.032-0.124-0.05-0.188-0.05c-0.06,0-0.116,0.015-0.171,0.039c-0.031-0.107-0.157-0.186-0.304-0.186
	c-0.122,0-0.232,0.055-0.283,0.141c-0.09-0.097-0.223-0.162-0.371-0.183c-0.013-0.189-0.108-0.361-0.262-0.465
	c0.013-0.043,0.02-0.087,0.02-0.131c0-0.378-0.413-0.686-0.922-0.686c-0.222,0-0.435,0.06-0.603,0.166
	c-0.061-0.176-0.247-0.297-0.459-0.297c-0.266-0.001-0.481,0.185-0.481,0.415c0,0,0,0.001,0,0.002c0,0.015,0.001,0.029,0.003,0.044
	c-0.054,0.097-0.085,0.261-0.084,0.438c-0.001,0.018-0.001,0.035,0,0.055c-0.021-0.013-0.044-0.024-0.067-0.034
	c-0.011-0.223-0.201-0.396-0.432-0.396c-0.227,0-0.413,0.167-0.432,0.383c-0.074,0.028-0.139,0.064-0.188,0.107
	c-0.068-0.021-0.142-0.032-0.215-0.032c-0.23,0-0.438,0.109-0.523,0.277c-0.218,0.011-0.42,0.084-0.556,0.203
	c-0.05-0.017-0.104-0.024-0.159-0.024c-0.203,0-0.367,0.108-0.367,0.244l0,0c0,0.073,0.048,0.143,0.131,0.188
	c-0.045,0.011-0.088,0.03-0.127,0.059c-0.067-0.043-0.152-0.065-0.242-0.065c-0.211,0.001-0.383,0.132-0.383,0.294
	c0,0.013,0.002,0.023,0.004,0.036c-0.084,0.038-0.154,0.095-0.207,0.166c-0.016-0.004-0.031-0.008-0.05-0.008
	c-0.112,0-0.204,0.08-0.204,0.18c0,0.001,0,0.001,0,0.001c0,0.088,0.072,0.162,0.17,0.177c0.009,0.045,0.023,0.09,0.045,0.131
	c-0.064-0.03-0.136-0.046-0.207-0.047c-0.283,0-0.515,0.241-0.515,0.539l0,0c0,0.098,0.025,0.193,0.073,0.276
	c-0.058,0.049-0.089,0.116-0.089,0.188c0,0.003,0,0.006,0,0.008c-0.326,0.061-0.557,0.271-0.557,0.516
	c0,0.107,0.046,0.214,0.134,0.303c-0.102-0.033-0.211-0.05-0.32-0.05c-0.401,0-0.728,0.219-0.728,0.489
	c0,0.214,0.206,0.402,0.51,0.467c-0.013,0.031-0.02,0.063-0.02,0.096c0,0.09,0.047,0.178,0.133,0.25
	c-0.033,0.053-0.052,0.109-0.052,0.167c0.001,0.112,0.068,0.22,0.189,0.302c-0.019,0.093-0.026,0.192-0.026,0.293
	c0,0.064,0.005,0.128,0.012,0.189c-0.018-0.001-0.035-0.002-0.053-0.002c-0.354,0.001-0.644,0.245-0.644,0.547
	c0,0.075,0.018,0.149,0.053,0.218c-0.145,0.1-0.232,0.275-0.232,0.468c0,0.302,0.215,0.547,0.481,0.547
	c-0.007,0.017-0.01,0.033-0.01,0.05c0.001,0.111,0.138,0.212,0.349,0.255c-0.015,0.048-0.021,0.102-0.022,0.153
	c0.001,0.051,0.009,0.101,0.021,0.146c-0.001,0-0.002,0-0.003,0c-0.189,0-0.343,0.128-0.344,0.285v0.001
	c0.001,0.138,0.117,0.255,0.278,0.28c-0.021,0.053-0.034,0.109-0.034,0.168c0,0.052,0.011,0.104,0.028,0.152
	c-0.188,0.023-0.321,0.123-0.322,0.237c0,0.089,0.079,0.171,0.208,0.215c-0.028,0.063-0.045,0.128-0.045,0.195
	c0,0.233,0.182,0.437,0.438,0.49c-0.03,0.087-0.045,0.182-0.046,0.276c0.001,0.378,0.233,0.685,0.521,0.685
	c0.079,0,0.158-0.024,0.229-0.07c0.002,0.158,0.046,0.313,0.125,0.439c-0.02,0.05-0.027,0.102-0.028,0.153
	c0,0.272,0.242,0.499,0.557,0.521c0,0.006,0,0.012,0,0.017c-0.001,0.334,0.284,0.604,0.637,0.605l0,0
	c0.088-0.001,0.176-0.02,0.256-0.052c0.142,0.195,0.368,0.313,0.608,0.313c0.238,0,0.463-0.113,0.604-0.305
	c0.199,0.07,0.454,0.108,0.719,0.108c0.289-0.001,0.566-0.047,0.771-0.13c-0.002,0.021-0.003,0.043-0.003,0.064
	c0,0.135,0.037,0.264,0.103,0.354c-0.004,0.019-0.006,0.035-0.006,0.053c0,0.207,0.212,0.375,0.473,0.375
	c0.14,0,0.271-0.048,0.359-0.132c0.089,0.037,0.185,0.062,0.281,0.07C203.76,427.97,203.73,428.045,203.723,428.122L203.723,428.122
	z"/>
<path id="path10488" inkscape:connector-curvature="0" fill="#429B3C" d="M182.991,427.394l0.797-0.055
	c0.351-0.176,0.589-0.703,0.589-1.303c0-0.229-0.035-0.453-0.103-0.653c0.07,0.021,0.144,0.029,0.217,0.03
	c0.421,0,0.762-0.329,0.763-0.737c0-0.1-0.021-0.197-0.062-0.289c0.181-0.39,0.292-1.116,0.293-1.904
	c-0.001-0.602-0.066-1.177-0.182-1.589c0.286-0.422,0.456-1.08,0.458-1.78c0-0.671-0.156-1.306-0.425-1.729
	c0.183-0.465,0.284-1.117,0.284-1.803c0-1.351-0.393-2.443-0.876-2.444c-0.001,0-0.002,0-0.003,0
	c-0.023-1.012-0.346-1.801-0.736-1.803c-0.135,0-0.267,0.097-0.381,0.276c-0.125-0.778-0.432-1.291-0.772-1.292
	c-0.459,0.002-0.83,0.91-0.83,2.031c0,0.301,0.027,0.598,0.081,0.869c-0.441,0.493-0.729,1.601-0.729,2.822
	c0,0.916,0.16,1.784,0.438,2.372c-0.347,0.277-0.577,1.04-0.578,1.898c0,0.815,0.21,1.549,0.531,1.857
	c-0.161,0.339-0.254,0.811-0.255,1.305c0.001,0.395,0.06,0.777,0.168,1.091c-0.268,0.068-0.444,0.251-0.444,0.456
	c0,0.265,0.293,0.479,0.658,0.484c0.072,0.925,0.53,1.613,1.072,1.614c0.009,0,0.017-0.001,0.023-0.001v0.275H182.991z"/>
<path id="path5572-4" inkscape:connector-curvature="0" fill="#956940" d="M318.763,366.332l-8.399,18.37l1.017-0.003v6.281h-5.219
	v0.092l-3.415,3.323h-2.171v9.75c-0.925-0.455-2.03-0.979-2.03-0.979v-0.047h-6.095v-2.862h-1.753v2.862h-5.493l-2.171-1.674v-0.034
	h-1.938v-1.893h-1.155v1.893h-11.633v0.131l-1.523,2.178h-1.522v-1.801h-1.984v1.801h-0.831v0.042l-3.37,3.052v0.461h0.415
	l-0.045,2.31h-5.401v-1.755h-2.493v1.755h-0.784v-1.063h-0.461v1.063h-0.323v0.737h-8.633v0.018l-1.306,2.251l0.1,3.136h-7.541
	v-1.046h-1.828v1.046h-2.22v-1.828H227.9v1.828h-3.003l-1.632,1.436H223.2v2.938l-9.891,2.515l1.013,0.293v3.713h-3.627v2.265
	c-0.016-0.001-0.031-0.002-0.047-0.003c-0.228,0.001-0.438,0.146-0.553,0.382c-0.193-0.241-0.481-0.382-0.786-0.382
	c-0.331,0.001-0.642,0.167-0.83,0.443v-0.396c0.257-0.256,0.416-0.742,0.416-1.271c-0.001-0.284-0.048-0.563-0.137-0.803
	c0.01-0.012,0.019-0.022,0.026-0.036l-5.063,1.306c-0.002,0.014-0.004,0.025-0.004,0.038c0,0.079,0.023,0.157,0.068,0.228
	c-0.146,0.104-0.253,0.663-0.253,1.32c0,0.016,0,0.03,0,0.047h-19.896v-2.364c0.052-0.009,0.102-0.026,0.149-0.051l-0.797,0.055
	v2.359h-1.615v-2.31h0.068c0.166,0,0.3-0.134,0.3-0.3s-0.134-0.3-0.3-0.3h-2.123c-0.167,0-0.301,0.134-0.301,0.3
	s0.134,0.3,0.301,0.3h0.022v5.817h1.34v1.015h34.483v-2.757h14.425v-0.349c8.754-0.699,58.598-4.702,86.607-7.25v2.604
	c0,2.495,2.01,4.506,4.505,4.506h10.012c2.495,0,4.505-2.011,4.505-4.506v-4.598c0.026-0.007,0.093-0.017,0.111-0.023
	c3.324-1.106-3.6-21.189-3.6-21.189v-4.295v-5.445h-6.094v-6.32l1.2-0.003L318.763,366.332L318.763,366.332z"/>
<path id="path5566-1" inkscape:connector-curvature="0" fill="#429B3C" d="M80.243,397.05c0.327,0,0.592,0.246,0.592,0.55l0,0
	c-0.001,0.147-0.064,0.291-0.18,0.394c0.281,0.368,0.433,0.806,0.433,1.254c-0.001,0.684-0.351,1.326-0.944,1.741
	c0.121,0.365,0.185,0.767,0.186,1.174c-0.001,0.297-0.035,0.593-0.101,0.873c0.277-0.264,0.628-0.408,0.986-0.409
	c0.563,0.001,1.081,0.354,1.358,0.92c0.147-0.049,0.302-0.073,0.458-0.074c0.793,0,1.436,0.644,1.436,1.437l0,0
	c0,0.327-0.111,0.646-0.316,0.899c0.201,0.126,0.367,0.299,0.48,0.504c0.187-0.089,0.391-0.137,0.598-0.137
	c0.746,0,1.352,0.587,1.352,1.31l0,0c-0.001,0.449-0.239,0.866-0.631,1.104c0.026,0.12,0.039,0.246,0.04,0.373
	c0,0.004,0,0.009,0,0.013c0.056-0.009,0.112-0.013,0.169-0.013c0.416,0,0.802,0.204,1.015,0.536c0-0.01,0-0.02,0-0.028
	c0-0.514,0.208-0.93,0.466-0.93c0.257,0,0.465,0.416,0.465,0.93l0,0c0,0.202-0.034,0.4-0.097,0.563
	c0.832,0.232,1.361,0.72,1.362,1.254c0,0.217-0.086,0.43-0.253,0.623c0,0.004,0,0.007,0,0.011c-0.001,0.504-0.397,0.942-0.961,1.063
	c0.076,0.225,0.116,0.466,0.116,0.71c-0.001,0.754-0.375,1.424-0.935,1.673c0.003,0.048,0.006,0.096,0.009,0.144
	c-0.001,0.61-0.09,1.212-0.258,1.748c0.372,0.29,0.595,0.775,0.596,1.293c-0.001,0.316-0.084,0.625-0.239,0.886
	c0.13,0.194,0.208,0.411,0.229,0.632c0.437,0.086,0.806,0.32,1.015,0.642c0.03-0.002,0.063-0.003,0.094-0.004
	c0.389,0.001,0.772,0.065,1.129,0.188c-0.012-0.082-0.018-0.166-0.019-0.249c0.002-0.595,0.268-1.173,0.76-1.659
	c-0.336-0.331-0.521-0.748-0.521-1.179c0.001-0.54,0.291-1.054,0.794-1.404c-0.243-0.301-0.375-0.653-0.375-1.016
	c0.002-0.759,0.573-1.438,1.436-1.702c0.391-0.721,1.351-1.193,2.418-1.193c0.509,0,1.007,0.108,1.431,0.313
	c-0.096-0.25-0.146-0.52-0.146-0.789c0.001-0.475,0.15-0.932,0.427-1.295c-0.003-0.009-0.007-0.016-0.01-0.022
	c-0.011,0.001-0.02,0.002-0.028,0.002c-0.313,0-0.567-0.374-0.568-0.836c0,0,0,0,0-0.001c0.001-0.385,0.181-0.72,0.435-0.813
	c-0.201-0.119-0.313-0.277-0.313-0.441c0-0.362,0.535-0.657,1.194-0.657h0.001c0.361,0,0.704,0.091,0.931,0.246
	c0.115-0.392,0.505-0.663,0.95-0.664c0.544,0,0.985,0.4,0.985,0.896c0,0,0,0,0,0.001c0,0.064-0.009,0.13-0.024,0.192
	c0.071,0.038,0.142,0.079,0.207,0.123c-0.001-0.016-0.001-0.031,0-0.048c0-0.282,0.243-0.529,0.594-0.604
	c0.192-0.263,0.469-0.475,0.796-0.613c-0.089-0.102-0.136-0.217-0.136-0.335c0-0.348,0.389-0.627,0.865-0.627
	c0.164-0.001,0.325,0.031,0.464,0.096c0.241-0.214,0.568-0.335,0.911-0.335c0.21,0,0.417,0.047,0.603,0.135
	c0.378-0.354,0.878-0.553,1.398-0.554c0.407,0.001,0.806,0.123,1.143,0.351c0.048-0.234,0.323-0.408,0.649-0.408
	c0.363-0.001,0.657,0.213,0.657,0.478l0,0c0,0.264-0.294,0.479-0.657,0.479l0,0c-0.035,0-0.069-0.003-0.104-0.007
	c0.015,0.022,0.027,0.045,0.041,0.068c0.021-0.001,0.042-0.002,0.063-0.003c0.627,0,1.135,0.254,1.135,0.567v0.001
	c0,0.013-0.001,0.025-0.004,0.038c0.077,0.036,0.15,0.076,0.222,0.12c0.37,0.025,0.729,0.109,1.042,0.243
	c0.008-0.002,0.016-0.003,0.022-0.004c-0.057-0.14-0.086-0.283-0.087-0.428c0-0.924,1.136-1.673,2.538-1.673
	c0.802,0.001,1.556,0.251,2.034,0.675c0.357-0.091,0.743-0.137,1.132-0.138c1.61,0.001,2.924,0.782,2.954,1.759
	c0.206-0.058,0.432-0.086,0.659-0.086c0.856,0,1.553,0.399,1.554,0.896c0,0,0,0,0,0.001c-0.001,0.156-0.072,0.312-0.208,0.445
	c0.124-0.058,0.255-0.087,0.387-0.088c0.594,0,1.075,0.575,1.075,1.284c0,0.244-0.059,0.483-0.169,0.689
	c0.017-0.002,0.033-0.002,0.05-0.002c0.462-0.001,0.837,0.507,0.837,1.134v0.001c0,0.202-0.04,0.401-0.116,0.575
	c0.242-0.139,0.574-0.218,0.922-0.218c0.71,0,1.284,0.321,1.284,0.717c0,0.186-0.128,0.363-0.355,0.496
	c0.088-0.012,0.178-0.018,0.268-0.019c0.58,0.001,1.101,0.252,1.309,0.632c0.857,0.134,1.469,0.666,1.47,1.279
	c-0.001,0.446-0.325,0.861-0.862,1.104c0.018,0.107,0.025,0.218,0.025,0.33c0,0.44-0.133,0.852-0.351,1.078
	c0.396,0.194,0.648,0.6,0.649,1.043c0,0.331-0.143,0.646-0.39,0.868c0.656,0.043,1.166,0.551,1.165,1.163
	c0,0.011-0.001,0.021-0.002,0.032c0.09-0.003,0.18-0.003,0.271-0.005c1.237,0,2.24,0.188,2.24,0.42l0,0
	c0,0.209-0.827,0.386-1.938,0.413c0.095,0.12,0.145,0.256,0.145,0.394c0,0.256-0.171,0.496-0.46,0.646
	c0.026,0.12,0.042,0.243,0.042,0.367c0,0.66-0.393,1.23-0.94,1.371c0.029,0.109,0.044,0.221,0.044,0.332
	c0,0.857-0.854,1.553-1.911,1.554l0,0c-0.028-0.001-0.06-0.002-0.089-0.003c-0.151,0.366-0.479,0.601-0.837,0.601
	c-0.075-0.001-0.148-0.011-0.223-0.032c0.086,0.127,0.133,0.271,0.133,0.42c0,0.16-0.053,0.317-0.152,0.45
	c0.407,0.279,0.67,0.837,0.688,1.456c0.356-0.055,0.745-0.083,1.138-0.083c1.518,0,2.747,0.414,2.748,0.925
	c0,0.467-1.032,0.861-2.407,0.919c0.091,0.194,0.137,0.399,0.138,0.604c0,0.533-0.31,1.044-0.851,1.404
	c0.126,0.291,0.192,0.606,0.192,0.925c0,0.182-0.022,0.361-0.064,0.537c0.313,0.267,0.482,0.592,0.483,0.928
	c-0.002,0.751-0.843,1.39-1.979,1.503c-0.438,0.837-1.58,1.394-2.859,1.394c-0.796,0-1.561-0.216-2.128-0.603
	c-0.295,0.233-0.661,0.362-1.038,0.363c-0.509-0.001-0.989-0.232-1.308-0.633c-0.442,0.408-0.992,0.632-1.56,0.633
	c-0.599-0.002-1.177-0.25-1.631-0.699c-0.395,0.604-1.056,1.021-1.813,1.141c-0.035,7.277-1.025,13.065-2.235,13.07
	c-1.204-0.009-2.191-5.749-2.234-12.992c-0.11,0.012-0.221,0.018-0.332,0.019c-1.288-0.003-2.481-0.755-3.154-1.987
	c-0.343,0.09-0.697,0.136-1.056,0.137c-0.376-0.002-0.75-0.053-1.106-0.152c-0.293,1.021-1.068,1.704-1.939,1.705
	c-0.32,0-0.637-0.094-0.924-0.273c-0.283,0.394-0.78,0.632-1.315,0.633c-0.577,0-1.105-0.277-1.374-0.719
	c-0.957-0.013-1.76-0.568-1.892-1.313c-1.168-0.005-2.111-0.806-2.111-1.793c0.001-0.065,0.006-0.131,0.016-0.196
	c-0.162,0.013-0.327,0.019-0.492,0.019c-1.451,0-2.628-0.429-2.628-0.956s1.177-0.955,2.628-0.955c0.004,0,0.009,0,0.013,0
	c-0.048-0.154-0.072-0.315-0.072-0.479c0-0.257,0.062-0.509,0.176-0.729c-0.446-0.077-0.773-0.477-0.773-0.942
	c0.001-0.073,0.009-0.146,0.025-0.218c-0.156,0.063-0.328,0.097-0.503,0.098c-0.627,0-1.136-0.414-1.136-0.926
	c0-0.377,0.281-0.717,0.711-0.856c-0.034-0.118-0.054-0.242-0.054-0.367c0-0.627,0.441-1.135,0.985-1.135c0,0,0,0,0.001,0
	c0.404,0,0.77,0.285,0.917,0.722c0.172-0.073,0.358-0.126,0.556-0.156c0.269-0.209,0.629-0.326,1.006-0.327
	c0.105,0.001,0.211,0.013,0.314,0.03c-0.05-0.105-0.075-0.217-0.075-0.328c0-0.136,0.036-0.27,0.107-0.394c0-0.001,0-0.002,0-0.003
	c-0.231-0.197-0.411-0.456-0.521-0.751c-0.097,0.047-0.199,0.07-0.302,0.07c-0.528,0-0.956-0.602-0.956-1.344v-0.001
	c0-0.071,0.004-0.143,0.013-0.213c-0.229-0.185-0.413-0.397-0.547-0.632c-0.402,0.476-1.01,0.813-1.703,0.945
	c0.007,0.064,0.011,0.13,0.011,0.193c0,0.694-0.359,1.306-0.884,1.499c-0.228,0.761-0.73,1.272-1.305,1.322
	c0.051,0.181,0.076,0.368,0.077,0.558c-0.001,0.683-0.331,1.306-0.854,1.615c0.277,0.385,0.433,0.895,0.433,1.426
	c0,0.227-0.029,0.45-0.084,0.664c0.573,0.264,0.929,0.751,0.929,1.278c-0.001,0.58-0.428,1.105-1.093,1.346
	c0.053,0.149,0.079,0.31,0.079,0.471c0,0.496-0.252,0.945-0.644,1.151c-0.173,0.517-0.758,0.876-1.427,0.876
	c-0.34,0-0.669-0.094-0.932-0.265c-0.3,0.563-1.073,0.939-1.94,0.939c-0.717-0.001-1.382-0.259-1.758-0.682
	c-0.407-0.026-0.803-0.131-1.158-0.307c0.057,0.693,0.087,1.448,0.087,2.214c0,2.916-0.416,5.278-0.929,5.278
	c-0.515,0-0.931-2.362-0.931-5.278l0,0c0.001-0.646,0.021-1.282,0.063-1.884c-0.473-0.256-0.808-0.808-0.887-1.458
	c-0.035,0.001-0.069,0.003-0.104,0.004c-0.532-0.001-1.056-0.081-1.53-0.238c-0.104,0.897-1.165,1.59-2.439,1.591
	c-0.357-0.001-0.711-0.057-1.034-0.164c-0.181,0.46-0.567,0.754-0.993,0.755c-0.123-0.001-0.244-0.025-0.359-0.075
	c-0.248,0.475-0.629,0.751-1.033,0.751c-0.725,0-1.311-0.869-1.311-1.941c0-0.27,0.038-0.533,0.111-0.779
	c-0.553-0.646-0.87-1.579-0.871-2.558c0-0.337,0.039-0.671,0.113-0.992c-0.396-0.149-0.733-0.45-0.95-0.851
	c-0.834-0.146-1.444-0.903-1.444-1.791c0-0.471,0.176-0.923,0.487-1.262c-0.197-0.163-0.349-0.359-0.446-0.578
	c-1.049-0.124-1.813-0.736-1.814-1.454c0.001-0.305,0.142-0.601,0.4-0.849c-0.26-0.331-0.399-0.729-0.4-1.137
	c0-1.073,0.946-1.943,2.112-1.943l0,0c0.216,0.001,0.43,0.031,0.635,0.091c-0.186-0.397-0.324-0.819-0.416-1.258
	c-0.061-0.18-0.091-0.371-0.092-0.563c-0.018-0.152-0.027-0.306-0.032-0.459c-0.072,0.023-0.146,0.035-0.223,0.035
	c-0.424,0-0.781-0.361-0.837-0.846c-0.01,0.001-0.019,0.002-0.027,0.002c-0.502,0-0.908-0.406-0.908-0.907c0,0,0,0,0-0.001
	c0-0.194,0.063-0.384,0.179-0.541c-0.492-0.3-0.77-0.705-0.771-1.127c0.001-0.066,0.009-0.135,0.022-0.202
	c-1.497-0.199-2.513-0.773-2.516-1.424c0-0.764,1.388-1.405,3.225-1.49c0.089-0.37,0.575-0.643,1.147-0.643
	c0.016,0,0.03,0.001,0.046,0.002c-0.099-0.087-0.152-0.19-0.152-0.297c0-0.28,0.359-0.507,0.804-0.507l0,0
	c0.063,0,0.127,0.005,0.188,0.015c0.03-0.118,0.071-0.227,0.122-0.321c-0.17-0.176-0.269-0.435-0.269-0.707
	c0-0.514,0.34-0.93,0.76-0.93c0.109,0,0.219,0.029,0.317,0.086c-0.015-0.056-0.021-0.113-0.021-0.17
	c0-0.191,0.078-0.373,0.216-0.501c-0.294-0.171-0.486-0.5-0.507-0.868c-0.051,0.011-0.103,0.018-0.152,0.019
	c-0.523,0-0.95-0.55-0.95-1.227l0,0c0-0.626,0.366-1.15,0.851-1.218c-0.141-0.155-0.216-0.343-0.216-0.535
	c0-0.501,0.501-0.908,1.119-0.908l0,0c0.26,0.001,0.511,0.074,0.711,0.209c0.05-0.241,0.237-0.459,0.521-0.6
	c-0.013-0.035-0.022-0.071-0.033-0.107c-0.303-0.07-0.501-0.24-0.502-0.431c0.001-0.213,0.251-0.398,0.607-0.45
	c0.029-0.055,0.063-0.105,0.101-0.153c-0.076-0.191-0.116-0.404-0.116-0.62c0-0.407,0.142-0.792,0.384-1.05
	c-0.141-0.153-0.213-0.332-0.214-0.515c0-0.169,0.063-0.335,0.185-0.48c-0.024-0.017-0.048-0.031-0.071-0.049
	c-0.15,0.042-0.33,0.064-0.515,0.065c-0.502,0-0.908-0.161-0.908-0.359l0,0c0-0.197,0.406-0.358,0.908-0.358l0,0
	c0.036,0,0.073,0.001,0.109,0.003c-0.004-0.022-0.007-0.044-0.008-0.066c0-0.523,0.529-0.95,1.184-0.95
	c0.179,0,0.355,0.033,0.518,0.098c-0.007-0.054-0.011-0.106-0.011-0.16c0-0.433,0.217-0.781,0.485-0.781l0,0
	c0.254,0.001,0.464,0.315,0.482,0.722c0.11-0.029,0.226-0.046,0.34-0.046c0.5,0.001,0.945,0.293,1.113,0.729
	c0.194,0.021,0.38,0.077,0.545,0.163c-0.007-0.06-0.011-0.116-0.011-0.175c0-1.073,1.059-1.942,2.365-1.942l0,0
	c0.383,0,0.761,0.076,1.1,0.223c0.01-0.218,0.365-0.392,0.801-0.392c0.133,0,0.264,0.016,0.379,0.047
	c0.456-0.536,1.158-0.85,1.902-0.85c0.375,0,0.744,0.079,1.08,0.232c0.11-0.146,0.29-0.232,0.481-0.232L80.243,397.05z"/>
<path id="path5564-4" inkscape:connector-curvature="0" fill="#866940" d="M160.817,411.847l-12.044,1.403
	c0,0-1.215,0.198-1.283,0.237c-0.067,0.04-0.183,0.229-0.183,0.229c-0.01,0-0.019,0.003-0.026,0.004
	c-0.322,0.038-0.554,0.322-0.516,0.634l0,0c0.038,0.311,0.327,0.529,0.649,0.492c0.001,0,0.002,0,0.003,0s0.001-0.001,0.002-0.001
	l0.745-0.1c-0.425,4.563-0.52,7.128-0.495,8.567c-0.542,0.073-2.031,0.264-3.224,0.428l-0.521-4.24
	c-0.021-0.169-0.175-0.29-0.344-0.269l-0.135,0.017l-0.618-5.044l-0.372,0.046l0.619,5.044l-0.102,0.013
	c-0.169,0.021-0.288,0.174-0.269,0.343l0.521,4.266c0.006,0.049-8.513,1.947-8.313,3.562l0.333,2.71c-0.001,0-0.003,0-0.004,0
	l0.16,1.29c0.623-0.304,1.291-0.503,1.979-0.591c0.214-0.022,0.428-0.035,0.642-0.037l2.729,0.55
	c1.561,0.702,2.77,2.005,3.354,3.611l0.068-0.011l7.255-0.889l2.088-0.257l0.481-0.059c-0.121-0.417-0.211-0.843-0.269-1.272
	c-0.572-4.674,2.752-8.927,7.426-9.5h0.001c4.674-0.572,8.927,2.752,9.5,7.425c0.051,0.433,0.068,0.865,0.053,1.299l2.572-0.314
	c0-0.434-0.026-0.865-0.076-1.296c-0.673-5.427-5.197-9.556-10.663-9.728l-2.306-7.273l-0.044-0.02l1.172-0.122l-0.065-0.938
	L160.817,411.847L160.817,411.847z M158.981,413.653l2.097,6.871l-3.959,0.524l-0.932-7.104
	C156.42,413.944,158.981,413.653,158.981,413.653z M155.08,414.061l0.814,7.278l-1.979,1.747c0,0-4.599,0.406-4.772,0.465
	c-0.176,0.059,0.174-8.269,0.29-8.617c0.116-0.35,0.175-0.351,0.175-0.351L155.08,414.061L155.08,414.061z M161.791,423.586
	c-0.187,0.01-0.372,0.024-0.558,0.049c-4.337,0.53-7.423,4.479-6.892,8.814c0,0.001,0,0.001,0,0.001
	c0.532,4.338,4.479,7.423,8.816,6.892h0.001c4.336-0.532,7.42-4.479,6.889-8.815C169.545,426.403,165.939,423.373,161.791,423.586
	L161.791,423.586z M137.876,431.733c-0.129,0.007-0.257,0.02-0.385,0.034c-2.991,0.367-5.118,3.089-4.752,6.08
	c0.367,2.991,3.089,5.119,6.08,4.753l0,0c2.991-0.367,5.119-3.09,4.752-6.081l0,0C143.223,433.678,140.737,431.588,137.876,431.733
	L137.876,431.733z"/>
<path id="path10414" inkscape:connector-curvature="0" fill="#956940" d="M179.724,433.2l-12.399,14.199l161.2-1.6l-5.399-38.801
	L204.325,433L179.724,433.2z"/>
<path id="path5605-9" inkscape:connector-curvature="0" fill="#FFFFFF" d="M210.073,375.186c-1.51,2.379,1.327,6.771,2.287,8.006
	c0.961,1.234,3.935,5.352,3.248,6.404c-0.688,1.052-0.732,0.867-0.732,0.867s-0.914,0-0.594,0.412
	c0.319,0.412,0.229,0.869,0.64,1.053c0.412,0.184,0.823,0.595,2.06,0.365c1.235-0.229,2.333,0.32,2.333,0.32
	s0.366-0.274,0.183-0.595c-0.183-0.32,3.248,0.366,2.15-0.184c-1.099-0.549-2.014-0.412-2.333-0.365
	c-0.32,0.046-0.642-0.229,0.273-0.869c0.915-0.641,3.89-2.379,6.177-2.563c2.286-0.183,5.718-0.823,6.998-1.646
	c1.28-0.823-0.365,0.137-3.889,0.64c-3.521,0.504-7.685,0.915-8.828,1.693c-1.144,0.776-1.234,1.463-1.876,1.463
	c-0.641,0-0.73-0.091-0.869-0.594c-0.137-0.505,0.366-0.824,0.139-1.647c-0.229-0.823-1.281-2.379-2.425-4.162
	c-0.117-0.183-0.245-0.336-0.38-0.478l0.021-0.01c0,0-1.523-1.439-2.642-2.691c-0.149-0.231-0.473-0.818-1.125-2.41
	C210.25,375.317,210.073,375.186,210.073,375.186L210.073,375.186z"/>
<path id="path5616-0" inkscape:connector-curvature="0" fill="#FFFFFF" d="M184.084,371.77c-0.476,0.749,0.417,2.132,0.721,2.521
	c0.303,0.39,1.237,1.686,1.021,2.017s-0.229,0.272-0.229,0.272s-0.288,0-0.188,0.13c0.103,0.13,0.072,0.273,0.202,0.331
	c0.13,0.059,0.259,0.188,0.646,0.115c0.391-0.071,0.735,0.102,0.735,0.102s0.115-0.087,0.058-0.188
	c-0.057-0.101,1.022,0.115,0.678-0.058c-0.346-0.174-0.635-0.131-0.734-0.115c-0.102,0.015-0.202-0.072,0.086-0.273
	c0.288-0.202,1.225-0.749,1.944-0.807c0.72-0.059,1.8-0.26,2.203-0.52c0.402-0.259-0.115,0.043-1.225,0.201
	c-1.108,0.159-2.42,0.288-2.779,0.533s-0.39,0.461-0.591,0.461s-0.229-0.029-0.272-0.188c-0.044-0.158,0.115-0.26,0.043-0.52
	c-0.072-0.259-0.403-0.748-0.763-1.311c-0.037-0.058-0.078-0.105-0.12-0.149l0.007-0.003c0,0-0.479-0.453-0.832-0.848
	c-0.047-0.072-0.148-0.259-0.354-0.76C184.14,371.811,184.084,371.77,184.084,371.77L184.084,371.77z"/>
<path id="rect10452" fill="#00281F" d="M57.895,462.622h308.299c2.266,0,4.102,1.838,4.102,4.103l0,0
	c0,2.265-1.836,4.102-4.102,4.102H57.895c-2.266,0-4.103-1.837-4.103-4.102l0,0C53.793,464.46,55.63,462.622,57.895,462.622z"/>
<path id="rect10469" fill="#FFFFFF" d="M243.691,413.298h1.9c0.14,0,0.253,0.113,0.253,0.252v2.044c0,0.139-0.113,0.251-0.253,0.251
	h-1.9c-0.14,0-0.251-0.112-0.251-0.251v-2.044C243.44,413.411,243.553,413.298,243.691,413.298z"/>
<g>
	<path fill-rule="evenodd" clip-rule="evenodd" fill="#97C94E" d="M180.163,436.649c1.917-1.261,3.871-2.47,5.722-3.818
		c0.451-0.329,0.402-1.242,1.237-1.344c4.661-0.57,5.811-1.299,7.896-4.975c1.454,1.58,0.805,4.849,4.024,5.011
		c-0.322,3.028,3.633,3.707,3.595,6.975c1.174-3.085,4.083-2.668,6.114-3.319c1.699-0.545,4.85-1.443,6.287,2.099
		c0.415-2.257,0.83-4.514,1.244-6.77c0.517-0.18,0.949-0.007,1.347,0.317c0.792,0.646,0.959,1.663,1.472,2.475
		c-0.085-1.06-0.865-2.117-0.009-3.18c1.647-1.532-0.127-4.026,1.727-5.549c2.168,0.202,0.496,3.051,2.238,3.645
		c1.098,0.627,1.947,1.649,3.208,2.017c2.142-3.661,5.062-1.807,7.198-0.485c4.78,2.955,6.833,2.031,7.522-4.283
		c3.298,1.034,4.359,6.193,8.836,4.759c3.822-1.224,3.728-6.152,8.492-8.184c-3.702,3.938-1.966,5.721,1.113,6.881
		c2.413,0.91,7.212-2.792,7.998-6.053c1.694,0.124,1.39,2.158,2.613,2.731c2.768,0.778,3.313-1.378,4.152-3.146
		c0.338-0.833,0.676-1.667,1.073-2.647c1.636,1.215,1.703,2.938,2.061,4.535c0.025,0.112,0.229,0.251,0.356,0.259
		c0.139,0.008,0.286-0.123,0.43-0.192c0.622-0.662,1.349-0.146,2.025-0.181c1.731,1.883,1.261,5.034,3.593,6.527
		c1.074-0.344,1.226-1.123,1.485-1.935c0.06-0.187-1.155-3.826,1.521-0.92c1.263,1.37,3.245,0.966,4.173-1.312
		c0.416-1.02,1.322-1.839,2.347-3.204c1.176,4.384,3.824,5.811,7.742,4.914c1.008-3.494,3.867-2.033,6.09-2.275
		c0.886-0.509,0.999,2.005,2.128,0.545c1.31-0.769,1.737-2.28,2.768-3.284c1.012-4.82,4.077-3.487,6.88-2.118
		c1.357,0.663,1.217,0.952,2.074-0.523c1.353,0.505,1.73,1.602,1.756,2.906c0.819-0.944-1.121-3.066,1.41-3.276
		c0.329,0.038,0.728-0.03,0.978,0.132c4.939,3.195,8.067,1.608,9.501-4.184c2.68,2.134,4.283,4.76,7.272,5.611
		c0.553,0.157,1.123,1.271,1.18,1.985c0.74,9.192,1.369,18.395,2.07,27.59c0.313,4.104-2.717,2.932-4.748,2.935
		c-39.281,0.046-78.563,0.034-117.844,0.034c-47.938,0-95.874,0-143.811,0c-8.774,0-8.937-0.179-8.399-9.269
		c1.285,0.213,0.941,2.857,2.125,2.126c2.455-1.517,0.063-4.246,1.125-6.237c0.982,1.003,0.077,3.801,2.837,3.562
		c2.074-0.18,1.709-3.049,3.69-3.317c1.575,0.759,2.602,2.319,4.279,2.929c4.877-1.147,10.136-0.628,14.663-3.282
		c2.047-1.2,1.27-3.713,2.592-5.587c0.508,2.981,3.341,4.548,3.727,7.806c0.257,2.174,4.787,2.199,4.874,1.982
		c1.705-4.252,3.995-1.414,6.199-0.808c2.611,0.717,5.034,0.239,6.046-2.664c1.137-3.261,2.339-1.614,3.632-0.215
		c2.118,2.031,5.177,2.297,7.51,3.963c0.33,0.236,0.99-0.659,1.472-1.063c-0.271-0.992-1.845-1.939-0.101-2.999
		c2.104-1.479,4.387-2.829,4.205-5.929c-0.187-1.282-0.41-2.569,0.928-4.33c0.262,3.552,3.731,3.458,5.16,5.938
		c1.272,2.211,1.755-1.813,2.35-1.177c1.771,1.898,4.487-0.307,6.224,1.896c0.95,1.204,2.76,1.671,4.37,0.162
		c1.558-1.461,2.925-2.84,1.504-5.527c4.295,3.198,8.071,9.614,13.342,1.765C175.39,435.04,177.398,436.901,180.163,436.649z"/>
	<path fill-rule="evenodd" clip-rule="evenodd" fill="#C1DF95" d="M139.176,435.372c0.861,4.884-0.461,6.749-4.204,5.929
		c-0.609-1.835,1.817-4.013-0.771-5.689c-1.363-0.884-0.006-1.066,0.594-1.451c1.266-0.812,2.085-0.588,2.626,0.849
		C137.439,435.055,137.944,438.685,139.176,435.372z"/>
	<path fill-rule="evenodd" clip-rule="evenodd" fill="#C1DF95" d="M180.163,436.649c-3.114,1.224-5.749,1.114-7.11-2.551
		c-0.328-2.483,1.792-3.151,3.75-4.719C172.768,434.772,178.825,434.376,180.163,436.649z"/>
	<path fill-rule="evenodd" clip-rule="evenodd" fill="#C1DF95" d="M219.094,430.12c0.649,2.244,2.182,4.545-0.453,6.86
		c-0.921-2.285-0.308-4.892-2.356-6.473c0.235-1.674,0.472-3.347,0.915-6.498C218.107,426.938,218.6,428.529,219.094,430.12z"/>
	<path fill-rule="evenodd" clip-rule="evenodd" fill="#C1DF95" d="M135.073,444.3c-0.487,1.192-0.974,2.385-1.834,4.493
		c-0.619-4.952-6.375-3.299-7.148-7.393C129.364,441.503,132.151,443.108,135.073,444.3z"/>
	<path fill-rule="evenodd" clip-rule="evenodd" fill="#C1DF95" d="M307.089,426.022c-0.896,0.632-1.173,2.931-2.932,1.257
		c-1.822-1.733-2.047,0.89-3.157,1.019c0.512-1.344-1.122-3.818,1.139-3.942C303.6,424.274,306.43,422.755,307.089,426.022z"/>
	<path fill-rule="evenodd" clip-rule="evenodd" fill="#B7D290" d="M84.359,444.168c-2.359,0.389-4.198,0.015-4.279-2.928
		c-0.232-1.823,1.103-2.446,3.326-3.83C81.222,440.727,84.294,441.975,84.359,444.168z"/>
	<path fill-rule="evenodd" clip-rule="evenodd" fill="#C1DF95" d="M199.044,431.523c-4.358,0.752-3.159-2.958-4.023-5.012
		c1.652-1.138,1.651,1.846,3.09,1.24C198.422,429.009,198.732,430.265,199.044,431.523z"/>
	<path fill-rule="evenodd" clip-rule="evenodd" fill="#C1DF95" d="M324.104,420.271c-0.342,1.642-0.298,3.395-1.682,4.659
		c-0.438-1.268-0.961-2.778-1.483-4.289C321.898,419.7,322.708,417.483,324.104,420.271z"/>
	<path fill-rule="evenodd" clip-rule="evenodd" fill="#C1DF95" d="M280.138,424.226c-0.545,1.519-1.343,0.203-2.024,0.18
		c0.01-0.329-0.066-0.691,0.045-0.982c0.4-1.053-0.89-2.462,0.688-3.253c0.481,1.319,1.483-0.474,2.283,0.469
		C282.722,422.516,279.465,422.782,280.138,424.226z"/>
	<path fill-rule="evenodd" clip-rule="evenodd" fill="#C1DF95" d="M311.984,423.283c-1.084,0.958,1.342,4.875-2.768,3.283
		C309.251,424.723,307.851,421.673,311.984,423.283z"/>
	<path fill-rule="evenodd" clip-rule="evenodd" fill="#C1DF95" d="M226.266,430.232c-2.329,1.333-2.997,0.022-3.207-2.017
		c0.083-0.667,0.364-1.655,0.963-1.448C225.536,427.29,225.931,428.799,226.266,430.232z"/>
	<path fill-rule="evenodd" clip-rule="evenodd" fill="#C1DF95" d="M274.192,422.453c-0.269,2.521,0.373,6.245-4.152,3.146
		C271.425,424.55,272.808,423.502,274.192,422.453z"/>
</g>
<path id="rect10471" fill="#FFFFFF" d="M248.641,413.298h1.9c0.14,0,0.251,0.113,0.251,0.252v2.044c0,0.139-0.111,0.251-0.251,0.251
	h-1.9c-0.14,0-0.252-0.112-0.252-0.251v-2.044C248.389,413.411,248.502,413.298,248.641,413.298z"/>
<path id="rect10473" fill="#FFFFFF" d="M263.319,406.511h0.547c0.2,0,0.363,0.162,0.363,0.362v2.951c0,0.2-0.163,0.362-0.363,0.362
	h-0.547c-0.2,0-0.363-0.162-0.363-0.362v-2.951C262.955,406.673,263.118,406.511,263.319,406.511z"/>
<ellipse id="path10481" fill="#FFFFFF" cx="227.246" cy="419.238" rx="0.92" ry="0.849"/>
<ellipse id="ellipse10483" fill="#FFFFFF" cx="318.605" cy="387.701" rx="1.909" ry="1.762"/>
<path id="rect10492" fill="#FFFFFF" d="M290.784,406.368h1.901c0.139,0,0.251,0.113,0.251,0.252v2.043
	c0,0.14-0.112,0.251-0.251,0.251h-1.901c-0.139,0-0.252-0.111-0.252-0.251v-2.043C290.533,406.481,290.646,406.368,290.784,406.368z
	"/>
<path id="rect10494" fill="#FFFFFF" d="M295.734,406.368h1.901c0.14,0,0.252,0.113,0.252,0.252v2.043
	c0,0.14-0.112,0.251-0.252,0.251h-1.901c-0.139,0-0.251-0.111-0.251-0.251v-2.043C295.483,406.481,295.596,406.368,295.734,406.368z
	"/>
<path id="rect10496" fill="#FFFFFF" d="M270.713,404.388h1.269c0.092,0,0.167,0.074,0.167,0.168v1.36
	c0,0.093-0.075,0.168-0.167,0.168h-1.269c-0.093,0-0.168-0.075-0.168-0.168v-1.36C270.545,404.464,270.62,404.388,270.713,404.388z"
	/>
<path id="rect10498" fill="#FFFFFF" d="M274.013,404.388h1.268c0.093,0,0.167,0.074,0.167,0.168v1.36
	c0,0.093-0.074,0.168-0.167,0.168h-1.268c-0.094,0-0.168-0.075-0.168-0.168v-1.36C273.846,404.464,273.92,404.388,274.013,404.388z"
	/>
<path id="rect10500" fill="#FFFFFF" d="M273.965,404.388h1.269c0.093,0,0.168,0.074,0.168,0.168v1.36
	c0,0.093-0.075,0.168-0.168,0.168h-1.269c-0.092,0-0.167-0.075-0.167-0.168v-1.36C273.798,404.464,273.873,404.388,273.965,404.388z
	"/>
<path id="rect10502" fill="#FFFFFF" d="M277.266,404.388h1.268c0.092,0,0.167,0.074,0.167,0.168v1.36
	c0,0.093-0.075,0.168-0.167,0.168h-1.268c-0.094,0-0.168-0.075-0.168-0.168v-1.36C277.098,404.464,277.173,404.388,277.266,404.388z
	"/>
<path id="path10504" inkscape:connector-curvature="0" fill="#98CA4E" d="M336.025,422.235c-8.009,0-14.5,11.864-14.5,26.5
	c0.006,0.97,0.04,1.938,0.104,2.9h28.803c0.06-0.963,0.091-1.932,0.093-2.9C350.525,434.099,344.033,422.235,336.025,422.235z"/>
<g id="g10535" transform="translate(-740.74546,-22.786959)">
	<path id="path10509" inkscape:connector-curvature="0" fill="#155818" d="M1014.349,380.831c-0.016,0-0.03,0.002-0.047,0.004
		l-0.011-0.001v0.002c-0.783,0.065-1.402,1.436-1.402,3.102c0.001,1.663,0.617,3.028,1.398,3.099v0.004l0.019-0.001
		c0.016,0.002,0.028,0.004,0.043,0.005c0.063-0.001,0.128-0.012,0.19-0.029l7.811-0.856l0,0c0.567-0.023,1.022-1.011,1.022-2.219
		c-0.001-1.177-0.434-2.147-0.985-2.213v-0.004l-7.851-0.86C1014.474,380.841,1014.412,380.832,1014.349,380.831L1014.349,380.831z"
		/>
	<path id="path10521" inkscape:connector-curvature="0" fill="#284098" d="M1060.413,380.831c0.016,0,0.031,0.002,0.047,0.004
		l0.011-0.001v0.002c0.783,0.065,1.401,1.436,1.402,3.102c-0.001,1.663-0.617,3.028-1.398,3.099v0.004l-0.019-0.001
		c-0.015,0.002-0.029,0.004-0.043,0.005c-0.063-0.001-0.128-0.012-0.191-0.029l-7.81-0.856l0,0
		c-0.568-0.023-1.022-1.011-1.022-2.219c0.001-1.177,0.434-2.147,0.985-2.213v-0.004l7.85-0.86
		C1060.287,380.841,1060.35,380.832,1060.413,380.831L1060.413,380.831z"/>
	<path id="path10523" inkscape:connector-curvature="0" fill="#841E04" d="M1034.526,361.256c0.001-0.017,0.002-0.031,0.004-0.048
		l-0.001-0.011h0.002c0.064-0.783,1.435-1.4,3.101-1.402c1.663,0.002,3.029,0.617,3.101,1.398h0.004l-0.002,0.02
		c0.002,0.015,0.004,0.028,0.005,0.043c-0.001,0.063-0.012,0.128-0.03,0.19l-0.855,7.811l0,0c-0.024,0.567-1.012,1.021-2.22,1.021
		c-1.177-0.001-2.146-0.433-2.213-0.985h-0.004l-0.86-7.851C1034.537,361.382,1034.527,361.318,1034.526,361.256L1034.526,361.256z"
		/>
	<path id="path10525" inkscape:connector-curvature="0" fill="#EE9628" d="M1034.526,407.418c0.001,0.017,0.002,0.031,0.004,0.048
		l-0.001,0.012h0.002c0.064,0.782,1.435,1.4,3.101,1.401c1.663-0.001,3.029-0.617,3.101-1.397h0.004l-0.002-0.021
		c0.002-0.014,0.004-0.027,0.005-0.043c-0.001-0.063-0.012-0.127-0.03-0.189l-0.855-7.812l0,0c-0.024-0.566-1.012-1.021-2.22-1.021
		c-1.177,0.001-2.146,0.434-2.213,0.984h-0.004l-0.86,7.852C1034.537,407.293,1034.527,407.355,1034.526,407.418L1034.526,407.418z"
		/>
	<path id="path10527" inkscape:connector-curvature="0" fill="#8DC74D" d="M1021.894,371.582c-0.007-0.007-0.013-0.015-0.019-0.021
		l-0.006-0.005h0.001c-0.321-0.38,0.015-1.271,0.76-2.016c0.744-0.743,1.631-1.079,2.012-0.761l0.001-0.002l0.01,0.01
		c0.007,0.005,0.014,0.012,0.021,0.018c0.028,0.028,0.053,0.063,0.072,0.099l3.109,3.877l0,0c0.243,0.265,0.006,0.909-0.534,1.45
		c-0.526,0.525-1.154,0.767-1.432,0.549l-0.001,0.002l-3.896-3.127C1021.956,371.633,1021.923,371.609,1021.894,371.582
		L1021.894,371.582z"/>
	<path id="path10529" inkscape:connector-curvature="0" fill="#EE9628" d="M1052.805,371.582c0.007-0.007,0.014-0.015,0.02-0.021
		l0.006-0.005h-0.001c0.321-0.38-0.015-1.271-0.76-2.016c-0.744-0.743-1.631-1.079-2.012-0.761l-0.002-0.002l-0.009,0.01
		c-0.007,0.005-0.015,0.012-0.021,0.018c-0.027,0.028-0.052,0.063-0.071,0.099l-3.109,3.877l0,0
		c-0.243,0.265-0.007,0.909,0.534,1.45c0.526,0.525,1.153,0.767,1.432,0.549l0.001,0.002l3.896-3.127
		C1052.744,371.633,1052.777,371.609,1052.805,371.582L1052.805,371.582z"/>
	<path id="path10531" inkscape:connector-curvature="0" fill="#3491CF" d="M1052.805,396.835c0.007,0.009,0.014,0.017,0.02,0.023
		l0.006,0.005h-0.001c0.321,0.38-0.015,1.27-0.76,2.015c-0.744,0.743-1.631,1.078-2.012,0.762l-0.002,0.001l-0.009-0.009
		c-0.007-0.006-0.015-0.012-0.021-0.018c-0.027-0.029-0.052-0.063-0.071-0.1l-3.109-3.876l0,0c-0.243-0.267-0.007-0.909,0.534-1.45
		c0.526-0.525,1.153-0.768,1.432-0.549l0.001-0.002l3.896,3.127C1052.744,396.784,1052.777,396.807,1052.805,396.835
		L1052.805,396.835z"/>
	<path id="path10533" inkscape:connector-curvature="0" fill="#F6C830" d="M1021.394,396.835c-0.007,0.009-0.013,0.017-0.019,0.023
		l-0.006,0.005h0.001c-0.321,0.38,0.015,1.27,0.76,2.015c0.744,0.743,1.631,1.078,2.012,0.762l0.001,0.001l0.01-0.009
		c0.007-0.006,0.014-0.012,0.021-0.018c0.028-0.029,0.053-0.063,0.072-0.1l3.109-3.876l0,0c0.243-0.267,0.006-0.909-0.534-1.45
		c-0.526-0.525-1.154-0.768-1.432-0.549l-0.001-0.002l-3.896,3.127C1021.456,396.784,1021.423,396.807,1021.394,396.835
		L1021.394,396.835z"/>
</g>
<path id="rect9237-9" fill="#DBF834" d="M69.188,450.178h281.47c2.488,0,4.505,2.018,4.505,4.505v1.173
	c0,2.488-2.017,4.505-4.505,4.505H69.188c-2.488,0-4.505-2.017-4.505-4.505v-1.173C64.683,452.194,66.699,450.178,69.188,450.178z"
	/>
</svg>
