<?xml version="1.0" encoding="utf-8"?>
<!-- Generator: Adobe Illustrator 16.0.0, SVG Export Plug-In . SVG Version: 6.00 Build 0)  -->
<!DOCTYPE svg PUBLIC "-//W3C//DTD SVG 1.1 Tiny//EN" "http://www.w3.org/Graphics/SVG/1.1/DTD/svg11-tiny.dtd">
<svg version="1.1" baseProfile="tiny" xmlns="http://www.w3.org/2000/svg" xmlns:xlink="http://www.w3.org/1999/xlink" x="0px"
	 y="0px" width="255.382px" height="255.382px" viewBox="0 0 255.382 255.382" xml:space="preserve">
<g id="Layer_1">
	<g>
		
			<rect x="64.534" y="74.974" transform="matrix(0.9858 -0.168 0.168 0.9858 -22.3546 20.7883)" fill-rule="evenodd" fill="#4D4D4D" width="94.37" height="135.153"/>
		
			<rect x="69.078" y="81.244" transform="matrix(0.9858 -0.168 0.168 0.9858 -22.4918 20.9324)" fill-rule="evenodd" fill="#CBCBCB" width="86.845" height="124.375"/>
		
			<rect x="67.924" y="80.427" transform="matrix(0.9858 -0.1679 0.1679 0.9858 -22.3682 20.7239)" fill-rule="evenodd" fill="#FEF7E6" width="86.845" height="124.375"/>
		
			<rect x="80.81" y="72.857" transform="matrix(0.9858 -0.168 0.168 0.9858 -11.7563 18.0471)" fill-rule="evenodd" fill="#FED564" width="40" height="11.331"/>
		
			<rect x="84.604" y="76.649" transform="matrix(0.9858 -0.1679 0.1679 0.9858 -11.7555 18.0456)" fill-rule="evenodd" fill="#FEF7EA" width="32.412" height="3.749"/>
		
			<rect x="66.29" y="95.69" transform="matrix(0.9858 -0.1679 0.1679 0.9858 -15.1463 14.9031)" fill-rule="evenodd" fill="#4D4D4D" width="28.5" height="2.625"/>
		
			<rect x="69.688" y="113.656" transform="matrix(0.9858 -0.168 0.168 0.9858 -17.7848 19.6604)" fill-rule="evenodd" fill="#4D4D4D" width="75.291" height="2.625"/>
		
			<rect x="67.146" y="100.714" transform="matrix(0.9858 -0.168 0.168 0.9858 -15.9793 15.1198)" fill-rule="evenodd" fill="#4D4D4D" width="28.5" height="2.625"/>
		
			<rect x="68.028" y="105.89" transform="matrix(0.9858 -0.168 0.168 0.9858 -16.836 15.3415)" fill-rule="evenodd" fill="#4D4D4D" width="28.5" height="2.625"/>
		
			<rect x="70.57" y="118.831" transform="matrix(0.9858 -0.1679 0.1679 0.9858 -18.6404 19.8805)" fill-rule="evenodd" fill="#4D4D4D" width="75.29" height="2.624"/>
		
			<rect x="71.624" y="126.051" transform="matrix(0.9858 -0.168 0.168 0.9858 -20.0131 18.1176)" fill-rule="evenodd" fill="#4D4D4D" width="50.937" height="2.624"/>
		
			<rect x="72.326" y="129.14" transform="matrix(0.9858 -0.168 0.168 0.9858 -20.3476 20.3232)" fill-rule="evenodd" fill="#4D4D4D" width="75.292" height="2.625"/>
		
			<rect x="73.208" y="134.314" transform="matrix(0.9858 -0.168 0.168 0.9858 -21.2059 20.5466)" fill-rule="evenodd" fill="#4D4D4D" width="75.291" height="2.625"/>
		
			<rect x="74.089" y="139.489" transform="matrix(0.9858 -0.1679 0.1679 0.9858 -22.0591 20.7644)" fill-rule="evenodd" fill="#4D4D4D" width="75.292" height="2.625"/>
		
			<rect x="75.324" y="148.847" transform="matrix(0.9858 -0.168 0.168 0.9858 -23.9775 16.93)" fill-rule="evenodd" fill="#4D4D4D" width="25.469" height="2.625"/>
		
			<rect x="75.853" y="149.84" transform="matrix(0.9858 -0.1679 0.1679 0.9858 -23.7721 21.2075)" fill-rule="evenodd" fill="#4D4D4D" width="75.293" height="2.623"/>
		
			<rect x="76.974" y="157.852" transform="matrix(0.9858 -0.1679 0.1679 0.9858 -25.3399 18.6704)" fill-rule="evenodd" fill="#4D4D4D" width="41.499" height="2.625"/>
		
			<rect x="78.068" y="162.841" transform="matrix(0.9858 -0.168 0.168 0.9858 -25.928 21.7679)" fill-rule="evenodd" fill="#4D4D4D" width="75.293" height="2.625"/>
		
			<rect x="112.501" y="165.178" transform="matrix(0.9858 -0.1679 0.1679 0.9858 -26.0656 24.7402)" fill-rule="evenodd" fill="#4D4D4D" width="41.499" height="2.625"/>
		<path fill-rule="evenodd" fill="#060404" d="M146.812,182.39c-0.336,0.361-0.67,0.721-1.004,1.082
			c-0.666,0.434-1.332,0.865-1.996,1.301c-0.667,0.057-1.24-0.225-1.824-0.488c-0.695-0.314-1.172-0.346-1.255,0.68
			c-0.111,1.383-0.525,1.623-1.896,1.332c-0.355-0.078-0.876-0.258-0.962,0.107c-0.439,1.869-1.042,0.43-1.596,0.121
			c-0.326-0.182-0.621-0.734-0.969,0.061c-0.302,0.695,0.132,2.369-1.65,1.457c-0.099-0.051-0.33,0.197-0.514,0.266
			c-0.399,0.148-0.699,0.52-1.204,0.521c-0.774-2.201-1.145-4.469-1.213-6.803c-0.036-1.188,0.208-2.197,1.252-2.914
			c0.264-0.178,0.669-0.357,0.48-0.834c-0.86-0.102-1.504,0.225-1.86,1.004c-0.28,0.607-0.771,1.01-1.243,1.432
			c-1.999,1.781-3.82,3.738-5.643,5.689c-1.071,1.148-2.013,2.416-3.231,3.898c1.045-0.113,1.668-0.422,2.291-0.727
			c0.376-0.049,0.742-0.111,0.906-0.658c-0.462,0.113-0.834,0.207-1.205,0.299c-0.038-0.012-0.081-0.016-0.113-0.035
			c-0.029-0.02-0.07-0.076-0.065-0.082c0.294-0.354,0.587-0.709,0.891-1.053c2.146-2.43,4.331-4.816,6.884-7.08
			c-0.154,2.607-0.058,4.994,0.76,7.283c0.324,0.908,0.089,1.355-0.771,1.725c-0.948,0.406-1.833,0.959-2.738,1.463
			c-0.205,0.113-0.606,0.135-0.388,0.572c0.472,0.111,0.831-0.195,1.233-0.344c2.195-0.799,2.964-0.623,4.476,1.029
			c0.136,0.15,0.274,0.336,0.493,0.223c0.292-0.154,0.349-0.428,0.218-0.715c-0.265-0.58-0.571-1.143-0.81-1.734
			c-0.138-0.342-0.519-0.738-0.131-1.082c0.354-0.311,0.7-0.668,1.351-0.318c0.704,0.379,1.322-0.041,1.652-0.736
			c0.195-0.412,0.287-0.871,0.438-1.348c0.339,0.344,0.611,0.695,0.955,0.959c0.401,0.305,1.097,0.51,1.23-0.031
			c0.271-1.09,0.85-1.178,1.756-0.988c0.218,0.045,0.495-0.207,0.746-0.32c0.775-0.354,0.518-1.732,1.075-1.709
			c0.745,0.031,1.5,0.432,2.309,0.174c0.15-0.051,0.301-0.105,0.451-0.158c0.145-0.053,0.293-0.104,0.439-0.156
			c0.424-0.391,1-0.609,1.307-1.139l0.043,0.064l-0.043,0.064c0.098,0.033,0.195,0.027,0.287-0.018
			c0.225-0.162,0.215-0.439,0.334-0.656C146.788,182.847,147.483,182.685,146.812,182.39z M131.475,190.503
			c-0.307,0.201-0.634,0.242-0.971-0.055c0.242-0.297,0.499-0.506,0.87-0.35C131.456,190.134,131.517,190.474,131.475,190.503z"/>
	</g>
</g>
<g id="Layer_2">
	<g>
		<g>
			<path fill="#E6A66A" d="M61.585,30.209c0,0,6.891,7.236,7.8,9.377c0.909,2.142,2.002,3.261,2.025,5.429
				c0.022,2.168-0.113,6.07,0.937,9.945c1.049,3.875,2.183,6.973,3.893,9.993s4.25,6.208,5.228,7.028
				c0.978,0.821,4.989,2.526,5.996,2.825s18.091-2.561,19.493-3.229s-0.48-10.941-1.667-12.832
				c-1.186-1.89-24.502-26.407-25.82-28.261c-1.318-1.854-9.434-10.545-11.335-8.795"/>
			<path fill="#FDCB86" d="M109.275,65.074c0.972-0.257,1.999-0.271,2.713-1.212c0.714-0.94,0.474-0.931-0.18-2.042
				c-0.653-1.111-7.566-9.124-9.203-11.203c-1.637-2.078-10.082-11.927-11.509-13.279c-1.426-1.353-9.61-11.103-11.747-12.98
				c-2.137-1.878-6.601-6.806-7.202-7.051c-0.601-0.245-3.901,3.537-4.015,4.38c-0.115,0.844,11.252,12.919,11.649,13.693"/>
			<path fill="#FEC773" d="M65.34,24.495c0,0,9.372,13.642,9.256,14.838c-0.116,1.196-1.197,4.324-1.149,6.665
				c0.048,2.341,0.403,6.873,2.11,9.389c1.707,2.516,6.588,7.184,8.07,8.652c1.483,1.467,4.766,5.183,5.753,7.3
				c0.987,2.117,5.082,7.141,7.285,9.182c2.203,2.042,7.068,4.881,9.441,4.796s4.316-1.606,4.854-2.583
				c0.537-0.977,0.52-4.356-1.462-5.723c-1.982-1.367-6.698-5.844-7.872-7.261s-3.938-4.619-4.243-8.763s-0.127-5.229-0.127-5.229
				s1.917,2.657,2.933,4.318s3.855,6.657,4.668,8.129c0.813,1.471,3.001,4.954,3.912,4.638c0.91-0.316,4.022-3.608,2.571-7.206
				c-1.45-3.597-7.754-10.35-9.367-12.381c-1.613-2.032-14.632-16.637-15.396-17.38c-0.765-0.743-16.293-16.128-16.293-16.128"/>
			<path fill="#F0CCC2" d="M61.926,5.82L51.704,15.862l12.387,12.897c1.587-1.518,2.871-2.861,2.871-2.861s7.26-6.323,7.454-7.332
				C74.624,17.481,61.926,5.82,61.926,5.82z"/>
			<path fill="#E8AE9F" d="M46.088,21.378c0,0,11.214,11.154,12.258,11.581c0.782,0.32,3.553-2.106,5.745-4.2L51.704,15.862
				L46.088,21.378z"/>
			<path fill="#FECF86" d="M96.745,55.811c-0.505,1.459-1.678,6.867-0.71,9.887s3.364,7.084,6.939,9.991
				c3.576,2.907,5.654,5.955,6.305,6.565c0.65,0.61,1.153,1.161,1.153,1.161s1.656-1.439,1.018-3.247
				c-0.639-1.807-1.988-3.534-2.637-4.211c-0.649-0.677-6.005-6.343-7.142-7.86c-1.136-1.517-3.801-8.145-3.632-9.437
				c0.169-1.291-0.983-3.15-0.983-3.15L96.745,55.811z"/>
			<path fill-rule="evenodd" fill="#FEDAA0" d="M105.131,77.442c1.198-0.58,2.325-0.452,3.418,0.293c0.159,0.108,0,0,0.417,0.314
				c0.692,0.498,1.33,0.883,1.554,1.692c-0.005,0.952,0.443,2.011-0.64,2.71c-0.552,0.222-0.961-0.02-1.2-0.479
				c-0.579-1.109-1.466-1.861-2.563-2.413c-0.355-0.179-0.6-0.524-0.929-0.747C104.541,78.372,104.664,77.919,105.131,77.442z"/>
			<path fill-rule="evenodd" fill="#FED593" d="M109.821,82.357c-0.403,0.588-0.709,0.592-1.283,1.111
				c-1.931,1.252-4.039,0.584-4.94-1.566c-0.301-1.454-0.175-2.824,0.78-4.035l0,0c0.251-0.142,0.502-0.283,0.753-0.426
				c-0.479,1.323,0.781,1.544,1.42,1.962c0.944,0.616,1.855,1.18,2.285,2.264C109.023,82.138,109.322,82.37,109.821,82.357z"/>
		</g>
		<g>
			<path fill="#56497A" d="M48.802,20.644c3.247-3.072,6.529-6.63,6.529-6.63S65.437,5.167,65.809,3.87
				c0.084-0.294-0.953-1.708-2.598-3.707H31.779L48.802,20.644z"/>
			<path fill="#21194E" d="M21.738,0.164c4.073,5.221,19.302,24.604,21.1,24.854c0.912,0.127,3.427-1.974,5.963-4.374L31.779,0.164
				H21.738z"/>
		</g>
	</g>
</g>
<g id="MainSigne">
	<path fill="#010001" d="M153.085,180.643c-0.01-0.063-0.02-0.133-0.03-0.194c-0.156-0.877,0.013-1.462-0.875-2.027
		c-0.557-0.354-1.353-0.289-2.018-0.21l-0.035,0.029c-0.027,0.021-0.034,0.062-0.058,0.086l-0.012-0.017l-4.695,5.205
		c-0.019,0.015-0.026,0.038-0.039,0.059l-0.002-0.004l-0.655,1.034l1.13-0.268l-0.002-0.003c0.065,0.011,0.127,0.009,0.173-0.026
		l6.166-3.047l-0.001-0.001c0.078-0.023,0.151-0.058,0.216-0.106L153.085,180.643z"/>
	<g>
		<g>
			<path fill="#FDB35D" d="M201.743,211.823c0,0-6.755-9.221-8.113-12.919s-6.98-24.351-8.66-26.926s-20.902-11.68-24.59-11.421
				s-10.285,6.923-11.089,9.079s-1.093,5.352-0.555,6.501s0.792,1.725,1.77,1.604s3.772,0.123,3.854,0.974s-0.758,0.143-2.181-0.294
				s-2.585-0.164-3.599,0.521s-2.727,2.564-2.901,4s6.056,12.686,7.972,15.186s7.558,4.82,10.642,5.635s11.43,1.984,12.896,2.996
				s4.587,9.789,4.92,10.205"/>
			<path fill="#FEB866" d="M148.121,186.146c-0.329-1.288-1.655-4.364,0-5.062s3.941-1.403,5.09,0.241s2.629,4.521,5.473,4.802
				s7.631,0.704,8.903-3.352s-0.395-10.431-1.978-11.743s-5.102-1.474-6.926-0.977s-4.064,2.974-4.813,4.381
				s-1.588,2.69-2.427,3.055s-2.672,0.01-1.683-4.045s4.097-6.944,5.77-8.199s4.083-3.452,6.622-3.281s7.508,2.432,9.148,3.718
				s9.642,4.635,11.225,6.294s7.146,17.228,6.75,20.909s-2.292,6.957-2.015,8.416s2.23,2.737,4.07,5.794s3.11,7.123,3.11,7.123
				s-10.342,3.654-10.5,2.25s-3.684-10.083-4.675-12s-9.943-2.973-12.489-3.515s-11.915-3.608-13.364-5.425
				s-3.893-6.703-4.593-8.044S148.121,186.146,148.121,186.146z"/>
			<path fill="#DDE8F2" d="M215.942,227.92c0,0-10.306-16.618-11.819-17.33c-0.69-0.325-3.549,0.135-6.451,0.731l10.017,19.854
				L215.942,227.92z"/>
			<path fill="#EEF5FD" d="M207.688,231.175l-10.017-19.854c-3.458,0.709-6.979,1.611-6.979,1.611s-3.301,0.784-6.354,1.645
				l8.74,22.359L207.688,231.175z"/>
			<path fill="#F3F7FE" d="M179.295,216.443c-0.561,0.936,7.701,22.894,7.701,22.894l6.083-2.399l-8.74-22.359
				C181.86,215.276,179.546,216.024,179.295,216.443z"/>
			<path fill="#D88A44" d="M152.956,180.182c0.381,0.694,0.03,2.562,0.172,2.867s2.831,2.189,3.875,2.486s4.596,1.238,6.005,0.649
				s3.676-1.88,4.273-3.136s0.888-4.28,0.66-5.269s-1.358-4.873-1.814-5.764s-2.339-2.19-4.189-2.286s-3.503,0.741-4.643,1.341
				s-2.221,0.614-2.635,1.418s-1.18,2.391-1.719,3.563s-0.878,2.67-0.432,3.399S152.956,180.182,152.956,180.182z"/>
			<path fill-rule="evenodd" fill="#E09045" d="M165.923,173.537c-0.094,0.844,0.446,1.486,0.713,2.214
				c0.538,1.472,0.558,2.995,0.507,4.529c-0.006,0.077-0.008,0.155-0.008,0.232c-0.159,0.401-0.142,0.871-0.467,1.209
				c-0.656,1.701-1.718,2.969-3.595,3.367c-0.769,0.437-1.493,0.29-2.195-0.166c-0.281-1.415,0.357-2.61,0.963-3.792
				c0.902-1.759,2.48-2.857,4.235-4.075c-1.419,0.525-2.129,2.037-3.718,1.709c0.137,1.617-0.567,2.832-1.779,3.775
				c-0.27,0.21-0.361,0.383-0.271,0.688c0.114,0.386,0.211,0.773-0.044,1.146c-0.956,0.359-1.635-0.303-2.365-0.688
				c-0.684-0.36-1.325-0.935-1.444,0.448c-0.026,0.306-0.281,0.453-0.592,0.466c-0.38-0.04-0.71-0.183-0.969-0.472
				c0.033-0.845,0.438-1.61,0.523-2.443c0.047-0.104,0.116-0.19,0.203-0.264c0.217-0.086,0.506-0.104,0.567-0.379
				c0.346-1.534,1.403-2.765,1.807-4.273c0.523-0.593,1.261-0.814,1.949-1.119c1.492-0.662,3.018-1.249,4.52-1.89
				C164.913,173.569,165.377,173.209,165.923,173.537z"/>
		</g>
		<g>
			<path fill="#2D2D2D" d="M232.107,255.028c-2.403-5.316-12.811-28.224-13.915-28.717c-0.966-0.431-10.763,3.526-15.165,5.347
				l10.796,23.37H232.107z"/>
			<path fill="#444444" d="M213.823,255.028l-10.796-23.37c-1.293,0.535-2.126,0.888-2.126,0.888s-10.168,3.645-15.039,5.831
				l7.49,16.651H213.823z"/>
			<path fill="#666666" d="M185.862,238.376c-1.524,0.685-2.535,1.228-2.547,1.47c-0.037,0.762,3.211,7.544,7.004,15.182h3.033
				L185.862,238.376z"/>
		</g>
	</g>
	<g>
		<path fill="#CBCBCB" d="M178.956,163.867c0,0,0.353,0.282-0.347,0.756c-0.414,0.282-8.992,6.603-8.973,6.784
			c0.021,0.181,0.25,0.255,0.424,0.122s10.771-7.677,10.792-8.007c0.021-0.33-1.095-1.723-1.095-1.723l-0.162,0.116l-1.375,0.99
			C178.223,162.908,178.822,163.64,178.956,163.867z"/>
		<path fill="#010001" d="M163.51,170.337c-0.888-1.165-1.052-2.534-0.364-3.059l-12.983,10.933c0.665-0.079,1.461-0.145,2.018,0.21
			c0.888,0.565,0.719,1.15,0.875,2.027c0.011,0.062,0.021,0.131,0.03,0.194l13.084-9.04l-0.001-0.002
			C165.453,171.918,164.321,171.402,163.51,170.337z"/>
		<polygon fill="#666666" points="178.221,162.906 179.596,161.916 178.221,162.906 		"/>
		<path fill="#666666" d="M182.247,159.932c-0.852,0.294-2.137-0.326-3.066-1.545c-1.055-1.383-1.249-3.009-0.433-3.631
			l-15.407,12.42c-0.067,0.029-0.136,0.058-0.195,0.103c-0.688,0.524-0.523,1.894,0.364,3.059c0.812,1.064,1.943,1.581,2.658,1.264
			c0.067-0.03,0.136-0.058,0.195-0.103c0.06-0.046,0.104-0.105,0.15-0.161l11.707-8.432l1.375-0.99l2.841-2.067L182.247,159.932z"/>
		<path fill="#040304" d="M182.638,158.906L182.638,158.906c-0.053,0.07-0.109,0.138-0.18,0.191c-0.18,0.137-0.402,0.193-0.646,0.19
			c-0.656-0.009-1.476-0.49-2.099-1.307c-0.728-0.954-0.944-2.046-0.585-2.663c0.063-0.107,0.137-0.204,0.235-0.279
			c0.07-0.054,0.15-0.09,0.232-0.122l-0.027-0.035l0.432-0.297c-0.479-0.12-0.924-0.078-1.252,0.172
			c-0.816,0.622-0.622,2.248,0.433,3.631c0.93,1.219,2.215,1.839,3.066,1.545c0.115-0.04,0.224-0.094,0.32-0.168
			c0.339-0.258,0.494-0.694,0.495-1.21L182.638,158.906z"/>
		<path fill="#666665" d="M183.271,155.267c-0.786-1.031-0.931-2.244-0.322-2.708L180,154.584l-0.432,0.297l0.027,0.035
			c-0.082,0.032-0.162,0.068-0.232,0.122c-0.099,0.075-0.173,0.172-0.235,0.279c-0.359,0.617-0.143,1.709,0.585,2.663
			c0.623,0.816,1.442,1.298,2.099,1.307c0.244,0.003,0.467-0.054,0.646-0.19c0.07-0.054,0.127-0.121,0.179-0.192l0.001,0.001
			l0.425-0.352l2.735-2.26C185.189,156.758,184.058,156.298,183.271,155.267z"/>
		
			<ellipse transform="matrix(0.7952 -0.6064 0.6064 0.7952 -55.8766 143.4221)" fill="#040304" cx="184.374" cy="154.427" rx="1.386" ry="2.349"/>
	</g>
</g>
</svg>
