<?xml version="1.0" encoding="utf-8"?>
<!-- Generator: Adobe Illustrator 16.0.0, SVG Export Plug-In . SVG Version: 6.00 Build 0)  -->
<!DOCTYPE svg PUBLIC "-//W3C//DTD SVG 1.1//EN" "http://www.w3.org/Graphics/SVG/1.1/DTD/svg11.dtd">
<svg version="1.1" id="Layer_2" xmlns="http://www.w3.org/2000/svg" xmlns:xlink="http://www.w3.org/1999/xlink" x="0px" y="0px"
	 viewBox="309.64 0 84.344 93.047" enable-background="new 309.64 0 84.344 93.047"
	 xml:space="preserve">
<g id="Tasse_1_">
	<g id="Tasse">
		<circle id="circle4035" fill="#FFFFFF" cx="351.779" cy="50.944" r="42.139"/>
		<circle id="circle4037" fill="#E3E3E3" cx="351.779" cy="50.944" r="39.723"/>
		<circle id="circle4039" fill="#FFFFFF" cx="351.778" cy="50.944" r="30.597"/>
		<circle id="circle4041" fill="#ABABAB" cx="351.779" cy="50.945" r="28.162"/>

			<rect id="rect4043" x="359.018" y="4.656" transform="matrix(-0.9533 -0.302 0.302 -0.9533 706.3535 136.7467)" fill="#FFFFFF" width="9.461" height="18.222"/>
		<circle id="circle4045" fill="#FFFFFF" cx="366.534" cy="4.915" r="4.761"/>
		<path id="path4047" fill="#E3E3E3" d="M370.252,5.643c0-2.159-1.749-3.909-3.904-3.909c-1.885,0-3.45,1.331-3.823,3.104
			l-0.015-0.005l-5.065,15.987l7.438,2.355l5.063-15.987l-0.011-0.004C370.138,6.712,370.252,6.191,370.252,5.643z"/>
	</g>
	<g id="CafeFixe">
		<path id="path4050" fill="#421900" d="M375.235,56.778c-0.021-0.013-0.034-0.038-0.061-0.043c-0.598-0.098-1.187-0.287-1.789-0.07
			c-1.382,1.264-2.948,2.253-4.611,3.084c-1.983,0.99-4.041,1.799-6.245,2.188c-0.508,0.092-1.025,0.162-1.534,0.276
			c-1.651,0.369-3.337,0.342-5.009,0.288c-1.657-0.057-3.298-0.319-4.929-0.678c-0.895-0.195-1.757-0.452-2.619-0.737
			c-2.284-0.763-4.419-1.827-6.413-3.166c-1.521-1.018-2.916-2.182-4.183-3.502c-1.284-1.346-2.48-2.769-3.474-4.337
			c-1.173-1.859-2.174-3.815-2.898-5.901c-0.063-0.178-0.107-0.411-0.359-0.397c-0.229,0.014-0.294,0.23-0.36,0.414
			c-0.126,0.348-0.225,0.701-0.439,1.011c-0.359-0.271-0.808-0.251-1.216-0.36c-0.023,0.02-0.052,0.038-0.072,0.058
			c0,0,0,0.001,0,0.002l-2.612-0.649c-1.95,7.841-0.267,16.512,5.34,23.25c9.292,11.168,25.776,12.775,36.816,3.592
			c4.646-3.866,7.766-8.807,9.058-14.157L375.235,56.778L375.235,56.778z"/>
		<path id="path4052" fill="#200B00" d="M371.73,34.239c-8.906-10.706-25.772-12.776-36.813-3.592
			c-4.383,3.646-7.222,8.447-8.503,13.606l2.941,0.732l0.006,0.001c0.177,0.077,0.364,0.12,0.556,0.152l2.004,0.546
			c0.455,1.049,0.994,2.062,1.521,3.076c0.605,1.172,1.354,2.248,2.174,3.271c0.863,1.08,1.722,2.162,2.727,3.12
			c0.649,0.624,1.322,1.241,2.05,1.773c1.354,0.992,2.759,1.914,4.268,2.684c0.92,0.475,1.872,0.874,2.819,1.277
			c0.346,0.146,0.727,0.27,1.101,0.373c0.372,0.104,0.754,0.216,1.098,0.394c0.359,0.188,0.78,0.275,1.116,0.23
			c0.333-0.045,0.477,0.247,0.81,0.205c0.449-0.06,0.927,0.188,1.396,0.242c0.896,0.104,1.794,0.207,2.694,0.272
			c1.314,0.102,2.629,0.073,3.921-0.066c1.552-0.168,3.094-0.442,4.608-0.879c1.342-0.387,2.626-0.896,3.896-1.443
			c1.492-0.646,2.836-1.549,4.165-2.465c0.431-0.293,0.897-0.586,1.167-1.072c0.371,0.023,0.745,0.031,1.112,0.074
			c0.281,0.034,0.6-0.053,0.812,0.229c0.002-0.062,0.024-0.131,0.043-0.195l2.211,0.146
			C379.406,49.576,377.721,41.437,371.73,34.239L371.73,34.239z"/>
		<path id="Cafe3" fill="#684733" d="M339.748,36.455c1.083-0.936,2.293-1.668,3.546-2.368c1.915-1.074,3.944-1.746,6.104-2.019
			c1.697-0.214,3.393-0.124,5.088,0.194c1.783,0.332,3.451,0.966,5.039,1.785c1.539,0.795,2.931,1.828,4.26,2.956
			c1.019,0.865,1.947,1.816,2.785,2.829c0.929,1.11,1.849,2.254,2.566,3.537c0.627,1.127,1.271,2.248,1.74,3.448
			c0.764,1.974,1.215,4,0.683,6.113c-0.596,2.353-2.639,2.706-4.416,2.202c-1.067-0.302-2.043-0.807-2.989-1.346
			c-0.681-0.389-1.283-0.907-1.941-1.326c-0.613-0.388-1.191-0.82-1.842-1.17c-0.52-0.283-1.058-0.633-1.595-0.907
			c-1.849-0.944-3.8-1.584-5.854-1.959c-1.446-0.267-2.899-0.377-4.354-0.522c-0.945-0.095-1.888-0.107-2.83-0.201
			c-1.09-0.108-2.179-0.302-3.257-0.507c-1.266-0.24-2.49-0.618-3.618-1.24c-1.252-0.691-2.389-1.511-2.742-3.028
			c-0.186-0.778-0.093-1.524,0.186-2.265c0.413-1.075,1.114-1.945,1.876-2.788C338.658,37.345,339.212,36.917,339.748,36.455
			L339.748,36.455z"/>
	</g>
	<g id="CafeMouv">
		<path id="path4056" fill="#935A28" d="M371.973,34.054c-9.005-10.825-26.061-12.918-37.224-3.631
			c-11.159,9.286-12.596,25.969-3.197,37.263c9.396,11.291,26.063,12.918,37.223,3.632C379.934,62.03,382.427,46.623,371.973,34.054
			z M375.654,57.053c-0.001-0.001-0.004-0.001-0.005-0.003c0.001,0.002,0.001,0.007,0.004,0.009
			c-0.707,2.959-2.298,5.454-4.13,7.817c-0.979,1.26-2.07,2.419-3.27,3.464c-1.917,1.668-4.159,2.785-6.514,3.704
			c-0.093,0.034-0.177,0.085-0.266,0.129c-0.663,0.176-1.327,0.379-2,0.521c-1.122,0.241-2.222,0.146-3.147-0.581
			c-2.095-1.641-4.51-1.932-7.05-1.804c-1.22,0.063-2.415,0.298-3.609,0.506c-1.56,0.272-3.023,0.01-4.251-0.964
			c-1.545-1.22-3.29-2.039-5.033-2.886c-0.996-0.721-1.947-1.487-2.697-2.485c-0.77-1.025-1.556-2.049-2.11-3.192
			c-0.47-0.964-1.071-1.732-1.455-2.649c-0.669-1.601-1.243-3.044-1.611-4.691c-0.101-0.444-0.143-0.903-0.213-1.355
			c-0.015-0.023-0.029-0.048-0.05-0.07c0.032-0.532-0.092-1.082-0.079-1.632c0.025-0.019-0.021,0.021,0,0
			c-0.007-0.376-0.015-0.75-0.022-1.125c0.027-0.066-0.029,0.068,0,0c-0.063-0.729,0.038-1.868,0.176-2.584
			c-0.017-0.07,0.016,0.071,0,0c0.118-0.576,0.232-1.152,0.35-1.731c0.01-0.049,0.015-0.098,0.02-0.146
			c0.08-0.146,0.157-0.29,0.109-0.464c0.021-0.02,0.048-0.038,0.07-0.06c0.005,0.001,0.009,0.001,0.015,0.002
			c-0.006-0.002-0.009-0.003-0.012-0.005c0.958-3.765,2.812-7.027,5.479-9.841c3.434-3.616,7.566-6.018,12.438-7.108
			c2.449-0.55,4.932-0.655,7.381-0.007c0.952,0.252,1.862,0.668,2.798,1.001c0.442,0.158,0.899,0.29,1.347,0.45
			c1.195,0.432,2.051,1.355,3.035,2.091c0.441,0.33,0.844,0.717,1.324,0.989c1.354,1.282,2.837,2.399,4.293,3.556
			c1.397,1.111,2.963,1.992,4.373,3.087c0.293,0.227,0.558,0.488,0.834,0.733c0.435,0.429,0.822,0.896,1.162,1.399
			c0.902,1.3,1.566,2.721,2.105,4.205c0.412,1.137,0.664,2.309,0.825,3.505c0.011,0.093,0.002,0.188,0.009,0.286
			c0.343,4.083-0.56,7.665-0.56,7.665C375.702,56.874,375.657,56.97,375.654,57.053L375.654,57.053z"/>
		<g id="Mousse">
			<path id="path4059" fill="#C49560" d="M365.902,72.803c0.898-0.879,1.751-1.785,2.457-2.821c0.114-0.165,0.218-0.331,0.252-0.528
				c0.024-0.15,0.046-0.314-0.077-0.421c-0.147-0.121-0.313-0.051-0.455,0.049c-0.313,0.211-0.601,0.463-0.885,0.711
				c-1.617,1.417-3.543,2.037-5.639,2.235c-0.391-0.014-0.736,0.159-1.098,0.271c-1.647,0.517-3.174,0.452-4.613-0.681
				c-1.106-0.871-2.438-1.269-3.85-1.411c-1.919-0.195-3.814-0.064-5.69,0.341c-1.917,0.415-3.685,0.159-5.214-1.112
				c-1.416-1.176-3.096-1.862-4.732-2.619c-1.064-0.27-2.001-0.771-2.689-1.638c-0.692-0.872-1.271-1.835-2.099-2.604
				c-0.253-0.231-0.546-0.438-0.727-0.732c-0.904-1.431-1.897-2.813-2.462-4.432c-0.146-0.42-0.335-0.827-0.597-1.189
				c-0.104-0.146-0.229-0.299-0.447-0.233c-0.183,0.057-0.225,0.228-0.253,0.394c-0.09,0.556-0.063,1.113,0.051,1.669
				c0.233,1.162,0.589,2.292,0.996,3.408c0.722,1.979,1.653,3.852,2.846,5.53c-0.098-0.072-0.131-0.284-0.34-0.321
				c0.011,0.145,0.107,0.235,0.186,0.34c1.342,1.689,2.835,3.239,4.521,4.589c3.271,2.629,6.991,4.348,11.1,5.229
				c0.526,0.104,1.041,0.271,1.59,0.225c0.069,0.035,0.136,0.098,0.209,0.104c1.021,0.117,2.036,0.246,3.064,0.252
				c0.233-0.013,0.471,0.047,0.698-0.054c0.14,0.058,0.28,0.063,0.428,0.03l0,0c0.657-0.004,1.325,0.03,1.973-0.124l0,0
				c0.269-0.04,0.525-0.079,0.792-0.12l0,0c0.506-0.003,1.008-0.045,1.489-0.225c0.146-0.006,0.298,0.009,0.438-0.021
				c2.202-0.484,4.338-1.167,6.364-2.17C364.331,74.129,365.159,73.53,365.902,72.803L365.902,72.803z M356.269,74.393
				c0.292-0.129,0.589-0.075,0.83,0.144c0.308,0.273,0.357,0.609,0.188,0.983c-0.25,0.461-0.697,0.392-1.105,0.425
				c-0.074-0.212-0.243-0.32-0.46-0.375c0.003,0,0.003-0.001,0.003-0.002c0.025-0.063,0.042-0.129,0.039-0.195
				C355.721,74.935,355.856,74.58,356.269,74.393L356.269,74.393z M352.526,76.264c-0.069,0.073-0.08,0.17-0.093,0.265
				c-0.152-0.017-0.305,0.003-0.453,0.012c-0.019-0.089-0.022-0.186-0.069-0.268C352.114,76.252,352.318,76.212,352.526,76.264
				L352.526,76.264z M355.445,75.927c0.002,0.218-0.111,0.399-0.189,0.591C354.958,76.097,354.969,76.091,355.445,75.927z
				 M353.158,73.885c0.482-0.231,1.103-0.055,1.439,0.42c0.314,0.444,0.232,0.902,0.024,1.359c-0.021,0.063-0.032,0.134-0.021,0.205
				c0.001,0.006,0.001,0.011,0.001,0.016c-0.2,0.018-0.324,0.165-0.452,0.308c-0.021,0.03-0.038,0.062-0.059,0.086
				c-0.007-0.004-0.011-0.008-0.016-0.014c-0.307-0.097-0.609-0.083-0.915-0.01c-0.017-0.021-0.03-0.043-0.043-0.065
				c-0.12-0.135-0.244-0.261-0.434-0.264c0-0.015,0-0.028-0.004-0.044c-0.012-0.046-0.026-0.093-0.051-0.137
				c-0.083-0.144-0.161-0.285-0.195-0.449C352.3,74.691,352.559,74.176,353.158,73.885z M351.581,75.168
				c0.049,0.075,0.097,0.148,0.156,0.217c-0.169,0.213-0.156,0.562-0.477,0.666c-0.233,0.115-0.49-0.046-0.729,0.046
				c-0.026-0.17-0.154-0.306-0.189-0.476c-0.035-0.245-0.029-0.483,0.128-0.692C350.988,74.613,351.176,74.653,351.581,75.168
				L351.581,75.168z M347.87,76.217c-0.395,0.054-0.708-0.213-1.086-0.204c0,0-0.005,0-0.005,0.001
				c0.01-0.019,0.021-0.036,0.029-0.052c-0.033-0.119-0.13-0.189-0.221-0.269c-0.912-1.064-0.583-2.551,0.671-2.97
				c0.699-0.234,1.347-0.098,1.861,0.423c0.578,0.584,0.66,1.29,0.363,2.049c-0.023,0.069-0.031,0.141-0.031,0.21
				c0.003,0.004,0.003,0.008,0.003,0.011c-0.111,0.009-0.188,0.095-0.256,0.179C348.857,76.018,348.386,76.145,347.87,76.217z
				 M349.496,76.233c-0.012,0-0.022,0-0.035-0.001c0.073-0.09,0.104-0.188,0.083-0.301l0.007,0.001
				c0.137,0.063,0.424-0.021,0.353,0.252C349.844,76.406,349.637,76.244,349.496,76.233L349.496,76.233z"/>
			<path id="path4061" fill="#C49560" d="M352.212,25.932c0.849,0.33,1.613,0.835,2.393,0.877l0.006-0.002l0,0l0,0
				c0.174,0.086,0.346,0.197,0.526,0.254c3.063,0.961,5.398,2.956,7.532,5.245c-0.016,0.254,0.182,0.371,0.334,0.514
				c1.128,1.036,2.353,1.949,3.536,2.912c1.785,1.451,3.854,2.519,5.57,4.058c0.336,0.157,0.424,0.625,0.848,0.68
				c0.059,0.03,0.124,0.049,0.169,0.094c0.896,0.987,1.692,2.048,2.362,3.203c0.762,1.32,1.18,2.771,1.583,4.227
				c0.071,0.255,0.083,0.532,0.316,0.806c0.025-0.15,0.052-0.229,0.053-0.308c0.021-1.676-0.104-3.344-0.354-4.998
				c-0.031-0.221-0.192-0.428-0.041-0.654c-0.039-0.16-0.065-0.323-0.119-0.479c-0.998-2.746-2.366-5.298-4.143-7.62
				c-0.99-1.295-2.122-2.464-3.332-3.554c-1.872-1.691-3.934-3.109-6.245-4.148c-2.266-1.021-4.596-1.843-7.082-2.155
				c-0.522-0.133-1.064-0.166-1.6-0.225l0,0c-0.27-0.11-0.557-0.021-0.829-0.076c-0.587-0.024-1.176-0.049-1.76-0.07
				c-0.256,0.001-0.512,0.003-0.77,0.005c-0.279,0.057-2.189,0.2-2.204,0.338C348.925,25.239,350.542,24.836,352.212,25.932"/>
		</g>
		<g id="Bulles_x5F_top">
			<path id="path4064" fill="#2A0E01" d="M367.136,33.1c-0.773,0.634-1.856,0.529-2.502-0.244c-0.652-0.775-0.563-1.934,0.193-2.556
				c0.789-0.65,1.938-0.533,2.587,0.263C368.062,31.353,367.941,32.438,367.136,33.1L367.136,33.1z"/>
			<path id="path4066" fill="#2B0F01" d="M362.604,28.486c0.441-0.357,1.041-0.294,1.385,0.15c0.318,0.408,0.249,1.065-0.146,1.369
				c-0.418,0.323-1.041,0.266-1.375-0.126C362.112,29.451,362.167,28.836,362.604,28.486z"/>
			<path id="path4068" fill="#2B0F01" d="M369.283,33.42c0.354,0.442,0.296,1-0.137,1.349c-0.454,0.364-1.022,0.297-1.385-0.167
				c-0.327-0.428-0.258-1.04,0.169-1.363C368.359,32.912,368.944,32.99,369.283,33.42L369.283,33.42z"/>
			<path id="path4070" fill="#2C1003" d="M370.642,35.106c0.31-0.271,0.832-0.23,1.104,0.082c0.285,0.324,0.251,0.812-0.08,1.095
				c-0.324,0.284-0.824,0.258-1.103-0.063C370.302,35.92,370.34,35.374,370.642,35.106L370.642,35.106z"/>
			<path id="path4072" fill="#2C1003" d="M361.358,28.565c0.243,0.279,0.215,0.726-0.064,0.972c-0.279,0.243-0.723,0.221-0.969-0.06
				c-0.261-0.291-0.229-0.688,0.072-0.958C360.689,28.259,361.107,28.278,361.358,28.565z"/>
			<path id="path4074" fill="#2E1105" d="M372.66,38.406c-0.305,0.259-0.715,0.228-0.93-0.029c-0.207-0.249-0.185-0.723,0.073-0.896
				c0.303-0.201,0.629-0.228,0.883,0.082C372.933,37.86,372.885,38.167,372.66,38.406L372.66,38.406z"/>
			<path id="path4076" fill="#34190C" d="M359.475,27.846c-0.167-0.231-0.155-0.512,0.071-0.758
				c0.172-0.179,0.778-0.102,0.896,0.115c0.142,0.265,0.155,0.533-0.104,0.757C360.083,28.18,359.72,28.15,359.475,27.846
				L359.475,27.846z"/>
			<path id="path4078" fill="#2C1005" d="M369.787,36.168c-0.266,0.164-0.523,0.14-0.702-0.1c-0.163-0.212-0.17-0.468,0.063-0.657
				c0.238-0.2,0.483-0.18,0.688,0.058C370.05,35.712,369.975,35.946,369.787,36.168L369.787,36.168z"/>
			<path id="path4080" fill="#301205" d="M363.7,30.924c0.126,0.212,0.105,0.426-0.086,0.571c-0.188,0.146-0.406,0.113-0.562-0.086
				c-0.164-0.212-0.123-0.426,0.067-0.563C363.306,30.712,363.525,30.738,363.7,30.924z"/>
			<path id="path4082" fill="#331507" d="M357.86,27.445c-0.125-0.187-0.148-0.375,0.021-0.532c0.185-0.172,0.399-0.162,0.567,0.021
				c0.158,0.169,0.137,0.376-0.02,0.531C358.248,27.642,358.043,27.606,357.86,27.445z"/>
			<path id="path4084" fill="#331507" d="M373.893,39.566c-0.196,0.141-0.358,0.111-0.491-0.047
				c-0.133-0.159-0.137-0.331,0.031-0.468c0.174-0.147,0.372-0.13,0.507,0.051C374.064,39.261,374.021,39.438,373.893,39.566z"/>
			<path id="path4086" fill="#2E1205" d="M369.152,31.742c0.109,0.168,0.121,0.341-0.044,0.476c-0.16,0.131-0.346,0.123-0.479-0.037
				c-0.128-0.157-0.113-0.346,0.04-0.479C368.83,31.558,369.002,31.6,369.152,31.742z"/>
			<path id="path4088" fill="#623716" d="M366.95,32.865c-0.664,0.56-1.694,0.424-2.079-0.251c-0.077-0.138-0.188-0.315-0.063-0.448
				c0.098-0.104,0.247,0.024,0.357,0.081c0.65,0.32,1.253,0.263,1.819-0.187c0.088-0.07,0.184-0.181,0.305-0.11
				c0.149,0.089,0.055,0.229,0.023,0.351C367.256,32.542,367.152,32.761,366.95,32.865L366.95,32.865z"/>
			<path id="path4090" fill="#F4EBDE" d="M365.702,30.416c0.268-0.153,0.549-0.15,0.762,0.123c0.228,0.293,0.183,0.597-0.104,0.817
				c-0.271,0.212-0.583,0.155-0.786-0.099C365.353,30.982,365.4,30.679,365.702,30.416z"/>
		</g>
		<g id="Bulles_x5F_down">
			<path id="path4093" fill="#2A0E01" d="M337.597,70.795c-0.477,0.377-1.172,0.304-1.551-0.159
				c-0.39-0.477-0.313-1.194,0.167-1.593c0.467-0.39,1.199-0.311,1.583,0.174C338.187,69.708,338.097,70.396,337.597,70.795
				L337.597,70.795z"/>
			<path id="path4095" fill="#2B0F02" d="M349.527,75.419c0.006-0.048,0.007-0.097,0.01-0.143c0.414-0.707,0.311-1.392-0.146-2.019
				c-0.638-0.88-1.922-1.025-2.748-0.341c-0.917,0.756-0.961,1.972-0.105,2.897c0.08,0.065,0.162,0.13,0.248,0.194
				c0.457,0.379,0.975,0.397,1.53,0.271C348.844,76.16,349.205,75.822,349.527,75.419L349.527,75.419z"/>
			<path id="path4097" fill="#2C1002" d="M352.477,73.725c-0.544,0.457-1.329,0.396-1.76-0.141
				c-0.424-0.523-0.356-1.304,0.148-1.735c0.528-0.45,1.313-0.379,1.765,0.164C353.079,72.553,353.017,73.274,352.477,73.725
				L352.477,73.725z"/>
			<path id="path4099" fill="#311305" d="M343.681,73.965c-0.4-0.479-0.344-1.138,0.135-1.528c0.475-0.389,1.157-0.322,1.532,0.15
				c0.357,0.448,0.293,1.146-0.142,1.509C344.73,74.5,344.078,74.442,343.681,73.965z"/>
			<path id="path4101" fill="#2B0F01" d="M341.792,74.015c-0.374,0.309-0.915,0.264-1.233-0.104
				c-0.309-0.354-0.258-0.927,0.101-1.241c0.375-0.33,0.965-0.271,1.276,0.12C342.237,73.177,342.177,73.695,341.792,74.015z"/>
			<path id="path4103" fill="#2B0F01" d="M340.304,70.678c0.3,0.348,0.25,0.88-0.105,1.181c-0.361,0.307-0.884,0.257-1.182-0.104
				c-0.273-0.34-0.231-0.86,0.091-1.152C339.438,70.306,340.014,70.344,340.304,70.678z"/>
			<path id="path4105" fill="#2C1004" d="M359.991,74.792c-0.29,0.229-0.688,0.188-0.924-0.091c-0.241-0.291-0.21-0.735,0.073-0.972
				c0.291-0.237,0.722-0.177,0.96,0.142C360.33,74.176,360.283,74.563,359.991,74.792L359.991,74.792z"/>
			<path id="path4107" fill="#2D1104" d="M334.609,67.38c0.158,0.204,0.115,0.521-0.174,0.751c-0.29,0.229-0.615,0.197-0.868-0.103
				c-0.223-0.261-0.184-0.69,0.094-0.869C333.962,66.96,334.273,66.945,334.609,67.38L334.609,67.38z"/>
			<path id="path4109" fill="#2D1103" d="M362.205,73.875c-0.305,0.174-0.595,0.183-0.816-0.119c-0.22-0.288-0.202-0.575,0.08-0.821
				c0.254-0.22,0.682-0.176,0.856,0.101C362.528,73.34,362.455,73.619,362.205,73.875z"/>
			<path id="path4111" fill="#391E11" d="M342.491,73.891c0.251-0.177,0.503-0.174,0.722,0.084c0.219,0.245,0.177,0.646-0.091,0.823
				c-0.306,0.206-0.59,0.084-0.777-0.156C342.145,74.389,342.226,74.114,342.491,73.891z"/>
			<path id="path4113" fill="#2E1205" d="M354.138,73.229c-0.182-0.268-0.191-0.535,0.061-0.745
				c0.248-0.209,0.528-0.182,0.732,0.071c0.188,0.229,0.17,0.5-0.053,0.703C354.637,73.481,354.376,73.433,354.138,73.229z"/>
			<path id="path4115" fill="#2D1003" d="M349.879,72.432c-0.315,0.238-0.563,0.166-0.758-0.089
				c-0.189-0.252-0.132-0.493,0.109-0.688c0.276-0.22,0.526-0.144,0.721,0.111C350.144,72.021,350.076,72.26,349.879,72.432z"/>
			<path id="path4117" fill="#2D1105" d="M331.999,65.254c0.192-0.146,0.434-0.167,0.646,0.079c0.208,0.247,0.146,0.508-0.07,0.691
				c-0.229,0.199-0.508,0.149-0.69-0.083C331.718,65.734,331.722,65.488,331.999,65.254z"/>
			<path id="path4119" fill="#2E1205" d="M334.482,69.437c-0.197-0.255-0.178-0.484,0.054-0.654
				c0.217-0.156,0.465-0.169,0.647,0.075c0.169,0.229,0.143,0.475-0.075,0.648C334.879,69.689,334.652,69.636,334.482,69.437
				L334.482,69.437z"/>
			<path id="path4121" fill="#301305" d="M341.593,71.985c-0.245,0.151-0.471,0.163-0.663-0.068
				c-0.181-0.218-0.155-0.422,0.055-0.604c0.229-0.198,0.467-0.176,0.645,0.05C341.79,71.563,341.768,71.79,341.593,71.985z"/>
			<path id="path4123" fill="#321608" d="M358.7,75.725c-0.223,0.15-0.446,0.119-0.614-0.08c-0.169-0.202-0.167-0.429,0.063-0.604
				c0.217-0.167,0.438-0.148,0.609,0.058C358.936,75.311,358.873,75.526,358.7,75.725z"/>
			<path id="path4125" fill="#311306" d="M332.737,66.807c0.165,0.251,0.127,0.466-0.087,0.622c-0.218,0.16-0.457,0.122-0.611-0.092
				c-0.157-0.213-0.114-0.453,0.101-0.609C332.351,66.571,332.569,66.621,332.737,66.807L332.737,66.807z"/>
			<path id="path4127" fill="#321507" d="M363.642,73.035c0.192,0.232,0.172,0.46-0.018,0.636c-0.2,0.189-0.459,0.135-0.622-0.047
				c-0.169-0.188-0.178-0.422,0.046-0.606C363.26,72.84,363.469,72.843,363.642,73.035z"/>
			<path id="path4129" fill="#2C1003" d="M338.208,72.211c-0.23,0.135-0.462,0.116-0.614-0.091
				c-0.149-0.201-0.145-0.443,0.083-0.611c0.218-0.164,0.454-0.119,0.607,0.084C338.443,71.796,338.409,72.024,338.208,72.211z"/>
			<path id="path4131" fill="#2B0F02" d="M357.388,75.573c0.229-0.439,0.146-0.836-0.22-1.151c-0.313-0.276-0.689-0.318-1.051-0.103
				c-0.412,0.249-0.566,0.622-0.436,1.1c0,0.047,0,0.095,0.002,0.143c0.172,0.155,0.35,0.312,0.521,0.464
				C356.689,76.105,357.122,76.062,357.388,75.573z"/>
			<path id="path4133" fill="#301407" d="M351.788,75.331c-0.021-0.07-0.046-0.139-0.065-0.207c-0.426-0.617-0.815-0.69-1.361-0.255
				c-0.158,0.227-0.188,0.479-0.156,0.744c0.035,0.208,0.158,0.358,0.317,0.486c0.247,0.092,0.49,0.188,0.753,0.06l0,0l0,0
				C351.712,76.044,351.735,75.678,351.788,75.331z"/>
			<path id="path4135" fill="#2F1205" d="M331.25,65.222c-0.204,0.148-0.389,0.129-0.537-0.046
				c-0.133-0.156-0.136-0.341,0.017-0.486c0.168-0.159,0.354-0.166,0.52,0.015C331.408,64.878,331.377,65.056,331.25,65.222z"/>
			<path id="path4137" fill="#442819" d="M344.901,75.093c-0.095-0.198,0.005-0.359,0.146-0.468c0.15-0.116,0.319-0.056,0.426,0.101
				c0.116,0.172,0.097,0.361-0.075,0.478S345.057,75.198,344.901,75.093L344.901,75.093z"/>
			<path id="path4139" fill="#321405" d="M353.727,72.489c-0.168,0.09-0.352,0.142-0.481-0.048c-0.119-0.17-0.094-0.342,0.08-0.472
				c0.155-0.114,0.305-0.11,0.438,0.036C353.914,72.178,353.853,72.337,353.727,72.489L353.727,72.489z"/>
			<path id="path4141" fill="#523729" d="M355.445,75.9c0.262,0.315,0.08,0.491-0.198,0.642c-0.237-0.045-0.401-0.173-0.339-0.432
				C354.978,75.822,355.203,75.817,355.445,75.9L355.445,75.9z"/>
			<path id="path4143" fill="#391D0F" d="M349.445,76.253c0-0.128,0.016-0.25,0.09-0.359c0.212-0.124,0.402-0.146,0.532,0.106
				c0.074,0.149,0.027,0.306-0.097,0.395C349.753,76.544,349.574,76.476,349.445,76.253z"/>
			<path id="path4145" fill="#37180A" d="M361.238,74.776c-0.17,0.102-0.329,0.123-0.473-0.054
				c-0.125-0.152-0.116-0.304,0.013-0.437c0.154-0.157,0.347-0.132,0.487,0.003C361.414,74.437,361.354,74.614,361.238,74.776z"/>
			<path id="path4147" fill="#2F1308" d="M352.526,76.547c-0.218,0.228-0.43,0.181-0.646-0.006c0.011-0.095,0.019-0.188,0.021-0.28
				c0.213-0.167,0.42-0.354,0.646-0.018C352.54,76.342,352.534,76.444,352.526,76.547z"/>
			<path id="path4149" fill="#361808" d="M358.386,74.448c-0.147,0.083-0.306,0.122-0.438-0.029
				c-0.124-0.146-0.116-0.315,0.021-0.438c0.135-0.122,0.294-0.13,0.43,0.028C358.528,74.155,358.518,74.299,358.386,74.448
				L358.386,74.448z"/>
			<path id="path4151" fill="#381C0B" d="M342.374,72.512c-0.081-0.144-0.086-0.287,0.044-0.394c0.114-0.093,0.261-0.08,0.354,0.02
				c0.111,0.117,0.121,0.271-0.003,0.389C342.641,72.659,342.509,72.595,342.374,72.512z"/>
			<path id="path4153" fill="#331607" d="M331.141,64.059c-0.128,0.079-0.254,0.091-0.36-0.022c-0.12-0.138-0.105-0.285,0.024-0.391
				c0.104-0.085,0.241-0.105,0.351,0.023C331.268,63.804,331.255,63.934,331.141,64.059L331.141,64.059z"/>
			<path id="path4155" fill="#341606" d="M345.715,72.38c-0.095-0.128-0.095-0.266,0.031-0.377c0.114-0.104,0.234-0.074,0.342,0.028
				c0.125,0.13,0.115,0.264-0.023,0.369C345.955,72.486,345.83,72.509,345.715,72.38z"/>
			<path id="path4157" fill="#F7EEE1" d="M347.363,73.921c-0.173-0.233-0.173-0.52,0.088-0.778c0.261-0.257,0.632-0.24,0.867,0.035
				c0.241,0.285,0.219,0.572-0.033,0.833C348.039,74.261,347.643,74.239,347.363,73.921z"/>
			<path id="path4159" fill="#623716" d="M351.038,73.518c-0.053-0.063-0.106-0.123-0.156-0.188
				c-0.055-0.068-0.085-0.156-0.026-0.227c0.061-0.073,0.147-0.041,0.216,0.016c0.386,0.323,0.783,0.231,1.18,0.021
				c0.086-0.046,0.178-0.129,0.268-0.054c0.112,0.1,0.016,0.213-0.033,0.306C352.207,73.916,351.425,73.983,351.038,73.518z"/>
			<path id="path4161" fill="#F0E5D9" d="M352.019,72.554c-0.189,0.111-0.375,0.147-0.537-0.033
				c-0.167-0.188-0.172-0.389,0.021-0.562c0.181-0.155,0.385-0.129,0.538,0.019C352.219,72.156,352.164,72.365,352.019,72.554z"/>
			<path id="path4163" fill="#EFE5D8" d="M344.247,73.023c-0.121-0.19-0.116-0.358,0.059-0.486c0.168-0.133,0.347-0.107,0.464,0.063
				c0.114,0.161,0.118,0.354-0.059,0.479C344.552,73.194,344.375,73.156,344.247,73.023z"/>
			<path id="path4165" fill="#F1E6D9" d="M354.14,74.176c0.134,0.236,0.122,0.456-0.098,0.608c-0.187,0.133-0.414,0.14-0.565-0.057
				c-0.164-0.201-0.143-0.428,0.063-0.601C353.753,73.948,353.955,74.012,354.14,74.176z"/>
			<path id="path4167" fill="#2B1003" d="M354.138,76.322c0.173-0.146,0.35-0.293,0.523-0.439c0.008-0.049,0.018-0.1,0.021-0.146
				c0.393-0.574,0.316-1.284-0.184-1.729c-0.516-0.462-1.271-0.457-1.796,0.015c-0.549,0.495-0.599,1.178-0.139,1.813
				c0.02,0.031,0.032,0.067,0.049,0.103c0.159,0.12,0.317,0.241,0.479,0.361c0.035,0.002,0.071-0.005,0.097-0.025
				c0.291,0.118,0.583,0.098,0.876,0.003C354.084,76.294,354.106,76.312,354.138,76.322L354.138,76.322z"/>
			<path id="path4169" fill="#623716" d="M348.813,75.641c-0.666,0.558-1.69,0.423-2.077-0.252
				c-0.081-0.138-0.188-0.314-0.064-0.451c0.104-0.103,0.25,0.029,0.36,0.083c0.648,0.323,1.252,0.262,1.822-0.185
				c0.09-0.07,0.184-0.183,0.302-0.111c0.149,0.087,0.052,0.229,0.024,0.352C349.121,75.318,349.018,75.536,348.813,75.641
				L348.813,75.641z"/>
		</g>
	</g>
</g>
</svg>
